<svg xmlns="http://www.w3.org/2000/svg" xmlns:xlink="http://www.w3.org/1999/xlink" width="2" height="28" viewBox="0 0 2 28"><defs><path id="n1m3a" d="M981.17 724h9.8v19.65h-9.8z"/><path id="n1m3c" d="M981.32 743.5c.1.1.24.15.37.15a.5.5 0 0 0 .37-.16l8.76-9.27c.2-.22.2-.57 0-.78l-8.76-9.28a.5.5 0 0 0-.74 0c-.2.22-.2.56 0 .78l8.4 8.89-8.4 8.89c-.2.21-.2.56 0 .77"/><path id="n1m3d" d="M990.12 734.32h-26.65a.48.48 0 0 1-.47-.5c0-.27.2-.49.47-.49h26.65c.26 0 .47.22.47.5 0 .27-.21.49-.47.49"/><clipPath id="n1m3b"><use xlink:href="#n1m3a"/></clipPath></defs><g><g transform="translate(-977 -719)"/><g clip-path="url(#n1m3b)" transform="translate(-977 -719)"><use fill="#fa6a02" xlink:href="#n1m3c"/></g><g transform="translate(-977 -719)"><use fill="#fa6a02" xlink:href="#n1m3d"/></g></g></svg>