<svg xmlns="http://www.w3.org/2000/svg" xmlns:xlink="http://www.w3.org/1999/xlink" width="21" height="22" viewBox="0 0 21 22"><defs><path id="al8va" d="M969 1919.24h20.93v21.24H969z"/><path id="al8vc" d="M989.93 1920.07a.83.83 0 0 0-.83-.83h-19.27a.83.83 0 0 0-.83.83v19.58a.83.83 0 0 0 1.47.52l2.8-3.45h15.83c.46 0 .83-.37.83-.82zm-1.65 15h-15.42a.83.83 0 0 0-.64.3l-1.58 1.95v-16.43h17.63z"/><path id="al8vd" d="M978.64 1932.68h1.65v-6.21h-1.65z"/><path id="al8ve" d="M978.64 1925.37h1.65v-1.96h-1.65z"/><clipPath id="al8vb"><use xlink:href="#al8va"/></clipPath></defs><g><g transform="translate(-969 -1919)"><g><g/><g clip-path="url(#al8vb)"><use fill="#fff" xlink:href="#al8vc"/></g></g><g><use fill="#fff" xlink:href="#al8vd"/></g><g><use fill="#fff" xlink:href="#al8ve"/></g></g></g></svg>