<svg xmlns="http://www.w3.org/2000/svg" xmlns:xlink="http://www.w3.org/1999/xlink" width="29" height="29" viewBox="0 0 29 29"><defs><path id="rpyga" d="M991.83 687.48c1.23 0 2.17.94 2.17 2.18v16.16c0 1.24-.94 2.18-2.17 2.18h-24.65a2.14 2.14 0 0 1-2.18-2.18v-24.65c0-1.16.94-2.17 2.18-2.17h11.38a2.18 2.18 0 0 1 2.17 2.17v6.31zm-19.73 19.07v-4.86h-1.8a.73.73 0 0 0-.73.73v4.13zm3.98-4.13a.73.73 0 0 0-.72-.73h-1.8v4.86h2.52zm3.2-21.25a.73.73 0 0 0-.72-.72h-11.38a.73.73 0 0 0-.73.72v24.65c0 .44.36.73.72.73h1.02v-4.13c0-1.24.94-2.18 2.17-2.18h5.08c1.23 0 2.17.94 2.17 2.18v4.13h1.67zm13.27 8.49a.78.78 0 0 0-.72-.73h-11.1v17.62h11.1c.36 0 .72-.29.72-.72z"/><path id="rpygb" d="M976.83 683.93h-7.98c-.44 0-.73-.29-.73-.72 0-.44.29-.73.73-.73h7.98c.43 0 .73.29.73.72 0 .44-.3.73-.73.73"/><path id="rpygc" d="M976.83 687.55h-7.98c-.44 0-.73-.29-.73-.72 0-.44.29-.73.73-.73h7.98c.43 0 .73.29.73.72 0 .44-.3.73-.73.73"/><path id="rpygd" d="M976.83 691.18h-7.98c-.44 0-.73-.29-.73-.72 0-.44.29-.73.73-.73h7.98c.43 0 .73.29.73.72 0 .44-.3.73-.73.73"/><path id="rpyge" d="M976.83 694.8h-7.98c-.44 0-.73-.29-.73-.72 0-.44.29-.73.73-.73h7.98c.43 0 .73.29.73.72 0 .44-.3.73-.73.73"/><path id="rpygf" d="M990.6 692.63h-7.98c-.44 0-.73-.29-.73-.72 0-.44.29-.73.73-.73h7.98c.44 0 .73.29.73.72 0 .44-.3.73-.73.73"/><path id="rpygg" d="M990.6 696.25h-7.98c-.44 0-.73-.29-.73-.72 0-.44.29-.73.73-.73h7.98c.44 0 .73.29.73.72 0 .44-.3.73-.73.73"/><path id="rpygh" d="M990.6 699.88h-7.98c-.44 0-.73-.29-.73-.72 0-.44.29-.73.73-.73h7.98c.44 0 .73.29.73.72 0 .44-.3.73-.73.73"/></defs><g><g transform="translate(-965 -679)"><g><use fill="#fff" xlink:href="#rpyga"/></g><g><use fill="#fff" xlink:href="#rpygb"/></g><g><use fill="#fff" xlink:href="#rpygc"/></g><g><use fill="#fff" xlink:href="#rpygd"/></g><g><use fill="#fff" xlink:href="#rpyge"/></g><g><use fill="#fff" xlink:href="#rpygf"/></g><g><use fill="#fff" xlink:href="#rpygg"/></g><g><use fill="#fff" xlink:href="#rpygh"/></g></g></g></svg>