<svg xmlns="http://www.w3.org/2000/svg" xmlns:xlink="http://www.w3.org/1999/xlink" width="125" height="107" viewBox="0 0 125 107"><defs><path id="maodc" d="M123.25 692.55l-.01.4c-.01.28 0 .67-.05 1.2a21.51 21.51 0 0 1-1.2 5.9c-.08.25-.18.5-.28.76-.1.26-.2.53-.33.8a23.36 23.36 0 0 1-12.69 12.3 22.8 22.8 0 0 1-5.43 1.4c-.24.04-.48.05-.72.07l-.73.07c-.25 0-.5.02-.74.03l-.37.01H99.6l-.75-.05c-.51-.02-1.01-.08-1.52-.14-1-.14-2.02-.32-3.03-.6-.5-.13-1-.3-1.5-.47-.25-.08-.5-.18-.74-.27l-.37-.14-.37-.16a23.13 23.13 0 0 1-5.53-3.34l-.63-.53c-.21-.18-.4-.38-.61-.57l-.3-.28-.3-.3-.57-.6a23 23 0 0 1 0-30.97c.19-.22.39-.4.58-.6l.29-.3.3-.3.6-.55.64-.53a23.14 23.14 0 0 1 5.53-3.34l.37-.16.37-.14c.25-.1.5-.2.74-.28.5-.16 1-.33 1.5-.46 1-.28 2.02-.46 3.03-.6.5-.06 1-.13 1.51-.15l.75-.04h1.5l.72.04.74.06c.24.02.48.04.72.08a22.8 22.8 0 0 1 16.34 10.35 22.43 22.43 0 0 1 1.78 3.34c.13.27.22.54.33.8.1.26.2.51.28.77l.25.74.2.72c.52 1.88.68 3.4.75 4.44.05.52.04.92.05 1.18v.41zm-.1 0v-.4c-.01-.27 0-.67-.05-1.18a21.42 21.42 0 0 0-.96-5.13l-.26-.74c-.08-.26-.18-.5-.28-.77-.1-.26-.2-.53-.33-.79a22.69 22.69 0 0 0-12.7-12.03 22.42 22.42 0 0 0-5.36-1.28c-.23-.04-.47-.05-.7-.07l-.72-.05-.73-.02h-.72l-.73.02c-.25 0-.5.03-.74.05-.49.03-.98.1-1.47.16-.99.16-1.98.35-2.95.64-.49.13-.97.31-1.46.47l-.71.28-.36.14-.35.16a22.47 22.47 0 0 0 0 41.08l.35.16.36.14.72.28c.48.16.96.34 1.45.47.97.3 1.96.48 2.95.64.49.06.98.13 1.47.16l.73.05.74.02h.72l.73-.02.71-.05c.24-.02.48-.03.71-.07a22.42 22.42 0 0 0 18.06-13.31c.13-.26.22-.53.33-.79.1-.26.2-.51.28-.77l.26-.74.2-.71c.52-1.86.69-3.38.76-4.41.05-.52.04-.92.05-1.18v-.41z"/><path id="maodd" d="M100.5 718.14l-.47-.01c-.3-.02-.76 0-1.35-.06a24.55 24.55 0 0 1-5.06-.85l-.82-.23-.85-.29c-.29-.09-.58-.2-.88-.32-.3-.12-.6-.23-.9-.37a26.56 26.56 0 0 1-11.22-9.22 25.96 25.96 0 0 1-4.36-11.44l-.09-.83-.07-.83-.03-.84-.02-.42V692l.01-.84.05-.86c.03-.58.1-1.14.17-1.72.16-1.15.37-2.3.7-3.44.14-.58.34-1.14.52-1.71l.32-.85.16-.42.18-.41a26.32 26.32 0 0 1 3.8-6.29l.61-.72.64-.69.33-.34.34-.33c.22-.21.44-.44.68-.65.93-.85 1.94-1.63 3-2.35l.8-.53.82-.49.42-.24.43-.22a27.02 27.02 0 0 1 8.26-2.7l.96-.12c.32-.05.65-.06.97-.09.32-.02.65-.05.97-.05l1-.03.94.03.48.01.49.04.5.04.48.05.97.13a27.39 27.39 0 0 1 7.4 2.25 27.15 27.15 0 0 1 6.32 4.27l.68.66.34.32.33.35c.2.23.43.45.63.69l.6.71a26.3 26.3 0 0 1 3.82 6.29l.18.41.16.43.32.84c.18.57.38 1.13.52 1.7.32 1.15.53 2.3.7 3.45.06.58.14 1.15.16 1.72.02.29.05.57.05.85l.01.85v.44l-.01.41-.03.83-.07.83c-.03.28-.05.56-.1.83a25.95 25.95 0 0 1-11.76 18.64c-1.3.83-2.58 1.5-3.8 2.03-.3.14-.62.25-.91.37-.3.11-.6.23-.88.32l-.85.29-.82.23c-2.14.59-3.88.78-5.06.85-.59.06-1.05.04-1.35.06h-.47zm-.01-.09l.46-.01c.3-.02.76 0 1.35-.06 1.17-.08 2.9-.27 5.03-.86l.82-.24.84-.28c.3-.1.58-.21.88-.33.3-.12.6-.23.9-.37a25.89 25.89 0 0 0 13.73-14.49c.72-1.9 1.2-3.97 1.46-6.12.04-.26.05-.54.07-.8l.06-.82.02-.83.01-.41V692l-.03-.83c0-.28-.04-.56-.05-.84-.04-.56-.12-1.12-.19-1.68-.18-1.13-.4-2.25-.73-3.37-.15-.56-.35-1.1-.54-1.66l-.32-.82-.16-.4-.18-.4a25.64 25.64 0 0 0-46.86 0l-.18.4-.16.4-.32.82c-.19.56-.4 1.1-.54 1.66a25.35 25.35 0 0 0-.73 3.37c-.07.56-.15 1.12-.19 1.68l-.05.84-.03.83v.83l.03.83.06.81c.02.27.03.55.07.81a25.56 25.56 0 0 0 15.2 20.6c.3.15.6.26.9.38.29.12.58.24.87.33l.84.28.82.24c2.12.59 3.86.78 5.03.86.59.06 1.04.04 1.35.06l.46.01z"/><path id="maode" d="M133.95 692.38l-.01.6-.02.74-.01.48-.04.54a31.9 31.9 0 0 1-1.11 6.57l-.3 1.06-.37 1.1c-.12.39-.28.76-.43 1.15-.15.38-.3.78-.48 1.18a34.35 34.35 0 0 1-12 14.54 34.35 34.35 0 0 1-6.83 3.59c-.3.13-.63.23-.95.35l-.96.33-.98.29-.5.14-.5.13-1.01.24c-.34.08-.69.14-1.03.2l-.52.1-.26.05-.26.04-1.06.14c-.35.06-.7.08-1.06.11l-1.08.1-1.09.03-.54.02H100l-1.1-.02c-.36-.01-.73-.04-1.1-.07-.75-.03-1.49-.13-2.23-.22-1.49-.21-2.98-.49-4.46-.91-.74-.2-1.47-.45-2.2-.69l-1.1-.41-.54-.21-.54-.24a34.02 34.02 0 0 1-8.11-4.95l-.93-.78-.89-.83-.44-.42-.42-.44-.43-.44c-.14-.14-.28-.29-.41-.45l-.81-.92c-.27-.3-.51-.64-.77-.95l-.38-.49-.36-.5-.37-.5-.35-.5-.67-1.05c-.22-.34-.42-.7-.63-1.06l-.31-.54-.3-.55-.28-.56c-.1-.18-.19-.36-.27-.55l-.52-1.14c-.16-.38-.3-.77-.47-1.16l-.22-.58-.2-.6-.2-.59c-.08-.2-.14-.4-.2-.6l-.34-1.2c-.11-.4-.2-.81-.3-1.22l-.14-.61-.1-.62c-.08-.41-.17-.82-.22-1.24l-.16-1.24-.07-.63-.04-.63-.05-.62-.03-.63-.03-1.28.03-1.23c.01-.2 0-.4.03-.62l.05-.63.05-.64.06-.63.16-1.24c.06-.42.14-.83.21-1.24l.12-.62.14-.61c.1-.4.18-.82.29-1.22l.34-1.2.2-.6.2-.6.2-.59.23-.58.46-1.16.52-1.14c.08-.19.18-.37.28-.55l.28-.56.29-.55.31-.54c.21-.35.41-.72.63-1.06l.68-1.04c.1-.18.23-.34.35-.51l.36-.5.36-.5.38-.48c.26-.32.5-.65.77-.96l.81-.92c.13-.16.28-.3.42-.45l.42-.44.43-.44.44-.42c.3-.28.58-.56.89-.83l.92-.78a34.02 34.02 0 0 1 8.11-4.95l.54-.24.55-.2 1.08-.42c.74-.23 1.47-.5 2.21-.68 1.48-.43 2.97-.7 4.46-.92.74-.08 1.48-.19 2.22-.22.37-.02.74-.06 1.1-.07l1.11-.01c.19 0 .36-.01.56 0l.54.01 1.07.04 1.08.09c.36.03.72.05 1.07.11l1.06.14.26.04.26.05.52.1c.34.07.69.12 1.03.2l1.01.25c.17.04.34.07.5.12l.5.14.98.3c.33.1.64.22.96.33.32.11.64.2.95.34a34.33 34.33 0 0 1 18.83 18.13c.19.4.33.8.48 1.18.15.39.3.76.43 1.14l.37 1.1.3 1.07a31.9 31.9 0 0 1 1.1 6.57l.05.54.01.48a771.67 771.67 0 0 1 .03 1.34zm-.08 0l-.02-.6c0-.2 0-.45-.02-.74l-.01-.47-.04-.54c-.1-1.53-.35-3.79-1.13-6.55l-.3-1.06-.37-1.1c-.12-.38-.28-.75-.43-1.14-.15-.38-.3-.78-.48-1.17a33.7 33.7 0 0 0-12.04-14.37 34.05 34.05 0 0 0-6.8-3.49c-.3-.13-.63-.22-.94-.33l-.96-.32-.97-.27-.5-.14-.49-.12-1-.23c-.34-.08-.68-.13-1.02-.19l-.51-.1-.26-.04-.26-.03-1.04-.13c-.35-.05-.7-.07-1.06-.1l-1.06-.08-1.07-.02-.54-.02-.54.01-1.09.03c-.36.01-.72.05-1.09.08-.73.04-1.45.15-2.19.24-1.46.23-2.93.51-4.37.95-.73.19-1.44.45-2.16.7l-1.07.4-.53.22-.52.24a33.34 33.34 0 0 0-7.9 4.93l-.9.78c-.3.26-.58.54-.87.81l-.43.42-.4.43-.42.43c-.14.15-.28.29-.4.44l-.79.9c-.26.31-.5.64-.75.95l-.37.47-.35.5-.35.49c-.11.16-.23.32-.34.5l-.65 1.01-.6 1.05c-.1.18-.21.35-.3.53l-.28.54-.28.54c-.1.18-.19.36-.27.55l-.5 1.1-.45 1.14-.22.57-.2.57-.2.58-.18.58-.33 1.18-.28 1.2-.14.59-.1.6c-.07.4-.16.8-.21 1.21a36.77 36.77 0 0 0-.36 4.9c.02 1.62.12 3.26.36 4.88.05.4.14.8.2 1.2l.11.61.14.6c.1.4.17.8.28 1.19l.33 1.17.19.59.2.58.19.57.22.57.45 1.13.5 1.11c.08.19.18.37.27.55l.28.54.27.54.3.53.61 1.04.65 1.02.34.5.35.5.35.48.37.48.75.94.79.9c.12.16.26.3.4.45l.41.43.41.43.43.41c.3.28.57.56.87.82l.9.78c2.42 2.02 5.09 3.7 7.9 4.93l.52.24.53.2c.36.15.71.3 1.07.43.72.23 1.43.5 2.16.7 1.44.42 2.91.71 4.37.94.73.09 1.46.2 2.2.24l1.08.08 1.09.03h1.08c.35-.02.71-.02 1.07-.03l1.06-.08c.35-.03.7-.05 1.06-.1l1.04-.13.26-.03.26-.05.5-.1c.35-.06.7-.1 1.03-.18l1-.23.5-.12.49-.14.97-.27.96-.32c.31-.11.63-.2.94-.33a33.33 33.33 0 0 0 16.18-12.95 32.02 32.02 0 0 0 2.66-4.91c.18-.4.33-.79.48-1.17.15-.39.3-.76.43-1.14l.37-1.1.3-1.06a31.8 31.8 0 0 0 1.13-6.55l.04-.54.01-.47.02-.74.02-.6z"/><path id="maodf" d="M100.5 656.95l.64.01.78.02c.15 0 .32 0 .5.02l.58.04a33.8 33.8 0 0 1 8.08 1.5l1.17.39c.4.12.8.29 1.21.45.41.16.83.31 1.25.51a36.34 36.34 0 0 1 15.39 12.72 36.38 36.38 0 0 1 3.8 7.23c.14.32.25.66.37 1l.35 1.02.3 1.04.16.52.13.53.26 1.08c.08.35.14.72.21 1.09l.1.54.06.28.03.28.16 1.12c.06.37.08.75.11 1.12l.1 1.14.04 1.15.02.58V692.92l-.02 1.15c-.01.39-.05.78-.07 1.17-.04.8-.15 1.58-.24 2.37a35.46 35.46 0 0 1-.97 4.71c-.2.79-.48 1.56-.73 2.34l-.44 1.15-.22.58-.25.56a36 36 0 0 1-5.24 8.59l-.83.97c-.28.32-.59.63-.88.94l-.44.47-.47.45-.46.45c-.16.15-.31.3-.48.44l-.97.85c-.33.29-.68.55-1.02.82l-.5.4-.54.39-.53.38-.53.37-1.1.71c-.37.24-.76.45-1.13.67-.2.1-.38.22-.57.33l-.59.3-.58.3-.6.3-1.2.54c-.4.18-.81.33-1.22.5l-.62.24-.62.21-.63.21c-.2.08-.42.15-.63.2l-1.28.37c-.42.12-.86.2-1.29.3l-.64.16-.66.12c-.43.07-.87.16-1.3.22l-1.33.17c-.22.04-.44.05-.66.07l-.66.05-.67.05-.66.03-1.35.03-1.3-.03c-.22-.01-.43 0-.66-.03l-.67-.05-.67-.05a8.76 8.76 0 0 1-.67-.07l-1.31-.17c-.44-.06-.88-.15-1.31-.23l-.66-.11-.65-.15-1.29-.31-1.27-.37a8.95 8.95 0 0 1-.63-.2l-.63-.21-.63-.22-.61-.24c-.41-.16-.83-.31-1.23-.49l-1.2-.55a9 9 0 0 1-.6-.29l-.58-.3-.58-.3-.57-.33-1.13-.67-1.1-.71-.54-.38-.53-.38-.52-.38-.52-.4c-.33-.28-.68-.54-1-.82l-.98-.85c-.17-.14-.32-.3-.48-.44l-.46-.45-.47-.45-.44-.47c-.3-.31-.6-.62-.88-.94l-.83-.98a36 36 0 0 1-5.24-8.58l-.25-.57-.22-.57-.44-1.16c-.25-.78-.53-1.54-.72-2.33a35.42 35.42 0 0 1-.98-4.72c-.09-.78-.2-1.57-.24-2.35l-.06-1.17-.02-1.17v-.59l.01-.57.04-1.14.1-1.14c.03-.38.05-.76.11-1.13l.16-1.12.03-.28.06-.28.1-.54.21-1.1.26-1.07.13-.53.16-.52.3-1.04.35-1.02c.12-.34.23-.68.37-1a36.36 36.36 0 0 1 3.8-7.23 36.33 36.33 0 0 1 15.39-12.72c.41-.2.84-.35 1.25-.51.4-.16.8-.33 1.2-.45l1.17-.4 1.13-.31a33.79 33.79 0 0 1 7.53-1.22l.5-.02.79-.02.64-.01zm0 .09l-.64.01-.78.02c-.15 0-.32 0-.5.02l-.57.04c-1.62.11-4.01.37-6.94 1.2l-1.12.31-1.17.4c-.4.12-.8.29-1.2.45-.4.16-.83.31-1.24.51a35.7 35.7 0 0 0-15.22 12.75 36.07 36.07 0 0 0-3.7 7.2c-.14.33-.24.67-.35 1l-.34 1.01-.3 1.03-.14.52-.12.53-.25 1.06c-.08.36-.13.72-.2 1.08l-.1.55-.04.27-.04.27-.14 1.1c-.05.38-.07.75-.1 1.12l-.09 1.13-.02 1.14-.02.57.01.57.03 1.15.08 1.15c.05.78.16 1.55.26 2.32.24 1.55.55 3.1 1 4.63.2.78.49 1.53.74 2.3l.44 1.12.23.57.25.55a35.31 35.31 0 0 0 6.05 9.32l.86.92.44.45.46.44.45.43c.16.15.3.3.47.43l.96.83c.32.28.67.53 1 .8l.5.39.52.37.52.37c.18.12.35.25.53.36l1.08.69c.36.23.74.43 1.1.65l.57.31.57.3.57.29c.2.1.38.2.58.28l1.18.53 1.2.48.6.23.61.21.61.2c.2.08.41.15.62.2l1.25.36c.41.11.84.2 1.26.3l.63.14.64.11c.43.08.85.17 1.28.22 1.71.25 3.44.36 5.18.38 1.73-.02 3.46-.13 5.18-.38.43-.05.85-.14 1.28-.22l.64-.11.63-.14 1.26-.3 1.25-.36c.2-.05.41-.12.61-.2l.62-.2.6-.2.61-.24c.4-.16.8-.3 1.2-.48l1.18-.53c.2-.08.38-.18.57-.28l.58-.3.57-.29.56-.31c.37-.22.75-.42 1.1-.65l1.09-.7c.18-.1.35-.23.52-.35l.53-.37.52-.37.5-.4c.33-.26.67-.51 1-.79l.95-.83c.17-.13.32-.28.47-.43l.46-.43.46-.44.44-.45c.28-.31.58-.6.86-.92l.82-.95a35.32 35.32 0 0 0 5.23-8.37l.25-.55.22-.57.45-1.13c.25-.76.53-1.51.73-2.29.46-1.53.76-3.08 1-4.63.1-.77.22-1.54.26-2.32.03-.38.07-.76.08-1.15l.03-1.15c0-.2.02-.38.01-.57v-.57l-.04-1.14-.08-1.12c-.03-.38-.05-.75-.1-1.12l-.14-1.1-.04-.28-.05-.27-.1-.55c-.06-.36-.12-.72-.2-1.08l-.24-1.06-.12-.53-.15-.52-.3-1.03c-.1-.34-.22-.67-.33-1-.12-.34-.22-.68-.35-1a35.3 35.3 0 0 0-13.72-17.13 33.91 33.91 0 0 0-5.2-2.83c-.41-.2-.84-.35-1.24-.51-.41-.16-.8-.33-1.2-.45l-1.17-.4-1.12-.32a33.71 33.71 0 0 0-7.51-1.23l-.5-.02-.78-.02-.64-.01z"/><path id="maodg" d="M144.38 692.38l-.02.8-.02.97c-.01.2 0 .4-.02.63l-.06.72a42.17 42.17 0 0 1-1.47 8.68l-.4 1.4-.49 1.47c-.15.5-.36 1-.56 1.5-.2.51-.4 1.04-.64 1.56a44.75 44.75 0 0 1-24.9 23.9c-.4.17-.83.3-1.25.45l-1.27.44-1.3.37-.65.2-.67.16c-.44.1-.88.2-1.33.32-.45.1-.9.17-1.36.26l-.68.13-.35.06-.34.05-1.4.19c-.46.07-.93.1-1.4.14l-1.42.11a6923.71 6923.71 0 0 1-2.15.08h-.37l-.36-.01-1.44-.03c-.48-.01-.97-.06-1.46-.09-.99-.04-1.96-.18-2.94-.3a44.1 44.1 0 0 1-5.86-1.22c-.99-.25-1.94-.6-2.91-.91-.48-.17-.95-.36-1.43-.55l-.72-.27-.7-.32a44.79 44.79 0 0 1-10.67-6.54l-1.21-1.03c-.4-.35-.78-.73-1.17-1.1-.2-.18-.4-.36-.58-.55l-.56-.58-.56-.57-.55-.6-1.06-1.21c-.35-.4-.67-.84-1.01-1.26l-.5-.64-.48-.66-.47-.65c-.16-.22-.32-.44-.46-.67l-.89-1.37c-.29-.46-.55-.94-.83-1.4l-.4-.71-.38-.73-.38-.73-.18-.36-.18-.37-.67-1.5c-.22-.5-.41-1.01-.62-1.52l-.3-.77-.26-.78-.27-.78-.13-.39-.12-.4-.45-1.58c-.08-.26-.13-.53-.2-.8l-.18-.8-.19-.8-.14-.82-.15-.81-.14-.82-.2-1.64-.06-.4-.03-.42-.06-.82-.07-.83c-.02-.27-.02-.55-.03-.82l-.04-1.68.04-1.62.03-.82.07-.83.06-.83.03-.42.05-.41.22-1.64c.02-.27.08-.54.13-.82l.15-.8.14-.82.19-.8.19-.81c.06-.27.11-.54.2-.8l.45-1.59.11-.4.13-.38.27-.78.26-.78.3-.77c.2-.5.4-1.02.62-1.52l.68-1.5c.05-.12.1-.24.17-.36l.19-.37.37-.72.38-.73.4-.7c.29-.48.55-.96.84-1.41l.88-1.37.46-.67.48-.66.47-.66.5-.64c.34-.42.66-.85 1.01-1.26l1.07-1.21.54-.6.56-.57.56-.58.58-.55c.39-.36.77-.74 1.17-1.1l1.21-1.03c3.28-2.7 6.88-4.9 10.67-6.54l.7-.31.72-.28c.48-.18.95-.37 1.43-.54.97-.32 1.93-.67 2.9-.91 1.95-.57 3.92-.93 5.87-1.23.98-.1 1.96-.25 2.93-.3.5-.02.98-.07 1.46-.08l1.45-.03h.74a4940.04 4940.04 0 0 1 2.13.06l1.42.12c.48.04.95.07 1.42.14l1.39.19.34.04.35.07.68.13c.45.09.91.16 1.36.26l1.33.32.67.16.65.2 1.3.37c.42.14.84.3 1.27.43.41.16.84.28 1.25.46a45.35 45.35 0 0 1 9.02 4.72c.34.22.66.47.99.7l.97.72.93.74c.31.25.63.48.92.75a44.74 44.74 0 0 1 12.08 16.26c.24.52.43 1.05.63 1.56s.4 1 .56 1.5l.5 1.47a42.18 42.18 0 0 1 1.87 10.09l.05.71c.01.22 0 .43.02.63l.02.97.02.8zm-.09 0l-.02-.8-.02-.97c-.01-.2 0-.4-.02-.62l-.06-.72c-.13-2.02-.46-5-1.48-8.66l-.4-1.4-.5-1.45c-.15-.5-.36-1-.56-1.5-.2-.52-.4-1.04-.64-1.56a44.53 44.53 0 0 0-15.92-19 45.03 45.03 0 0 0-9-4.62c-.4-.17-.82-.3-1.24-.44-.42-.14-.83-.29-1.26-.42l-1.29-.37-.65-.18-.66-.16-1.32-.3c-.45-.1-.9-.17-1.35-.25l-.68-.12-.34-.06-.34-.05-1.38-.17c-.46-.07-.93-.1-1.4-.13-.46-.04-.93-.08-1.4-.1l-1.42-.04-.72-.02-.7.02c-.49 0-.96.02-1.44.03-.48.02-.96.07-1.45.1-.96.06-1.92.2-2.9.32-1.92.3-3.86.68-5.78 1.26-.96.25-1.9.6-2.86.92-.47.17-.93.36-1.4.55l-.71.28-.7.31a44.1 44.1 0 0 0-10.44 6.53l-1.19 1.02c-.4.35-.76.72-1.15 1.08l-.56.55-.55.57-.54.57c-.19.2-.37.38-.54.59l-1.04 1.2c-.34.4-.65.82-.99 1.24l-.49.63-.46.65-.46.65c-.15.21-.31.43-.45.66l-.86 1.34c-.29.46-.54.93-.81 1.39l-.4.7-.36.71-.37.72-.18.35-.17.37-.66 1.47c-.22.49-.4 1-.6 1.5l-.3.75-.25.76-.26.77-.13.38-.11.39-.45 1.55c-.08.26-.12.53-.19.79l-.18.79-.18.79-.14.8-.15.8c-.04.26-.1.52-.13.8l-.2 1.6-.05.4-.03.4-.06.82-.06.8c-.02.27-.02.55-.03.82l-.04 1.62.04 1.62c.01.27 0 .55.03.81l.06.81.06.81.03.4.05.41.2 1.61c.03.27.09.53.13.8l.15.8.14.8.18.78.18.8c.07.26.11.52.2.78l.44 1.56.1.38.14.39.26.76.26.77.29.75c.2.5.38 1 .6 1.5l.66 1.46c.06.13.1.25.17.37l.18.36.37.71.36.72.4.7c.27.46.52.93.8 1.38l.87 1.35.45.66.46.65.46.65.5.62c.33.42.64.84.98 1.25l1.04 1.2c.17.2.35.39.54.58l.54.57.55.57.56.55c.39.36.76.73 1.15 1.08l1.19 1.03a44.11 44.11 0 0 0 10.45 6.52l.69.32.7.27 1.41.56c.96.31 1.9.66 2.86.91 1.91.58 3.86.96 5.79 1.26.97.12 1.93.27 2.9.32.47.03.95.08 1.43.1l1.44.04.72.01.7-.02c.48 0 .96-.02 1.43-.03l1.4-.1c.47-.04.94-.07 1.4-.14l1.38-.17.34-.04.34-.06.68-.13c.45-.08.9-.15 1.35-.25l1.32-.3.66-.16.65-.18 1.29-.37c.43-.13.84-.28 1.26-.42.42-.14.84-.27 1.24-.44a44.08 44.08 0 0 0 21.4-17.13c1.45-2.2 2.62-4.39 3.52-6.49.25-.51.44-1.04.64-1.55.2-.5.4-1 .57-1.5l.49-1.46.4-1.4a42.07 42.07 0 0 0 1.48-8.66l.06-.71.02-.63.02-.97.02-.8z"/><path id="maodh" d="M100.5 741l-.88-.03-1.07-.02c-.21-.01-.44 0-.69-.03l-.79-.06c-2.23-.14-5.51-.5-9.54-1.61-.5-.14-1.02-.3-1.55-.44l-1.6-.54c-.55-.17-1.1-.4-1.66-.62-.56-.22-1.14-.43-1.71-.7a49.18 49.18 0 0 1-17.87-13.28c-.3-.32-.55-.67-.82-1l-.82-1.03c-.27-.35-.52-.71-.78-1.07-.26-.36-.53-.72-.78-1.1a49.84 49.84 0 0 1-5.18-9.9l-.14-.35-.12-.34-.24-.7-.47-1.38-.42-1.43-.2-.72a18759.06 18759.06 0 0 0-.53-2.2c-.07-.24-.1-.49-.15-.74l-.14-.75-.14-.75-.07-.38-.05-.38-.21-1.53c-.08-.5-.11-1.02-.16-1.54l-.12-1.56-.05-1.57-.03-.8v-.4l.01-.4.03-1.57c0-.27.03-.54.05-.8l.05-.81c.05-1.08.2-2.15.33-3.23.32-2.14.73-4.3 1.35-6.44.27-1.07.66-2.12 1-3.19l.6-1.57.3-.79.35-.77c1.8-4.16 4.23-8.11 7.2-11.71l1.13-1.33c.39-.44.8-.86 1.2-1.29l.6-.63.64-.61.64-.62c.2-.2.42-.4.65-.6l1.33-1.16c.22-.2.46-.37.69-.56l.7-.55.7-.55.72-.52.72-.52c.24-.18.48-.35.73-.5l1.5-.98c.25-.17.52-.3.77-.46l.78-.45.78-.45.8-.4.8-.42.4-.2c.13-.08.27-.13.4-.2l1.64-.74c.55-.24 1.12-.45 1.67-.67l.84-.33.86-.3.86-.28.42-.15.44-.13 1.74-.5c.29-.08.58-.14.88-.21l.88-.2.88-.21.9-.16.89-.16c.3-.05.6-.12.9-.15l1.8-.23.44-.05.46-.04.9-.07.9-.07c.3-.03.61-.02.91-.03l1.84-.05 1.79.05c.3.01.59 0 .9.03l.9.07.92.07.45.04.45.05 1.8.23.9.15.9.16.88.16.89.2.88.21c.3.07.59.13.88.22l1.74.5c.14.04.29.07.43.12l.43.15.86.29.85.29.84.33c.56.22 1.12.43 1.68.67l1.63.75.41.19.4.2.8.41.8.42.77.44.78.45.77.46 1.5.97c.25.16.5.34.73.51l.73.52.72.52.7.55.7.55c.23.19.47.36.69.56l1.33 1.17.65.6.63.6.64.62.6.64c.4.43.82.84 1.2 1.28l1.14 1.33c2.97 3.6 5.4 7.56 7.2 11.7l.34.78.3.79.6 1.57c.35 1.07.73 2.12 1 3.2.62 2.12 1.03 4.29 1.35 6.43.12 1.08.28 2.15.33 3.22.03.54.09 1.07.1 1.6l.03 1.6.01.8-.02.79-.06 1.56-.12 1.56c-.05.52-.08 1.04-.16 1.55l-.2 1.53-.05.38-.07.38-.14.75-.14.75c-.05.25-.09.5-.15.74l-.35 1.47-.18.73-.2.72-.42 1.42c-.15.47-.32.94-.48 1.4l-.24.69-.12.34-.14.34a49.82 49.82 0 0 1-5.18 9.92l-.77 1.09-.78 1.07-.82 1.02c-.28.34-.53.69-.82 1a49.15 49.15 0 0 1-17.87 13.28c-.57.28-1.15.49-1.71.71-.57.22-1.11.45-1.66.62l-1.6.54-1.55.44a46.32 46.32 0 0 1-9.54 1.61l-.8.06-.68.03-1.08.02-.87.02zm0-.1l.87-.02 1.07-.02c.22-.01.45 0 .7-.03l.78-.06c2.22-.14 5.5-.5 9.52-1.63l1.54-.44 1.6-.54c.55-.17 1.1-.4 1.65-.62.56-.22 1.14-.43 1.7-.7a49 49 0 0 0 20.9-17.5 49.52 49.52 0 0 0 5.08-9.9l.14-.34.11-.34.24-.69.46-1.38.4-1.42.2-.71.17-.73.34-1.46a479.8 479.8 0 0 1 .28-1.48l.13-.75.06-.37.05-.38.2-1.51c.07-.51.1-1.02.14-1.54l.11-1.54.04-1.56.02-.79-.02-.78-.04-1.58c-.02-.53-.07-1.06-.1-1.59-.07-1.06-.23-2.11-.36-3.18a47.94 47.94 0 0 0-1.38-6.36c-.27-1.06-.66-2.1-1-3.14l-.61-1.55-.31-.78-.35-.76a48.5 48.5 0 0 0-8.3-12.8c-.38-.43-.8-.84-1.19-1.26l-.6-.62-.63-.6-.63-.6c-.2-.2-.41-.4-.64-.59l-1.32-1.14c-.21-.2-.45-.36-.68-.55l-.68-.54-.7-.54-.7-.5-.72-.51-.73-.5-1.48-.95c-.24-.16-.5-.3-.76-.44l-.76-.44-.77-.44-.78-.4-.8-.4-.38-.2-.4-.2-1.62-.72c-.54-.24-1.1-.44-1.65-.66l-.82-.32-.84-.28-.85-.29-.42-.14-.42-.13-1.71-.48c-.29-.09-.58-.14-.87-.21l-.87-.2-.86-.2-.88-.16-.88-.15c-.3-.05-.58-.12-.88-.15l-1.77-.22-.44-.06-.45-.03-.88-.07-.9-.06c-.29-.03-.59-.02-.89-.04l-1.78-.04-1.79.04c-.3.02-.6.01-.89.04l-.89.06-.89.07-.44.03-.44.06-1.77.22c-.3.03-.6.1-.88.15l-.88.15-.88.16-.87.2-.86.2c-.3.07-.59.12-.87.2l-1.71.5c-.14.04-.29.07-.43.12l-.42.14-.84.29-.84.28-.83.32c-.55.22-1.1.43-1.64.66l-1.62.73-.4.18-.4.2-.78.4-.78.41-.77.44-.77.44c-.25.15-.51.28-.75.44l-1.49.95c-.25.16-.48.33-.72.5l-.72.5-.71.51-.69.54-.69.54-.68.55-1.32 1.14-.64.59-.63.6-.62.6-.6.62-1.2 1.26-1.12 1.3a48.5 48.5 0 0 0-7.18 11.5l-.34.76-.3.78c-.21.51-.42 1.03-.61 1.55-.35 1.05-.74 2.08-1.01 3.14a48 48 0 0 0-1.39 6.36c-.13 1.07-.29 2.12-.35 3.18-.03.53-.09 1.06-.1 1.59l-.05 1.58-.01.78.02.79.04 1.56.1 1.54c.05.52.08 1.03.15 1.54l.2 1.51.04.38.07.37.13.75c.05.25.1.5.13.74.05.25.09.5.15.74l.33 1.46.17.73.2.7.4 1.43.47 1.38.23.7.12.33.13.34a48.48 48.48 0 0 0 18.84 23.52 46.52 46.52 0 0 0 7.14 3.88c.56.27 1.14.48 1.7.7.56.22 1.1.45 1.66.62l1.6.54 1.54.44a46.24 46.24 0 0 0 9.52 1.63l.78.06.7.03a1770.93 1770.93 0 0 0 1.94.05z"/><path id="maodi" d="M100.49 630.09l6.2 52.7-6.2 9.6z"/><path id="maodj" d="M100.41 692.67V630.1l.17-.01 6.2 52.73-.01.03zm.17-61.11v60.53l6.03-9.32z"/><path id="maodk" d="M100.49 630.09l-6.2 52.7 6.2 9.6z"/><path id="maodl" d="M100.59 692.67l-6.38-9.86 6.2-52.73.18.01zm-6.2-9.9l6.01 9.32v-60.53z"/><path id="maodm" d="M38.2 692.38l52.7 6.2 9.6-6.2z"/><path id="maodn" d="M90.92 698.68h-.03l-52.7-6.2.01-.18h62.58zm-51.25-6.2l51.21 6.02 9.32-6.03z"/><path id="maodo" d="M38.2 692.38l52.7-6.2 9.6 6.2z"/><path id="maodp" d="M100.78 692.47H38.2l-.01-.18 52.73-6.2.03.02zm-61.11-.19h60.53l-9.32-6.01z"/><path id="maodq" d="M100.49 754.67l-6.2-52.7 6.2-9.59z"/><path id="maodr" d="M100.41 754.68l-6.2-52.73.02-.03 6.36-9.83v62.58zM94.4 702l6.01 51.21v-60.53z"/><path id="maods" d="M100.5 754.67l6.2-52.7-6.2-9.59z"/><path id="maodt" d="M100.58 754.68h-.17v-62.59l6.38 9.86v.03zm0-62v60.52l6.03-51.21z"/><path id="maodu" d="M162.8 692.38l-52.71-6.2-9.59 6.2z"/><path id="maodv" d="M162.78 692.47H100.2l9.86-6.38 52.73 6.2zm-62-.19h60.53l-51.21-6.01z"/><path id="maodw" d="M162.8 692.38l-52.71 6.2-9.59-6.2z"/><path id="maodx" d="M110.06 698.68l-.03-.02-9.83-6.36h62.58l.01.17zm-9.28-6.2l9.32 6.02 51.21-6.03z"/><path id="maody" d="M77.76 670.05l16.53 12.75 6.2 9.58z"/><path id="maodz" d="M101 692.99L77.7 670.1l.11-.13 16.55 12.75v.02zm-22.15-22L100 691.77l-5.77-8.92z"/><path id="maodA" d="M77.76 670.05l13.15 16.13 9.58 6.2z"/><path id="maodB" d="M101.16 692.92l-10.32-6.68-13.15-16.13.13-.12zm-10.2-6.8l8.87 5.73L78.8 671.2z"/><path id="maodC" d="M77.76 714.71l16.53-12.74 6.2-9.59z"/><path id="maodD" d="M77.81 714.79l-.11-.13 23.3-22.88-6.65 10.26zm22.19-21.8l-21.15 20.8 15.38-11.87z"/><path id="maodE" d="M77.76 714.71l13.15-16.13 9.58-6.2z"/><path id="maodF" d="M77.82 714.78l-.13-.12 13.16-16.14 10.3-6.67zm13.14-16.13l-12.15 14.9 21.02-20.63z"/><path id="maodG" d="M122.82 669.65l-12.74 16.53-9.59 6.2z"/><path id="maodH" d="M99.89 692.88l22.88-23.29.13.11-12.76 16.55zm22-22.14l-20.79 21.15 8.93-5.77z"/><path id="maodI" d="M122.82 669.65L106.7 682.8l-6.2 9.58z"/><path id="maodJ" d="M99.96 693.05l6.68-10.32 16.13-13.15.12.13zm6.8-10.2l-5.73 8.87 20.63-21.02z"/><path id="maodK" d="M122.82 715.12l-12.74-16.54-9.59-6.2z"/><path id="maodL" d="M122.77 715.18L99.89 691.9l10.26 6.64 12.75 16.54zm-21.67-22.3l20.8 21.17-11.87-15.4z"/><path id="maodM" d="M122.82 715.11l-16.13-13.14-6.2-9.59z"/><path id="maodN" d="M122.77 715.19l-16.14-13.16-6.67-10.31 22.93 23.34zm-16.01-13.28l14.9 12.16-20.63-21.02z"/><path id="maodO" d="M115.34 652.2s-.07.37-.2.9l-.23.92-.29 1.04c-.1.36-.15.73-.26 1.05a4.62 4.62 0 0 1-.83 1.4l-.19.2-.08-.03s-.02-.1-.02-.27a3.68 3.68 0 0 1 .05-.69c.04-.28.1-.6.22-.92.13-.32.32-.64.47-.97l.45-.98.41-.85.42-.82z"/><path id="maodP" d="M93.26 650.17s.12.35.27.88l.26.9.28 1.05c.09.36.22.7.29 1.04a4.6 4.6 0 0 1-.08 1.9l-.08.01s-.07-.08-.16-.23a3.8 3.8 0 0 1-.3-.62c-.1-.26-.2-.56-.26-.9-.06-.34-.05-.71-.09-1.08l-.1-1.07-.06-.94-.05-.93z"/><path id="maodQ" d="M86.05 652.06l.42.82.41.85.46.98c.14.33.34.65.46.97a4.58 4.58 0 0 1 .25 1.88l-.08.03-.19-.2a3.6 3.6 0 0 1-.4-.55 4.6 4.6 0 0 1-.42-.85c-.11-.32-.17-.7-.27-1.05-.1-.35-.2-.7-.28-1.04-.1-.33-.17-.64-.23-.91l-.21-.9z"/><path id="maodR" d="M79.26 655.19l.56.74.55.76.62.88c.2.3.45.59.63.88a4.59 4.59 0 0 1 .54 1.54c.03.17.03.27.03.27l-.07.04s-.1-.05-.22-.16a3.9 3.9 0 0 1-.5-.48 4.6 4.6 0 0 1-.56-.76c-.17-.3-.29-.65-.45-.98l-.46-.98-.38-.86-.36-.85z"/><path id="maodS" d="M73.13 659.44l.67.63.68.65.76.77c.25.26.54.5.77.76a4.57 4.57 0 0 1 .88 1.68l-.07.05-.24-.12a3.74 3.74 0 0 1-.58-.39 4.6 4.6 0 0 1-.68-.65c-.21-.26-.4-.6-.6-.89l-.63-.88-.53-.78-.5-.77z"/><path id="maodT" d="M67.83 664.69l.77.5.78.53.88.62c.3.22.63.4.9.61a4.58 4.58 0 0 1 1.03 1.26l.12.24-.05.07-.27-.08a3.6 3.6 0 0 1-.63-.28 4.6 4.6 0 0 1-.78-.52c-.26-.23-.5-.52-.76-.77l-.77-.76-.65-.68-.63-.67z"/><path id="maodU" d="M63.51 670.78l.85.36.86.38.98.46c.33.16.68.28.98.45a4.59 4.59 0 0 1 1.24 1.06c.11.13.16.22.16.22l-.04.07s-.1 0-.27-.03a3.86 3.86 0 0 1-.67-.16 4.6 4.6 0 0 1-.87-.38c-.29-.18-.57-.43-.88-.63-.3-.2-.6-.41-.88-.62l-.76-.55-.74-.56z"/><path id="maodV" d="M60.32 677.53l.9.2.91.24c.34.08.69.18 1.04.28.36.1.73.16 1.05.27a4.6 4.6 0 0 1 1.6 1.01l-.03.08s-.1.02-.27.02a3.74 3.74 0 0 1-.7-.04c-.27-.05-.59-.1-.9-.23-.33-.12-.65-.32-.98-.46-.34-.16-.67-.3-.98-.46l-.85-.41-.82-.42z"/><path id="maodW" d="M58.36 684.74l.92.05.94.06 1.07.1c.37.04.74.03 1.08.09a4.61 4.61 0 0 1 1.52.56l.23.16-.01.08s-.1.04-.27.07a3.69 3.69 0 0 1-.69.07c-.28 0-.6 0-.94-.06-.33-.07-.68-.2-1.04-.29-.35-.1-.71-.18-1.04-.28l-.9-.26c-.54-.15-.89-.27-.89-.27z"/><path id="maodX" d="M58.28 699.6l.88-.26.9-.26 1.05-.28c.36-.09.7-.22 1.04-.29a4.6 4.6 0 0 1 1.9.08l.01.09-.23.15a3.73 3.73 0 0 1-.62.3c-.26.1-.56.21-.9.27-.34.05-.71.04-1.08.08l-1.07.1-.94.07-.93.04z"/><path id="maodY" d="M60.17 706.83l.82-.42.85-.4c.3-.16.64-.3.98-.46.33-.15.65-.35.97-.47a4.6 4.6 0 0 1 1.6-.27c.18 0 .28.02.28.02l.03.08-.2.2a3.7 3.7 0 0 1-.55.4c-.24.14-.53.3-.85.42-.32.1-.7.16-1.05.27-.35.1-.7.2-1.04.28l-.91.23-.9.2z"/><path id="maodZ" d="M63.3 713.62l.74-.56.76-.55.89-.62c.3-.2.58-.45.87-.62a4.58 4.58 0 0 1 1.81-.58l.04.07s-.05.1-.16.23a3.85 3.85 0 0 1-.48.5c-.2.18-.46.38-.76.55-.3.17-.65.29-.98.45l-.98.46-.86.38-.85.36z"/><path id="maodaa" d="M67.55 719.75l.63-.67.65-.68.77-.76c.26-.25.5-.54.76-.77a4.6 4.6 0 0 1 1.68-.88l.05.07-.12.24a3.74 3.74 0 0 1-.38.58c-.18.21-.4.46-.66.68-.26.21-.6.4-.89.6l-.88.63-.78.53-.77.5z"/><path id="maodab" d="M72.8 725.06l.5-.78.53-.78.62-.88c.22-.3.4-.62.61-.9a4.58 4.58 0 0 1 1.26-1.03l.24-.12.07.06s-.02.1-.08.26a3.69 3.69 0 0 1-.28.63c-.13.25-.3.52-.52.79-.23.25-.52.49-.77.75l-.76.77-.68.65-.67.63z"/><path id="maodac" d="M78.89 729.37l.36-.85.38-.86.46-.97c.16-.33.28-.69.45-.99a4.59 4.59 0 0 1 1.06-1.24l.22-.16.07.04s0 .1-.03.28a3.84 3.84 0 0 1-.16.67c-.1.26-.2.56-.38.86-.18.3-.43.58-.63.88l-.62.89-.55.76-.56.73z"/><path id="maodad" d="M85.65 732.56l.2-.9.24-.91.28-1.04c.1-.35.16-.72.27-1.05a4.6 4.6 0 0 1 .82-1.4c.11-.13.2-.2.2-.2l.07.03s.02.1.02.27a3.74 3.74 0 0 1-.04.7c-.05.27-.1.59-.23.9-.12.33-.32.65-.46.98-.16.34-.3.67-.46.98l-.41.85a38 38 0 0 1-.42.82z"/><path id="maodae" d="M92.85 734.53s.01-.37.05-.92l.06-.94.1-1.08c.04-.36.03-.74.09-1.08a4.63 4.63 0 0 1 .56-1.52l.16-.23.08.01s.04.1.07.27a3.67 3.67 0 0 1 .07.69c0 .28 0 .6-.06.94-.07.34-.2.68-.29 1.04-.1.36-.18.71-.28 1.04l-.26.91c-.15.53-.27.88-.27.88z"/><path id="maodaf" d="M107.72 734.6s-.12-.35-.27-.88l-.26-.9-.28-1.05c-.09-.36-.22-.7-.29-1.04a4.6 4.6 0 0 1 .02-1.63l.06-.27.09-.01.15.23a3.7 3.7 0 0 1 .3.62c.1.26.21.57.27.9.05.34.04.72.08 1.08l.1 1.08.07.94.04.92z"/><path id="maodag" d="M114.94 732.7l-.42-.82-.4-.85c-.16-.3-.3-.64-.46-.98-.15-.33-.35-.65-.47-.97a4.58 4.58 0 0 1-.27-1.6c0-.18.02-.28.02-.28l.08-.03.2.2a3.67 3.67 0 0 1 .4.56c.14.24.3.52.42.84.1.33.16.7.27 1.05.1.35.2.7.28 1.04l.23.91.2.9z"/><path id="maodah" d="M121.73 729.58l-.56-.73-.55-.77-.62-.88c-.2-.3-.45-.59-.62-.88a4.56 4.56 0 0 1-.55-1.53c-.03-.17-.03-.28-.03-.28l.07-.04s.1.05.23.16a3.6 3.6 0 0 1 .5.48c.18.21.38.46.55.76.17.3.29.66.45.99l.46.97.38.86.36.85z"/><path id="maodai" d="M127.86 725.33l-.67-.63-.68-.65-.76-.77c-.25-.26-.54-.5-.77-.75a4.59 4.59 0 0 1-.8-1.42c-.06-.16-.08-.26-.08-.26l.07-.06.24.12a3.66 3.66 0 0 1 .58.39c.21.17.46.38.68.65.21.27.4.6.6.89l.63.88.53.78.5.78z"/><path id="maodaj" d="M133.17 720.08l-.78-.5-.78-.53-.88-.62c-.3-.22-.62-.4-.9-.61a4.58 4.58 0 0 1-1.03-1.26l-.12-.24.06-.07s.1.02.26.08a3.75 3.75 0 0 1 .63.28c.25.13.52.3.79.52.25.23.49.52.75.77l.77.76.65.68.63.67z"/><path id="maodak" d="M137.48 713.98l-.85-.36-.86-.38-.97-.46c-.33-.16-.69-.28-.99-.45a4.59 4.59 0 0 1-1.24-1.05l-.16-.23.04-.07s.1 0 .28.03a3.7 3.7 0 0 1 .67.17c.26.08.56.2.86.38.3.17.58.42.88.62l.89.62.76.55.74.56z"/><path id="maodal" d="M140.67 707.23l-.9-.2-.91-.23-1.04-.29c-.35-.1-.72-.15-1.05-.26a4.6 4.6 0 0 1-1.4-.83l-.2-.19.03-.08s.1-.02.27-.02a3.68 3.68 0 0 1 .7.05c.27.04.59.1.91.22.32.13.64.32.97.47l.98.45.85.41.82.42z"/><path id="maodam" d="M142.64 700.03l-.92-.04-.94-.07-1.08-.1c-.36-.04-.74-.03-1.08-.08a4.59 4.59 0 0 1-1.52-.57l-.23-.15.01-.09.27-.06a3.65 3.65 0 0 1 .69-.08c.28 0 .6 0 .94.06.34.07.69.2 1.04.3.36.09.71.17 1.04.27l.91.26c.53.15.88.27.88.27z"/><path id="maodan" d="M142.71 685.15s-.35.12-.88.27l-.9.26-1.05.28c-.35.09-.7.22-1.04.29a4.59 4.59 0 0 1-1.9-.08l-.01-.08s.08-.07.23-.16a3.62 3.62 0 0 1 .62-.3c.26-.1.57-.2.9-.26.34-.06.72-.05 1.08-.09l1.08-.1.94-.06c.55-.04.92-.05.92-.05z"/><path id="maodao" d="M140.81 677.93l-.82.42-.85.41-.98.46c-.33.14-.65.34-.97.46a4.6 4.6 0 0 1-1.6.27c-.18 0-.28-.02-.28-.02l-.03-.08.2-.19a3.73 3.73 0 0 1 .56-.4c.24-.15.52-.3.84-.42.33-.11.7-.17 1.05-.27.35-.1.7-.2 1.04-.28.33-.1.65-.17.91-.23l.9-.21z"/><path id="maodap" d="M137.7 671.15l-.74.56-.76.55-.89.62c-.3.2-.59.45-.88.63a4.59 4.59 0 0 1-1.8.57l-.05-.07s.05-.1.16-.22a3.66 3.66 0 0 1 .48-.5c.21-.19.46-.39.76-.56.3-.17.66-.29.99-.45l.97-.46.86-.38.85-.36z"/><path id="maodaq" d="M133.44 665.02l-.63.67-.65.68-.77.76c-.26.25-.5.54-.75.77a4.6 4.6 0 0 1-1.42.8c-.16.06-.26.08-.26.08l-.06-.07.12-.24a3.66 3.66 0 0 1 .39-.58c.17-.21.38-.46.65-.68.27-.21.6-.4.89-.6l.88-.63.78-.53.78-.5z"/><path id="maodar" d="M128.2 659.72l-.51.77-.53.78-.62.88c-.22.3-.4.63-.61.9a4.6 4.6 0 0 1-1.26 1.03l-.24.12-.07-.05.08-.27a3.72 3.72 0 0 1 .28-.63c.13-.24.3-.52.52-.78.23-.26.52-.5.77-.76l.76-.77.68-.65.67-.63z"/><path id="maodas" d="M122.1 655.4l-.37.85-.38.86-.46.98c-.16.33-.28.68-.45.98a4.6 4.6 0 0 1-1.28 1.4l-.07-.04s0-.1.03-.27a3.7 3.7 0 0 1 .17-.67c.09-.27.2-.57.38-.87.17-.29.42-.57.62-.87l.62-.89.55-.76.56-.74z"/><path id="maodat" d="M108.14 650.24l-.04.93-.07.94-.1 1.07c-.04.37-.03.74-.08 1.08a4.61 4.61 0 0 1-.57 1.52l-.15.23-.09-.01-.06-.27a3.67 3.67 0 0 1-.08-.69c0-.28 0-.6.06-.94.07-.33.2-.68.3-1.04.09-.35.17-.71.27-1.04l.26-.9c.15-.54.27-.89.27-.89z"/><path id="maodau" d="M95.09 640.91a1 1 0 1 1-1.99 0 1 1 0 0 1 1.99 0"/><path id="maodav" d="M94.09 642a1.08 1.08 0 1 1 0-2.16 1.08 1.08 0 0 1 0 2.16m0-1.99a.91.91 0 1 0 0 1.83.91.91 0 0 0 0-1.83"/><path id="maodaw" d="M81.55 644.51a1 1 0 1 1-1.99 0 1 1 0 0 1 1.99 0"/><path id="maodax" d="M80.56 645.59a1.08 1.08 0 1 1 0-2.16 1.08 1.08 0 0 1 0 2.16m0-1.99a.91.91 0 1 0 0 1.83.91.91 0 0 0 0-1.83"/><path id="maoday" d="M88.7 642.5a1.46 1.46 0 1 1-2.92 0 1.46 1.46 0 0 1 2.91 0"/><path id="maodaz" d="M87.23 644.05a1.54 1.54 0 1 1 0-3.1 1.54 1.54 0 0 1 0 3.1m0-2.92a1.37 1.37 0 1 0 0 2.75 1.37 1.37 0 0 0 0-2.75"/><path id="maodaA" d="M75.8 647.44a1.46 1.46 0 1 1-2.92 0 1.46 1.46 0 0 1 2.91 0"/><path id="maodaB" d="M74.34 648.98a1.54 1.54 0 1 1 0-3.1 1.54 1.54 0 0 1 0 3.1m0-2.92a1.37 1.37 0 1 0 0 2.75 1.37 1.37 0 0 0 0-2.75"/><path id="maodaC" d="M56.73 666.5a1.46 1.46 0 1 1-2.91 0 1.46 1.46 0 0 1 2.91 0"/><path id="maodaD" d="M55.28 668.04a1.54 1.54 0 1 1 0-3.1 1.54 1.54 0 0 1 0 3.1m0-2.92a1.37 1.37 0 1 0 0 2.75 1.37 1.37 0 0 0 0-2.75"/><path id="maodaE" d="M56.73 719.08a1.46 1.46 0 1 1-2.91 0 1.46 1.46 0 0 1 2.91 0"/><path id="maodaF" d="M55.28 720.62a1.54 1.54 0 1 1 0-3.1 1.54 1.54 0 0 1 0 3.1m0-2.92a1.37 1.37 0 1 0 0 2.75 1.37 1.37 0 0 0 0-2.75"/><path id="maodaG" d="M75.8 737.8a1.46 1.46 0 1 1-2.92 0 1.46 1.46 0 0 1 2.91 0"/><path id="maodaH" d="M74.34 739.36a1.54 1.54 0 1 1 0-3.1 1.54 1.54 0 0 1 0 3.1m0-2.92a1.37 1.37 0 1 0 0 2.75 1.37 1.37 0 0 0 0-2.75"/><path id="maodaI" d="M128.1 737.8a1.46 1.46 0 1 1-2.91 0 1.46 1.46 0 0 1 2.91 0"/><path id="maodaJ" d="M126.65 739.36a1.54 1.54 0 1 1 0-3.1 1.54 1.54 0 0 1 0 3.1m0-2.92a1.37 1.37 0 1 0 0 2.75 1.37 1.37 0 0 0 0-2.75"/><path id="maodaK" d="M147.27 719.08a1.46 1.46 0 1 1-2.91 0 1.46 1.46 0 0 1 2.91 0"/><path id="maodaL" d="M145.82 720.62a1.54 1.54 0 1 1 0-3.1 1.54 1.54 0 0 1 0 3.1m0-2.92a1.37 1.37 0 1 0 0 2.75 1.37 1.37 0 0 0 0-2.75"/><path id="maodaM" d="M147.27 666.5a1.46 1.46 0 1 1-2.91 0 1.46 1.46 0 0 1 2.91 0"/><path id="maodaN" d="M145.82 668.04a1.54 1.54 0 1 1 0-3.1 1.54 1.54 0 0 1 0 3.1m0-2.92a1.37 1.37 0 1 0 0 2.75 1.37 1.37 0 0 0 0-2.75"/><path id="maodaO" d="M128.18 647.44a1.46 1.46 0 1 1-2.91 0 1.46 1.46 0 0 1 2.91 0"/><path id="maodaP" d="M126.72 648.98a1.54 1.54 0 1 1 0-3.1 1.54 1.54 0 0 1 0 3.1m0-2.92a1.37 1.37 0 1 0 0 2.75 1.37 1.37 0 0 0 0-2.75"/><path id="maodaQ" d="M70.07 650.52a1 1 0 1 1-1.72.99 1 1 0 0 1 1.72-1"/><path id="maodaR" d="M69.22 652.09a1.08 1.08 0 0 1-.54-2.02 1.08 1.08 0 1 1 .54 2.02m0-1.99a.91.91 0 1 0 0 1.82.91.91 0 0 0 0-1.82"/><path id="maodaS" d="M53.22 671.33a1 1 0 1 1-1 1.72 1 1 0 0 1 1-1.72"/><path id="maodaT" d="M52.72 673.28a1.08 1.08 0 1 1 0-2.16 1.08 1.08 0 0 1 0 2.16m0-1.99a.92.92 0 0 0-.88 1.15.9.9 0 0 0 .88.68.91.91 0 0 0 .46-1.7.91.91 0 0 0-.45-.13"/><path id="maodaU" d="M49.56 684.85a1 1 0 1 1-1 1.72 1 1 0 0 1 1-1.72"/><path id="maodaV" d="M49.07 686.79a1.08 1.08 0 1 1 0-2.16 1.08 1.08 0 0 1 0 2.16m0-1.99a.91.91 0 1 0 .46.12.91.91 0 0 0-.45-.12"/><path id="maodaW" d="M51.4 677.67a1.46 1.46 0 1 1-1.46 2.52 1.46 1.46 0 0 1 1.46-2.52"/><path id="maodaX" d="M50.66 680.47a1.54 1.54 0 1 1 0-3.1 1.54 1.54 0 0 1 0 3.1m0-2.92a1.37 1.37 0 1 0 .68.18c-.2-.11-.44-.18-.68-.18"/><path id="maodaY" d="M49.02 697.79a1 1 0 1 1 0 1.99 1 1 0 0 1 0-1.99"/><path id="maodaZ" d="M49.03 699.87a1.07 1.07 0 0 1-1.08-1.08 1.08 1.08 0 1 1 1.08 1.08m0-1.99a.91.91 0 0 0 0 1.83.9.9 0 0 0 .92-.92c0-.5-.41-.9-.92-.9"/><path id="maodba" d="M52.62 711.33a1 1 0 1 1 0 1.99 1 1 0 0 1 0-1.99"/><path id="maodbb" d="M52.62 713.4a1.08 1.08 0 1 1 0-2.16 1.08 1.08 0 0 1 0 2.16m0-1.99a.91.91 0 1 0 0 1.83.91.91 0 0 0 0-1.83"/><path id="maodbc" d="M50.62 704.19a1.46 1.46 0 1 1 0 2.91 1.46 1.46 0 0 1 0-2.91"/><path id="maodbd" d="M50.61 707.19a1.53 1.53 0 0 1-1.54-1.55 1.54 1.54 0 1 1 1.54 1.55m0-2.92a1.37 1.37 0 1 0 0 2.75 1.37 1.37 0 0 0 0-2.75"/><path id="maodbe" d="M58.63 722.8a1 1 0 1 1 .99 1.72 1 1 0 0 1-1-1.72"/><path id="maodbf" d="M59.13 724.74a1.08 1.08 0 0 1 0-2.16 1.08 1.08 0 0 1 1.04 1.36 1.07 1.07 0 0 1-1.04.8m0-1.99a.91.91 0 1 0 0 1.83.91.91 0 0 0 0-1.83"/><path id="maodbg" d="M79.44 739.67a1 1 0 1 1 1.72 1 1 1 0 0 1-1.72-1"/><path id="maodbh" d="M80.3 741.24a1.08 1.08 0 1 1 .01-2.16 1.08 1.08 0 0 1 0 2.16m0-1.99a.91.91 0 1 0 .46.12.91.91 0 0 0-.45-.12"/><path id="maodbi" d="M92.96 743.32a1 1 0 1 1 1.72.99 1 1 0 0 1-1.72-1"/><path id="maodbj" d="M93.82 744.89a1.08 1.08 0 1 1 0-2.16 1.08 1.08 0 0 1 0 2.16m0-1.99a.92.92 0 0 0-.88 1.15.9.9 0 0 0 .88.68.91.91 0 1 0 0-1.82"/><path id="maodbk" d="M85.78 741.49a1.46 1.46 0 1 1 2.52 1.45 1.46 1.46 0 0 1-2.52-1.45"/><path id="maodbl" d="M87.03 743.76a1.54 1.54 0 1 1 0-3.09 1.54 1.54 0 0 1 0 3.09m0-2.92a1.38 1.38 0 0 0-1.32 1.73 1.36 1.36 0 0 0 1.32 1.01 1.38 1.38 0 0 0 1.33-1.72 1.36 1.36 0 0 0-1.33-1.02"/><path id="maodbm" d="M105.91 743.85a1 1 0 1 1 1.99 0 1 1 0 0 1-1.99 0"/><path id="maodbn" d="M106.9 744.93a1.08 1.08 0 1 1 0-2.16 1.08 1.08 0 0 1 0 2.16m0-1.99a.91.91 0 0 0 0 1.83.91.91 0 0 0 0-1.83"/><path id="maodbo" d="M119.44 740.26a1 1 0 1 1 1.99 0 1 1 0 0 1-1.99 0"/><path id="maodbp" d="M120.43 741.34a1.07 1.07 0 0 1-1.08-1.08 1.08 1.08 0 1 1 1.08 1.08m0-1.99a.91.91 0 1 0 0 1.83.91.91 0 0 0 0-1.83"/><path id="maodbq" d="M112.3 742.27a1.46 1.46 0 1 1 2.91 0 1.46 1.46 0 0 1-2.91 0"/><path id="maodbr" d="M113.75 743.8a1.54 1.54 0 1 1 0-3.08 1.54 1.54 0 0 1 0 3.09m0-2.92a1.37 1.37 0 0 0 0 2.74 1.37 1.37 0 0 0 0-2.74"/><path id="maodbs" d="M130.91 734.25a1 1 0 1 1 1.72-1 1 1 0 0 1-1.72 1"/><path id="maodbt" d="M131.78 734.84a1.08 1.08 0 0 1-1.04-1.36 1.07 1.07 0 0 1 1.04-.8 1.08 1.08 0 0 1 .54 2.01c-.16.1-.35.15-.54.15m0-1.99a.91.91 0 1 0 0 1.83.91.91 0 0 0 0-1.83"/><path id="maodbu" d="M140.84 724.37a1 1 0 1 1 1.72-1 1 1 0 0 1-1.72 1"/><path id="maodbv" d="M141.7 724.96a1.08 1.08 0 1 1 0-2.16 1.08 1.08 0 0 1 0 2.16m0-1.99a.91.91 0 1 0 0 1.83.91.91 0 0 0 0-1.83"/><path id="maodbw" d="M147.78 713.43a1 1 0 1 1 .99-1.72 1 1 0 0 1-1 1.72"/><path id="maodbx" d="M148.27 713.65a1.08 1.08 0 1 1 0-2.16 1.08 1.08 0 0 1 0 2.16m0-1.99a.92.92 0 0 0-.45 1.7.91.91 0 1 0 .45-1.7"/><path id="maodby" d="M151.43 699.91a1 1 0 1 1 .99-1.72 1 1 0 0 1-1 1.72"/><path id="maodbz" d="M151.93 700.14a1.08 1.08 0 0 1-.94-1.62 1.08 1.08 0 0 1 1.48-.4 1.07 1.07 0 0 1 .4 1.48c-.2.33-.56.54-.94.54m0-1.99a.92.92 0 0 0-.88 1.15.9.9 0 0 0 .88.68.92.92 0 0 0 .89-1.15.9.9 0 0 0-.88-.68"/><path id="maodbA" d="M149.6 707.1a1.46 1.46 0 1 1 1.45-2.51 1.46 1.46 0 0 1-1.45 2.52"/><path id="maodbB" d="M150.32 707.39a1.54 1.54 0 1 1 0-3.09 1.54 1.54 0 0 1 0 3.09m0-2.92a1.37 1.37 0 0 0 0 2.74 1.38 1.38 0 0 0 1.33-1.72 1.36 1.36 0 0 0-1.33-1.02"/><path id="maodbC" d="M151.96 686.98a1 1 0 1 1 0-2 1 1 0 0 1 0 2"/><path id="maodbD" d="M151.96 687.06a1.08 1.08 0 1 1 0-2.16 1.08 1.08 0 0 1 0 2.16m0-1.99a.91.91 0 1 0 0 1.83.91.91 0 0 0 0-1.83"/><path id="maodbE" d="M148.37 673.44a1 1 0 1 1 0-1.99 1 1 0 0 1 0 1.99"/><path id="maodbF" d="M148.37 671.54a.91.91 0 0 0 0 1.83.9.9 0 0 0 .92-.92c0-.5-.41-.9-.92-.9"/><path id="maodbG" d="M150.38 680.58a1.46 1.46 0 1 1 0-2.9 1.46 1.46 0 0 1 0 2.9"/><path id="maodbH" d="M150.38 680.67a1.53 1.53 0 0 1-1.54-1.55 1.53 1.53 0 0 1 1.54-1.54 1.53 1.53 0 0 1 1.54 1.54c0 .85-.69 1.55-1.54 1.55m0-2.92a1.36 1.36 0 0 0-1.37 1.37 1.36 1.36 0 0 0 1.37 1.37 1.37 1.37 0 0 0 0-2.74"/><path id="maodbI" d="M142.36 661.96a1 1 0 1 1-1-1.72 1 1 0 0 1 1 1.72"/><path id="maodbJ" d="M141.87 662.19a1.08 1.08 0 0 1-1.04-1.36 1.07 1.07 0 0 1 1.04-.8 1.08 1.08 0 1 1 0 2.16m0-1.99a.91.91 0 1 0 0 1.82.91.91 0 0 0 0-1.82"/><path id="maodbK" d="M132.48 652.04a1 1 0 1 1-1-1.72 1 1 0 0 1 1 1.72"/><path id="maodbL" d="M131.99 652.26a1.08 1.08 0 0 1-.54-2.02 1.08 1.08 0 1 1 .54 2.02m0-1.99a.91.91 0 1 0 0 1.83.91.91 0 0 0 0-1.83"/><path id="maodbM" d="M121.54 645.1a1 1 0 1 1-1.72-.98 1 1 0 0 1 1.72.99"/><path id="maodbN" d="M120.68 645.69a1.08 1.08 0 1 1 0-2.16 1.08 1.08 0 0 1 0 2.16m0-1.99a.92.92 0 0 0-.88 1.15.9.9 0 0 0 .88.68.91.91 0 1 0 0-1.82"/><path id="maodbO" d="M108.02 641.45a1 1 0 1 1-1.72-1 1 1 0 0 1 1.72 1"/><path id="maodbP" d="M107.17 642.04a1.08 1.08 0 1 1 0-2.16 1.08 1.08 0 0 1 0 2.16m0-1.99a.92.92 0 1 0 0 1.83.91.91 0 0 0 0-1.83"/><path id="maodbQ" d="M115.22 643.29a1.46 1.46 0 1 1-2.52-1.46 1.46 1.46 0 0 1 2.52 1.46"/><path id="maodbR" d="M113.95 644.1a1.54 1.54 0 1 1 0-3.08 1.54 1.54 0 0 1 0 3.08m0-2.92a1.38 1.38 0 0 0-1.32 1.73 1.36 1.36 0 0 0 1.32 1.01 1.38 1.38 0 0 0 1.33-1.72 1.36 1.36 0 0 0-1.33-1.02"/><path id="maodbS" d="M56.5 656.58l1.62 2.33c-.4-1.28-.61-2.18-.64-2.72-.02-.53.08-.94.31-1.22a.65.65 0 0 1 .47-.26.7.7 0 0 1 .52.17c.19.16.4.4.64.74l1.5 2.15c.18.25.29.4.34.44a.2.2 0 0 0 .14.05c.04 0 .08-.02.1-.05.03-.03.05-.1.05-.18 0-.27-.05-.61-.15-1.02l.2-.08c.18.63.25 1.14.22 1.54-.03.28-.1.49-.21.63-.1.12-.2.18-.33.2a.49.49 0 0 1-.36-.13 4.2 4.2 0 0 1-.64-.78l-1.44-2.06a2.75 2.75 0 0 0-.46-.54.25.25 0 0 0-.2-.06.26.26 0 0 0-.18.1.83.83 0 0 0-.14.4c-.05.35 0 .77.11 1.28.13.5.32 1.1.6 1.78.14.36.33.72.57 1.07l.58.85-.56.7-2.23-3.2c-.27-.39-.44-.6-.51-.67a.31.31 0 0 0-.25-.06.37.37 0 0 0-.24.14c-.03.04-.08.1-.14.21l-.12.2-.19-.1z"/><path id="maodbT" d="M59.15 662.05l-2.3-3.3c-.34-.5-.45-.61-.49-.64a.23.23 0 0 0-.18-.05.28.28 0 0 0-.19.1l-.13.21-.16.27-.34-.19 1.12-2.04 1.4 2c-.3-1.01-.47-1.76-.49-2.22-.02-.55.09-.98.33-1.28a.74.74 0 0 1 .53-.29c.2-.02.4.05.58.2.2.15.41.4.66.75l1.5 2.15c.22.32.3.4.32.42.02.02.05.03.07.03.03 0 .05-.01.05-.02.01 0 .03-.04.03-.13a4 4 0 0 0-.15-1l-.02-.07.36-.13.03.09c.18.62.25 1.15.22 1.56-.03.3-.1.53-.23.68-.1.13-.24.21-.38.22a.57.57 0 0 1-.43-.14 4.24 4.24 0 0 1-.66-.8l-1.43-2.05a2.69 2.69 0 0 0-.45-.52.17.17 0 0 0-.13-.04.18.18 0 0 0-.12.07c-.06.07-.1.19-.13.35-.04.33 0 .75.11 1.25.12.5.32 1.1.6 1.77.14.35.33.7.56 1.05l.62.9zm-2.93-4.16c.1 0 .18.03.25.08.05.04.16.16.53.68l2.16 3.11.46-.56-.55-.8a6.04 6.04 0 0 1-.58-1.08c-.28-.68-.48-1.28-.6-1.8a3.7 3.7 0 0 1-.12-1.3.9.9 0 0 1 .17-.44.35.35 0 0 1 .23-.14c.1 0 .18.02.26.08.14.12.3.3.49.56l1.43 2.06c.28.39.49.64.63.76.1.08.2.11.3.1.1 0 .19-.06.27-.16.1-.13.17-.32.2-.58a4.3 4.3 0 0 0-.2-1.42l-.05.02c.1.38.15.7.14.97 0 .1-.02.18-.06.23-.04.05-.1.08-.18.08a.3.3 0 0 1-.19-.07c-.04-.03-.11-.1-.35-.45l-1.51-2.15a3.6 3.6 0 0 0-.62-.72.62.62 0 0 0-.46-.16.56.56 0 0 0-.4.23c-.23.27-.32.66-.3 1.17.02.52.23 1.43.63 2.7l-.15.07-1.55-2.22-.9 1.65.04.02.08-.13c.06-.1.1-.18.14-.22a.45.45 0 0 1 .36-.17z"/><path id="maodbU" d="M61.87 649.92l3.75 2.5c-.2-1.05-.44-1.96-.74-2.74a2.23 2.23 0 0 0-.47-.85.47.47 0 0 0-.23-.1c-.03-.01-.11 0-.24.04a.7.7 0 0 1-.3.05.45.45 0 0 1-.24-.1.42.42 0 0 1-.15-.3.5.5 0 0 1 .12-.36c.1-.13.23-.2.4-.2a.7.7 0 0 1 .5.17c.15.12.28.27.39.43.19.3.39.77.59 1.38a22.03 22.03 0 0 1 .86 3.67l-.14.17-3.46-2.3 1.66 4.53-.16.2a33.44 33.44 0 0 0-3.3-2.33c-.36-.21-.63-.3-.82-.28-.13.03-.26.12-.38.27-.08.1-.17.22-.26.37l-.17-.14.77-1.58c.67.23 1.56.75 2.68 1.56l.8.58-1.6-4.47z"/><path id="maodbV" d="M64.03 656.23l-.06-.05a33.53 33.53 0 0 0-3.3-2.33c-.33-.2-.59-.29-.76-.26-.1.01-.22.1-.33.23-.07.1-.16.21-.25.36l-.05.08-.3-.24.83-1.72.07.03c.68.23 1.6.76 2.7 1.58l.6.42-1.54-4.26.22-.27 3.64 2.43c-.19-.96-.42-1.8-.7-2.52-.2-.54-.35-.74-.44-.82a.38.38 0 0 0-.18-.08c-.03 0-.08 0-.2.04a.79.79 0 0 1-.35.05.54.54 0 0 1-.27-.12.5.5 0 0 1-.2-.36.58.58 0 0 1 .15-.42.63.63 0 0 1 .46-.24c.2-.01.38.05.55.2.17.13.3.28.42.45.2.31.4.78.6 1.4a22.2 22.2 0 0 1 .87 3.69v.03l-.21.26-3.31-2.2 1.59 4.33zm-4.06-2.82c.2 0 .46.1.8.3.84.5 1.93 1.26 3.23 2.28l.08-.1-1.74-4.73 3.62 2.4.07-.08a22.01 22.01 0 0 0-.86-3.62 6.7 6.7 0 0 0-.58-1.36 1.8 1.8 0 0 0-.38-.41.6.6 0 0 0-.43-.16.46.46 0 0 0-.34.18.4.4 0 0 0-.1.3c0 .1.05.18.13.24.05.04.11.07.18.08.08 0 .17 0 .27-.04.15-.05.24-.07.3-.05.08.01.17.06.25.12.15.13.32.42.5.89.3.77.54 1.7.74 2.75l.04.2-3.86-2.57-.06.07 1.68 4.66-.21-.14c-.12-.07-.38-.26-.81-.57a11.7 11.7 0 0 0-2.6-1.53l-.7 1.46.04.03.22-.3c.14-.17.28-.27.44-.3h.08z"/><path id="maodbW" d="M138.57 651.31l-2.48 1.4c1.31-.28 2.24-.4 2.77-.38.53.03.93.17 1.19.43.14.14.21.3.21.48 0 .19-.07.36-.22.5-.17.18-.43.37-.8.57l-2.28 1.3c-.26.15-.41.25-.46.3a.2.2 0 0 0-.06.13c0 .04 0 .08.03.1.03.04.1.06.18.07.27.03.61.01 1.03-.06l.06.21c-.64.12-1.16.15-1.55.08a1.17 1.17 0 0 1-.61-.27.47.47 0 0 1-.16-.35.5.5 0 0 1 .15-.34c.14-.14.42-.33.84-.57l2.18-1.24c.27-.15.46-.29.58-.4a.25.25 0 0 0 .08-.2.26.26 0 0 0-.08-.19.83.83 0 0 0-.39-.18 3.6 3.6 0 0 0-1.28 0c-.52.07-1.13.21-1.83.42-.37.11-.74.27-1.11.47l-.9.5-.65-.63 3.4-1.92c.4-.23.64-.38.7-.44.07-.06.1-.15.1-.24-.01-.1-.05-.19-.12-.25a1.8 1.8 0 0 0-.2-.16l-.19-.14.12-.18z"/><path id="maodbX" d="M136.66 656.56c-.18 0-.35-.01-.5-.04-.29-.05-.5-.15-.65-.3a.56.56 0 0 1-.19-.4c0-.14.07-.28.19-.4.14-.15.42-.34.85-.59l2.18-1.23c.26-.15.45-.28.56-.4a.17.17 0 0 0 .06-.13c0-.05-.02-.09-.06-.13a.76.76 0 0 0-.35-.15 3.54 3.54 0 0 0-1.24 0c-.51.07-1.13.2-1.82.41-.37.11-.74.27-1.1.47l-.96.53-.77-.76 3.5-1.97c.52-.3.65-.4.69-.43a.28.28 0 0 0-.03-.37l-.19-.15-.25-.2.21-.31 1.94 1.3-2.13 1.2c1.04-.2 1.8-.29 2.25-.26.55.02.97.17 1.25.44.16.16.24.34.24.55 0 .21-.09.4-.25.57-.17.17-.44.37-.8.58l-2.29 1.3c-.35.19-.43.25-.45.27a.12.12 0 0 0-.03.08v.04c.01.01.04.03.13.05.25.02.6 0 1.01-.06l.08-.02.1.38-.1.02c-.4.07-.77.11-1.08.11m1.53-4c.23 0 .43.02.61.06.2.05.34.11.43.2a.35.35 0 0 1 0 .5c-.12.13-.32.27-.6.43l-2.18 1.23a4.2 4.2 0 0 0-.82.56.4.4 0 0 0-.13.28c0 .1.04.2.13.29.12.11.31.2.57.24.36.07.85.05 1.43-.06l-.01-.04c-.4.06-.72.07-.99.05-.1-.02-.18-.05-.22-.1-.04-.04-.06-.1-.06-.17s.03-.13.09-.19c.03-.03.12-.1.48-.3l2.29-1.3c.35-.2.6-.39.77-.55.13-.14.2-.28.2-.45 0-.16-.06-.3-.19-.42-.25-.24-.63-.38-1.14-.4-.52-.03-1.44.1-2.74.37l-.06-.15 2.36-1.33-1.57-1.06-.02.04.12.1c.1.06.17.12.2.15.1.09.14.2.15.31a.4.4 0 0 1-.12.3 4.1 4.1 0 0 1-.72.47l-3.3 1.86.51.5.85-.46c.37-.2.75-.37 1.13-.48.7-.21 1.33-.35 1.85-.43.26-.03.5-.05.7-.05"/><path id="maodbY" d="M139.84 656.98l-.36.33c-.25.25-.38.56-.37.91 0 .36.13.66.4.91.2.2.44.35.71.45.27.1.74.2 1.39.27l-.03.2c-1.33.02-2.3-.28-2.92-.88-.41-.4-.6-.84-.55-1.3.04-.48.22-.87.53-1.18.41-.43.97-.74 1.67-.93a4.2 4.2 0 0 1 2-.07c.64.13 1.17.41 1.59.82.3.3.46.58.49.84a.78.78 0 0 1-.21.65c-.23.24-.55.38-.95.4a3.62 3.62 0 0 1-1.76-.38c-.44-.19-.98-.54-1.63-1.04m.24-.18c.48.36.9.62 1.28.76.5.18.95.25 1.34.2.39-.04.68-.16.87-.36a.54.54 0 0 0 .17-.4c0-.15-.08-.3-.21-.43-.3-.28-.75-.43-1.38-.44a3.92 3.92 0 0 0-2.07.67"/><path id="maodbZ" d="M141.52 660.15c-1.32 0-2.3-.3-2.92-.9-.44-.43-.63-.9-.58-1.39.04-.49.23-.9.55-1.23a4.3 4.3 0 0 1 3.75-1.02c.65.14 1.2.42 1.64.85.31.3.48.6.51.89.03.3-.05.53-.23.72-.25.25-.58.4-1 .43a3.71 3.71 0 0 1-1.81-.4 8.55 8.55 0 0 1-1.59-1c-.13.1-.23.2-.3.27-.24.24-.35.52-.35.86 0 .33.12.6.37.85.2.19.43.33.69.43.26.1.72.18 1.37.26h.08l-.05.38zm-1.2-4.3c-.67.19-1.22.49-1.63.9-.29.3-.46.68-.5 1.13-.04.44.13.85.53 1.24.58.57 1.52.86 2.78.86v-.05a6.58 6.58 0 0 1-1.31-.26 2.1 2.1 0 0 1-.75-.47c-.28-.27-.42-.6-.42-.97 0-.38.12-.7.39-.98l.38-.33.05-.04.05.04c.64.5 1.18.84 1.6 1.03.64.3 1.22.42 1.73.38.38-.03.68-.16.9-.38a.7.7 0 0 0 .18-.58c-.02-.25-.18-.51-.46-.8-.41-.39-.93-.66-1.55-.8a3.81 3.81 0 0 0-1.97.08zm1 1.8a5.2 5.2 0 0 1-1.29-.78l-.1-.07.1-.07a4.06 4.06 0 0 1 2.07-.68h.05c.64.01 1.13.17 1.43.47a.7.7 0 0 1 .24.48c0 .18-.06.33-.19.47-.2.2-.52.34-.92.39l-.26.01c-.33 0-.71-.07-1.12-.23zm.07-.17c.39.15.75.22 1.06.22l.24-.01c.36-.05.64-.16.82-.35.1-.1.14-.2.14-.33s-.07-.25-.19-.37c-.27-.27-.71-.4-1.32-.42h-.03c-.57 0-1.2.2-1.87.6.42.31.8.53 1.15.66z"/><path id="maodca" d="M62.2 733.4l1.6-.98.16.16c-.38.38-.6.73-.63 1.05-.04.31.04.58.25.81.17.18.35.28.55.3.2.01.36-.04.5-.18.1-.08.17-.19.22-.31.05-.13.1-.33.11-.62.08-.77.16-1.3.27-1.6.11-.31.26-.55.45-.73.3-.28.7-.4 1.16-.36.47.03.88.25 1.24.63.2.21.37.5.52.87.06.13.1.22.16.28.12.13.28.17.48.11l.14.16-1.67 1.05-.16-.17c.44-.42.67-.8.7-1.14a1.2 1.2 0 0 0-.35-.95 1 1 0 0 0-.68-.36.83.83 0 0 0-.64.23c-.12.1-.2.23-.26.37-.1.24-.19.64-.26 1.2-.07.54-.15.92-.23 1.14-.09.22-.21.4-.37.54a1.3 1.3 0 0 1-1 .36c-.4-.03-.74-.2-1.04-.53a1.9 1.9 0 0 1-.21-.28 6.74 6.74 0 0 1-.16-.38c-.09-.2-.15-.33-.2-.38-.11-.12-.28-.17-.5-.13z"/><path id="maodcb" d="M64.56 735.34h-.12a1.6 1.6 0 0 1-1.09-.56c-.09-.1-.16-.2-.22-.29l-.17-.39a1.4 1.4 0 0 0-.18-.36c-.1-.1-.23-.13-.42-.1l-.05.01-.25-.27 1.75-1.08.26.28-.06.06c-.36.36-.57.7-.6 1-.04.29.04.53.23.74.15.16.31.25.49.27.17.01.32-.04.44-.15a.8.8 0 0 0 .2-.29c.05-.11.08-.32.1-.6.08-.78.16-1.3.28-1.62a1.55 1.55 0 0 1 1.7-1.14c.48.04.92.26 1.29.66.2.22.38.52.54.9.05.12.1.2.13.25.1.1.23.13.4.09l.05-.02.25.28-1.83 1.13-.25-.27.06-.06c.42-.41.64-.78.67-1.1.03-.31-.08-.6-.33-.87a.92.92 0 0 0-.62-.34.74.74 0 0 0-.58.2c-.1.1-.19.22-.24.35-.1.24-.18.63-.25 1.17a5.4 5.4 0 0 1-.24 1.17c-.09.23-.22.42-.38.57-.28.26-.6.38-.96.38m-2.06-1.88c.17 0 .3.06.4.17.04.04.1.12.22.4l.16.38.2.26c.28.3.61.47.97.5.37.02.68-.08.95-.33.15-.14.26-.3.34-.51.09-.21.16-.6.23-1.13.07-.56.16-.96.26-1.22.06-.15.16-.29.29-.4.2-.18.43-.27.7-.25.27.02.51.15.73.39.29.3.42.65.38 1-.03.35-.25.73-.66 1.15l.04.05 1.53-.95-.04-.05c-.2.05-.38 0-.51-.15a1 1 0 0 1-.17-.3 2.95 2.95 0 0 0-.51-.84 1.77 1.77 0 0 0-1.18-.61 1.4 1.4 0 0 0-1.1.34c-.18.17-.32.4-.42.69-.1.3-.2.83-.27 1.58-.02.3-.06.51-.11.65a.97.97 0 0 1-.24.34.73.73 0 0 1-.58.2.92.92 0 0 1-.6-.32 1.07 1.07 0 0 1-.27-.89c.03-.32.23-.66.6-1.03l-.06-.05-1.45.88.05.06.12-.01"/><path id="maodcc" d="M58.5 729.37l3.03-3.34c-1.06.04-2 .15-2.81.33-.47.1-.78.22-.91.34a.47.47 0 0 0-.14.2c-.02.04-.01.12.01.25a.7.7 0 0 1 0 .32.45.45 0 0 1-.13.2c-.1.09-.2.13-.33.12a.5.5 0 0 1-.33-.17.55.55 0 0 1-.15-.44.7.7 0 0 1 .25-.45c.15-.14.31-.25.49-.33.33-.15.81-.27 1.44-.38a21.87 21.87 0 0 1 3.76-.32l.16.17-2.8 3.08 4.73-.97.18.19a33.48 33.48 0 0 0-2.8 2.92c-.26.32-.39.57-.39.76 0 .14.07.28.21.43.08.09.19.19.32.3l-.16.15-1.45-.99c.33-.63.97-1.44 1.94-2.42l.69-.72-4.66.94z"/><path id="maodcd" d="M62.14 732.84l-1.58-1.08.04-.06c.33-.64.99-1.46 1.96-2.45l.5-.51-4.44.89-.24-.26 2.95-3.25c-.98.05-1.85.15-2.6.32-.57.12-.79.24-.87.32-.06.05-.1.1-.11.17 0 .01-.02.05.01.2.03.14.02.26 0 .36a.54.54 0 0 1-.16.24.5.5 0 0 1-.39.14.58.58 0 0 1-.39-.2.63.63 0 0 1-.17-.5c.02-.19.11-.36.28-.51.15-.14.32-.26.5-.34.35-.15.84-.28 1.47-.4a22.2 22.2 0 0 1 3.78-.3h.04l.23.24-2.67 2.95 4.52-.93.27.29-.07.06a33.58 33.58 0 0 0-2.78 2.9c-.25.31-.38.55-.38.72 0 .11.07.23.19.37l.32.3.07.06zm-1.35-1.13l1.33.9.04-.03-.26-.25c-.15-.16-.23-.32-.23-.48 0-.21.14-.48.42-.82.61-.76 1.53-1.73 2.73-2.87l-.08-.1-4.94 1.03 2.92-3.23-.08-.08a21.87 21.87 0 0 0-3.7.31c-.63.12-1.1.24-1.43.38a1.8 1.8 0 0 0-.47.31.62.62 0 0 0-.22.4c0 .15.03.27.13.37a.4.4 0 0 0 .27.15c.1 0 .2-.02.27-.1.05-.04.08-.1.1-.16a.62.62 0 0 0 0-.28c-.03-.2-.02-.25 0-.3a.55.55 0 0 1 .15-.23c.15-.13.46-.25.96-.36.8-.18 1.76-.29 2.83-.33h.2l-3.11 3.43.06.07 4.86-.98-.17.2-.7.71c-.91.94-1.55 1.73-1.88 2.34z"/><path id="maodce" d="M139.93 732.28l-1.04-1.56.16-.16c.39.36.74.56 1.06.58.32.03.6-.07.8-.29a.83.83 0 0 0 .28-.55c0-.2-.06-.37-.2-.5a.87.87 0 0 0-.32-.2 2.26 2.26 0 0 0-.62-.1c-.77-.03-1.3-.1-1.62-.2-.3-.09-.55-.23-.73-.41-.3-.3-.44-.68-.42-1.15.02-.47.21-.89.59-1.26.2-.2.48-.39.84-.56a.93.93 0 0 0 .27-.16c.13-.13.16-.3.1-.49l.15-.15 1.11 1.63-.15.16c-.45-.42-.84-.64-1.18-.65a1.2 1.2 0 0 0-.93.4 1 1 0 0 0-.33.68c0 .25.08.46.25.63.11.12.24.2.39.25.24.09.65.16 1.2.2.55.05.94.12 1.16.2.22.07.4.18.55.34.28.27.4.6.4.99-.01.39-.17.74-.49 1.05-.09.1-.18.17-.27.23l-.37.18c-.2.09-.32.16-.37.2-.12.12-.16.3-.1.51z"/><path id="maodcf" d="M139.92 732.4l-1.15-1.7.27-.27.06.06c.38.35.72.54 1.02.56.3.02.53-.06.73-.26a.75.75 0 0 0 .25-.5.55.55 0 0 0-.17-.44.78.78 0 0 0-.3-.18 2.18 2.18 0 0 0-.59-.08 7.68 7.68 0 0 1-1.64-.2c-.32-.1-.58-.25-.77-.45a1.56 1.56 0 0 1-.44-1.2c.02-.5.23-.94.61-1.33.21-.2.5-.4.87-.57.12-.06.2-.1.25-.15.1-.1.12-.23.07-.4l-.02-.05.27-.26 1.21 1.78-.27.26-.06-.05c-.43-.4-.8-.62-1.12-.63-.31-.02-.6.1-.86.37-.2.2-.3.4-.3.63-.01.22.06.4.22.57.1.1.22.18.35.23.24.08.64.15 1.18.2.57.04.95.1 1.18.19.23.08.43.2.6.36.28.29.42.64.41 1.06a1.6 1.6 0 0 1-.51 1.1c-.1.1-.19.18-.28.24-.06.04-.18.1-.39.19-.25.11-.32.17-.35.2-.1.09-.12.23-.08.42l.01.04zm-.92-1.68l.94 1.42.05-.05c-.04-.23.01-.4.14-.54.04-.04.12-.1.4-.23l.37-.17.25-.22c.3-.29.45-.62.46-.99a1.2 1.2 0 0 0-.37-.93 1.37 1.37 0 0 0-.53-.32c-.2-.08-.6-.14-1.13-.18a5.43 5.43 0 0 1-1.23-.21c-.15-.06-.3-.15-.41-.27a.91.91 0 0 1-.28-.7c0-.26.13-.51.36-.74.3-.3.63-.44 1-.42.34.01.72.22 1.16.61l.05-.04-1.02-1.5-.04.05c.05.2 0 .38-.13.52a1 1 0 0 1-.3.18c-.34.17-.62.35-.82.55-.35.35-.54.76-.56 1.2-.01.44.12.8.4 1.08.16.17.4.3.7.4.3.09.83.16 1.59.2.3 0 .51.04.65.08.14.05.26.13.36.23.15.15.22.35.21.57a.92.92 0 0 1-.3.6c-.23.24-.52.35-.87.32-.32-.02-.67-.2-1.05-.55z"/><path id="maodcg" d="M136.43 731.3a4.11 4.11 0 0 0-.32-.38 1.24 1.24 0 0 0-.91-.38c-.36 0-.66.13-.92.39a2 2 0 0 0-.46.71c-.1.27-.2.73-.28 1.39l-.21-.04c0-1.33.32-2.3.92-2.9.41-.41.85-.6 1.32-.54.47.05.86.23 1.17.54.42.42.72.99.9 1.68.18.7.2 1.37.05 2a3.18 3.18 0 0 1-.84 1.59c-.3.3-.58.46-.85.48a.78.78 0 0 1-.65-.22 1.44 1.44 0 0 1-.4-.95c-.03-.53.11-1.12.42-1.76.2-.43.55-.97 1.06-1.61m.18.24c-.37.47-.63.89-.78 1.27-.19.5-.27.94-.22 1.33.04.4.16.68.35.88.12.12.25.17.4.17.15 0 .3-.07.43-.2.29-.3.44-.75.46-1.38.02-.63-.2-1.32-.64-2.07"/><path id="maodch" d="M135.3 735.68a1.52 1.52 0 0 1-.42-1.01c-.04-.54.1-1.15.41-1.8.2-.43.55-.96 1.04-1.58-.1-.13-.2-.23-.28-.3a1.15 1.15 0 0 0-.84-.36c-.34 0-.62.11-.86.36-.2.19-.34.42-.44.68-.1.26-.2.72-.28 1.36v.09l-.38-.06V733c0-1.35.33-2.35.95-2.97.43-.43.9-.62 1.39-.56.48.05.9.24 1.22.57.43.43.74 1 .92 1.72.18.7.2 1.4.05 2.04-.15.65-.44 1.2-.87 1.63-.3.3-.61.48-.9.5h-.1a.84.84 0 0 1-.61-.24zm.88-4.82c.09.1.2.22.32.38l.05.05-.05.06a8.6 8.6 0 0 0-1.05 1.59c-.3.63-.43 1.2-.4 1.72.03.37.15.68.37.9a.7.7 0 0 0 .58.19c.24-.02.51-.18.8-.46.4-.4.67-.92.81-1.53.15-.62.13-1.28-.05-1.97a3.51 3.51 0 0 0-.87-1.64c-.3-.3-.68-.47-1.12-.52-.44-.05-.86.12-1.25.51-.58.58-.88 1.51-.9 2.78h.05c.09-.6.18-1.05.28-1.31.1-.29.27-.54.48-.75.27-.27.6-.4.97-.4.38 0 .7.13.98.4zm.18 4.41a.62.62 0 0 1-.45-.2c-.21-.2-.34-.52-.38-.92a3 3 0 0 1 .23-1.38c.15-.38.41-.82.78-1.29l.08-.1.06.11c.45.77.67 1.48.65 2.12-.02.65-.18 1.13-.48 1.43a.7.7 0 0 1-.49.23zm-.44-2.44c-.19.49-.26.93-.22 1.3.04.37.15.64.33.83.1.1.2.14.33.14s.25-.06.37-.18c.28-.27.42-.71.44-1.31a3.75 3.75 0 0 0-.57-1.92c-.32.42-.55.8-.68 1.14z"/><path id="maodci" d="M100.22 615.27l3.74 9.5 2.03-7.1c.17-.58.25-1.03.25-1.35 0-.22-.08-.4-.23-.52-.16-.12-.45-.19-.87-.19h-.22l.1-.34h3.9l-.12.33c-.4 0-.7.04-.9.13-.28.12-.49.28-.63.48-.18.28-.38.77-.58 1.47l-2.85 9.99h-.32l-4.03-10.22-2.15 7.54a5.55 5.55 0 0 0-.24 1.33c0 .22.07.39.22.5.14.13.49.2 1.04.24l-.1.33h-3.8l.12-.33c.48 0 .8-.05.97-.12.24-.11.42-.25.54-.42.17-.26.36-.77.58-1.53l2.4-8.42a2 2 0 0 0-.75-.73 3.17 3.17 0 0 0-1.23-.24l.1-.33z"/><path id="maoda" d="M94.34 615.19h14.7v12.57h-14.7z"/><path id="maodck" d="M103.9 627.76h-.44l-.02-.05-3.93-9.99-2.09 7.3c-.15.57-.23 1-.23 1.3 0 .2.06.34.19.45.09.07.33.17.99.21h.1l-.13.5h-4l.18-.5h.06c.47 0 .78-.05.94-.11.22-.1.4-.24.5-.4.17-.25.36-.75.57-1.5l2.39-8.38a1.88 1.88 0 0 0-.7-.67c-.25-.13-.65-.2-1.19-.22h-.11l.15-.51h3.15l3.67 9.32 1.96-6.85c.16-.57.25-1.02.25-1.33 0-.2-.07-.34-.2-.45-.14-.12-.42-.17-.82-.17-.07 0-.15 0-.23-.02h-.1l.15-.5h4.08l-.17.5h-.15c-.35 0-.61.04-.78.12-.26.12-.46.27-.6.46-.17.27-.36.75-.56 1.44zm-.32-.17h.2l2.83-9.93c.2-.7.4-1.2.6-1.49.14-.21.37-.39.66-.52.2-.08.47-.13.85-.13h.02l.06-.16h-3.71l-.06.17h.11c.45 0 .75.07.92.21.18.14.27.34.27.6 0 .32-.08.77-.25 1.37l-2.1 7.34-3.81-9.69h-2.91l-.05.17c.51.03.9.1 1.15.24.28.13.55.4.78.76l.02.03-2.4 8.46a6.28 6.28 0 0 1-.6 1.55c-.12.18-.32.34-.57.45-.17.08-.48.12-.94.13l-.06.16h3.61l.05-.17c-.51-.04-.83-.12-.98-.24a.7.7 0 0 1-.25-.58c0-.3.08-.76.24-1.34l2.22-7.8z"/><path id="maodcl" d="M96.85 769.5l1-4.5h.31c-.04.44-.07.8-.07 1.08 0 .82.26 1.49.79 2 .52.5 1.2.76 2.04.76.78 0 1.37-.24 1.78-.71a2.5 2.5 0 0 0 .33-2.77c-.28-.5-1.03-1.37-2.25-2.61a7.87 7.87 0 0 1-1.13-1.33 3.03 3.03 0 0 1-.41-1.52c0-.85.31-1.57.95-2.18.63-.6 1.44-.9 2.42-.9a4.34 4.34 0 0 1 1.97.47l.56.22.28.02c.18 0 .33-.04.45-.13.12-.1.27-.28.44-.58h.34l-.93 4.03h-.31c.03-.36.04-.65.04-.87 0-.72-.23-1.31-.71-1.77a2.62 2.62 0 0 0-1.9-.7c-.61 0-1.11.2-1.5.55-.39.37-.58.79-.58 1.27 0 .41.12.8.37 1.19.25.37.82.99 1.7 1.85.9.85 1.48 1.52 1.74 2 .25.48.38 1 .38 1.53 0 .62-.16 1.21-.48 1.79a3.28 3.28 0 0 1-1.4 1.34 4.78 4.78 0 0 1-3 .37c-.3-.07-.8-.23-1.48-.48a1.67 1.67 0 0 0-.57-.13c-.36 0-.63.23-.83.7z"/><path id="maodcm" d="M101.08 769.58c-.36 0-.7-.03-1.02-.1-.31-.07-.82-.23-1.5-.48a1.6 1.6 0 0 0-.55-.13c-.32 0-.56.21-.74.66l-.02.05h-.51l1.04-4.67h.47v.1c-.05.43-.07.79-.07 1.06 0 .8.25 1.45.75 1.94.5.5 1.18.74 2 .74.74 0 1.31-.23 1.7-.68a2.42 2.42 0 0 0 .32-2.68 16.74 16.74 0 0 0-2.23-2.59c-.6-.6-.97-1.04-1.15-1.34a3.13 3.13 0 0 1-.42-1.57c0-.86.33-1.61.97-2.23a3.47 3.47 0 0 1 2.49-.93 4.46 4.46 0 0 1 2 .47l.55.22.26.02c.16 0 .29-.04.4-.12.1-.08.25-.26.41-.55l.03-.04h.5l-.97 4.2h-.48l.01-.1c.03-.35.04-.64.04-.85 0-.7-.23-1.27-.68-1.71a2.55 2.55 0 0 0-1.84-.67c-.59 0-1.07.18-1.44.52a1.6 1.6 0 0 0-.56 1.2c0 .4.12.78.36 1.15.24.37.81.98 1.7 1.83.89.86 1.48 1.54 1.74 2.02.26.5.4 1.03.4 1.58 0 .62-.17 1.24-.5 1.83a3.38 3.38 0 0 1-1.43 1.37 4.4 4.4 0 0 1-2.03.48M98 768.7c.17 0 .37.04.61.14.67.25 1.17.4 1.48.47a4.7 4.7 0 0 0 2.93-.36c.6-.3 1.05-.75 1.36-1.3.32-.57.48-1.16.48-1.75 0-.53-.13-1.03-.38-1.5a9.54 9.54 0 0 0-1.71-1.98 13.6 13.6 0 0 1-1.73-1.86c-.25-.39-.38-.8-.38-1.23 0-.5.2-.96.6-1.33.41-.38.94-.57 1.57-.57.8 0 1.46.24 1.95.71.5.48.75 1.1.75 1.84 0 .2-.02.46-.04.78h.15l.9-3.86h-.2a1.9 1.9 0 0 1-.43.56c-.14.1-.3.15-.5.15-.1 0-.2 0-.3-.02h-.01a183.14 183.14 0 0 0-1.56-.59c-.3-.06-.6-.1-.94-.1-.96 0-1.75.3-2.37.88-.6.59-.92 1.3-.92 2.11 0 .52.13 1.01.4 1.48.17.29.54.73 1.12 1.31a16.8 16.8 0 0 1 2.27 2.63 2.59 2.59 0 0 1-.35 2.87c-.42.5-1.04.75-1.84.75a2.9 2.9 0 0 1-2.1-.8 2.77 2.77 0 0 1-.82-2.06c0-.26.02-.59.06-.99h-.14l-.97 4.33h.18c.2-.47.5-.71.88-.71"/><path id="maodcn" d="M35.49 698.08l-10.1-1.05a8.37 8.37 0 0 0-.89-.06c-.35 0-.61.1-.79.3-.18.19-.27.55-.29 1.06l-.33-.1v-4.54l.33.1c0 .61.1 1.02.33 1.25.23.22.77.37 1.64.45l6.55.68-7.1-4.6c-.13-.02-.24-.02-.32-.02-.33 0-.59.1-.76.3-.18.2-.3.61-.34 1.27l-.33-.07v-4.9l.33.1c.01.56.06.94.15 1.14.06.14.17.26.31.36.15.1.4.18.75.24l2.08.21 5.23.57-5.83-3.83c-.64-.41-1.08-.67-1.34-.78-.26-.1-.48-.16-.66-.16-.16 0-.3.07-.44.21-.13.14-.21.39-.25.73l-.33-.06v-3.6l.33.09c.03.32.1.6.24.84.13.25.38.54.75.87.22.18.78.58 1.7 1.18l9.38 6.08v.33l-9.38-.99 9.38 6.1z"/><path id="maodb" d="M23 683.17h12.57v15.28H23z"/><path id="maodcp" d="M23.5 698.45l-.5-.15v-4.72l.5.15v.07c0 .58.1.97.3 1.18.22.2.75.35 1.6.43l6.19.64-6.79-4.4-.28-.01c-.31 0-.54.09-.7.26-.17.19-.27.6-.31 1.22l-.01.1-.5-.1v-5.1l.5.16v.06c.01.55.06.92.14 1.11.06.13.16.24.29.33.13.09.37.17.71.22a417.96 417.96 0 0 1 6.94.75l-5.52-3.63c-.63-.41-1.08-.67-1.33-.78-.25-.1-.46-.15-.62-.15a.5.5 0 0 0-.38.18c-.11.13-.19.36-.23.68v.1l-.5-.1v-3.78l.5.13v.06c.03.3.1.58.23.81.13.24.37.52.73.85.21.18.78.57 1.7 1.17l9.41 6.1v.48l-9.12-.96 9.12 5.92v.45l-.1-.01-10.1-1.05a8.33 8.33 0 0 0-.87-.06c-.32 0-.57.09-.73.26-.16.18-.25.52-.26 1.02zm-.33-.28l.17.05c.02-.48.12-.81.3-1.01.2-.22.48-.33.86-.33.2 0 .5.03.9.07l10 1.03v-.15l-9.34-6.07.05-.16 9.29.98v-.2l-9.34-6.05c-.93-.6-1.49-1-1.7-1.18a3.7 3.7 0 0 1-.78-.9 2.1 2.1 0 0 1-.24-.81l-.17-.05v3.42l.17.03c.05-.32.13-.54.27-.69a.67.67 0 0 1 .5-.23c.19 0 .42.05.69.16.26.11.7.37 1.35.8l5.83 3.82-.06.16a436.88 436.88 0 0 0-7.3-.79 2.02 2.02 0 0 1-.79-.25 1 1 0 0 1-.34-.4c-.1-.2-.15-.57-.16-1.11l-.16-.05v4.72l.17.03c.05-.62.17-1.02.35-1.22.2-.22.47-.32.83-.32H24.86l7.12 4.63-.05.16-6.55-.68c-.9-.08-1.45-.24-1.7-.48-.23-.23-.35-.64-.35-1.24l-.16-.05z"/><path id="maodcq" d="M177.25 691.15l-4.8-1.39v1.13c0 .82.13 1.4.37 1.77.25.36.7.67 1.38.93v.33l-4.4-1.24v-.35c.37.1.69.15.95.15.25 0 .46-.05.61-.15.16-.1.27-.25.35-.43.07-.18.1-.57.1-1.15v-1.16l-4-1.16a3.6 3.6 0 0 0-.89-.17c-.15 0-.29.08-.4.22-.09.1-.13.36-.13.76v1.08c0 1.16.2 2.09.62 2.79.4.7 1.12 1.33 2.13 1.88v.33l-3.36-1.14v-9.37l.33.11c.01.47.05.78.13.94.1.24.24.42.4.53.25.15.76.34 1.55.56l7.3 2.13c.6.17 1.05.25 1.36.25.22 0 .4-.08.53-.23.13-.16.19-.47.19-.93v-.19l.33.1v8.7l-2.93-.74v-.33c.28.05.5.07.69.07.32 0 .58-.08.8-.23.27-.21.48-.5.62-.9.11-.28.17-.94.17-1.97z"/><path id="maodcr" d="M177.99 696.9l-3.1-.78v-.5l.1.02c.26.04.49.06.67.06.3 0 .55-.07.75-.22.25-.19.45-.48.59-.84.1-.28.16-.94.16-1.95v-1.47l-4.63-1.33v1.01c0 .8.12 1.37.36 1.72.24.35.69.65 1.33.9l.06.02v.5l-4.57-1.28v-.54l.1.03c.7.2 1.2.21 1.5.01.14-.1.25-.22.31-.38.07-.17.1-.55.1-1.12v-1.1l-3.94-1.14c-.38-.1-.67-.16-.86-.16-.13 0-.24.06-.34.19-.04.05-.1.2-.1.7v1.08c0 1.14.2 2.06.6 2.74.4.69 1.1 1.31 2.1 1.85l.05.03v.5l-3.54-1.2v-9.55l.5.17v.06c.01.45.05.76.12.9.1.23.23.4.38.5.23.14.75.33 1.52.55l7.3 2.13c.58.16 1.03.24 1.33.24.2 0 .35-.06.47-.2.11-.14.17-.43.17-.87v-.3l.5.15zm-2.94-.91l2.76.7v-8.53l-.16-.05v.07c0 .49-.07.8-.21.98a.73.73 0 0 1-.6.26 5.7 5.7 0 0 1-1.37-.24l-7.3-2.14a6.87 6.87 0 0 1-1.57-.57c-.18-.12-.33-.31-.45-.56a2.63 2.63 0 0 1-.13-.92l-.16-.05v9.19l3.2 1.08v-.16a5.44 5.44 0 0 1-2.13-1.89 5.6 5.6 0 0 1-.63-2.83v-1.08c0-.43.05-.69.14-.8.14-.18.3-.26.48-.26.2 0 .5.05.91.17l4.07 1.18v1.22c0 .6-.04.99-.12 1.18a1 1 0 0 1-.37.47c-.33.21-.84.22-1.53.04v.18l4.22 1.19v-.16a2.9 2.9 0 0 1-1.35-.94 3.3 3.3 0 0 1-.39-1.82v-1.24l4.97 1.43v1.6c0 1.05-.06 1.7-.17 2-.15.4-.37.72-.65.93-.23.17-.52.25-.85.25-.17 0-.37-.01-.6-.05z"/><clipPath id="maodcj"><use xlink:href="#maoda"/></clipPath><clipPath id="maodco"><use xlink:href="#maodb"/></clipPath></defs><g><g transform="translate(-45 -640)"><use fill="#beb1a7" xlink:href="#maodc"/></g><g transform="translate(-45 -640)"><use fill="#beb1a7" xlink:href="#maodd"/></g><g transform="translate(-45 -640)"><use fill="#beb1a7" xlink:href="#maode"/></g><g transform="translate(-45 -640)"><use fill="#beb1a7" xlink:href="#maodf"/></g><g transform="translate(-45 -640)"><use fill="#beb1a7" xlink:href="#maodg"/></g><g transform="translate(-45 -640)"><use fill="#beb1a7" xlink:href="#maodh"/></g><g transform="translate(-45 -640)"><use fill="#beb1a7" xlink:href="#maodi"/></g><g transform="translate(-45 -640)"><use fill="#beb1a7" xlink:href="#maodj"/></g><g transform="translate(-45 -640)"><use fill="#beb1a7" xlink:href="#maodk"/></g><g transform="translate(-45 -640)"><use fill="#beb1a7" xlink:href="#maodk"/></g><g transform="translate(-45 -640)"><use fill="#beb1a7" xlink:href="#maodl"/></g><g transform="translate(-45 -640)"><use fill="#beb1a7" xlink:href="#maodm"/></g><g transform="translate(-45 -640)"><use fill="#beb1a7" xlink:href="#maodn"/></g><g transform="translate(-45 -640)"><use fill="#beb1a7" xlink:href="#maodo"/></g><g transform="translate(-45 -640)"><use fill="#beb1a7" xlink:href="#maodo"/></g><g transform="translate(-45 -640)"><use fill="#beb1a7" xlink:href="#maodp"/></g><g transform="translate(-45 -640)"><use fill="#beb1a7" xlink:href="#maodq"/></g><g transform="translate(-45 -640)"><use fill="#beb1a7" xlink:href="#maodr"/></g><g transform="translate(-45 -640)"><use fill="#beb1a7" xlink:href="#maods"/></g><g transform="translate(-45 -640)"><use fill="#beb1a7" xlink:href="#maods"/></g><g transform="translate(-45 -640)"><use fill="#beb1a7" xlink:href="#maodt"/></g><g transform="translate(-45 -640)"><use fill="#beb1a7" xlink:href="#maodu"/></g><g transform="translate(-45 -640)"><use fill="#beb1a7" xlink:href="#maodv"/></g><g transform="translate(-45 -640)"><use fill="#beb1a7" xlink:href="#maodw"/></g><g transform="translate(-45 -640)"><use fill="#beb1a7" xlink:href="#maodw"/></g><g transform="translate(-45 -640)"><use fill="#beb1a7" xlink:href="#maodx"/></g><g transform="translate(-45 -640)"><use fill="#beb1a7" xlink:href="#maody"/></g><g transform="translate(-45 -640)"><use fill="#beb1a7" xlink:href="#maody"/></g><g transform="translate(-45 -640)"><use fill="#beb1a7" xlink:href="#maodz"/></g><g transform="translate(-45 -640)"><use fill="#beb1a7" xlink:href="#maodA"/></g><g transform="translate(-45 -640)"><use fill="#beb1a7" xlink:href="#maodB"/></g><g transform="translate(-45 -640)"><use fill="#beb1a7" xlink:href="#maodC"/></g><g transform="translate(-45 -640)"><use fill="#beb1a7" xlink:href="#maodC"/></g><g transform="translate(-45 -640)"><use fill="#beb1a7" xlink:href="#maodD"/></g><g transform="translate(-45 -640)"><use fill="#beb1a7" xlink:href="#maodE"/></g><g transform="translate(-45 -640)"><use fill="#beb1a7" xlink:href="#maodF"/></g><g transform="translate(-45 -640)"><use fill="#beb1a7" xlink:href="#maodG"/></g><g transform="translate(-45 -640)"><use fill="#beb1a7" xlink:href="#maodG"/></g><g transform="translate(-45 -640)"><use fill="#beb1a7" xlink:href="#maodH"/></g><g transform="translate(-45 -640)"><use fill="#beb1a7" xlink:href="#maodI"/></g><g transform="translate(-45 -640)"><use fill="#beb1a7" xlink:href="#maodJ"/></g><g transform="translate(-45 -640)"><use fill="#beb1a7" xlink:href="#maodK"/></g><g transform="translate(-45 -640)"><use fill="#beb1a7" xlink:href="#maodK"/></g><g transform="translate(-45 -640)"><use fill="#beb1a7" xlink:href="#maodL"/></g><g transform="translate(-45 -640)"><use fill="#beb1a7" xlink:href="#maodM"/></g><g transform="translate(-45 -640)"><use fill="#beb1a7" xlink:href="#maodN"/></g><g transform="translate(-45 -640)"><use fill="#beb1a7" xlink:href="#maodO"/></g><g transform="translate(-45 -640)"><use fill="#beb1a7" xlink:href="#maodP"/></g><g transform="translate(-45 -640)"><use fill="#beb1a7" xlink:href="#maodQ"/></g><g transform="translate(-45 -640)"><use fill="#beb1a7" xlink:href="#maodR"/></g><g transform="translate(-45 -640)"><use fill="#beb1a7" xlink:href="#maodS"/></g><g transform="translate(-45 -640)"><use fill="#beb1a7" xlink:href="#maodT"/></g><g transform="translate(-45 -640)"><use fill="#beb1a7" xlink:href="#maodU"/></g><g transform="translate(-45 -640)"><use fill="#beb1a7" xlink:href="#maodV"/></g><g transform="translate(-45 -640)"><use fill="#beb1a7" xlink:href="#maodW"/></g><g transform="translate(-45 -640)"><use fill="#beb1a7" xlink:href="#maodX"/></g><g transform="translate(-45 -640)"><use fill="#beb1a7" xlink:href="#maodX"/></g><g transform="translate(-45 -640)"><use fill="#beb1a7" xlink:href="#maodY"/></g><g transform="translate(-45 -640)"><use fill="#beb1a7" xlink:href="#maodZ"/></g><g transform="translate(-45 -640)"><use fill="#beb1a7" xlink:href="#maodaa"/></g><g transform="translate(-45 -640)"><use fill="#beb1a7" xlink:href="#maodab"/></g><g transform="translate(-45 -640)"><use fill="#beb1a7" xlink:href="#maodac"/></g><g transform="translate(-45 -640)"><use fill="#beb1a7" xlink:href="#maodad"/></g><g transform="translate(-45 -640)"><use fill="#beb1a7" xlink:href="#maodae"/></g><g transform="translate(-45 -640)"><use fill="#beb1a7" xlink:href="#maodaf"/></g><g transform="translate(-45 -640)"><use fill="#beb1a7" xlink:href="#maodag"/></g><g transform="translate(-45 -640)"><use fill="#beb1a7" xlink:href="#maodah"/></g><g transform="translate(-45 -640)"><use fill="#beb1a7" xlink:href="#maodai"/></g><g transform="translate(-45 -640)"><use fill="#beb1a7" xlink:href="#maodaj"/></g><g transform="translate(-45 -640)"><use fill="#beb1a7" xlink:href="#maodak"/></g><g transform="translate(-45 -640)"><use fill="#beb1a7" xlink:href="#maodal"/></g><g transform="translate(-45 -640)"><use fill="#beb1a7" xlink:href="#maodam"/></g><g transform="translate(-45 -640)"><use fill="#beb1a7" xlink:href="#maodan"/></g><g transform="translate(-45 -640)"><use fill="#beb1a7" xlink:href="#maodao"/></g><g transform="translate(-45 -640)"><use fill="#beb1a7" xlink:href="#maodap"/></g><g transform="translate(-45 -640)"><use fill="#beb1a7" xlink:href="#maodaq"/></g><g transform="translate(-45 -640)"><use fill="#beb1a7" xlink:href="#maodar"/></g><g transform="translate(-45 -640)"><use fill="#beb1a7" xlink:href="#maodas"/></g><g transform="translate(-45 -640)"><use fill="#beb1a7" xlink:href="#maodO"/></g><g transform="translate(-45 -640)"><use fill="#beb1a7" xlink:href="#maodO"/></g><g transform="translate(-45 -640)"><use fill="#beb1a7" xlink:href="#maodat"/></g><g transform="translate(-45 -640)"><use fill="#beb1a7" xlink:href="#maodO"/></g><g transform="translate(-45 -640)"><use fill="#beb1a7" xlink:href="#maodau"/></g><g transform="translate(-45 -640)"><use fill="#beb1a7" xlink:href="#maodav"/></g><g transform="translate(-45 -640)"><use fill="#beb1a7" xlink:href="#maodaw"/></g><g transform="translate(-45 -640)"><use fill="#beb1a7" xlink:href="#maodax"/></g><g transform="translate(-45 -640)"><use fill="#beb1a7" xlink:href="#maoday"/></g><g transform="translate(-45 -640)"><use fill="#beb1a7" xlink:href="#maodaz"/></g><g transform="translate(-45 -640)"><use fill="#beb1a7" xlink:href="#maodaA"/></g><g transform="translate(-45 -640)"><use fill="#beb1a7" xlink:href="#maodaB"/></g><g transform="translate(-45 -640)"><use fill="#beb1a7" xlink:href="#maodaC"/></g><g transform="translate(-45 -640)"><use fill="#beb1a7" xlink:href="#maodaD"/></g><g transform="translate(-45 -640)"><use fill="#beb1a7" xlink:href="#maodaE"/></g><g transform="translate(-45 -640)"><use fill="#beb1a7" xlink:href="#maodaF"/></g><g transform="translate(-45 -640)"><use fill="#beb1a7" xlink:href="#maodaG"/></g><g transform="translate(-45 -640)"><use fill="#beb1a7" xlink:href="#maodaH"/></g><g transform="translate(-45 -640)"><use fill="#beb1a7" xlink:href="#maodaI"/></g><g transform="translate(-45 -640)"><use fill="#beb1a7" xlink:href="#maodaJ"/></g><g transform="translate(-45 -640)"><use fill="#beb1a7" xlink:href="#maodaK"/></g><g transform="translate(-45 -640)"><use fill="#beb1a7" xlink:href="#maodaL"/></g><g transform="translate(-45 -640)"><use fill="#beb1a7" xlink:href="#maodaM"/></g><g transform="translate(-45 -640)"><use fill="#beb1a7" xlink:href="#maodaN"/></g><g transform="translate(-45 -640)"><use fill="#beb1a7" xlink:href="#maodaO"/></g><g transform="translate(-45 -640)"><use fill="#beb1a7" xlink:href="#maodaP"/></g><g transform="translate(-45 -640)"><use fill="#beb1a7" xlink:href="#maodaQ"/></g><g transform="translate(-45 -640)"><use fill="#beb1a7" xlink:href="#maodaR"/></g><g transform="translate(-45 -640)"><use fill="#beb1a7" xlink:href="#maodaS"/></g><g transform="translate(-45 -640)"><use fill="#beb1a7" xlink:href="#maodaT"/></g><g transform="translate(-45 -640)"><use fill="#beb1a7" xlink:href="#maodaU"/></g><g transform="translate(-45 -640)"><use fill="#beb1a7" xlink:href="#maodaV"/></g><g transform="translate(-45 -640)"><use fill="#beb1a7" xlink:href="#maodaW"/></g><g transform="translate(-45 -640)"><use fill="#beb1a7" xlink:href="#maodaX"/></g><g transform="translate(-45 -640)"><use fill="#beb1a7" xlink:href="#maodaY"/></g><g transform="translate(-45 -640)"><use fill="#beb1a7" xlink:href="#maodaZ"/></g><g transform="translate(-45 -640)"><use fill="#beb1a7" xlink:href="#maodba"/></g><g transform="translate(-45 -640)"><use fill="#beb1a7" xlink:href="#maodbb"/></g><g transform="translate(-45 -640)"><use fill="#beb1a7" xlink:href="#maodbc"/></g><g transform="translate(-45 -640)"><use fill="#beb1a7" xlink:href="#maodbd"/></g><g transform="translate(-45 -640)"><use fill="#beb1a7" xlink:href="#maodbe"/></g><g transform="translate(-45 -640)"><use fill="#beb1a7" xlink:href="#maodbf"/></g><g transform="translate(-45 -640)"><use fill="#beb1a7" xlink:href="#maodbg"/></g><g transform="translate(-45 -640)"><use fill="#beb1a7" xlink:href="#maodbh"/></g><g transform="translate(-45 -640)"><use fill="#beb1a7" xlink:href="#maodbi"/></g><g transform="translate(-45 -640)"><use fill="#beb1a7" xlink:href="#maodbj"/></g><g transform="translate(-45 -640)"><use fill="#beb1a7" xlink:href="#maodbk"/></g><g transform="translate(-45 -640)"><use fill="#beb1a7" xlink:href="#maodbl"/></g><g transform="translate(-45 -640)"><use fill="#beb1a7" xlink:href="#maodbm"/></g><g transform="translate(-45 -640)"><use fill="#beb1a7" xlink:href="#maodbn"/></g><g transform="translate(-45 -640)"><use fill="#beb1a7" xlink:href="#maodbo"/></g><g transform="translate(-45 -640)"><use fill="#beb1a7" xlink:href="#maodbp"/></g><g transform="translate(-45 -640)"><use fill="#beb1a7" xlink:href="#maodbq"/></g><g transform="translate(-45 -640)"><use fill="#beb1a7" xlink:href="#maodbr"/></g><g transform="translate(-45 -640)"><use fill="#beb1a7" xlink:href="#maodbs"/></g><g transform="translate(-45 -640)"><use fill="#beb1a7" xlink:href="#maodbt"/></g><g transform="translate(-45 -640)"><use fill="#beb1a7" xlink:href="#maodbu"/></g><g transform="translate(-45 -640)"><use fill="#beb1a7" xlink:href="#maodbv"/></g><g transform="translate(-45 -640)"><use fill="#beb1a7" xlink:href="#maodbs"/></g><g transform="translate(-45 -640)"><use fill="#beb1a7" xlink:href="#maodbt"/></g><g transform="translate(-45 -640)"><use fill="#beb1a7" xlink:href="#maodbu"/></g><g transform="translate(-45 -640)"><use fill="#beb1a7" xlink:href="#maodbv"/></g><g transform="translate(-45 -640)"><use fill="#beb1a7" xlink:href="#maodbw"/></g><g transform="translate(-45 -640)"><use fill="#beb1a7" xlink:href="#maodbx"/></g><g transform="translate(-45 -640)"><use fill="#beb1a7" xlink:href="#maodby"/></g><g transform="translate(-45 -640)"><use fill="#beb1a7" xlink:href="#maodbz"/></g><g transform="translate(-45 -640)"><use fill="#beb1a7" xlink:href="#maodbA"/></g><g transform="translate(-45 -640)"><use fill="#beb1a7" xlink:href="#maodbB"/></g><g transform="translate(-45 -640)"><use fill="#beb1a7" xlink:href="#maodbC"/></g><g transform="translate(-45 -640)"><use fill="#beb1a7" xlink:href="#maodbD"/></g><g transform="translate(-45 -640)"><use fill="#beb1a7" xlink:href="#maodbE"/></g><g transform="translate(-45 -640)"><use fill="#beb1a7" xlink:href="#maodbF"/></g><g transform="translate(-45 -640)"><use fill="#beb1a7" xlink:href="#maodbG"/></g><g transform="translate(-45 -640)"><use fill="#beb1a7" xlink:href="#maodbH"/></g><g transform="translate(-45 -640)"><use fill="#beb1a7" xlink:href="#maodbI"/></g><g transform="translate(-45 -640)"><use fill="#beb1a7" xlink:href="#maodbJ"/></g><g transform="translate(-45 -640)"><use fill="#beb1a7" xlink:href="#maodbK"/></g><g transform="translate(-45 -640)"><use fill="#beb1a7" xlink:href="#maodbL"/></g><g transform="translate(-45 -640)"><use fill="#beb1a7" xlink:href="#maodbM"/></g><g transform="translate(-45 -640)"><use fill="#beb1a7" xlink:href="#maodbN"/></g><g transform="translate(-45 -640)"><use fill="#beb1a7" xlink:href="#maodbO"/></g><g transform="translate(-45 -640)"><use fill="#beb1a7" xlink:href="#maodbP"/></g><g transform="translate(-45 -640)"><use fill="#beb1a7" xlink:href="#maodbQ"/></g><g transform="translate(-45 -640)"><use fill="#beb1a7" xlink:href="#maodbR"/></g><g transform="translate(-45 -640)"><use fill="#beb1a7" xlink:href="#maodbS"/></g><g transform="translate(-45 -640)"><use fill="#beb1a7" xlink:href="#maodbT"/></g><g transform="translate(-45 -640)"><use fill="#beb1a7" xlink:href="#maodbU"/></g><g transform="translate(-45 -640)"><use fill="#beb1a7" xlink:href="#maodbV"/></g><g transform="translate(-45 -640)"><use fill="#beb1a7" xlink:href="#maodbW"/></g><g transform="translate(-45 -640)"><use fill="#beb1a7" xlink:href="#maodbX"/></g><g transform="translate(-45 -640)"><use fill="#beb1a7" xlink:href="#maodbY"/></g><g transform="translate(-45 -640)"><use fill="#beb1a7" xlink:href="#maodbZ"/></g><g transform="translate(-45 -640)"><use fill="#beb1a7" xlink:href="#maodca"/></g><g transform="translate(-45 -640)"><use fill="#beb1a7" xlink:href="#maodcb"/></g><g transform="translate(-45 -640)"><use fill="#beb1a7" xlink:href="#maodcc"/></g><g transform="translate(-45 -640)"><use fill="#beb1a7" xlink:href="#maodcd"/></g><g transform="translate(-45 -640)"><use fill="#beb1a7" xlink:href="#maodce"/></g><g transform="translate(-45 -640)"><use fill="#beb1a7" xlink:href="#maodcf"/></g><g transform="translate(-45 -640)"><use fill="#beb1a7" xlink:href="#maodcg"/></g><g transform="translate(-45 -640)"><use fill="#beb1a7" xlink:href="#maodch"/></g><g transform="translate(-45 -640)"><use fill="#beb1a7" xlink:href="#maodci"/></g><g transform="translate(-45 -640)"><g/><g clip-path="url(#maodcj)"><use fill="#beb1a7" xlink:href="#maodck"/></g></g><g transform="translate(-45 -640)"><use fill="#beb1a7" xlink:href="#maodcl"/></g><g transform="translate(-45 -640)"><use fill="#beb1a7" xlink:href="#maodcm"/></g><g transform="translate(-45 -640)"><use fill="#beb1a7" xlink:href="#maodcn"/></g><g transform="translate(-45 -640)"/><g clip-path="url(#maodco)" transform="translate(-45 -640)"><use fill="#beb1a7" xlink:href="#maodcp"/></g><g transform="translate(-45 -640)"><use fill="#beb1a7" xlink:href="#maodcq"/></g><g transform="translate(-45 -640)"><use fill="#beb1a7" xlink:href="#maodcr"/></g></g></svg>