<?xml version="1.0" encoding="utf-8"?>
<!-- Generator: Adobe Illustrator 22.1.0, SVG Export Plug-In . SVG Version: 6.00 Build 0)  -->
<svg version="1.1" id="Layer_1" xmlns="http://www.w3.org/2000/svg" xmlns:xlink="http://www.w3.org/1999/xlink" x="0px" y="0px"
	 width="140px" height="137px" viewBox="0 0 140 137" style="enable-background:new 0 0 140 137;" xml:space="preserve">
<style type="text/css">
	.st0{fill:#BEB1A7;}
	.st1{filter:url(#Adobe_OpacityMaskFilter);}
	.st2{fill:#FFFFFF;}
	.st3{mask:url(#mask-2_1_);fill:#BEB1A7;}
	.st4{filter:url(#Adobe_OpacityMaskFilter_1_);}
	.st5{mask:url(#mask-4_1_);fill:#BEB1A7;}
</style>
<title>Group 375</title>
<desc>Created with Sketch.</desc>
<g id="Design">
	<g id="Project-floor" transform="translate(-30.000000, -623.000000)">
		
			<g id="Group-375" transform="translate(100.380816, 692.039137) rotate(-330.000000) translate(-100.380816, -692.039137) translate(22.880816, 614.539137)">
			<path id="Fill-1" class="st0" d="M92.9,67.2c0,0-0.1-0.1-0.2-0.3c-0.1-0.2-0.3-0.5-0.5-0.8c-0.5-0.7-1.2-1.8-2.3-2.9
				c-0.1-0.1-0.3-0.3-0.4-0.4c-0.2-0.1-0.3-0.3-0.5-0.4c-0.2-0.2-0.3-0.3-0.5-0.4c-0.2-0.1-0.4-0.3-0.6-0.4
				c-0.8-0.6-1.7-1.2-2.7-1.7c-2-1-4.4-1.9-7.2-2.1c-1.4-0.1-2.8-0.1-4.3,0.1c-1.5,0.2-3,0.6-4.4,1.2c-0.2,0.1-0.4,0.2-0.5,0.2
				c-0.2,0.1-0.4,0.2-0.5,0.3c-0.2,0.1-0.4,0.2-0.5,0.3l-0.3,0.1c-0.1,0-0.2,0.1-0.3,0.2c-0.2,0.1-0.4,0.2-0.5,0.3
				c-0.2,0.1-0.3,0.2-0.5,0.3c-0.3,0.2-0.7,0.5-1,0.7c-0.7,0.5-1.3,1.1-1.9,1.7c-0.3,0.3-0.6,0.6-0.9,0.9c-0.1,0.2-0.3,0.3-0.4,0.5
				l-0.2,0.3L61.4,65c-1,1.4-1.9,2.9-2.5,4.6c-0.3,0.8-0.6,1.7-0.8,2.6c-0.2,0.9-0.3,1.8-0.4,2.7c-0.1,0.9-0.1,1.8,0,2.7
				c0.1,0.9,0.2,1.8,0.4,2.7c0.2,0.9,0.5,1.8,0.8,2.6c0.3,0.9,0.7,1.7,1.2,2.5c0.5,0.8,1,1.6,1.5,2.3c0.6,0.7,1.2,1.4,1.8,2.1
				c0.7,0.6,1.4,1.2,2.1,1.8c0.7,0.5,1.5,1,2.3,1.4c0.8,0.4,1.6,0.8,2.5,1.1c0.9,0.3,1.7,0.5,2.6,0.7c1.7,0.3,3.5,0.4,5.2,0.3l0.3,0
				l0.3,0c0.2,0,0.4-0.1,0.6-0.1c0.4-0.1,0.8-0.1,1.3-0.3c0.8-0.2,1.6-0.4,2.4-0.7c0.4-0.2,0.8-0.3,1.1-0.5c0.2-0.1,0.4-0.2,0.6-0.3
				c0.2-0.1,0.4-0.2,0.5-0.3c0.1,0,0.2-0.1,0.3-0.1l0.3-0.2c0.2-0.1,0.3-0.2,0.5-0.3c0.2-0.1,0.3-0.2,0.5-0.3
				c0.2-0.1,0.3-0.2,0.5-0.3c1.3-0.9,2.4-2,3.4-3.1c1-1.1,1.8-2.4,2.4-3.6c1.3-2.5,1.9-5,2-7.2c0.1-1.1,0.1-2.2,0-3.1
				c0-0.2-0.1-0.5-0.1-0.7c0-0.2-0.1-0.5-0.1-0.7c0-0.2-0.1-0.4-0.1-0.6c0-0.2-0.1-0.4-0.1-0.6c-0.4-1.6-0.9-2.8-1.2-3.5
				c-0.2-0.4-0.3-0.7-0.4-0.9C92.9,67.3,92.9,67.2,92.9,67.2L92.9,67.2z M92.9,67.1c0,0,0.1,0.1,0.2,0.3c0.1,0.2,0.3,0.5,0.4,0.9
				c0.4,0.8,0.9,2,1.3,3.5c0,0.2,0.1,0.4,0.1,0.6c0,0.2,0.1,0.4,0.1,0.6c0,0.2,0.1,0.4,0.1,0.7c0,0.2,0.1,0.5,0.1,0.7
				c0.1,1,0.1,2,0.1,3.2c-0.1,2.3-0.7,4.8-2,7.3c-0.6,1.3-1.4,2.5-2.4,3.7c-1,1.2-2.1,2.3-3.4,3.2c-0.2,0.1-0.3,0.2-0.5,0.4
				c-0.2,0.1-0.3,0.2-0.5,0.3c-0.2,0.1-0.4,0.2-0.5,0.3l-0.3,0.2l0,0l0,0l-0.1,0l-0.1,0.1c-0.2,0.1-0.4,0.2-0.5,0.3
				c-0.2,0.1-0.4,0.2-0.6,0.3c-0.4,0.2-0.8,0.3-1.2,0.5c-0.8,0.3-1.6,0.6-2.5,0.8c-0.4,0.1-0.9,0.2-1.3,0.3c-0.2,0-0.4,0.1-0.7,0.1
				l-0.3,0l-0.3,0c-1.8,0.2-3.6,0.1-5.4-0.2c-0.2,0-0.5-0.1-0.7-0.1c-0.2,0-0.4-0.1-0.7-0.2L71.1,95l-0.3-0.1
				c-0.2-0.1-0.4-0.1-0.7-0.2c-0.9-0.3-1.7-0.7-2.6-1.1c-3.4-1.7-6.2-4.5-8.1-7.8c-1.9-3.3-2.7-7.3-2.4-11c0.1-0.9,0.2-1.9,0.4-2.8
				c0-0.2,0.1-0.4,0.2-0.7l0.1-0.3l0.1-0.3c0.1-0.2,0.1-0.4,0.2-0.7c0.1-0.2,0.2-0.4,0.2-0.6c0.7-1.7,1.6-3.3,2.7-4.7l0.2-0.3
				l0.2-0.3c0.1-0.2,0.3-0.3,0.4-0.5c0.3-0.3,0.6-0.6,0.9-0.9c0.6-0.6,1.3-1.2,2-1.7c0.3-0.2,0.7-0.5,1-0.7c0.2-0.1,0.4-0.2,0.5-0.3
				c0.2-0.1,0.4-0.2,0.5-0.3c0.1-0.1,0.2-0.1,0.3-0.2l0.3-0.1c0.2-0.1,0.4-0.2,0.5-0.3c0.2-0.1,0.4-0.2,0.6-0.3
				c0.2-0.1,0.4-0.2,0.6-0.2c1.5-0.6,3-1,4.5-1.2c1.5-0.2,3-0.2,4.4-0.1c2.8,0.3,5.3,1.1,7.3,2.2c1,0.5,1.9,1.1,2.7,1.7
				c0.2,0.1,0.4,0.3,0.6,0.4c0.2,0.1,0.4,0.3,0.5,0.4c0.2,0.2,0.3,0.3,0.5,0.4c0.2,0.2,0.3,0.3,0.4,0.4c1.1,1.2,1.9,2.2,2.3,2.9
				c0.2,0.4,0.4,0.7,0.5,0.8C92.9,67,92.9,67.1,92.9,67.1L92.9,67.1z"/>
			<path id="Fill-3" class="st0" d="M86.7,95c0,0,0.1-0.1,0.3-0.2c0.2-0.1,0.6-0.3,1-0.6c0.8-0.5,2-1.4,3.3-2.7
				c0.2-0.2,0.3-0.3,0.5-0.5c0.2-0.2,0.3-0.4,0.5-0.6c0.2-0.2,0.3-0.4,0.5-0.6c0.2-0.2,0.3-0.4,0.5-0.6c0.7-0.9,1.3-1.9,1.9-3
				c1.2-2.3,2.1-5.1,2.4-8.2c0.1-1.6,0.1-3.2-0.2-4.9c-0.2-1.7-0.7-3.4-1.4-5.1c-0.1-0.2-0.2-0.4-0.3-0.6c-0.1-0.2-0.2-0.4-0.3-0.6
				c-0.1-0.2-0.2-0.4-0.3-0.6L95,65.9c-0.1-0.1-0.1-0.2-0.2-0.3c-0.1-0.2-0.2-0.4-0.4-0.6c-0.1-0.2-0.3-0.4-0.4-0.6
				c-0.3-0.4-0.5-0.8-0.8-1.2c-0.6-0.7-1.2-1.5-1.9-2.2c-0.3-0.4-0.7-0.7-1.1-1c-0.2-0.2-0.4-0.3-0.6-0.5l-0.3-0.2l-0.3-0.2
				c-1.6-1.2-3.3-2.2-5.2-2.9C83,55.9,82,55.6,81,55.4c-1-0.2-2-0.4-3.1-0.5c-1-0.1-2.1-0.1-3.1,0c-1,0.1-2.1,0.2-3.1,0.4
				c-1,0.2-2,0.5-3,0.9c-1,0.4-1.9,0.8-2.9,1.3c-0.9,0.5-1.8,1.1-2.6,1.7c-0.8,0.6-1.6,1.3-2.3,2.1c-0.7,0.8-1.4,1.6-2,2.4
				c-0.6,0.9-1.2,1.7-1.6,2.7c-0.5,0.9-0.9,1.9-1.2,2.8c-0.3,1-0.6,2-0.8,3c-0.4,2-0.5,4-0.3,6l0,0.4l0,0.4c0,0.2,0.1,0.5,0.1,0.7
				c0.1,0.5,0.2,1,0.3,1.4c0.2,0.9,0.5,1.9,0.8,2.8c0.2,0.4,0.3,0.9,0.5,1.3c0.1,0.2,0.2,0.4,0.3,0.6c0.1,0.2,0.2,0.4,0.3,0.6
				c0.1,0.1,0.1,0.2,0.2,0.3l0.2,0.3c0.1,0.2,0.2,0.4,0.4,0.6c0.1,0.2,0.3,0.4,0.4,0.6c0.1,0.2,0.2,0.4,0.4,0.6
				c1.1,1.5,2.3,2.8,3.6,3.9c1.3,1.1,2.7,2,4.1,2.7c2.8,1.4,5.7,2.1,8.2,2.3c1.3,0.1,2.5,0.1,3.6,0c0.3,0,0.5-0.1,0.8-0.1
				c0.3,0,0.5-0.1,0.8-0.1c0.3,0,0.5-0.1,0.7-0.1c0.2-0.1,0.5-0.1,0.7-0.2c1.8-0.4,3.1-1,4-1.4c0.5-0.2,0.8-0.4,1-0.5
				C86.6,95.1,86.7,95,86.7,95L86.7,95z M86.7,95.1c0,0-0.1,0.1-0.3,0.2c-0.2,0.1-0.6,0.3-1,0.5c-0.9,0.4-2.2,1-4,1.4
				c-0.2,0.1-0.5,0.1-0.7,0.2c-0.2,0-0.5,0.1-0.7,0.1c-0.3,0.1-0.5,0.1-0.8,0.1c-0.3,0-0.5,0.1-0.8,0.1c-1.1,0.1-2.3,0.2-3.6,0.1
				c-2.6-0.2-5.5-0.8-8.3-2.2c-1.4-0.7-2.8-1.6-4.2-2.7c-1.3-1.1-2.6-2.4-3.7-3.9c-0.1-0.2-0.3-0.4-0.4-0.6
				c-0.1-0.2-0.3-0.4-0.4-0.6c-0.1-0.2-0.2-0.4-0.4-0.6l-0.2-0.3l0,0l0,0l0-0.1L57,86.6c-0.1-0.2-0.2-0.4-0.3-0.6
				c-0.1-0.2-0.2-0.4-0.3-0.6c-0.2-0.4-0.4-0.9-0.6-1.3c-0.3-0.9-0.7-1.8-0.9-2.8c-0.1-0.5-0.2-1-0.3-1.5c0-0.2-0.1-0.5-0.1-0.7
				l-0.1-0.4l0-0.4c-0.2-2-0.1-4.1,0.2-6.1c0.1-0.3,0.1-0.5,0.2-0.8c0.1-0.3,0.1-0.5,0.2-0.8l0.1-0.4l0.1-0.4
				c0.1-0.3,0.1-0.5,0.2-0.8c0.3-1,0.8-2,1.2-2.9l0.4-0.7c0.1-0.2,0.3-0.5,0.4-0.7c0.1-0.1,0.1-0.2,0.2-0.3l0.2-0.3
				c0.2-0.2,0.3-0.5,0.5-0.7c0.6-0.9,1.3-1.7,2.1-2.5c0.7-0.8,1.6-1.5,2.4-2.2l0.7-0.5c0.2-0.2,0.4-0.3,0.7-0.5
				c0.2-0.2,0.5-0.3,0.7-0.4l0.7-0.4l0.7-0.4c0.1-0.1,0.2-0.1,0.4-0.2l0.4-0.2l0.4-0.2c0.1-0.1,0.3-0.1,0.4-0.2l0.8-0.3
				c1-0.4,2.1-0.7,3.1-0.9c1.1-0.2,2.1-0.4,3.2-0.4c1.1-0.1,2.1-0.1,3.2,0c1.1,0.1,2.1,0.3,3.1,0.5c0.3,0.1,0.5,0.1,0.8,0.2l0.4,0.1
				l0.4,0.1c0.2,0.1,0.5,0.2,0.7,0.2c0.2,0.1,0.5,0.2,0.7,0.3c1.9,0.8,3.7,1.8,5.3,3l0.3,0.2l0.3,0.2c0.2,0.2,0.4,0.3,0.6,0.5
				c0.4,0.3,0.7,0.7,1.1,1c0.7,0.7,1.3,1.5,1.9,2.2c0.3,0.4,0.6,0.8,0.8,1.2c0.1,0.2,0.3,0.4,0.4,0.6c0.1,0.2,0.2,0.4,0.4,0.6
				c0.1,0.1,0.1,0.2,0.2,0.3l0.2,0.3c0.1,0.2,0.2,0.4,0.3,0.6c0.1,0.2,0.2,0.4,0.3,0.6c0.1,0.2,0.2,0.4,0.3,0.6
				c0.7,1.7,1.1,3.4,1.4,5.2c0.2,1.7,0.2,3.4,0.1,5c-0.3,3.2-1.3,6-2.5,8.3c-0.6,1.1-1.3,2.2-2,3c-0.2,0.2-0.3,0.4-0.5,0.6
				c-0.2,0.2-0.3,0.4-0.5,0.6c-0.2,0.2-0.3,0.4-0.5,0.6c-0.2,0.2-0.3,0.3-0.5,0.5c-1.3,1.3-2.5,2.1-3.3,2.7c-0.4,0.3-0.7,0.5-1,0.6
				C86.8,95,86.7,95.1,86.7,95.1L86.7,95.1z"/>
			<path id="Fill-5" class="st0" d="M100.6,62.7c0,0-0.1-0.1-0.3-0.4c-0.1-0.1-0.2-0.3-0.3-0.5c-0.1-0.1-0.1-0.2-0.2-0.3
				c-0.1-0.1-0.2-0.2-0.3-0.4c-0.7-1.1-1.8-2.6-3.5-4.3c-0.2-0.2-0.4-0.4-0.7-0.7c-0.2-0.2-0.5-0.4-0.7-0.7
				c-0.2-0.2-0.5-0.4-0.8-0.7c-0.3-0.2-0.5-0.5-0.8-0.7c-1.1-0.9-2.5-1.7-3.9-2.5c-1.5-0.8-3.1-1.5-4.9-2c-1.8-0.5-3.7-0.9-5.8-1.1
				c-2-0.2-4.2-0.1-6.4,0.2c-0.3,0-0.5,0.1-0.8,0.1c-0.3,0.1-0.6,0.1-0.8,0.2c-0.3,0.1-0.5,0.1-0.8,0.2c-0.1,0-0.3,0.1-0.4,0.1
				c-0.1,0-0.3,0.1-0.4,0.1c-0.3,0.1-0.6,0.2-0.8,0.2c-0.3,0.1-0.5,0.2-0.8,0.3c-0.1,0-0.3,0.1-0.4,0.1l-0.2,0.1l-0.2,0.1
				c-0.3,0.1-0.5,0.2-0.8,0.3c-0.3,0.1-0.5,0.2-0.8,0.4c-0.3,0.1-0.5,0.2-0.8,0.4c-0.3,0.1-0.5,0.3-0.8,0.4l-0.4,0.2
				c-0.1,0.1-0.3,0.2-0.4,0.2c-0.3,0.2-0.5,0.3-0.8,0.5c-0.3,0.2-0.5,0.3-0.8,0.5c-0.5,0.3-1,0.7-1.5,1.1c-1,0.8-1.9,1.6-2.8,2.5
				C56,57,55.6,57.5,55.2,58c-0.2,0.2-0.4,0.5-0.6,0.7l-0.3,0.4L54,59.5c-1.5,2-2.8,4.4-3.8,6.8c-0.1,0.3-0.2,0.6-0.3,0.9
				c-0.1,0.3-0.2,0.6-0.3,0.9c0,0.2-0.1,0.3-0.1,0.5l-0.1,0.5l-0.1,0.5c0,0.2-0.1,0.3-0.1,0.5c-0.1,0.3-0.1,0.7-0.2,1
				c-0.1,0.3-0.1,0.7-0.2,1l-0.1,0.5l-0.1,0.5l-0.1,0.5c0,0.2,0,0.3,0,0.5c0,0.3,0,0.7-0.1,1c0,0.3,0,0.7,0,1c0,0.2,0,0.3,0,0.5
				l0,0.5l0,0.5c0,0.2,0,0.3,0,0.5l0.1,1c0,0.3,0.1,0.7,0.1,1c0,0.2,0,0.3,0.1,0.5l0.1,0.5l0.1,0.5c0,0.2,0.1,0.3,0.1,0.5l0.2,1
				c0.1,0.3,0.2,0.7,0.3,1l0.1,0.5l0.2,0.5c0.1,0.3,0.2,0.6,0.3,1c0.5,1.3,1.1,2.5,1.7,3.7c0.7,1.2,1.4,2.3,2.3,3.4
				c0.2,0.3,0.4,0.5,0.6,0.8l0.3,0.4l0.3,0.4c0.2,0.3,0.5,0.5,0.7,0.8l0.7,0.7c0.1,0.1,0.2,0.2,0.4,0.4l0.4,0.3l0.4,0.3
				c0.1,0.1,0.3,0.2,0.4,0.3c0.3,0.2,0.5,0.4,0.8,0.6l0.8,0.6c0.1,0.1,0.3,0.2,0.4,0.3l0.4,0.3l0.4,0.3c0.1,0.1,0.3,0.2,0.4,0.3
				c0.3,0.2,0.6,0.4,0.9,0.5c0.3,0.2,0.6,0.3,0.9,0.5c0.1,0.1,0.3,0.2,0.5,0.2l0.5,0.2l0.5,0.2l0.5,0.2c0.3,0.1,0.6,0.3,0.9,0.4
				c0.3,0.1,0.6,0.2,0.9,0.3c0.2,0.1,0.3,0.1,0.5,0.2l0.5,0.1l0.5,0.1c0.2,0,0.3,0.1,0.5,0.1c0.3,0.1,0.6,0.2,1,0.2
				c0.3,0.1,0.6,0.1,1,0.2c2.6,0.5,5.2,0.6,7.8,0.4l0.5,0l0.5-0.1c0.3,0,0.6-0.1,0.9-0.1c0.6-0.1,1.3-0.2,1.9-0.4
				c1.2-0.3,2.4-0.7,3.6-1.1c0.6-0.2,1.1-0.4,1.7-0.7c0.3-0.1,0.6-0.2,0.8-0.4c0.3-0.1,0.5-0.3,0.8-0.4c0.1-0.1,0.3-0.1,0.4-0.2
				l0.4-0.2c0.3-0.2,0.5-0.3,0.8-0.5c0.3-0.2,0.5-0.3,0.7-0.5c0.2-0.2,0.5-0.3,0.7-0.5c0.2-0.2,0.5-0.3,0.7-0.5l0.2-0.1l0.2-0.1
				c0.1-0.1,0.2-0.2,0.3-0.3c0.2-0.2,0.5-0.4,0.7-0.6c0.2-0.2,0.4-0.4,0.6-0.6c0.1-0.1,0.2-0.2,0.3-0.3c0.1-0.1,0.2-0.2,0.3-0.3
				c0.2-0.2,0.4-0.4,0.6-0.6c0.2-0.2,0.4-0.4,0.6-0.6c0.2-0.2,0.4-0.4,0.6-0.6c1.4-1.7,2.6-3.5,3.5-5.3c0.9-1.8,1.6-3.7,2.1-5.5
				c0.5-1.8,0.8-3.6,0.9-5.2c0.1-1.7,0.1-3.2-0.1-4.7c0-0.4-0.1-0.7-0.1-1.1c0-0.3-0.1-0.7-0.2-1c-0.1-0.3-0.1-0.6-0.2-1
				c-0.1-0.3-0.1-0.6-0.2-0.9c-0.6-2.3-1.3-4.1-1.8-5.2c-0.1-0.1-0.1-0.3-0.2-0.4c-0.1-0.1-0.1-0.2-0.2-0.4
				c-0.1-0.2-0.2-0.4-0.3-0.5C100.7,62.8,100.6,62.7,100.6,62.7L100.6,62.7z M100.7,62.7c0,0,0.1,0.2,0.2,0.4
				c0.1,0.1,0.2,0.3,0.3,0.5c0.1,0.1,0.1,0.2,0.2,0.4c0.1,0.1,0.1,0.3,0.2,0.4c0.6,1.2,1.3,2.9,1.9,5.3c0.1,0.3,0.1,0.6,0.2,0.9
				c0.1,0.3,0.1,0.6,0.2,1c0.1,0.3,0.1,0.7,0.2,1c0,0.3,0.1,0.7,0.1,1.1c0.2,1.4,0.2,3,0.1,4.7c-0.2,3.3-1.1,7.1-2.9,10.8
				c-0.9,1.9-2.1,3.7-3.5,5.4c-0.2,0.2-0.4,0.4-0.6,0.6c-0.2,0.2-0.4,0.4-0.6,0.6c-0.2,0.2-0.4,0.4-0.6,0.6
				c-0.1,0.1-0.2,0.2-0.3,0.3c-0.1,0.1-0.2,0.2-0.3,0.3c-0.2,0.2-0.4,0.4-0.6,0.6c-0.2,0.2-0.4,0.4-0.7,0.6
				c-0.1,0.1-0.2,0.2-0.3,0.3l-0.2,0.1l-0.2,0.1c-0.2,0.2-0.5,0.4-0.7,0.5c-0.2,0.2-0.5,0.3-0.7,0.5c-0.2,0.2-0.5,0.3-0.7,0.5
				c-0.3,0.2-0.5,0.3-0.8,0.5l-0.4,0.2c0,0,0,0-0.1,0l0,0l-0.1,0.1l-0.2,0.1c-0.3,0.1-0.5,0.3-0.8,0.4c-0.3,0.1-0.6,0.3-0.8,0.4
				c-0.6,0.3-1.1,0.5-1.7,0.7c-1.2,0.4-2.4,0.9-3.6,1.1c-0.6,0.2-1.3,0.3-1.9,0.4c-0.3,0.1-0.6,0.1-1,0.1l-0.5,0.1l-0.5,0
				c-2.6,0.3-5.3,0.2-7.9-0.3c-0.3-0.1-0.7-0.1-1-0.2c-0.3-0.1-0.7-0.2-1-0.2c-0.2,0-0.3-0.1-0.5-0.1l-0.5-0.1l-0.5-0.1
				c-0.2,0-0.3-0.1-0.5-0.2c-0.3-0.1-0.6-0.2-1-0.3c-0.3-0.1-0.6-0.3-1-0.4l-0.5-0.2l-0.5-0.2l-0.5-0.2c-0.2-0.1-0.3-0.1-0.5-0.2
				c-0.3-0.2-0.6-0.3-0.9-0.5c-0.3-0.2-0.6-0.3-0.9-0.5c-0.1-0.1-0.3-0.2-0.4-0.3l-0.4-0.3L60,99.8c-0.1-0.1-0.3-0.2-0.4-0.3
				l-0.8-0.6c-0.3-0.2-0.5-0.4-0.8-0.7c-0.1-0.1-0.3-0.2-0.4-0.3l-0.4-0.4l-0.4-0.4c-0.1-0.1-0.3-0.2-0.4-0.4l-0.7-0.7
				c-0.2-0.2-0.5-0.5-0.7-0.8l-0.4-0.4l-0.3-0.4c-0.2-0.3-0.5-0.5-0.7-0.8L53,92.8c-0.1-0.1-0.2-0.3-0.3-0.4L52.4,92l-0.3-0.4
				c-0.1-0.1-0.2-0.3-0.3-0.4l-0.5-0.9l-0.5-0.9c-0.1-0.2-0.2-0.3-0.2-0.5l-0.2-0.5l-0.2-0.5c-0.1-0.2-0.1-0.3-0.2-0.5l-0.4-1
				c-0.1-0.3-0.2-0.7-0.3-1L49,84.9l-0.1-0.5c-0.1-0.3-0.2-0.7-0.3-1l-0.2-1c0-0.2-0.1-0.3-0.1-0.5l-0.1-0.5L48,80.8
				c0-0.2,0-0.3-0.1-0.5c0-0.3-0.1-0.7-0.1-1l-0.1-1c0-0.2,0-0.3,0-0.5l0-0.5l0-0.5c0-0.2,0-0.3,0-0.5c0-0.3,0-0.7,0-1
				c0-0.3,0-0.7,0.1-1c0-0.2,0-0.3,0-0.5l0.1-0.5l0.1-0.5l0.1-0.5c0.1-0.3,0.1-0.7,0.2-1c0.1-0.3,0.1-0.7,0.2-1
				c0-0.2,0.1-0.3,0.1-0.5l0.1-0.5l0.1-0.5c0-0.2,0.1-0.3,0.2-0.5c0.1-0.3,0.2-0.6,0.3-1c0.1-0.3,0.2-0.6,0.4-0.9
				c1-2.5,2.3-4.8,3.9-6.9l0.3-0.4l0.3-0.4c0.2-0.2,0.4-0.5,0.6-0.7c0.4-0.5,0.9-1,1.3-1.4c0.9-0.9,1.9-1.7,2.9-2.5
				c0.5-0.4,1-0.7,1.5-1.1c0.3-0.2,0.5-0.3,0.8-0.5c0.3-0.2,0.5-0.3,0.8-0.5c0.1-0.1,0.3-0.2,0.4-0.2l0.4-0.2
				c0.3-0.1,0.5-0.3,0.8-0.4c0.3-0.1,0.6-0.3,0.8-0.4c0.3-0.1,0.5-0.3,0.8-0.4c0.3-0.1,0.6-0.2,0.8-0.3l0.2-0.1l0.2-0.1
				c0.1,0,0.3-0.1,0.4-0.1c0.3-0.1,0.6-0.2,0.8-0.3c0.3-0.1,0.6-0.2,0.8-0.2c0.1,0,0.3-0.1,0.4-0.1c0.1,0,0.3-0.1,0.4-0.1
				c0.3-0.1,0.6-0.1,0.8-0.2c0.3-0.1,0.6-0.1,0.8-0.1c0.3,0,0.6-0.1,0.8-0.1c2.2-0.3,4.4-0.3,6.5-0.2c4.1,0.4,7.8,1.6,10.7,3.2
				c1.5,0.8,2.8,1.6,3.9,2.5c0.3,0.2,0.6,0.4,0.8,0.7c0.3,0.2,0.5,0.4,0.8,0.7c0.2,0.2,0.5,0.4,0.7,0.7c0.2,0.2,0.4,0.4,0.7,0.7
				c1.7,1.7,2.8,3.3,3.5,4.3c0.1,0.1,0.2,0.3,0.2,0.4c0.1,0.1,0.1,0.2,0.2,0.3c0.1,0.2,0.2,0.4,0.3,0.5
				C100.6,62.5,100.7,62.6,100.7,62.7L100.7,62.7z"/>
			<path id="Fill-7" class="st0" d="M61.9,50.4c0,0-0.2,0.1-0.5,0.3c-0.2,0.1-0.3,0.2-0.6,0.3c-0.1,0.1-0.2,0.1-0.4,0.2
				c-0.1,0.1-0.3,0.2-0.4,0.3c-1.1,0.7-2.8,1.9-4.6,3.7c-0.2,0.2-0.5,0.5-0.7,0.7c-0.2,0.2-0.5,0.5-0.7,0.8
				c-0.2,0.3-0.5,0.5-0.7,0.8c-0.2,0.3-0.5,0.6-0.7,0.9c-0.9,1.2-1.8,2.6-2.7,4.2c-0.8,1.6-1.5,3.3-2.1,5.2c-0.6,1.9-1,4-1.2,6.1
				c-0.2,2.2-0.1,4.4,0.2,6.8c0,0.3,0.1,0.6,0.1,0.9c0.1,0.3,0.1,0.6,0.2,0.9c0.1,0.3,0.1,0.6,0.2,0.9c0,0.1,0.1,0.3,0.1,0.4
				c0,0.1,0.1,0.3,0.1,0.4c0.1,0.3,0.2,0.6,0.3,0.9c0.1,0.3,0.2,0.6,0.3,0.9c0.1,0.1,0.1,0.3,0.2,0.4l0.1,0.2l0.1,0.2
				c0.1,0.3,0.2,0.6,0.3,0.9c0.1,0.3,0.2,0.6,0.4,0.9c0.1,0.3,0.3,0.6,0.4,0.9c0.1,0.3,0.3,0.6,0.4,0.8c0.1,0.1,0.1,0.3,0.2,0.4
				c0.1,0.1,0.2,0.3,0.2,0.4c0.2,0.3,0.3,0.6,0.5,0.8c0.2,0.3,0.4,0.5,0.5,0.8c0.3,0.5,0.7,1.1,1.1,1.6c0.8,1,1.7,2,2.6,3
				c0.5,0.5,1,0.9,1.5,1.4c0.3,0.2,0.5,0.4,0.8,0.6l0.4,0.3l0.4,0.3c2.2,1.6,4.6,3,7.2,4c0.3,0.1,0.7,0.2,1,0.4
				c0.3,0.1,0.7,0.2,1,0.3c0.2,0.1,0.3,0.1,0.5,0.2l0.5,0.1l0.5,0.1c0.2,0,0.3,0.1,0.5,0.1c0.3,0.1,0.7,0.1,1,0.2
				c0.3,0.1,0.7,0.1,1.1,0.2l0.5,0.1l0.5,0.1l0.5,0.1c0.2,0,0.4,0,0.5,0c0.4,0,0.7,0,1.1,0.1c0.4,0,0.7,0,1.1,0c0.2,0,0.4,0,0.5,0
				l0.5,0l0.5,0c0.2,0,0.4,0,0.5,0l1.1-0.1c0.4,0,0.7-0.1,1.1-0.1c0.2,0,0.4,0,0.5-0.1l0.5-0.1l0.5-0.1c0.2,0,0.4-0.1,0.5-0.1
				l1.1-0.2c0.4-0.1,0.7-0.2,1-0.3l0.5-0.2l0.5-0.2c0.3-0.1,0.7-0.2,1-0.4c1.4-0.5,2.7-1.1,3.9-1.8c1.3-0.7,2.5-1.5,3.6-2.4
				c0.3-0.2,0.6-0.5,0.8-0.7l0.4-0.3l0.4-0.4c0.3-0.2,0.5-0.5,0.8-0.7l0.8-0.8c0.1-0.1,0.3-0.3,0.4-0.4l0.4-0.4l0.4-0.4
				c0.1-0.1,0.2-0.3,0.3-0.4c0.2-0.3,0.5-0.6,0.7-0.8l0.6-0.9c0.1-0.1,0.2-0.3,0.3-0.4l0.3-0.4l0.3-0.4c0.1-0.2,0.2-0.3,0.3-0.5
				c0.2-0.3,0.4-0.6,0.5-0.9c0.2-0.3,0.3-0.6,0.5-0.9c0.1-0.2,0.2-0.3,0.2-0.5l0.2-0.5l0.2-0.5l0.2-0.5c0.1-0.3,0.3-0.7,0.4-1
				c0.1-0.3,0.2-0.7,0.4-1c0.1-0.2,0.1-0.3,0.2-0.5l0.2-0.5l0.2-0.5c0-0.2,0.1-0.3,0.1-0.5c0.1-0.3,0.2-0.7,0.3-1
				c0.1-0.3,0.1-0.7,0.2-1c0.5-2.7,0.7-5.5,0.4-8.2l0-0.5l-0.1-0.5c0-0.3-0.1-0.7-0.1-1c-0.1-0.7-0.2-1.3-0.4-2
				c-0.3-1.3-0.7-2.6-1.1-3.8c-0.2-0.6-0.5-1.2-0.8-1.8c-0.1-0.3-0.3-0.6-0.4-0.9c-0.1-0.3-0.3-0.6-0.4-0.9
				c-0.1-0.1-0.1-0.3-0.2-0.4c-0.1-0.1-0.2-0.3-0.2-0.4c-0.2-0.3-0.3-0.5-0.5-0.8c-0.2-0.3-0.3-0.5-0.5-0.8
				c-0.2-0.3-0.3-0.5-0.5-0.8c-0.2-0.3-0.4-0.5-0.6-0.8l-0.1-0.2l-0.1-0.2c-0.1-0.1-0.2-0.2-0.3-0.4c-0.2-0.2-0.4-0.5-0.6-0.7
				c-0.2-0.2-0.4-0.5-0.6-0.7c-0.1-0.1-0.2-0.2-0.3-0.3c-0.1-0.1-0.2-0.2-0.3-0.3c-0.2-0.2-0.4-0.4-0.6-0.6
				c-0.2-0.2-0.4-0.4-0.7-0.6c-0.2-0.2-0.4-0.4-0.7-0.6c-1.8-1.5-3.7-2.8-5.6-3.8c-1.9-1-3.9-1.7-5.8-2.2c-1.9-0.5-3.8-0.8-5.5-0.9
				c-1.8-0.1-3.4-0.1-4.9,0.1c-0.4,0-0.8,0.1-1.1,0.1c-0.4,0-0.7,0.1-1.1,0.2c-0.3,0.1-0.7,0.1-1,0.2c-0.3,0.1-0.6,0.2-1,0.2
				c-2.5,0.6-4.3,1.4-5.5,2c-0.2,0.1-0.3,0.1-0.4,0.2c-0.1,0.1-0.3,0.1-0.4,0.2c-0.2,0.1-0.4,0.2-0.6,0.3
				C62,50.4,61.9,50.4,61.9,50.4L61.9,50.4z M61.8,50.4c0,0,0.2-0.1,0.5-0.2c0.2-0.1,0.3-0.2,0.6-0.3c0.1-0.1,0.2-0.1,0.4-0.2
				c0.1-0.1,0.3-0.1,0.4-0.2c1.2-0.6,3.1-1.4,5.6-2c0.3-0.1,0.6-0.1,1-0.2c0.3-0.1,0.7-0.1,1-0.2c0.3-0.1,0.7-0.1,1.1-0.2
				c0.4,0,0.7-0.1,1.1-0.1c1.5-0.2,3.2-0.2,5-0.1c3.5,0.2,7.5,1.2,11.5,3.1c2,1,3.9,2.2,5.7,3.7c0.2,0.2,0.4,0.4,0.7,0.6
				c0.2,0.2,0.5,0.4,0.7,0.6c0.2,0.2,0.4,0.4,0.6,0.6c0.1,0.1,0.2,0.2,0.3,0.3c0.1,0.1,0.2,0.2,0.3,0.3c0.2,0.2,0.4,0.5,0.6,0.7
				c0.2,0.2,0.4,0.5,0.6,0.7c0.1,0.1,0.2,0.2,0.3,0.4l0.2,0.2l0.1,0.2c0.2,0.3,0.4,0.5,0.6,0.8c0.2,0.2,0.4,0.5,0.5,0.8
				c0.2,0.3,0.4,0.5,0.5,0.8c0.2,0.3,0.3,0.5,0.5,0.8c0.1,0.1,0.2,0.3,0.2,0.4c0,0,0,0,0,0.1l0,0.1l0.1,0.1l0.1,0.2
				c0.2,0.3,0.3,0.6,0.5,0.8c0.1,0.3,0.3,0.6,0.4,0.9c0.3,0.6,0.5,1.2,0.8,1.8c0.5,1.2,0.9,2.5,1.2,3.8c0.2,0.7,0.3,1.3,0.4,2
				c0.1,0.3,0.1,0.7,0.1,1l0.1,0.5l0,0.5c0.3,2.8,0.2,5.6-0.3,8.4c-0.1,0.3-0.1,0.7-0.2,1.1c-0.1,0.3-0.2,0.7-0.3,1
				c0,0.2-0.1,0.3-0.1,0.5l-0.2,0.5l-0.2,0.5c-0.1,0.2-0.1,0.3-0.2,0.5c-0.1,0.3-0.2,0.7-0.4,1c-0.1,0.3-0.3,0.7-0.4,1l-0.2,0.5
				l-0.2,0.5l-0.2,0.5c-0.1,0.2-0.2,0.3-0.2,0.5c-0.2,0.3-0.3,0.6-0.5,1c-0.2,0.3-0.4,0.6-0.6,0.9c-0.1,0.2-0.2,0.3-0.3,0.5
				l-0.3,0.5l-0.3,0.5c-0.1,0.2-0.2,0.3-0.3,0.5c-0.2,0.3-0.4,0.6-0.7,0.9c-0.2,0.3-0.5,0.6-0.7,0.9c-0.1,0.1-0.2,0.3-0.4,0.4
				l-0.4,0.4l-0.4,0.4c-0.1,0.1-0.2,0.3-0.4,0.4l-0.8,0.8c-0.3,0.3-0.5,0.5-0.8,0.8L96,99.2l-0.4,0.4c-0.3,0.2-0.6,0.5-0.9,0.7
				l-0.9,0.7c-0.1,0.1-0.3,0.2-0.5,0.3l-0.5,0.3l-0.5,0.3c-0.2,0.1-0.3,0.2-0.5,0.3l-1,0.6l-1,0.5c-0.2,0.1-0.3,0.2-0.5,0.2
				l-0.5,0.2l-0.5,0.2c-0.2,0.1-0.3,0.2-0.5,0.2l-1,0.4c-0.3,0.1-0.7,0.2-1,0.4l-0.5,0.2l-0.5,0.2c-0.4,0.1-0.7,0.2-1.1,0.3
				l-1.1,0.3c-0.2,0-0.4,0.1-0.5,0.1l-0.5,0.1l-0.5,0.1c-0.2,0-0.4,0-0.5,0.1c-0.4,0-0.7,0.1-1.1,0.1c-0.4,0-0.7,0.1-1.1,0.1
				c-0.2,0-0.4,0-0.6,0l-0.6,0l-0.5,0c-0.2,0-0.4,0-0.5,0c-0.4,0-0.7,0-1.1,0c-0.4,0-0.7,0-1.1-0.1c-0.2,0-0.4,0-0.5-0.1l-0.5-0.1
				l-0.5-0.1l-0.5-0.1c-0.4-0.1-0.7-0.1-1.1-0.2c-0.4-0.1-0.7-0.2-1.1-0.2c-0.2,0-0.4-0.1-0.5-0.1l-0.5-0.1l-0.5-0.1
				c-0.2-0.1-0.3-0.1-0.5-0.2c-0.3-0.1-0.7-0.2-1-0.3c-0.3-0.1-0.7-0.3-1-0.4c-2.7-1-5.1-2.4-7.3-4.1l-0.4-0.3l-0.4-0.3
				c-0.3-0.2-0.5-0.4-0.8-0.7c-0.5-0.5-1-0.9-1.5-1.4c-1-1-1.8-2-2.6-3c-0.4-0.5-0.8-1.1-1.1-1.6c-0.2-0.3-0.4-0.5-0.5-0.8
				c-0.2-0.3-0.3-0.6-0.5-0.8c-0.1-0.1-0.2-0.3-0.2-0.4c-0.1-0.1-0.1-0.3-0.2-0.4c-0.1-0.3-0.3-0.6-0.4-0.8
				c-0.1-0.3-0.3-0.6-0.4-0.9c-0.1-0.3-0.3-0.6-0.4-0.9c-0.1-0.3-0.2-0.6-0.3-0.9l-0.1-0.2l-0.1-0.2c0-0.1-0.1-0.3-0.1-0.4
				c-0.1-0.3-0.2-0.6-0.3-0.9c-0.1-0.3-0.2-0.6-0.2-0.9c0-0.1-0.1-0.3-0.1-0.4c0-0.1-0.1-0.3-0.1-0.4c-0.1-0.3-0.1-0.6-0.2-0.9
				c-0.1-0.3-0.1-0.6-0.2-0.9c0-0.3-0.1-0.6-0.1-0.9c-0.3-2.3-0.4-4.6-0.2-6.8c0.4-4.4,1.7-8.2,3.4-11.4c0.8-1.6,1.7-3,2.7-4.2
				c0.2-0.3,0.5-0.6,0.7-0.9c0.2-0.3,0.5-0.6,0.7-0.8c0.2-0.3,0.5-0.5,0.7-0.8c0.2-0.2,0.5-0.5,0.7-0.7c1.8-1.8,3.5-3,4.6-3.7
				c0.1-0.1,0.3-0.2,0.4-0.3c0.1-0.1,0.2-0.1,0.4-0.2c0.2-0.1,0.4-0.2,0.6-0.3C61.7,50.5,61.8,50.4,61.8,50.4L61.8,50.4z"/>
			<path id="Fill-9" class="st0" d="M108.3,58.4c0,0-0.1-0.2-0.3-0.6c-0.1-0.2-0.3-0.4-0.4-0.7c-0.1-0.1-0.2-0.3-0.3-0.4
				c-0.1-0.2-0.2-0.3-0.3-0.5c-0.9-1.4-2.4-3.5-4.6-5.7c-0.3-0.3-0.6-0.6-0.9-0.9c-0.3-0.3-0.6-0.6-1-0.9c-0.3-0.3-0.7-0.6-1-0.9
				c-0.4-0.3-0.7-0.6-1.1-0.9c-1.5-1.2-3.3-2.3-5.2-3.3c-2-1-4.1-1.9-6.5-2.6c-2.4-0.7-4.9-1.2-7.6-1.5c-2.7-0.2-5.6-0.1-8.5,0.3
				c-0.4,0-0.7,0.1-1.1,0.2c-0.4,0.1-0.7,0.1-1.1,0.2c-0.4,0.1-0.7,0.2-1.1,0.3c-0.2,0-0.4,0.1-0.5,0.1c-0.2,0-0.4,0.1-0.5,0.2
				c-0.4,0.1-0.7,0.2-1.1,0.3c-0.4,0.1-0.7,0.2-1.1,0.4c-0.2,0.1-0.4,0.1-0.5,0.2l-0.3,0.1l-0.3,0.1c-0.4,0.1-0.7,0.3-1.1,0.4
				c-0.4,0.1-0.7,0.3-1.1,0.5c-0.4,0.2-0.7,0.3-1.1,0.5c-0.3,0.2-0.7,0.4-1.1,0.6c-0.2,0.1-0.4,0.2-0.5,0.3
				c-0.2,0.1-0.3,0.2-0.5,0.3c-0.3,0.2-0.7,0.4-1,0.6c-0.3,0.2-0.7,0.4-1,0.7c-0.7,0.4-1.3,0.9-2,1.4c-1.3,1-2.6,2.1-3.7,3.3
				c-0.6,0.6-1.1,1.2-1.7,1.8c-0.3,0.3-0.5,0.6-0.8,1l-0.4,0.5l-0.4,0.5c-2,2.7-3.7,5.8-5,9c-0.1,0.4-0.3,0.8-0.4,1.2
				c-0.1,0.4-0.3,0.8-0.4,1.3c-0.1,0.2-0.1,0.4-0.2,0.6L40.4,67l-0.2,0.6c-0.1,0.2-0.1,0.4-0.2,0.6c-0.1,0.4-0.2,0.9-0.3,1.3
				c-0.1,0.4-0.1,0.9-0.2,1.3c0,0.2-0.1,0.4-0.1,0.7l-0.1,0.7l-0.1,0.7c0,0.2-0.1,0.4-0.1,0.7c0,0.4-0.1,0.9-0.1,1.3
				c0,0.4,0,0.9,0,1.3c0,0.2,0,0.4,0,0.7l0,0.7l0,0.7l0,0.3c0,0.1,0,0.2,0,0.3c0,0.4,0.1,0.9,0.1,1.3c0,0.4,0.1,0.9,0.2,1.3
				c0,0.2,0.1,0.4,0.1,0.7l0.1,0.7l0.1,0.7l0.1,0.3c0,0.1,0.1,0.2,0.1,0.3l0.3,1.3c0,0.2,0.1,0.4,0.2,0.7l0.2,0.7l0.2,0.7l0.2,0.6
				l0.2,0.6c0.1,0.2,0.1,0.4,0.2,0.6l0.5,1.3c0,0.1,0.1,0.2,0.1,0.3l0.1,0.3l0.3,0.6l0.3,0.6c0.1,0.2,0.2,0.4,0.3,0.6l0.6,1.2
				l0.7,1.2c0.1,0.2,0.2,0.4,0.4,0.6l0.4,0.6l0.4,0.6l0.2,0.3c0.1,0.1,0.1,0.2,0.2,0.3l0.8,1.1c0.1,0.2,0.3,0.4,0.4,0.5l0.4,0.5
				l0.4,0.5l0.5,0.5l0.5,0.5c0.2,0.2,0.3,0.3,0.5,0.5l1,1c0.1,0.1,0.2,0.2,0.2,0.2l0.3,0.2l0.5,0.5l0.5,0.5c0.2,0.1,0.3,0.3,0.5,0.4
				c0.3,0.3,0.7,0.6,1,0.8c0.4,0.3,0.7,0.5,1.1,0.8c0.1,0.1,0.2,0.1,0.3,0.2l0.3,0.2l0.6,0.4l0.6,0.4c0.2,0.1,0.4,0.2,0.6,0.3
				c0.4,0.2,0.8,0.5,1.2,0.7c0.4,0.2,0.8,0.4,1.2,0.6c0.2,0.1,0.4,0.2,0.6,0.3l0.6,0.3l0.6,0.3c0.2,0.1,0.4,0.2,0.6,0.3
				c0.4,0.2,0.8,0.4,1.2,0.5c0.4,0.2,0.8,0.3,1.2,0.5c0.2,0.1,0.4,0.1,0.6,0.2l0.6,0.2l0.6,0.2c0.2,0.1,0.4,0.1,0.6,0.2
				c0.4,0.1,0.8,0.2,1.3,0.3c0.4,0.1,0.9,0.2,1.3,0.3c3.4,0.7,6.9,0.8,10.3,0.5l0.6-0.1l0.6-0.1c0.4-0.1,0.8-0.1,1.3-0.2
				c0.8-0.2,1.7-0.3,2.5-0.5c1.6-0.4,3.2-0.9,4.7-1.4c0.8-0.3,1.5-0.6,2.2-0.9c0.4-0.2,0.7-0.3,1.1-0.5c0.4-0.2,0.7-0.4,1.1-0.6
				c0.2-0.1,0.4-0.2,0.5-0.3c0.2-0.1,0.3-0.2,0.5-0.3c0.3-0.2,0.7-0.4,1-0.6c0.3-0.2,0.7-0.4,1-0.6c0.3-0.2,0.7-0.4,1-0.7
				c0.3-0.2,0.6-0.5,0.9-0.7l0.2-0.2l0.2-0.2c0.1-0.1,0.3-0.2,0.4-0.4c0.3-0.2,0.6-0.5,0.9-0.7c0.3-0.3,0.6-0.5,0.8-0.8
				c0.1-0.1,0.3-0.3,0.4-0.4c0.1-0.1,0.3-0.3,0.4-0.4c0.3-0.3,0.5-0.5,0.8-0.8c0.3-0.3,0.5-0.5,0.8-0.8c0.2-0.3,0.5-0.5,0.7-0.8
				c1.9-2.2,3.5-4.6,4.7-7c1.2-2.4,2.1-4.9,2.8-7.3c0.6-2.4,1-4.7,1.2-6.9c0.2-2.2,0.1-4.3-0.1-6.2c0-0.5-0.1-0.9-0.2-1.4
				c-0.1-0.5-0.1-0.9-0.2-1.3c-0.1-0.4-0.2-0.9-0.2-1.3c-0.1-0.4-0.2-0.8-0.3-1.2c-0.7-3.1-1.7-5.4-2.4-6.9
				c-0.1-0.2-0.2-0.4-0.3-0.5c-0.1-0.2-0.2-0.3-0.2-0.5c-0.2-0.3-0.3-0.5-0.4-0.7C108.4,58.6,108.3,58.4,108.3,58.4L108.3,58.4z
				 M108.3,58.4c0,0,0.1,0.2,0.3,0.6c0.1,0.2,0.2,0.4,0.4,0.7c0.1,0.1,0.2,0.3,0.2,0.5c0.1,0.2,0.2,0.4,0.3,0.5
				c0.7,1.5,1.7,3.8,2.5,6.9c0.1,0.4,0.2,0.8,0.3,1.2c0.1,0.4,0.2,0.8,0.2,1.3c0.1,0.4,0.1,0.9,0.2,1.3c0.1,0.5,0.1,0.9,0.2,1.4
				c0.2,1.9,0.2,4,0.1,6.2c-0.2,2.2-0.5,4.6-1.1,7c-0.6,2.4-1.5,4.9-2.8,7.3c-1.2,2.4-2.8,4.8-4.7,7.1c-0.2,0.3-0.5,0.6-0.7,0.8
				c-0.2,0.3-0.5,0.6-0.7,0.8c-0.3,0.3-0.5,0.5-0.8,0.8c-0.1,0.1-0.3,0.3-0.4,0.4c-0.1,0.1-0.3,0.3-0.4,0.4
				c-0.3,0.3-0.6,0.5-0.8,0.8c-0.3,0.3-0.6,0.5-0.9,0.7c-0.1,0.1-0.3,0.2-0.4,0.4l-0.2,0.2l-0.2,0.2c-0.3,0.2-0.6,0.5-0.9,0.7
				c-0.3,0.2-0.6,0.5-1,0.7c-0.3,0.2-0.7,0.4-1,0.7c-0.3,0.2-0.7,0.4-1,0.6c-0.2,0.1-0.3,0.2-0.5,0.3c0,0-0.1,0-0.1,0l-0.1,0
				l-0.1,0.1l-0.3,0.1c-0.4,0.2-0.7,0.4-1.1,0.6c-0.4,0.2-0.7,0.4-1.1,0.5c-0.7,0.4-1.5,0.7-2.3,1c-1.5,0.6-3.1,1.1-4.8,1.5
				c-0.8,0.2-1.7,0.4-2.5,0.5c-0.4,0.1-0.8,0.1-1.3,0.2l-0.6,0.1l-0.6,0.1c-3.4,0.3-7,0.2-10.5-0.4c-0.4-0.1-0.9-0.2-1.3-0.3
				c-0.4-0.1-0.9-0.2-1.3-0.3c-0.2-0.1-0.4-0.1-0.6-0.2l-0.6-0.2l-0.6-0.2c-0.2-0.1-0.4-0.1-0.6-0.2c-0.4-0.2-0.8-0.3-1.3-0.5
				c-0.4-0.2-0.8-0.3-1.3-0.5c-0.2-0.1-0.4-0.2-0.6-0.3l-0.6-0.3l-0.6-0.3c-0.2-0.1-0.4-0.2-0.6-0.3c-0.4-0.2-0.8-0.4-1.2-0.6
				c-0.4-0.2-0.8-0.5-1.2-0.7c-0.2-0.1-0.4-0.2-0.6-0.4l-0.6-0.4l-0.6-0.4l-0.3-0.2c-0.1-0.1-0.2-0.1-0.3-0.2
				c-0.4-0.3-0.7-0.5-1.1-0.8c-0.4-0.3-0.7-0.6-1.1-0.9c-0.2-0.1-0.4-0.3-0.5-0.4l-0.5-0.5l-0.5-0.5l-0.3-0.2
				c-0.1-0.1-0.2-0.2-0.2-0.2l-1-1c-0.2-0.2-0.3-0.3-0.5-0.5l-0.5-0.5l-0.5-0.5l-0.4-0.5l-0.4-0.5c-0.1-0.2-0.3-0.4-0.4-0.5
				l-0.8-1.1c-0.1-0.1-0.1-0.2-0.2-0.3L45,97.6L44.6,97l-0.4-0.6c-0.1-0.2-0.2-0.4-0.4-0.6l-0.7-1.2l-0.6-1.2
				c-0.1-0.2-0.2-0.4-0.3-0.6l-0.3-0.6l-0.3-0.6l-0.1-0.3c0-0.1-0.1-0.2-0.1-0.3l-0.5-1.3c-0.1-0.2-0.2-0.4-0.2-0.7l-0.2-0.7
				l-0.2-0.7L40,87l-0.2-0.7c-0.1-0.2-0.1-0.4-0.2-0.7l-0.3-1.3c0-0.1-0.1-0.2-0.1-0.3l-0.1-0.3L39,83l-0.1-0.7
				c0-0.2-0.1-0.5-0.1-0.7c-0.1-0.5-0.1-0.9-0.2-1.4c0-0.5-0.1-0.9-0.1-1.4c0-0.1,0-0.2,0-0.3l0-0.3l0-0.7l0-0.7c0-0.2,0-0.5,0-0.7
				c0-0.5,0-0.9,0-1.4c0-0.5,0.1-0.9,0.1-1.4c0-0.2,0-0.5,0.1-0.7l0.1-0.7l0.1-0.7c0-0.2,0.1-0.4,0.1-0.7c0.1-0.4,0.1-0.9,0.2-1.3
				c0.1-0.4,0.2-0.9,0.3-1.3c0-0.2,0.1-0.4,0.2-0.7l0.2-0.7l0.2-0.6c0.1-0.2,0.1-0.4,0.2-0.6c0.1-0.4,0.3-0.9,0.4-1.3
				c0.2-0.4,0.3-0.8,0.5-1.2c1.3-3.3,3-6.4,5.1-9.1l0.4-0.5l0.4-0.5c0.3-0.3,0.5-0.7,0.8-1c0.6-0.6,1.1-1.3,1.8-1.8
				c1.2-1.2,2.5-2.3,3.8-3.3c0.7-0.5,1.3-1,2-1.4c0.3-0.2,0.7-0.5,1-0.7c0.4-0.2,0.7-0.4,1.1-0.6c0.2-0.1,0.3-0.2,0.5-0.3
				c0.2-0.1,0.4-0.2,0.5-0.3c0.4-0.2,0.7-0.4,1.1-0.5c0.4-0.2,0.7-0.3,1.1-0.5c0.4-0.2,0.7-0.3,1.1-0.5c0.4-0.1,0.7-0.3,1.1-0.4
				l0.3-0.1l0.3-0.1c0.2-0.1,0.4-0.1,0.6-0.2c0.4-0.1,0.7-0.3,1.1-0.4c0.4-0.1,0.7-0.2,1.1-0.3c0.2-0.1,0.4-0.1,0.6-0.2
				c0.2,0,0.4-0.1,0.6-0.1c0.4-0.1,0.7-0.2,1.1-0.3c0.4-0.1,0.7-0.1,1.1-0.2c0.4-0.1,0.7-0.1,1.1-0.2c2.9-0.4,5.8-0.5,8.5-0.2
				c0.3,0,0.7,0.1,1,0.1c0.3,0,0.7,0.1,1,0.1c0.3,0.1,0.7,0.1,1,0.2c0.3,0.1,0.7,0.1,1,0.2c1.3,0.3,2.5,0.6,3.7,0.9
				c2.4,0.7,4.6,1.7,6.5,2.7c2,1,3.7,2.2,5.2,3.3c0.4,0.3,0.7,0.6,1.1,0.9c0.4,0.3,0.7,0.6,1,0.9c0.3,0.3,0.6,0.6,1,0.9
				c0.3,0.3,0.6,0.6,0.9,0.9c2.2,2.3,3.7,4.3,4.6,5.7c0.1,0.2,0.2,0.3,0.3,0.5c0.1,0.2,0.2,0.3,0.3,0.4c0.2,0.3,0.3,0.5,0.4,0.7
				C108.2,58.2,108.3,58.4,108.3,58.4L108.3,58.4z"/>
			<path id="Fill-11" class="st0" d="M96,111.7c0,0,0.2-0.1,0.6-0.4c0.2-0.1,0.5-0.3,0.8-0.5c0.2-0.1,0.3-0.2,0.5-0.3
				c0.2-0.1,0.4-0.2,0.5-0.4c1.6-1,3.8-2.6,6.3-5.1c0.3-0.3,0.6-0.6,0.9-1c0.3-0.3,0.6-0.7,0.9-1c0.3-0.4,0.6-0.7,1-1.1
				c0.3-0.4,0.7-0.8,1-1.2c1.3-1.7,2.5-3.6,3.6-5.7c1.1-2.2,2.1-4.5,2.9-7.2c0.8-2.6,1.4-5.4,1.6-8.4c0.2-3,0.2-6.1-0.3-9.3l0-0.3
				c0-0.1,0-0.2-0.1-0.3c0-0.2-0.1-0.4-0.1-0.6c-0.1-0.4-0.1-0.8-0.2-1.2c-0.1-0.4-0.2-0.8-0.3-1.2c0-0.2-0.1-0.4-0.1-0.6
				c-0.1-0.2-0.1-0.4-0.2-0.6c-0.1-0.4-0.2-0.8-0.3-1.2c-0.1-0.2-0.1-0.4-0.2-0.6c-0.1-0.2-0.1-0.4-0.2-0.6
				c-0.1-0.2-0.1-0.4-0.2-0.6l-0.1-0.3l-0.1-0.3c-0.2-0.4-0.3-0.8-0.5-1.2c-0.2-0.4-0.3-0.8-0.5-1.2c-0.2-0.4-0.4-0.8-0.5-1.2
				c-0.2-0.4-0.4-0.8-0.6-1.2c-0.1-0.2-0.2-0.4-0.3-0.6c-0.1-0.2-0.2-0.4-0.3-0.6c-0.2-0.4-0.4-0.8-0.7-1.1
				c-0.2-0.4-0.5-0.7-0.7-1.1c-0.5-0.8-1-1.5-1.6-2.2c-1.1-1.4-2.3-2.8-3.6-4.1c-0.6-0.7-1.3-1.3-2-1.9c-0.4-0.3-0.7-0.6-1.1-0.9
				l-0.5-0.4l-0.6-0.4c-3-2.3-6.3-4.1-9.9-5.5c-0.5-0.2-0.9-0.3-1.4-0.5c-0.5-0.2-0.9-0.3-1.4-0.4c-0.2-0.1-0.5-0.1-0.7-0.2
				l-0.7-0.2l-0.7-0.2c-0.2-0.1-0.5-0.1-0.7-0.2c-0.5-0.1-1-0.2-1.4-0.3c-0.2-0.1-0.5-0.1-0.7-0.1l-0.7-0.1c-0.2,0-0.5-0.1-0.7-0.1
				L80.9,36l-0.7-0.1c-0.2,0-0.5-0.1-0.7-0.1c-0.5,0-1-0.1-1.5-0.1c-0.2,0-0.5,0-0.7,0l-0.7,0c-0.2,0-0.5,0-0.7,0l-0.7,0l-0.7,0
				l-0.4,0c-0.1,0-0.2,0-0.4,0c-0.5,0-1,0.1-1.5,0.1c-0.5,0-1,0.1-1.5,0.2c-0.2,0-0.5,0.1-0.7,0.1l-0.7,0.1l-0.7,0.1L68,36.6
				c-0.1,0-0.2,0.1-0.4,0.1L66.2,37c-0.2,0.1-0.5,0.1-0.7,0.2l-0.7,0.2l-0.7,0.2l-0.7,0.2l-0.7,0.2c-0.2,0.1-0.5,0.2-0.7,0.3
				l-1.4,0.6c-0.1,0-0.2,0.1-0.3,0.1l-0.3,0.2l-0.7,0.3l-0.7,0.3c-0.2,0.1-0.4,0.2-0.7,0.3l-1.3,0.7l-1.3,0.8
				c-0.2,0.1-0.4,0.2-0.6,0.4L54,42.4l-0.6,0.4L53.1,43c-0.1,0.1-0.2,0.1-0.3,0.2l-1.2,0.9c-0.2,0.1-0.4,0.3-0.6,0.5l-0.6,0.5
				l-0.6,0.5L49.3,46l-0.6,0.5c-0.2,0.2-0.4,0.3-0.5,0.5l-1.1,1.1c-0.1,0.1-0.2,0.2-0.3,0.3l-0.2,0.3l-0.5,0.6l-0.5,0.6
				c-0.2,0.2-0.3,0.4-0.5,0.6c-0.3,0.4-0.6,0.8-0.9,1.2c-0.3,0.4-0.6,0.8-0.9,1.2c-0.1,0.1-0.1,0.2-0.2,0.3l-0.2,0.3l-0.4,0.6
				l-0.4,0.6c-0.1,0.2-0.3,0.4-0.4,0.6l-0.4,0.6c-0.1,0.2-0.3,0.4-0.4,0.6c-0.2,0.4-0.5,0.9-0.7,1.3c-0.1,0.2-0.2,0.4-0.3,0.7
				L39.6,59l-0.3,0.7c-0.1,0.2-0.2,0.4-0.3,0.7L38.7,61c-0.1,0.2-0.2,0.4-0.3,0.7c-0.2,0.5-0.3,0.9-0.5,1.4
				c-0.1,0.2-0.2,0.5-0.2,0.7l-0.2,0.7l-0.2,0.7c-0.1,0.2-0.1,0.5-0.2,0.7c-0.1,0.5-0.3,0.9-0.4,1.4c-0.1,0.5-0.2,0.9-0.3,1.4
				c-0.7,3.8-0.9,7.6-0.6,11.3l0.1,0.7l0.1,0.7c0.1,0.5,0.1,0.9,0.2,1.4c0.2,0.9,0.3,1.8,0.5,2.7c0.4,1.8,1,3.5,1.6,5.2
				c0.3,0.8,0.6,1.7,1,2.5c0.2,0.4,0.4,0.8,0.6,1.2c0.2,0.4,0.4,0.8,0.6,1.2c0.1,0.2,0.2,0.4,0.3,0.6c0.1,0.2,0.2,0.4,0.3,0.6
				c0.2,0.4,0.4,0.8,0.7,1.1c0.2,0.4,0.5,0.7,0.7,1.1c0.2,0.4,0.5,0.7,0.7,1.1c0.3,0.3,0.5,0.7,0.8,1l0.2,0.3l0.2,0.2
				c0.1,0.2,0.3,0.3,0.4,0.5c0.1,0.2,0.3,0.3,0.4,0.5c0.1,0.2,0.3,0.3,0.4,0.5c0.3,0.3,0.6,0.6,0.8,0.9c0.1,0.2,0.3,0.3,0.4,0.5
				c0.1,0.1,0.3,0.3,0.4,0.4c0.3,0.3,0.6,0.6,0.9,0.9c0.3,0.3,0.6,0.6,0.9,0.8c0.2,0.1,0.3,0.3,0.5,0.4c0.1,0.1,0.1,0.1,0.2,0.2
				l0.2,0.2c2.5,2.1,5.1,3.8,7.7,5.2c2.7,1.4,5.4,2.4,8,3.1c2.6,0.7,5.2,1.1,7.6,1.3c2.4,0.2,4.7,0.1,6.8-0.1c0.5,0,1-0.1,1.5-0.2
				c0.5-0.1,1-0.1,1.5-0.2c0.5-0.1,0.9-0.2,1.4-0.3c0.4-0.1,0.9-0.2,1.3-0.3c3.4-0.8,5.9-1.9,7.6-2.7c0.2-0.1,0.4-0.2,0.6-0.3
				c0.2-0.1,0.4-0.2,0.5-0.3c0.3-0.2,0.6-0.3,0.8-0.4C95.8,111.8,96,111.7,96,111.7L96,111.7z M96,111.8c0,0-0.2,0.1-0.6,0.3
				c-0.2,0.1-0.5,0.3-0.8,0.4c-0.2,0.1-0.3,0.2-0.5,0.3c-0.2,0.1-0.4,0.2-0.6,0.3c-1.7,0.8-4.2,1.9-7.6,2.7
				c-0.4,0.1-0.9,0.2-1.3,0.3c-0.5,0.1-0.9,0.2-1.4,0.3c-0.5,0.1-1,0.2-1.5,0.2c-0.5,0.1-1,0.1-1.5,0.2c-2.1,0.2-4.4,0.3-6.8,0.1
				c-2.4-0.2-5-0.6-7.6-1.3c-1.3-0.3-2.7-0.8-4-1.3c-0.3-0.1-0.7-0.3-1-0.4c-0.3-0.1-0.7-0.3-1-0.4c-0.3-0.1-0.7-0.3-1-0.5
				c-0.3-0.2-0.7-0.3-1-0.5c-2.7-1.4-5.3-3.1-7.8-5.1l-0.2-0.2c-0.1-0.1-0.2-0.1-0.2-0.2c-0.2-0.1-0.3-0.3-0.5-0.4
				c-0.3-0.3-0.6-0.5-0.9-0.8c-0.3-0.3-0.6-0.6-0.9-0.9c-0.1-0.1-0.3-0.3-0.4-0.4c-0.1-0.2-0.3-0.3-0.4-0.5
				c-0.3-0.3-0.6-0.6-0.9-0.9c-0.1-0.2-0.3-0.3-0.4-0.5c-0.1-0.2-0.3-0.3-0.4-0.5c-0.1-0.2-0.3-0.3-0.4-0.5l-0.2-0.2l-0.2-0.3
				c-0.3-0.3-0.5-0.7-0.8-1c-0.3-0.3-0.5-0.7-0.7-1.1c-0.2-0.4-0.5-0.7-0.7-1.1c-0.2-0.4-0.5-0.8-0.7-1.1c-0.1-0.2-0.2-0.4-0.3-0.6
				c0,0,0-0.1,0-0.1l0-0.1l-0.1-0.1l-0.2-0.3c-0.2-0.4-0.4-0.8-0.6-1.2c-0.1-0.2-0.2-0.4-0.3-0.6c-0.1-0.2-0.2-0.4-0.3-0.6
				c-0.4-0.8-0.7-1.7-1.1-2.5c-0.6-1.7-1.2-3.4-1.6-5.3c-0.2-0.9-0.4-1.8-0.6-2.7c-0.1-0.5-0.1-0.9-0.2-1.4l-0.1-0.7L35.3,80
				c-0.4-3.8-0.2-7.6,0.5-11.5c0.1-0.5,0.2-1,0.3-1.4c0.1-0.5,0.2-0.9,0.4-1.4c0.1-0.2,0.1-0.5,0.2-0.7l0.2-0.7l0.2-0.7
				c0.1-0.2,0.1-0.5,0.2-0.7c0.2-0.5,0.3-0.9,0.5-1.4c0.1-0.2,0.2-0.5,0.3-0.7l0.3-0.7c0.1-0.2,0.2-0.5,0.3-0.7l0.3-0.7l0.3-0.7
				c0.1-0.2,0.2-0.5,0.3-0.7c0.2-0.4,0.5-0.9,0.7-1.3c0.1-0.2,0.3-0.4,0.4-0.6l0.4-0.6c0.1-0.2,0.3-0.4,0.4-0.6l0.4-0.6l0.4-0.6
				l0.2-0.3c0.1-0.1,0.1-0.2,0.2-0.3c0.3-0.4,0.6-0.8,0.9-1.2c0.3-0.4,0.6-0.8,0.9-1.2c0.2-0.2,0.3-0.4,0.5-0.6l0.5-0.6l0.5-0.6
				l0.3-0.3c0.1-0.1,0.2-0.2,0.3-0.3l1.1-1.1c0.2-0.2,0.4-0.3,0.6-0.5l0.6-0.5l0.6-0.5l0.6-0.5l0.6-0.5c0.2-0.2,0.4-0.3,0.6-0.5
				l1.2-0.9c0.1-0.1,0.2-0.2,0.3-0.2l0.3-0.2l0.6-0.4l0.6-0.4c0.2-0.1,0.4-0.3,0.6-0.4l1.3-0.8l1.3-0.7c0.2-0.1,0.4-0.2,0.7-0.3
				l0.7-0.3l0.7-0.3l0.3-0.2c0.1-0.1,0.2-0.1,0.4-0.1l1.4-0.6c0.2-0.1,0.5-0.2,0.7-0.3l0.7-0.2l0.7-0.2l0.7-0.2l0.7-0.2
				c0.2-0.1,0.5-0.1,0.7-0.2l1.5-0.3c0.1,0,0.2-0.1,0.4-0.1l0.4-0.1l0.7-0.1l0.7-0.1c0.2,0,0.5-0.1,0.7-0.1c0.5-0.1,1-0.1,1.5-0.2
				c0.5,0,1-0.1,1.5-0.1c0.1,0,0.2,0,0.4,0l0.4,0l0.8,0l0.8,0c0.3,0,0.5,0,0.8,0l0.7,0c0.2,0,0.5,0,0.7,0c0.5,0,1,0.1,1.5,0.1
				c0.2,0,0.5,0,0.7,0.1l0.7,0.1l0.7,0.1c0.2,0,0.5,0.1,0.7,0.1l0.7,0.1c0.2,0,0.5,0.1,0.7,0.1c0.5,0.1,1,0.2,1.4,0.3
				c0.2,0,0.5,0.1,0.7,0.2l0.7,0.2l0.7,0.2c0.2,0.1,0.5,0.1,0.7,0.2c0.5,0.2,0.9,0.3,1.4,0.4c0.5,0.2,0.9,0.3,1.4,0.5
				c3.6,1.4,7,3.3,10,5.6l0.6,0.4l0.5,0.5c0.4,0.3,0.7,0.6,1.1,0.9c0.7,0.6,1.4,1.2,2,1.9c1.3,1.3,2.5,2.7,3.6,4.2
				c0.5,0.7,1.1,1.5,1.6,2.2c0.2,0.4,0.5,0.7,0.7,1.1c0.2,0.4,0.4,0.8,0.7,1.2c0.1,0.2,0.2,0.4,0.3,0.6c0.1,0.2,0.2,0.4,0.3,0.6
				c0.2,0.4,0.4,0.8,0.6,1.2c0.2,0.4,0.4,0.8,0.5,1.2c0.2,0.4,0.4,0.8,0.5,1.2c0.2,0.4,0.3,0.8,0.5,1.2l0.1,0.3l0.1,0.3
				c0.1,0.2,0.1,0.4,0.2,0.6c0.1,0.2,0.1,0.4,0.2,0.6c0.1,0.2,0.1,0.4,0.2,0.6c0.1,0.4,0.2,0.8,0.3,1.2c0.1,0.2,0.1,0.4,0.2,0.6
				c0,0.2,0.1,0.4,0.1,0.6c0.1,0.4,0.2,0.8,0.3,1.2c0.1,0.4,0.1,0.8,0.2,1.2c0,0.2,0.1,0.4,0.1,0.6c0,0.1,0,0.2,0.1,0.3l0,0.3
				c0.4,3.2,0.5,6.4,0.2,9.4c0,0.4-0.1,0.7-0.1,1.1c0,0.4-0.1,0.7-0.1,1.1c-0.1,0.4-0.1,0.7-0.2,1.1c-0.1,0.4-0.1,0.7-0.2,1.1
				c-0.3,1.4-0.6,2.8-1,4.1c-0.8,2.6-1.8,5-3,7.2c-1.1,2.2-2.4,4.1-3.7,5.7c-0.3,0.4-0.6,0.8-1,1.2c-0.3,0.4-0.6,0.8-1,1.1
				c-0.3,0.4-0.6,0.7-1,1c-0.3,0.3-0.6,0.6-1,1c-2.5,2.5-4.7,4.1-6.3,5.1c-0.2,0.1-0.4,0.2-0.6,0.4c-0.2,0.1-0.3,0.2-0.5,0.3
				c-0.3,0.2-0.6,0.3-0.8,0.5C96.3,111.7,96,111.8,96,111.8L96,111.8z"/>
			<polygon id="Fill-13" class="st0" points="50.9,30.8 76.9,66.7 76.3,76.3 			"/>
			<path id="Fill-15" class="st0" d="M51.6,31.8L76.2,76l0.6-9.3L51.6,31.8z M76.3,76.5L50.9,30.8l0.1-0.1l26,36l0,0L76.3,76.5z"/>
			<polygon id="Fill-17" class="st0" points="50.9,30.8 67.8,71.8 76.3,76.3 			"/>
			<polygon id="Fill-19" class="st0" points="50.9,30.8 67.8,71.8 76.3,76.3 			"/>
			<path id="Fill-21" class="st0" d="M67.9,71.7l8.2,4.4L51.4,31.9L67.9,71.7z M76.4,76.4l-8.7-4.6L50.8,30.8l0.1-0.1L76.4,76.4z"/>
			<polygon id="Fill-23" class="st0" points="30.7,101.6 71.8,84.7 76.3,76.3 			"/>
			<path id="Fill-25" class="st0" d="M31.9,101.1l39.9-16.4l4.4-8.2L31.9,101.1z M71.8,84.8L71.8,84.8l-41.1,16.9l-0.1-0.1
				l45.7-25.5L71.8,84.8z"/>
			<polygon id="Fill-27" class="st0" points="30.7,101.6 66.7,75.6 76.3,76.3 			"/>
			<polygon id="Fill-29" class="st0" points="30.7,101.6 66.7,75.6 76.3,76.3 			"/>
			<path id="Fill-31" class="st0" d="M31.8,100.9L76,76.3l-9.3-0.6L31.8,100.9z M76.5,76.2l-45.7,25.5l-0.1-0.1l36-26l0,0L76.5,76.2
				z"/>
			<polygon id="Fill-33" class="st0" points="101.6,121.8 75.6,85.8 76.3,76.3 			"/>
			<path id="Fill-35" class="st0" d="M75.7,85.8l25.2,35L76.3,76.5L75.7,85.8z M101.5,121.8l-26-36l0,0l0.6-9.8l25.5,45.7
				L101.5,121.8z"/>
			<polygon id="Fill-37" class="st0" points="101.6,121.8 84.7,80.7 76.3,76.3 			"/>
			<polygon id="Fill-39" class="st0" points="101.6,121.8 84.7,80.7 76.3,76.3 			"/>
			<path id="Fill-41" class="st0" d="M76.4,76.4l24.6,44.2L84.6,80.8L76.4,76.4z M101.7,121.7l-0.1,0.1L76.1,76.1l8.7,4.6l0,0
				L101.7,121.7z"/>
			<polygon id="Fill-43" class="st0" points="121.8,50.9 80.7,67.8 76.3,76.3 			"/>
			<path id="Fill-45" class="st0" d="M76.4,76.1l44.2-24.6L80.8,67.9L76.4,76.1z M121.8,51L76.1,76.4l4.6-8.7l41.1-16.9L121.8,51z"
				/>
			<polygon id="Fill-47" class="st0" points="121.8,50.9 85.8,76.9 76.3,76.3 			"/>
			<polygon id="Fill-49" class="st0" points="121.8,50.9 85.8,76.9 76.3,76.3 			"/>
			<path id="Fill-51" class="st0" d="M76.5,76.2l9.3,0.6l35-25.2L76.5,76.2z M85.8,77L85.8,77L76,76.3l45.7-25.5l0.1,0.1L85.8,77z"
				/>
			<polygon id="Fill-53" class="st0" points="50.6,69.2 67.8,71.8 76.3,76.3 			"/>
			<polygon id="Fill-55" class="st0" points="50.6,69.2 67.8,71.8 76.3,76.3 			"/>
			<path id="Fill-57" class="st0" d="M51.7,69.4L75.7,76l-7.8-4.2L51.7,69.4z M76.9,76.5l-26.3-7.2l0-0.1l17.3,2.6l0,0L76.9,76.5z"
				/>
			<polygon id="Fill-59" class="st0" points="50.6,69.2 66.7,75.6 76.3,76.3 			"/>
			<path id="Fill-61" class="st0" d="M66.7,75.6l8.8,0.6l-23.8-6.5L66.7,75.6z M77,76.4l-10.3-0.7l-16.2-6.4l0-0.1L77,76.4z"/>
			<polygon id="Fill-63" class="st0" points="68.7,101.8 75.6,85.8 76.3,76.3 			"/>
			<polygon id="Fill-65" class="st0" points="68.7,101.8 75.6,85.8 76.3,76.3 			"/>
			<path id="Fill-67" class="st0" d="M76.1,76.9l-7,23.8l6.4-14.9L76.1,76.9z M68.8,101.9l-0.1,0l7.7-26.2l-0.7,10.2L68.8,101.9z"/>
			<polygon id="Fill-69" class="st0" points="68.7,101.8 71.8,84.7 76.3,76.3 			"/>
			<path id="Fill-71" class="st0" d="M71.8,84.7L69,100.6l7-23.6L71.8,84.7z M68.8,101.9l-0.1,0l3-17.1l4.8-9.1L68.8,101.9z"/>
			<polygon id="Fill-73" class="st0" points="83.3,50.6 80.7,67.8 76.3,76.3 			"/>
			<polygon id="Fill-75" class="st0" points="83.3,50.6 80.7,67.8 76.3,76.3 			"/>
			<path id="Fill-77" class="st0" d="M83.1,51.7l-6.6,23.9l4.2-7.8L83.1,51.7z M76,76.9l7.2-26.3l0.1,0l-2.6,17.3l0,0L76,76.9z"/>
			<polygon id="Fill-79" class="st0" points="83.3,50.6 76.9,66.7 76.3,76.3 			"/>
			<path id="Fill-81" class="st0" d="M77,66.8l-0.6,8.8l6.5-23.8L77,66.8z M76.1,77l0.7-10.3l6.4-16.2l0.1,0L76.1,77z"/>
			<polygon id="Fill-83" class="st0" points="101.8,83.8 85.8,76.9 76.3,76.3 			"/>
			<polygon id="Fill-85" class="st0" points="101.8,83.8 85.8,76.9 76.3,76.3 			"/>
			<path id="Fill-87" class="st0" d="M76.9,76.4l23.8,7L85.8,77L76.9,76.4z M101.8,83.9l-26.2-7.7l10.2,0.7l16,6.9L101.8,83.9z"/>
			<polygon id="Fill-89" class="st0" points="101.8,83.8 84.7,80.7 76.3,76.3 			"/>
			<path id="Fill-91" class="st0" d="M84.7,80.7l15.8,2.8l-23.6-7L84.7,80.7z M101.8,83.9l-17.1-3L75.6,76l26.2,7.7L101.8,83.9z"/>
			<path id="Fill-93" class="st0" d="M70.8,40.9c0,0,0.1,0.3,0.2,0.7c0.1,0.2,0.1,0.5,0.2,0.8c0.1,0.3,0.1,0.6,0.2,0.9
				c0.1,0.3,0.2,0.6,0.2,0.9c0,0.3,0,0.6,0,0.8c0,0.1,0,0.2,0,0.3c0,0.1,0,0.2,0,0.3c0,0.1-0.1,0.2-0.1,0.2l-0.1,0
				c0,0-0.1-0.1-0.1-0.2c0-0.1-0.1-0.1-0.1-0.2c0-0.1-0.1-0.2-0.1-0.3c-0.1-0.2-0.2-0.5-0.2-0.8c0-0.3,0-0.6-0.1-0.9
				c0-0.3-0.1-0.6-0.1-0.9c0-0.3,0-0.6,0-0.8C70.7,41.2,70.7,40.9,70.8,40.9L70.8,40.9z"/>
			<path id="Fill-95" class="st0" d="M53.8,48.4c0,0,0.2,0.2,0.6,0.5c0.2,0.2,0.4,0.4,0.6,0.6c0.2,0.2,0.4,0.4,0.6,0.6
				c0.2,0.2,0.4,0.4,0.6,0.6c0.2,0.2,0.3,0.5,0.4,0.7c0.1,0.1,0.1,0.2,0.1,0.3c0,0.1,0.1,0.2,0.1,0.2c0,0.1,0.1,0.2,0.1,0.2l-0.1,0
				c0,0-0.1,0-0.2-0.1c-0.1,0-0.1-0.1-0.2-0.1c-0.1-0.1-0.2-0.1-0.3-0.2c-0.2-0.1-0.4-0.3-0.6-0.6c-0.2-0.2-0.3-0.5-0.5-0.8
				c-0.2-0.3-0.4-0.5-0.5-0.7c-0.2-0.2-0.3-0.5-0.4-0.7C53.9,48.7,53.7,48.4,53.8,48.4L53.8,48.4z"/>
			<path id="Fill-97" class="st0" d="M49.3,52.7c0,0,0.3,0.2,0.6,0.4c0.2,0.1,0.4,0.3,0.6,0.5c0.2,0.2,0.5,0.3,0.7,0.5
				c0.2,0.2,0.5,0.3,0.7,0.5c0.2,0.2,0.4,0.4,0.5,0.6c0.1,0.1,0.1,0.2,0.2,0.3c0.1,0.1,0.1,0.2,0.1,0.2c0.1,0.1,0.1,0.2,0.1,0.2
				l0,0.1c0,0-0.1,0-0.2-0.1c-0.1,0-0.1-0.1-0.2-0.1c-0.1,0-0.2-0.1-0.3-0.1c-0.2-0.1-0.4-0.3-0.6-0.4c-0.2-0.2-0.4-0.4-0.6-0.7
				c-0.2-0.2-0.4-0.4-0.6-0.6c-0.2-0.2-0.4-0.4-0.5-0.6C49.5,53,49.3,52.7,49.3,52.7L49.3,52.7z"/>
			<path id="Fill-99" class="st0" d="M45.6,57.7c0,0,0.3,0.1,0.7,0.3c0.2,0.1,0.5,0.2,0.7,0.3c0.3,0.1,0.5,0.3,0.8,0.4
				c0.3,0.1,0.6,0.2,0.8,0.4c0.2,0.1,0.5,0.3,0.6,0.5c0.1,0.1,0.2,0.2,0.2,0.2c0.1,0.1,0.1,0.1,0.2,0.2c0.1,0.1,0.1,0.2,0.1,0.2
				l0,0.1c0,0-0.1,0-0.2,0c-0.1,0-0.2,0-0.2-0.1c-0.1,0-0.2-0.1-0.3-0.1c-0.2-0.1-0.5-0.2-0.7-0.3c-0.2-0.2-0.5-0.4-0.7-0.5
				c-0.2-0.2-0.5-0.4-0.7-0.5c-0.2-0.2-0.4-0.3-0.6-0.5C45.8,58,45.6,57.8,45.6,57.7L45.6,57.7z"/>
			<path id="Fill-101" class="st0" d="M42.9,63.3c0,0,0.3,0.1,0.7,0.2c0.2,0.1,0.5,0.1,0.8,0.2c0.3,0.1,0.6,0.2,0.9,0.2
				c0.3,0.1,0.6,0.1,0.9,0.2c0.3,0.1,0.5,0.2,0.7,0.4c0.1,0.1,0.2,0.1,0.3,0.2c0.1,0.1,0.1,0.1,0.2,0.2c0.1,0.1,0.2,0.2,0.2,0.2
				l0,0.1c0,0-0.1,0-0.2,0c-0.1,0-0.2,0-0.3,0c-0.1,0-0.2,0-0.3,0c-0.2,0-0.5-0.1-0.8-0.2c-0.3-0.1-0.5-0.3-0.8-0.4
				c-0.3-0.1-0.6-0.3-0.8-0.4c-0.3-0.1-0.5-0.3-0.7-0.4C43.1,63.5,42.8,63.4,42.9,63.3L42.9,63.3z"/>
			<path id="Fill-103" class="st0" d="M41.1,69.3c0,0,0.3,0,0.8,0.1c0.2,0,0.5,0,0.8,0.1c0.3,0,0.6,0.1,0.9,0.1c0.3,0,0.6,0,0.9,0.1
				c0.3,0.1,0.5,0.1,0.8,0.2c0.1,0,0.2,0.1,0.3,0.1c0.1,0,0.2,0.1,0.2,0.1c0.1,0.1,0.2,0.1,0.2,0.1l0,0.1c0,0-0.1,0-0.2,0.1
				c-0.1,0-0.2,0-0.3,0c-0.1,0-0.2,0-0.3,0c-0.2,0-0.5,0-0.8-0.1c-0.3-0.1-0.6-0.2-0.9-0.3c-0.3-0.1-0.6-0.2-0.9-0.2
				c-0.3-0.1-0.5-0.2-0.8-0.2C41.4,69.5,41.1,69.4,41.1,69.3L41.1,69.3z"/>
			<path id="Fill-105" class="st0" d="M40.4,75.5c0,0,0.3,0,0.8-0.1c0.2,0,0.5,0,0.8-0.1c0.3,0,0.6,0,0.9-0.1c0.3,0,0.6-0.1,0.9-0.1
				c0.3,0,0.6,0,0.8,0.1c0.1,0,0.2,0.1,0.3,0.1c0.1,0,0.2,0.1,0.2,0.1c0.1,0.1,0.2,0.1,0.2,0.1l0,0.1c0,0-0.1,0-0.2,0.1
				c-0.1,0-0.1,0.1-0.2,0.1c-0.1,0-0.2,0.1-0.3,0.1c-0.2,0-0.5,0.1-0.8,0.1c-0.3,0-0.6-0.1-0.9-0.1c-0.3,0-0.6-0.1-0.9-0.1
				c-0.3,0-0.6-0.1-0.8-0.1C40.8,75.6,40.4,75.6,40.4,75.5L40.4,75.5z"/>
			<path id="Fill-107" class="st0" d="M40.9,81.8c0,0,0.3-0.1,0.7-0.2c0.2-0.1,0.5-0.1,0.8-0.2c0.3-0.1,0.6-0.1,0.9-0.2
				c0.3-0.1,0.6-0.2,0.9-0.2c0.3,0,0.6,0,0.8,0c0.1,0,0.2,0,0.3,0c0.1,0,0.2,0,0.3,0c0.1,0,0.2,0.1,0.2,0.1l0,0.1
				c0,0-0.1,0.1-0.2,0.1c-0.1,0-0.1,0.1-0.2,0.1c-0.1,0-0.2,0.1-0.3,0.1c-0.2,0.1-0.5,0.2-0.8,0.2c-0.3,0-0.6,0-0.9,0.1
				c-0.3,0-0.6,0.1-0.9,0.1c-0.3,0-0.6,0-0.8,0C41.2,81.8,40.9,81.8,40.9,81.8L40.9,81.8z"/>
			<path id="Fill-109" class="st0" d="M42.4,87.8c0,0,0.3-0.1,0.7-0.3c0.2-0.1,0.5-0.2,0.7-0.3c0.3-0.1,0.5-0.2,0.8-0.4
				c0.3-0.1,0.6-0.3,0.8-0.4c0.3-0.1,0.5-0.1,0.8-0.2c0.1,0,0.2,0,0.3,0c0.1,0,0.2,0,0.3,0c0.1,0,0.2,0,0.2,0l0,0.1
				c0,0-0.1,0.1-0.2,0.2c-0.1,0-0.1,0.1-0.2,0.2c-0.1,0.1-0.2,0.1-0.3,0.2c-0.2,0.1-0.4,0.2-0.7,0.3c-0.3,0.1-0.6,0.1-0.9,0.2
				c-0.3,0.1-0.6,0.2-0.9,0.2c-0.3,0.1-0.5,0.1-0.8,0.2C42.7,87.8,42.4,87.9,42.4,87.8L42.4,87.8z"/>
			<path id="Fill-111" class="st0" d="M48.4,98.7c0,0,0.2-0.2,0.5-0.6c0.2-0.2,0.4-0.4,0.6-0.6c0.2-0.2,0.4-0.4,0.6-0.6
				c0.2-0.2,0.4-0.4,0.6-0.6c0.2-0.2,0.5-0.3,0.7-0.4c0.1-0.1,0.2-0.1,0.3-0.1c0.1,0,0.2-0.1,0.2-0.1c0.1,0,0.2-0.1,0.2-0.1l0,0.1
				c0,0,0,0.1-0.1,0.2c0,0.1-0.1,0.1-0.1,0.2c-0.1,0.1-0.1,0.2-0.2,0.3c-0.1,0.2-0.3,0.4-0.6,0.6c-0.2,0.2-0.5,0.3-0.8,0.5
				c-0.3,0.2-0.5,0.4-0.7,0.5c-0.2,0.2-0.5,0.3-0.7,0.4C48.7,98.6,48.4,98.8,48.4,98.7L48.4,98.7z"/>
			<path id="Fill-113" class="st0" d="M48.4,98.7c0,0,0.2-0.2,0.5-0.6c0.2-0.2,0.4-0.4,0.6-0.6c0.2-0.2,0.4-0.4,0.6-0.6
				c0.2-0.2,0.4-0.4,0.6-0.6c0.2-0.2,0.5-0.3,0.7-0.4c0.1-0.1,0.2-0.1,0.3-0.1c0.1,0,0.2-0.1,0.2-0.1c0.1,0,0.2-0.1,0.2-0.1l0,0.1
				c0,0,0,0.1-0.1,0.2c0,0.1-0.1,0.1-0.1,0.2c-0.1,0.1-0.1,0.2-0.2,0.3c-0.1,0.2-0.3,0.4-0.6,0.6c-0.2,0.2-0.5,0.3-0.8,0.5
				c-0.3,0.2-0.5,0.4-0.7,0.5c-0.2,0.2-0.5,0.3-0.7,0.4C48.7,98.6,48.4,98.8,48.4,98.7L48.4,98.7z"/>
			<path id="Fill-115" class="st0" d="M52.7,103.2c0,0,0.2-0.3,0.4-0.6c0.1-0.2,0.3-0.4,0.5-0.6c0.2-0.2,0.3-0.5,0.5-0.7
				c0.2-0.2,0.3-0.5,0.5-0.7c0.2-0.2,0.4-0.4,0.6-0.5c0.1-0.1,0.2-0.1,0.3-0.2c0.1-0.1,0.2-0.1,0.2-0.1c0.1-0.1,0.2-0.1,0.2-0.1
				l0.1,0c0,0,0,0.1-0.1,0.2c0,0.1-0.1,0.1-0.1,0.2c0,0.1-0.1,0.2-0.1,0.3c-0.1,0.2-0.3,0.4-0.4,0.6c-0.2,0.2-0.4,0.4-0.7,0.6
				c-0.2,0.2-0.4,0.4-0.6,0.6c-0.2,0.2-0.4,0.4-0.6,0.5C53,103.1,52.7,103.3,52.7,103.2L52.7,103.2z"/>
			<path id="Fill-117" class="st0" d="M57.7,106.9c0,0,0.1-0.3,0.3-0.7c0.1-0.2,0.2-0.5,0.3-0.7c0.1-0.3,0.3-0.5,0.4-0.8
				c0.1-0.3,0.2-0.6,0.4-0.8c0.1-0.2,0.3-0.5,0.5-0.6c0.1-0.1,0.2-0.2,0.2-0.2c0.1-0.1,0.1-0.1,0.2-0.2c0.1-0.1,0.2-0.1,0.2-0.1
				l0.1,0c0,0,0,0.1,0,0.2c0,0.1,0,0.2-0.1,0.2c0,0.1-0.1,0.2-0.1,0.3c-0.1,0.2-0.2,0.5-0.3,0.7c-0.2,0.2-0.4,0.5-0.5,0.7
				c-0.2,0.2-0.4,0.5-0.5,0.7c-0.2,0.2-0.3,0.4-0.5,0.6C58,106.7,57.8,106.9,57.7,106.9L57.7,106.9z"/>
			<path id="Fill-119" class="st0" d="M63.3,109.7c0,0,0.1-0.3,0.2-0.7c0.1-0.2,0.1-0.5,0.2-0.8c0.1-0.3,0.2-0.6,0.2-0.9
				c0.1-0.3,0.1-0.6,0.2-0.9c0.1-0.3,0.2-0.5,0.4-0.7c0.1-0.1,0.1-0.2,0.2-0.3c0.1-0.1,0.1-0.1,0.2-0.2c0.1-0.1,0.2-0.2,0.2-0.2
				l0.1,0c0,0,0,0.1,0,0.2c0,0.1,0,0.2,0,0.3c0,0.1,0,0.2,0,0.3c0,0.2-0.1,0.5-0.2,0.8c-0.1,0.3-0.3,0.5-0.4,0.8
				c-0.1,0.3-0.3,0.6-0.4,0.8c-0.1,0.3-0.3,0.5-0.4,0.7C63.5,109.4,63.4,109.7,63.3,109.7L63.3,109.7z"/>
			<path id="Fill-121" class="st0" d="M69.3,111.4c0,0,0-0.3,0.1-0.8c0-0.2,0-0.5,0.1-0.8c0-0.3,0.1-0.6,0.1-0.9
				c0-0.3,0-0.6,0.1-0.9c0.1-0.3,0.1-0.5,0.2-0.8c0-0.1,0.1-0.2,0.1-0.3c0-0.1,0.1-0.2,0.1-0.2c0.1-0.1,0.1-0.2,0.1-0.2l0.1,0
				c0,0,0,0.1,0.1,0.2c0,0.1,0,0.2,0,0.3c0,0.1,0,0.2,0,0.3c0,0.2,0,0.5-0.1,0.8c-0.1,0.3-0.2,0.6-0.3,0.9c-0.1,0.3-0.2,0.6-0.2,0.9
				c-0.1,0.3-0.2,0.5-0.2,0.8C69.5,111.1,69.4,111.4,69.3,111.4L69.3,111.4z"/>
			<path id="Fill-123" class="st0" d="M75.5,112.1c0,0,0-0.3-0.1-0.8c0-0.2,0-0.5-0.1-0.8c0-0.3,0-0.6-0.1-0.9
				c0-0.3-0.1-0.6-0.1-0.9c0-0.3,0-0.6,0.1-0.8c0-0.1,0.1-0.2,0.1-0.3c0-0.1,0.1-0.2,0.1-0.2c0.1-0.1,0.1-0.2,0.1-0.2l0.1,0
				c0,0,0,0.1,0.1,0.2c0,0.1,0.1,0.1,0.1,0.2c0,0.1,0.1,0.2,0.1,0.3c0,0.2,0.1,0.5,0.1,0.8c0,0.3-0.1,0.6-0.1,0.9
				c0,0.3-0.1,0.6-0.1,0.9c0,0.3-0.1,0.6-0.1,0.8C75.6,111.8,75.6,112.1,75.5,112.1L75.5,112.1z"/>
			<path id="Fill-125" class="st0" d="M81.8,111.7c0,0-0.1-0.3-0.2-0.7c-0.1-0.2-0.1-0.5-0.2-0.8c-0.1-0.3-0.1-0.6-0.2-0.9
				c-0.1-0.3-0.2-0.6-0.2-0.9c0-0.3,0-0.6,0-0.8c0-0.1,0-0.2,0-0.3c0-0.1,0-0.2,0-0.3c0-0.1,0.1-0.2,0.1-0.2l0.1,0
				c0,0,0.1,0.1,0.1,0.2c0,0.1,0.1,0.1,0.1,0.2c0,0.1,0.1,0.2,0.1,0.3c0.1,0.2,0.2,0.5,0.2,0.8c0,0.3,0,0.6,0.1,0.9
				c0,0.3,0.1,0.6,0.1,0.9c0,0.3,0,0.6,0,0.8C81.8,111.3,81.8,111.6,81.8,111.7L81.8,111.7z"/>
			<path id="Fill-127" class="st0" d="M87.8,110.2c0,0-0.1-0.3-0.3-0.7c-0.1-0.2-0.2-0.5-0.3-0.7c-0.1-0.3-0.2-0.5-0.4-0.8
				c-0.1-0.3-0.3-0.6-0.4-0.8c-0.1-0.3-0.1-0.5-0.2-0.8c0-0.1,0-0.2,0-0.3c0-0.1,0-0.2,0-0.3c0-0.1,0-0.2,0-0.2l0.1,0
				c0,0,0.1,0.1,0.2,0.2c0,0.1,0.1,0.1,0.2,0.2c0.1,0.1,0.1,0.2,0.2,0.3c0.1,0.2,0.2,0.4,0.3,0.7c0.1,0.3,0.1,0.6,0.2,0.9
				c0.1,0.3,0.2,0.6,0.2,0.9c0.1,0.3,0.1,0.5,0.2,0.8C87.8,109.8,87.9,110.1,87.8,110.2L87.8,110.2z"/>
			<path id="Fill-129" class="st0" d="M98.7,104.2c0,0-0.2-0.2-0.6-0.5c-0.2-0.2-0.4-0.4-0.6-0.6c-0.2-0.2-0.4-0.4-0.6-0.6
				c-0.2-0.2-0.4-0.4-0.6-0.6c-0.2-0.2-0.3-0.5-0.4-0.7c-0.1-0.1-0.1-0.2-0.1-0.3c0-0.1-0.1-0.2-0.1-0.2c0-0.1-0.1-0.2-0.1-0.2
				l0.1,0c0,0,0.1,0,0.2,0.1c0.1,0,0.1,0.1,0.2,0.1c0.1,0.1,0.2,0.1,0.3,0.2c0.2,0.1,0.4,0.3,0.6,0.6c0.2,0.2,0.3,0.5,0.5,0.8
				c0.2,0.3,0.4,0.5,0.5,0.7c0.2,0.2,0.3,0.5,0.4,0.7C98.6,103.9,98.8,104.1,98.7,104.2L98.7,104.2z"/>
			<path id="Fill-131" class="st0" d="M103.2,99.8c0,0-0.3-0.2-0.6-0.4c-0.2-0.1-0.4-0.3-0.6-0.5c-0.2-0.2-0.5-0.3-0.7-0.5
				c-0.2-0.2-0.5-0.3-0.7-0.5c-0.2-0.2-0.4-0.4-0.5-0.6c-0.1-0.1-0.1-0.2-0.2-0.3c-0.1-0.1-0.1-0.2-0.1-0.2
				c-0.1-0.1-0.1-0.2-0.1-0.2l0-0.1c0,0,0.1,0,0.2,0.1c0.1,0,0.1,0.1,0.2,0.1c0.1,0,0.2,0.1,0.3,0.1c0.2,0.1,0.4,0.3,0.6,0.4
				c0.2,0.2,0.4,0.4,0.6,0.7c0.2,0.2,0.4,0.4,0.6,0.6c0.2,0.2,0.4,0.4,0.5,0.6C103.1,99.6,103.3,99.8,103.2,99.8L103.2,99.8z"/>
			<path id="Fill-133" class="st0" d="M106.9,94.8c0,0-0.3-0.1-0.7-0.3c-0.2-0.1-0.5-0.2-0.7-0.3c-0.3-0.1-0.5-0.3-0.8-0.4
				c-0.3-0.1-0.6-0.2-0.8-0.4c-0.2-0.1-0.5-0.3-0.6-0.5c-0.1-0.1-0.2-0.2-0.2-0.2c-0.1-0.1-0.1-0.1-0.2-0.2
				c-0.1-0.1-0.1-0.2-0.1-0.2l0-0.1c0,0,0.1,0,0.2,0c0.1,0,0.2,0,0.2,0.1c0.1,0,0.2,0.1,0.3,0.1c0.2,0.1,0.5,0.2,0.7,0.3
				c0.2,0.2,0.5,0.4,0.7,0.5c0.2,0.2,0.5,0.4,0.7,0.5c0.2,0.2,0.4,0.3,0.6,0.5C106.7,94.5,106.9,94.7,106.9,94.8L106.9,94.8z"/>
			<path id="Fill-135" class="st0" d="M109.7,89.2c0,0-0.3-0.1-0.7-0.2c-0.2-0.1-0.5-0.1-0.8-0.2c-0.3-0.1-0.6-0.2-0.9-0.2
				c-0.3-0.1-0.6-0.1-0.9-0.2c-0.3-0.1-0.5-0.2-0.7-0.4c-0.1-0.1-0.2-0.1-0.3-0.2c-0.1-0.1-0.1-0.1-0.2-0.2
				c-0.1-0.1-0.2-0.2-0.2-0.2l0-0.1c0,0,0.1,0,0.2,0c0.1,0,0.2,0,0.3,0c0.1,0,0.2,0,0.3,0c0.2,0,0.5,0.1,0.8,0.2
				c0.3,0.1,0.5,0.3,0.8,0.4c0.3,0.1,0.6,0.3,0.8,0.4c0.3,0.1,0.5,0.3,0.7,0.4C109.4,89,109.7,89.1,109.7,89.2L109.7,89.2z"/>
			<path id="Fill-137" class="st0" d="M111.4,83.2c0,0-0.3,0-0.8-0.1c-0.2,0-0.5,0-0.8-0.1c-0.3,0-0.6-0.1-0.9-0.1
				c-0.3,0-0.6,0-0.9-0.1c-0.3-0.1-0.5-0.1-0.8-0.2c-0.1,0-0.2-0.1-0.3-0.1c-0.1,0-0.2-0.1-0.2-0.1c-0.1-0.1-0.2-0.1-0.2-0.1l0-0.1
				c0,0,0.1,0,0.2-0.1c0.1,0,0.2,0,0.3,0c0.1,0,0.2,0,0.3,0c0.2,0,0.5,0,0.8,0.1c0.3,0.1,0.6,0.2,0.9,0.3c0.3,0.1,0.6,0.2,0.9,0.2
				c0.3,0.1,0.5,0.2,0.8,0.2C111.1,83,111.4,83.1,111.4,83.2L111.4,83.2z"/>
			<path id="Fill-139" class="st0" d="M112.1,77c0,0-0.3,0-0.8,0.1c-0.2,0-0.5,0-0.8,0.1c-0.3,0-0.6,0-0.9,0.1
				c-0.3,0-0.6,0.1-0.9,0.1c-0.3,0-0.6,0-0.8-0.1c-0.1,0-0.2-0.1-0.3-0.1c-0.1,0-0.2-0.1-0.2-0.1c-0.1-0.1-0.2-0.1-0.2-0.1l0-0.1
				c0,0,0.1,0,0.2-0.1c0.1,0,0.1-0.1,0.2-0.1c0.1,0,0.2-0.1,0.3-0.1c0.2,0,0.5-0.1,0.8-0.1c0.3,0,0.6,0.1,0.9,0.1
				c0.3,0,0.6,0.1,0.9,0.1c0.3,0,0.6,0.1,0.8,0.1C111.8,76.9,112.1,76.9,112.1,77L112.1,77z"/>
			<path id="Fill-141" class="st0" d="M111.7,70.8c0,0-0.3,0.1-0.7,0.2c-0.2,0.1-0.5,0.1-0.8,0.2c-0.3,0.1-0.6,0.1-0.9,0.2
				c-0.3,0.1-0.6,0.2-0.9,0.2c-0.3,0-0.6,0-0.8,0c-0.1,0-0.2,0-0.3,0c-0.1,0-0.2,0-0.3,0c-0.1,0-0.2-0.1-0.2-0.1l0-0.1
				c0,0,0.1-0.1,0.2-0.1c0.1,0,0.1-0.1,0.2-0.1c0.1,0,0.2-0.1,0.3-0.1c0.2-0.1,0.5-0.2,0.8-0.2c0.3,0,0.6,0,0.9-0.1
				c0.3,0,0.6-0.1,0.9-0.1c0.3,0,0.6,0,0.8,0C111.3,70.7,111.6,70.7,111.7,70.8L111.7,70.8z"/>
			<path id="Fill-143" class="st0" d="M110.2,64.7c0,0-0.3,0.1-0.7,0.3c-0.2,0.1-0.5,0.2-0.7,0.3c-0.3,0.1-0.5,0.2-0.8,0.4
				c-0.3,0.1-0.6,0.3-0.8,0.4c-0.3,0.1-0.5,0.1-0.8,0.2c-0.1,0-0.2,0-0.3,0c-0.1,0-0.2,0-0.3,0c-0.1,0-0.2,0-0.2,0l0-0.1
				c0,0,0.1-0.1,0.2-0.2c0.1,0,0.1-0.1,0.2-0.2c0.1-0.1,0.2-0.1,0.3-0.2c0.2-0.1,0.4-0.2,0.7-0.3c0.3-0.1,0.6-0.1,0.9-0.2
				c0.3-0.1,0.6-0.2,0.9-0.2c0.3-0.1,0.5-0.1,0.8-0.2C109.8,64.7,110.1,64.6,110.2,64.7L110.2,64.7z"/>
			<path id="Fill-145" class="st0" d="M104.2,53.8c0,0-0.2,0.2-0.5,0.6c-0.2,0.2-0.4,0.4-0.6,0.6c-0.2,0.2-0.4,0.4-0.6,0.6
				c-0.2,0.2-0.4,0.5-0.6,0.6c-0.2,0.2-0.5,0.3-0.7,0.4c-0.1,0.1-0.2,0.1-0.3,0.1c-0.1,0-0.2,0.1-0.2,0.1c-0.1,0-0.2,0.1-0.2,0.1
				l0-0.1c0,0,0-0.1,0.1-0.2c0-0.1,0.1-0.1,0.1-0.2c0.1-0.1,0.1-0.2,0.2-0.3c0.1-0.2,0.3-0.4,0.6-0.6c0.2-0.2,0.5-0.3,0.8-0.5
				c0.3-0.2,0.5-0.4,0.7-0.5c0.2-0.2,0.5-0.3,0.7-0.4C103.9,53.9,104.1,53.7,104.2,53.8L104.2,53.8z"/>
			<path id="Fill-147" class="st0" d="M99.8,49.3c0,0-0.2,0.3-0.4,0.6c-0.1,0.2-0.3,0.4-0.5,0.6c-0.2,0.2-0.3,0.5-0.5,0.7
				c-0.2,0.2-0.3,0.5-0.5,0.7c-0.2,0.2-0.4,0.4-0.6,0.5c-0.1,0.1-0.2,0.1-0.3,0.2c-0.1,0.1-0.2,0.1-0.2,0.1C96.7,53,96.6,53,96.6,53
				l-0.1,0c0,0,0-0.1,0.1-0.2c0-0.1,0.1-0.1,0.1-0.2c0-0.1,0.1-0.2,0.1-0.3c0.1-0.2,0.3-0.4,0.4-0.6c0.2-0.2,0.4-0.4,0.7-0.6
				c0.2-0.2,0.4-0.4,0.6-0.6c0.2-0.2,0.4-0.4,0.6-0.5C99.6,49.5,99.8,49.3,99.8,49.3L99.8,49.3z"/>
			<path id="Fill-149" class="st0" d="M94.8,45.6c0,0-0.1,0.3-0.3,0.7c-0.1,0.2-0.2,0.5-0.3,0.7c-0.1,0.3-0.3,0.5-0.4,0.8
				c-0.1,0.3-0.2,0.6-0.4,0.8c-0.1,0.2-0.3,0.5-0.5,0.6c-0.1,0.1-0.2,0.2-0.2,0.2c-0.1,0.1-0.1,0.1-0.2,0.2
				c-0.1,0.1-0.2,0.1-0.2,0.1l-0.1,0c0,0,0-0.1,0-0.2c0-0.1,0-0.2,0.1-0.2c0-0.1,0.1-0.2,0.1-0.3c0.1-0.2,0.2-0.5,0.3-0.7
				c0.2-0.2,0.4-0.5,0.5-0.7c0.2-0.2,0.4-0.5,0.5-0.7c0.2-0.2,0.3-0.4,0.5-0.6C94.5,45.8,94.7,45.6,94.8,45.6L94.8,45.6z"/>
			<path id="Fill-151" class="st0" d="M89.2,42.9c0,0-0.1,0.3-0.2,0.7c-0.1,0.2-0.1,0.5-0.2,0.8c-0.1,0.3-0.2,0.6-0.2,0.9
				c-0.1,0.3-0.1,0.6-0.2,0.9c-0.1,0.3-0.2,0.5-0.4,0.7c-0.1,0.1-0.1,0.2-0.2,0.3c-0.1,0.1-0.1,0.1-0.2,0.2
				c-0.1,0.1-0.2,0.2-0.2,0.2l-0.1,0c0,0,0-0.1,0-0.2c0-0.1,0-0.2,0-0.3c0-0.1,0-0.2,0-0.3c0-0.2,0.1-0.5,0.2-0.8
				c0.1-0.3,0.3-0.5,0.4-0.8c0.1-0.3,0.3-0.6,0.4-0.8c0.1-0.3,0.3-0.5,0.4-0.7C89,43.1,89.1,42.8,89.2,42.9L89.2,42.9z"/>
			<path id="Fill-153" class="st0" d="M83.2,41.1c0,0,0,0.3-0.1,0.8c0,0.2,0,0.5-0.1,0.8c0,0.3-0.1,0.6-0.1,0.9c0,0.3,0,0.6-0.1,0.9
				c-0.1,0.3-0.1,0.5-0.2,0.8c0,0.1-0.1,0.2-0.1,0.3c0,0.1-0.1,0.2-0.1,0.2c-0.1,0.1-0.1,0.2-0.1,0.2l-0.1,0c0,0,0-0.1-0.1-0.2
				c0-0.1,0-0.2,0-0.3c0-0.1,0-0.2,0-0.3c0-0.2,0-0.5,0.1-0.8c0.1-0.3,0.2-0.6,0.3-0.9c0.1-0.3,0.2-0.6,0.2-0.9
				c0.1-0.3,0.2-0.5,0.2-0.8C83,41.4,83.1,41.1,83.2,41.1L83.2,41.1z"/>
			<path id="Fill-155" class="st0" d="M77,40.5c0,0,0,0.3,0.1,0.8c0,0.2,0,0.5,0.1,0.8c0,0.3,0,0.6,0.1,0.9c0,0.3,0.1,0.6,0.1,0.9
				c0,0.3,0,0.6-0.1,0.8c0,0.1-0.1,0.2-0.1,0.3c0,0.1-0.1,0.2-0.1,0.2c-0.1,0.1-0.1,0.2-0.1,0.2l-0.1,0c0,0,0-0.1-0.1-0.2
				c0-0.1-0.1-0.1-0.1-0.2c0-0.1-0.1-0.2-0.1-0.3c0-0.2-0.1-0.5-0.1-0.8c0-0.3,0.1-0.6,0.1-0.9c0-0.3,0.1-0.6,0.1-0.9
				c0-0.3,0.1-0.6,0.1-0.8C76.9,40.8,76.9,40.5,77,40.5L77,40.5z"/>
			<path id="Fill-157" class="st0" d="M70.8,40.9c0,0,0.1,0.3,0.2,0.7c0.1,0.2,0.1,0.5,0.2,0.8c0.1,0.3,0.1,0.6,0.2,0.9
				c0.1,0.3,0.2,0.6,0.2,0.9c0,0.3,0,0.6,0,0.8c0,0.1,0,0.2,0,0.3c0,0.1,0,0.2,0,0.3c0,0.1-0.1,0.2-0.1,0.2l-0.1,0
				c0,0-0.1-0.1-0.1-0.2c0-0.1-0.1-0.1-0.1-0.2c0-0.1-0.1-0.2-0.1-0.3c-0.1-0.2-0.2-0.5-0.2-0.8c0-0.3,0-0.6-0.1-0.9
				c0-0.3-0.1-0.6-0.1-0.9c0-0.3,0-0.6,0-0.8C70.7,41.2,70.7,40.9,70.8,40.9L70.8,40.9z"/>
			<path id="Fill-159" class="st0" d="M70.8,40.9c0,0,0.1,0.3,0.2,0.7c0.1,0.2,0.1,0.5,0.2,0.8c0.1,0.3,0.1,0.6,0.2,0.9
				c0.1,0.3,0.2,0.6,0.2,0.9c0,0.3,0,0.6,0,0.8c0,0.1,0,0.2,0,0.3c0,0.1,0,0.2,0,0.3c0,0.1-0.1,0.2-0.1,0.2l-0.1,0
				c0,0-0.1-0.1-0.1-0.2c0-0.1-0.1-0.1-0.1-0.2c0-0.1-0.1-0.2-0.1-0.3c-0.1-0.2-0.2-0.5-0.2-0.8c0-0.3,0-0.6-0.1-0.9
				c0-0.3-0.1-0.6-0.1-0.9c0-0.3,0-0.6,0-0.8C70.7,41.2,70.7,40.9,70.8,40.9L70.8,40.9z"/>
			<path id="Fill-161" class="st0" d="M64.7,42.4c0,0,0.1,0.3,0.3,0.7c0.1,0.2,0.2,0.5,0.3,0.7c0.1,0.3,0.2,0.5,0.4,0.8
				c0.1,0.3,0.3,0.6,0.4,0.8c0.1,0.3,0.1,0.5,0.2,0.8c0,0.1,0,0.2,0,0.3c0,0.1,0,0.2,0,0.3c0,0.1,0,0.2,0,0.2l-0.1,0
				c0,0-0.1-0.1-0.2-0.2c0-0.1-0.1-0.1-0.2-0.2c-0.1-0.1-0.1-0.2-0.2-0.3c-0.1-0.2-0.2-0.4-0.3-0.7c-0.1-0.3-0.1-0.6-0.2-0.9
				c-0.1-0.3-0.2-0.6-0.2-0.9c-0.1-0.3-0.1-0.5-0.2-0.8C64.7,42.7,64.6,42.4,64.7,42.4L64.7,42.4z"/>
			<path id="Fill-163" class="st0" d="M70.8,40.9c0,0,0.1,0.3,0.2,0.7c0.1,0.2,0.1,0.5,0.2,0.8c0.1,0.3,0.1,0.6,0.2,0.9
				c0.1,0.3,0.2,0.6,0.2,0.9c0,0.3,0,0.6,0,0.8c0,0.1,0,0.2,0,0.3c0,0.1,0,0.2,0,0.3c0,0.1-0.1,0.2-0.1,0.2l-0.1,0
				c0,0-0.1-0.1-0.1-0.2c0-0.1-0.1-0.1-0.1-0.2c0-0.1-0.1-0.2-0.1-0.3c-0.1-0.2-0.2-0.5-0.2-0.8c0-0.3,0-0.6-0.1-0.9
				c0-0.3-0.1-0.6-0.1-0.9c0-0.3,0-0.6,0-0.8C70.7,41.2,70.7,40.9,70.8,40.9L70.8,40.9z"/>
			<path id="Fill-165" class="st0" d="M51.4,40.9c0.2,0.4,0.1,0.9-0.3,1.1c-0.4,0.2-0.9,0.1-1.1-0.3c-0.2-0.4-0.1-0.9,0.3-1.1
				C50.6,40.3,51.1,40.5,51.4,40.9"/>
			<path id="Fill-167" class="st0" d="M50.3,40.6c-0.4,0.2-0.5,0.7-0.3,1s0.7,0.5,1,0.3c0.4-0.2,0.5-0.7,0.3-1
				C51.1,40.5,50.6,40.4,50.3,40.6 M51.1,42.1c-0.4,0.2-1,0.1-1.2-0.3c-0.2-0.4-0.1-1,0.3-1.2c0.4-0.2,1-0.1,1.2,0.3
				C51.7,41.3,51.5,41.8,51.1,42.1"/>
			<path id="Fill-169" class="st0" d="M42.9,49c0.2,0.4,0.1,0.9-0.3,1.1c-0.4,0.2-0.9,0.1-1.1-0.3c-0.2-0.4-0.1-0.9,0.3-1.1
				C42.2,48.4,42.7,48.6,42.9,49"/>
			<path id="Fill-171" class="st0" d="M41.8,48.7c-0.4,0.2-0.5,0.7-0.3,1c0.2,0.4,0.7,0.5,1,0.3c0.4-0.2,0.5-0.7,0.3-1
				C42.7,48.7,42.2,48.5,41.8,48.7 M42.7,50.2c-0.4,0.2-1,0.1-1.2-0.3c-0.2-0.4-0.1-1,0.3-1.2s1-0.1,1.2,0.3
				C43.2,49.4,43.1,49.9,42.7,50.2"/>
			<path id="Fill-173" class="st0" d="M47.3,44.6c0.3,0.6,0.1,1.3-0.5,1.7c-0.6,0.3-1.3,0.1-1.7-0.5c-0.3-0.6-0.1-1.3,0.5-1.7
				C46.3,43.8,47,44,47.3,44.6"/>
			<path id="Fill-175" class="st0" d="M45.7,44.2c-0.6,0.3-0.8,1-0.4,1.6c0.3,0.6,1,0.8,1.6,0.4c0.6-0.3,0.8-1,0.4-1.6
				C47,44.1,46.3,43.9,45.7,44.2 M46.9,46.3c-0.6,0.3-1.4,0.1-1.8-0.5c-0.3-0.6-0.1-1.4,0.5-1.8c0.6-0.3,1.4-0.1,1.8,0.5
				C47.7,45.2,47.5,46,46.9,46.3"/>
			<path id="Fill-177" class="st0" d="M39.9,53.5c0.3,0.6,0.1,1.3-0.5,1.7c-0.6,0.3-1.3,0.1-1.7-0.5c-0.3-0.6-0.1-1.3,0.5-1.7
				S39.6,52.9,39.9,53.5"/>
			<path id="Fill-179" class="st0" d="M38.3,53.1c-0.6,0.3-0.8,1-0.4,1.6c0.3,0.6,1,0.8,1.6,0.4s0.8-1,0.4-1.6
				C39.6,53,38.9,52.8,38.3,53.1 M39.5,55.2c-0.6,0.3-1.4,0.1-1.8-0.5c-0.3-0.6-0.1-1.4,0.5-1.8c0.6-0.3,1.4-0.1,1.8,0.5
				C40.3,54.1,40.1,54.8,39.5,55.2"/>
			<path id="Fill-181" class="st0" d="M33.8,75.1c0.3,0.6,0.1,1.3-0.5,1.7c-0.6,0.3-1.3,0.1-1.7-0.5c-0.3-0.6-0.1-1.3,0.5-1.7
				S33.4,74.6,33.8,75.1"/>
			<path id="Fill-183" class="st0" d="M32.1,74.7c-0.6,0.3-0.8,1-0.4,1.6c0.3,0.6,1,0.8,1.6,0.4c0.6-0.3,0.8-1,0.4-1.6
				C33.4,74.6,32.7,74.4,32.1,74.7 M33.3,76.9c-0.6,0.3-1.4,0.1-1.8-0.5c-0.3-0.6-0.1-1.4,0.5-1.8c0.6-0.3,1.4-0.1,1.8,0.5
				C34.2,75.7,33.9,76.5,33.3,76.9"/>
			<path id="Fill-185" class="st0" d="M55.1,113.6c0.3,0.6,0.1,1.3-0.5,1.7c-0.6,0.3-1.3,0.1-1.7-0.5c-0.3-0.6-0.1-1.3,0.5-1.7
				S54.8,113,55.1,113.6"/>
			<path id="Fill-187" class="st0" d="M53.5,113.2c-0.6,0.3-0.8,1-0.4,1.6c0.3,0.6,1,0.8,1.6,0.4s0.8-1,0.4-1.6
				C54.8,113.1,54.1,112.9,53.5,113.2 M54.7,115.3c-0.6,0.3-1.4,0.1-1.8-0.5c-0.3-0.6-0.1-1.4,0.5-1.8s1.4-0.1,1.8,0.5
				C55.6,114.2,55.3,114.9,54.7,115.3"/>
			<path id="Fill-189" class="st0" d="M76.7,119.5c0.3,0.6,0.1,1.3-0.5,1.7s-1.3,0.1-1.7-0.5c-0.3-0.6-0.1-1.3,0.5-1.7
				C75.6,118.7,76.4,118.9,76.7,119.5"/>
			<path id="Fill-191" class="st0" d="M75.1,119.1c-0.6,0.3-0.8,1-0.4,1.6c0.3,0.6,1,0.8,1.6,0.4c0.6-0.3,0.8-1,0.4-1.6
				C76.3,119,75.6,118.8,75.1,119.1 M76.3,121.2c-0.6,0.3-1.4,0.1-1.8-0.5s-0.1-1.4,0.5-1.8c0.6-0.3,1.4-0.1,1.8,0.5
				S76.9,120.9,76.3,121.2"/>
			<path id="Fill-193" class="st0" d="M114.9,98.2c0.3,0.6,0.1,1.3-0.5,1.7c-0.6,0.3-1.3,0.1-1.7-0.5c-0.3-0.6-0.1-1.3,0.5-1.7
				C113.8,97.4,114.6,97.6,114.9,98.2"/>
			<path id="Fill-195" class="st0" d="M113.3,97.8c-0.6,0.3-0.8,1-0.4,1.6c0.3,0.6,1,0.8,1.6,0.4c0.6-0.3,0.8-1,0.4-1.6
				C114.5,97.7,113.8,97.5,113.3,97.8 M114.5,99.9c-0.6,0.3-1.4,0.1-1.8-0.5c-0.3-0.6-0.1-1.4,0.5-1.8c0.6-0.3,1.4-0.1,1.8,0.5
				C115.3,98.8,115.1,99.6,114.5,99.9"/>
			<path id="Fill-197" class="st0" d="M121.3,76.7c0.3,0.6,0.1,1.3-0.5,1.7s-1.3,0.1-1.7-0.5c-0.3-0.6-0.1-1.3,0.5-1.7
				S121,76.1,121.3,76.7"/>
			<path id="Fill-199" class="st0" d="M119.7,76.3c-0.6,0.3-0.8,1-0.4,1.6s1,0.8,1.6,0.4s0.8-1,0.4-1.6S120.2,76,119.7,76.3
				 M120.9,78.4c-0.6,0.3-1.4,0.1-1.8-0.5c-0.3-0.6-0.1-1.4,0.5-1.8c0.6-0.3,1.4-0.1,1.8,0.5S121.5,78.1,120.9,78.4"/>
			<path id="Fill-201" class="st0" d="M99.9,38.3c0.3,0.6,0.1,1.3-0.5,1.7s-1.3,0.1-1.7-0.5c-0.3-0.6-0.1-1.3,0.5-1.7
				C98.8,37.5,99.6,37.7,99.9,38.3"/>
			<path id="Fill-203" class="st0" d="M98.3,37.9c-0.6,0.3-0.8,1-0.4,1.6c0.3,0.6,1,0.8,1.6,0.4c0.6-0.3,0.8-1,0.4-1.6
				C99.5,37.8,98.8,37.6,98.3,37.9 M99.5,40c-0.6,0.3-1.4,0.1-1.8-0.5c-0.3-0.6-0.1-1.4,0.5-1.8c0.6-0.3,1.4-0.1,1.8,0.5
				C100.3,38.9,100.1,39.7,99.5,40"/>
			<path id="Fill-205" class="st0" d="M78.2,32.2c0.3,0.6,0.1,1.3-0.5,1.7c-0.6,0.3-1.3,0.1-1.7-0.5c-0.3-0.6-0.1-1.3,0.5-1.7
				C77.1,31.4,77.9,31.6,78.2,32.2"/>
			<path id="Fill-207" class="st0" d="M76.6,31.7c-0.6,0.3-0.8,1-0.4,1.6c0.3,0.6,1,0.8,1.6,0.4c0.6-0.3,0.8-1,0.4-1.6
				C77.8,31.6,77.1,31.4,76.6,31.7 M77.8,33.9c-0.6,0.3-1.4,0.1-1.8-0.5c-0.3-0.6-0.1-1.4,0.5-1.8c0.6-0.3,1.4-0.1,1.8,0.5
				C78.6,32.7,78.4,33.5,77.8,33.9"/>
			<path id="Fill-209" class="st0" d="M37,58.1c0.4,0.2,0.5,0.7,0.3,1.1c-0.2,0.4-0.7,0.5-1.1,0.3c-0.4-0.2-0.5-0.7-0.3-1.1
				C36.1,57.9,36.6,57.8,37,58.1"/>
			<path id="Fill-211" class="st0" d="M36.2,58.1c-0.1,0.1-0.2,0.2-0.3,0.3c-0.2,0.4-0.1,0.8,0.3,1c0.2,0.1,0.5,0.1,0.8,0
				c0.1-0.1,0.2-0.2,0.3-0.3c0.1-0.2,0.1-0.4,0.1-0.6c0-0.2-0.2-0.4-0.3-0.5C36.7,58,36.4,58,36.2,58.1 M37,59.6
				c-0.3,0.2-0.6,0.2-0.9,0c-0.4-0.3-0.6-0.8-0.3-1.2c0.1-0.1,0.2-0.2,0.3-0.3c0.3-0.2,0.6-0.2,0.9,0c0.2,0.1,0.4,0.3,0.4,0.6
				c0.1,0.2,0,0.5-0.1,0.7C37.3,59.4,37.1,59.5,37,59.6"/>
			<path id="Fill-213" class="st0" d="M33.2,80.1c0.5,0,0.8,0.4,0.8,0.8c0,0.5-0.4,0.8-0.8,0.8c-0.5,0-0.8-0.4-0.8-0.8
				C32.3,80.5,32.7,80.1,33.2,80.1"/>
			<path id="Fill-215" class="st0" d="M32.8,80.3c-0.2,0.1-0.4,0.4-0.4,0.7c0,0.2,0.1,0.4,0.2,0.5c0.1,0.1,0.3,0.2,0.5,0.2
				c0.1,0,0.3,0,0.4-0.1c0.2-0.1,0.4-0.4,0.4-0.7c0-0.4-0.3-0.8-0.7-0.8C33,80.2,32.9,80.2,32.8,80.3 M33.6,81.7
				c-0.1,0.1-0.3,0.1-0.5,0.1c-0.2,0-0.5-0.1-0.6-0.3c-0.2-0.2-0.3-0.4-0.3-0.6c0-0.3,0.2-0.6,0.5-0.8c0.1-0.1,0.3-0.1,0.5-0.1
				c0.5,0,0.9,0.4,0.9,0.9C34,81.3,33.9,81.6,33.6,81.7"/>
			<path id="Fill-217" class="st0" d="M36,91.5c0.5,0,0.8,0.4,0.8,0.8c0,0.5-0.4,0.8-0.8,0.8c-0.5,0-0.8-0.4-0.8-0.8
				C35.1,91.8,35.5,91.5,36,91.5"/>
			<path id="Fill-219" class="st0" d="M35.6,91.7c-0.2,0.1-0.4,0.4-0.4,0.7c0,0.4,0.3,0.8,0.7,0.8c0.1,0,0.3,0,0.4-0.1
				c0.2-0.1,0.4-0.4,0.4-0.7c0-0.4-0.3-0.8-0.7-0.8C35.8,91.6,35.7,91.6,35.6,91.7 M36.4,93.1c-0.1,0.1-0.3,0.1-0.5,0.1
				c-0.5,0-0.9-0.4-0.9-0.9c0-0.3,0.2-0.6,0.5-0.8c0.1-0.1,0.3-0.1,0.5-0.1c0.5,0,0.9,0.4,0.9,0.9C36.9,92.7,36.7,92.9,36.4,93.1"/>
			<path id="Fill-221" class="st0" d="M34.4,85.5c0.7,0,1.2,0.6,1.2,1.2c0,0.7-0.6,1.2-1.2,1.2c-0.7,0-1.2-0.6-1.2-1.2
				C33.2,86,33.7,85.5,34.4,85.5"/>
			<path id="Fill-223" class="st0" d="M33.8,85.7c-0.4,0.2-0.6,0.6-0.6,1c0,0.6,0.5,1.2,1.1,1.2c0.2,0,0.4,0,0.6-0.1
				c0.4-0.2,0.6-0.6,0.6-1c0-0.3-0.1-0.6-0.3-0.8c-0.2-0.2-0.5-0.3-0.8-0.3C34.2,85.6,34,85.6,33.8,85.7 M35,87.8
				c-0.2,0.1-0.4,0.2-0.6,0.2c-0.7,0-1.3-0.6-1.3-1.3c0-0.5,0.3-0.9,0.7-1.1c0.2-0.1,0.4-0.2,0.6-0.2c0.3,0,0.7,0.1,0.9,0.4
				c0.2,0.2,0.4,0.6,0.4,0.9C35.7,87.2,35.4,87.6,35,87.8"/>
			<path id="Fill-225" class="st0" d="M40.9,101.2c0.4-0.2,0.9-0.1,1.1,0.3c0.2,0.4,0.1,0.9-0.3,1.1c-0.4,0.2-0.9,0.1-1.1-0.3
				C40.3,101.9,40.5,101.4,40.9,101.2"/>
			<path id="Fill-227" class="st0" d="M40.9,101.2c-0.4,0.2-0.5,0.7-0.3,1c0.1,0.2,0.3,0.3,0.5,0.4c0.2,0.1,0.4,0,0.6-0.1l0,0
				c0.2-0.1,0.3-0.3,0.4-0.5c0.1-0.2,0-0.4-0.1-0.6C41.7,101.1,41.3,101,40.9,101.2 M41.7,102.7c-0.2,0.1-0.5,0.1-0.7,0.1
				c-0.2-0.1-0.4-0.2-0.5-0.4c-0.2-0.4-0.1-1,0.3-1.2c0.4-0.2,1-0.1,1.2,0.3c0.1,0.2,0.1,0.5,0.1,0.7
				C42.1,102.4,41.9,102.6,41.7,102.7"/>
			<path id="Fill-229" class="st0" d="M49,109.6c0.4-0.2,0.9-0.1,1.1,0.3c0.2,0.4,0.1,0.9-0.3,1.1c-0.4,0.2-0.9,0.1-1.1-0.3
				C48.4,110.3,48.6,109.8,49,109.6"/>
			<path id="Fill-231" class="st0" d="M49,109.6c-0.4,0.2-0.5,0.7-0.3,1c0.2,0.4,0.7,0.5,1,0.3c0.4-0.2,0.5-0.7,0.3-1
				C49.9,109.6,49.4,109.4,49,109.6 M49.8,111.1c-0.4,0.2-1,0.1-1.2-0.3c-0.2-0.4-0.1-1,0.3-1.2c0.4-0.2,1-0.1,1.2,0.3
				C50.4,110.3,50.3,110.9,49.8,111.1"/>
			<path id="Fill-233" class="st0" d="M44.6,105.2c0.6-0.3,1.3-0.1,1.7,0.5c0.3,0.6,0.1,1.3-0.5,1.7c-0.6,0.3-1.3,0.1-1.7-0.5
				C43.8,106.3,44,105.5,44.6,105.2"/>
			<path id="Fill-235" class="st0" d="M44.7,105.2c-0.6,0.3-0.8,1-0.4,1.6c0.1,0.3,0.4,0.5,0.7,0.5c0.3,0.1,0.6,0,0.9-0.1
				c0.3-0.1,0.5-0.4,0.5-0.7c0.1-0.3,0-0.6-0.1-0.9c-0.1-0.3-0.4-0.5-0.7-0.5C45.2,105.1,44.9,105.1,44.7,105.2 M45.8,107.4
				c-0.3,0.2-0.6,0.2-1,0.1c-0.3-0.1-0.6-0.3-0.8-0.6c-0.3-0.6-0.1-1.4,0.5-1.8c0.3-0.2,0.6-0.2,1-0.1c0.3,0.1,0.6,0.3,0.8,0.6
				c0.2,0.3,0.2,0.6,0.1,1C46.4,106.9,46.1,107.2,45.8,107.4"/>
			<path id="Fill-237" class="st0" d="M58,115.5c0.2-0.4,0.7-0.5,1.1-0.3c0.4,0.2,0.5,0.7,0.3,1.1c-0.2,0.4-0.7,0.5-1.1,0.3
				C57.9,116.4,57.8,115.9,58,115.5"/>
			<path id="Fill-239" class="st0" d="M58.4,115.3c-0.1,0.1-0.2,0.2-0.3,0.3c-0.2,0.4-0.1,0.8,0.3,1c0.2,0.1,0.5,0.1,0.8,0
				c0.1-0.1,0.2-0.2,0.3-0.3c0.1-0.2,0.1-0.4,0.1-0.6c0-0.2-0.2-0.4-0.3-0.5C58.9,115.2,58.6,115.2,58.4,115.3 M59.2,116.7
				c-0.3,0.2-0.6,0.2-0.9,0c-0.4-0.3-0.6-0.8-0.3-1.2c0.1-0.1,0.2-0.2,0.3-0.3c0.3-0.2,0.6-0.2,0.9,0c0.2,0.1,0.4,0.3,0.4,0.6
				c0.1,0.2,0,0.5-0.1,0.7C59.5,116.5,59.3,116.7,59.2,116.7"/>
			<path id="Fill-241" class="st0" d="M80.1,119.4c0-0.5,0.4-0.8,0.8-0.8c0.5,0,0.8,0.4,0.8,0.8c0,0.5-0.4,0.8-0.8,0.8
				C80.5,120.2,80.1,119.8,80.1,119.4"/>
			<path id="Fill-243" class="st0" d="M80.6,118.7c-0.2,0.1-0.4,0.4-0.4,0.7c0,0.4,0.3,0.8,0.7,0.8c0.1,0,0.3,0,0.4-0.1
				c0.2-0.1,0.4-0.4,0.4-0.7c0-0.2-0.1-0.4-0.2-0.5c-0.1-0.1-0.3-0.2-0.5-0.2C80.8,118.6,80.7,118.7,80.6,118.7 M81.4,120.2
				c-0.1,0.1-0.3,0.1-0.5,0.1c-0.5,0-0.9-0.4-0.9-0.9c0-0.3,0.2-0.6,0.5-0.8c0.1-0.1,0.3-0.1,0.5-0.1c0.2,0,0.5,0.1,0.6,0.3
				c0.2,0.2,0.3,0.4,0.3,0.6C81.8,119.7,81.7,120,81.4,120.2"/>
			<path id="Fill-245" class="st0" d="M91.5,116.5c0-0.5,0.4-0.8,0.8-0.8c0.5,0,0.8,0.4,0.8,0.8c0,0.5-0.4,0.8-0.8,0.8
				C91.8,117.4,91.5,117,91.5,116.5"/>
			<path id="Fill-247" class="st0" d="M91.9,115.9c-0.2,0.1-0.4,0.4-0.4,0.7c0,0.2,0.1,0.4,0.2,0.5c0.1,0.1,0.3,0.2,0.5,0.2
				c0.1,0,0.3,0,0.4-0.1c0.2-0.1,0.4-0.4,0.4-0.7c0-0.4-0.3-0.8-0.7-0.8C92.2,115.8,92.1,115.8,91.9,115.9 M92.7,117.3
				c-0.1,0.1-0.3,0.1-0.5,0.1c-0.2,0-0.5-0.1-0.6-0.3c-0.2-0.2-0.3-0.4-0.3-0.6c0-0.3,0.2-0.6,0.5-0.8c0.1-0.1,0.3-0.1,0.5-0.1
				c0.5,0,0.9,0.4,0.9,0.9C93.2,116.9,93,117.2,92.7,117.3"/>
			<path id="Fill-249" class="st0" d="M85.5,118.1c0-0.7,0.6-1.2,1.2-1.2c0.7,0,1.2,0.6,1.2,1.2c0,0.7-0.6,1.2-1.2,1.2
				C86,119.4,85.5,118.8,85.5,118.1"/>
			<path id="Fill-251" class="st0" d="M86.1,117.1c-0.4,0.2-0.6,0.6-0.6,1c0,0.3,0.1,0.6,0.3,0.8c0.2,0.2,0.5,0.3,0.8,0.3
				c0.2,0,0.4,0,0.6-0.1c0.4-0.2,0.6-0.6,0.6-1c0-0.3-0.1-0.6-0.3-0.8c-0.2-0.2-0.5-0.3-0.8-0.3C86.5,117,86.3,117,86.1,117.1
				 M87.3,119.3c-0.2,0.1-0.4,0.2-0.6,0.2c-0.3,0-0.7-0.1-0.9-0.4c-0.2-0.2-0.4-0.6-0.4-0.9c0-0.5,0.3-0.9,0.7-1.1
				c0.2-0.1,0.4-0.2,0.6-0.2c0.3,0,0.7,0.1,0.9,0.4c0.2,0.2,0.4,0.6,0.4,0.9C88,118.6,87.7,119,87.3,119.3"/>
			<path id="Fill-253" class="st0" d="M101.2,111.7c-0.2-0.4-0.1-0.9,0.3-1.1c0.4-0.2,0.9-0.1,1.1,0.3c0.2,0.4,0.1,0.9-0.3,1.1
				C101.9,112.2,101.4,112.1,101.2,111.7"/>
			<path id="Fill-255" class="st0" d="M101.5,110.6c-0.4,0.2-0.5,0.7-0.3,1c0.2,0.4,0.7,0.5,1,0.3l0,0c0.4-0.2,0.5-0.7,0.3-1
				c-0.1-0.2-0.3-0.3-0.5-0.4C101.9,110.5,101.7,110.5,101.5,110.6 M102.3,112L102.3,112c-0.4,0.2-1,0.1-1.2-0.3
				c-0.2-0.4-0.1-1,0.3-1.2c0.2-0.1,0.5-0.1,0.7-0.1c0.2,0.1,0.4,0.2,0.5,0.4C102.9,111.3,102.8,111.8,102.3,112"/>
			<path id="Fill-257" class="st0" d="M109.6,103.5c-0.2-0.4-0.1-0.9,0.3-1.1c0.4-0.2,0.9-0.1,1.1,0.3c0.2,0.4,0.1,0.9-0.3,1.1
				C110.3,104.1,109.8,103.9,109.6,103.5"/>
			<path id="Fill-259" class="st0" d="M109.9,102.5c-0.4,0.2-0.5,0.7-0.3,1c0.1,0.2,0.3,0.3,0.5,0.4c0.2,0.1,0.4,0,0.6-0.1
				c0.4-0.2,0.5-0.7,0.3-1C110.8,102.4,110.3,102.3,109.9,102.5 M110.7,103.9L110.7,103.9c-0.2,0.1-0.5,0.1-0.7,0.1
				c-0.2-0.1-0.4-0.2-0.5-0.4c-0.2-0.4-0.1-1,0.3-1.2c0.4-0.2,1-0.1,1.2,0.3C111.3,103.1,111.2,103.7,110.7,103.9"/>
			<path id="Fill-261" class="st0" d="M105.2,107.9c-0.3-0.6-0.1-1.3,0.5-1.7c0.6-0.3,1.3-0.1,1.7,0.5c0.3,0.6,0.1,1.3-0.5,1.7
				C106.2,108.7,105.5,108.5,105.2,107.9"/>
			<path id="Fill-263" class="st0" d="M105.7,106.3c-0.6,0.3-0.8,1-0.4,1.6c0.3,0.6,1,0.8,1.6,0.4l0,0c0.6-0.3,0.8-1,0.4-1.6
				C106.9,106.2,106.2,106,105.7,106.3 M106.9,108.4L106.9,108.4c-0.6,0.3-1.4,0.1-1.8-0.5c-0.3-0.6-0.1-1.4,0.5-1.8
				c0.6-0.3,1.4-0.1,1.8,0.5C107.7,107.3,107.5,108.1,106.9,108.4"/>
			<path id="Fill-265" class="st0" d="M115.5,94.5c-0.4-0.2-0.5-0.7-0.3-1.1c0.2-0.4,0.7-0.5,1.1-0.3c0.4,0.2,0.5,0.7,0.3,1.1
				C116.4,94.6,115.9,94.7,115.5,94.5"/>
			<path id="Fill-267" class="st0" d="M115.6,93.1c-0.1,0.1-0.2,0.2-0.3,0.3c-0.1,0.2-0.1,0.4-0.1,0.6c0,0.2,0.2,0.4,0.3,0.5
				c0.2,0.1,0.5,0.1,0.8,0c0.1-0.1,0.2-0.2,0.3-0.3c0.1-0.2,0.1-0.4,0.1-0.6c0-0.2-0.2-0.4-0.3-0.5C116.1,93,115.8,93,115.6,93.1
				 M116.4,94.5c-0.3,0.2-0.6,0.2-0.9,0c-0.2-0.1-0.4-0.3-0.4-0.6c-0.1-0.2,0-0.5,0.1-0.7c0.1-0.1,0.2-0.2,0.3-0.3
				c0.3-0.2,0.6-0.2,0.9,0c0.2,0.1,0.4,0.3,0.4,0.6c0.1,0.2,0,0.5-0.1,0.7C116.6,94.4,116.5,94.5,116.4,94.5"/>
			<path id="Fill-269" class="st0" d="M118.8,83.2c-0.4-0.2-0.5-0.7-0.3-1.1c0.2-0.4,0.7-0.5,1.1-0.3c0.4,0.2,0.5,0.7,0.3,1.1
				C119.7,83.3,119.1,83.5,118.8,83.2"/>
			<path id="Fill-271" class="st0" d="M118.8,81.8c-0.1,0.1-0.2,0.2-0.3,0.3c-0.1,0.2-0.1,0.4-0.1,0.6c0,0.2,0.2,0.4,0.3,0.5
				c0.2,0.1,0.5,0.1,0.8,0c0.1-0.1,0.2-0.2,0.3-0.3c0.1-0.2,0.1-0.4,0.1-0.6c0-0.2-0.2-0.4-0.3-0.5C119.3,81.7,119,81.7,118.8,81.8
				 M119.6,83.3c-0.3,0.2-0.6,0.2-0.9,0c-0.2-0.1-0.4-0.3-0.4-0.6c-0.1-0.2,0-0.5,0.1-0.7c0.1-0.1,0.2-0.2,0.3-0.3
				c0.3-0.2,0.6-0.2,0.9,0c0.2,0.1,0.4,0.3,0.4,0.6c0.1,0.2,0,0.5-0.1,0.7C119.9,83.1,119.8,83.2,119.6,83.3"/>
			<path id="Fill-273" class="st0" d="M115.5,94.5c-0.4-0.2-0.5-0.7-0.3-1.1c0.2-0.4,0.7-0.5,1.1-0.3c0.4,0.2,0.5,0.7,0.3,1.1
				C116.4,94.6,115.9,94.7,115.5,94.5"/>
			<path id="Fill-275" class="st0" d="M115.6,93.1c-0.1,0.1-0.2,0.2-0.3,0.3c-0.1,0.2-0.1,0.4-0.1,0.6c0,0.2,0.2,0.4,0.3,0.5
				c0.2,0.1,0.5,0.1,0.8,0c0.1-0.1,0.2-0.2,0.3-0.3c0.1-0.2,0.1-0.4,0.1-0.6c0-0.2-0.2-0.4-0.3-0.5C116.1,93,115.8,93,115.6,93.1
				 M116.4,94.5c-0.3,0.2-0.6,0.2-0.9,0c-0.2-0.1-0.4-0.3-0.4-0.6c-0.1-0.2,0-0.5,0.1-0.7c0.1-0.1,0.2-0.2,0.3-0.3
				c0.3-0.2,0.6-0.2,0.9,0c0.2,0.1,0.4,0.3,0.4,0.6c0.1,0.2,0,0.5-0.1,0.7C116.6,94.4,116.5,94.5,116.4,94.5"/>
			<path id="Fill-277" class="st0" d="M118.8,83.2c-0.4-0.2-0.5-0.7-0.3-1.1c0.2-0.4,0.7-0.5,1.1-0.3c0.4,0.2,0.5,0.7,0.3,1.1
				C119.7,83.3,119.1,83.5,118.8,83.2"/>
			<path id="Fill-279" class="st0" d="M118.8,81.8c-0.1,0.1-0.2,0.2-0.3,0.3c-0.1,0.2-0.1,0.4-0.1,0.6c0,0.2,0.2,0.4,0.3,0.5
				c0.2,0.1,0.5,0.1,0.8,0c0.1-0.1,0.2-0.2,0.3-0.3c0.1-0.2,0.1-0.4,0.1-0.6c0-0.2-0.2-0.4-0.3-0.5C119.3,81.7,119,81.7,118.8,81.8
				 M119.6,83.3c-0.3,0.2-0.6,0.2-0.9,0c-0.2-0.1-0.4-0.3-0.4-0.6c-0.1-0.2,0-0.5,0.1-0.7c0.1-0.1,0.2-0.2,0.3-0.3
				c0.3-0.2,0.6-0.2,0.9,0c0.2,0.1,0.4,0.3,0.4,0.6c0.1,0.2,0,0.5-0.1,0.7C119.9,83.1,119.8,83.2,119.6,83.3"/>
			<path id="Fill-281" class="st0" d="M119.4,72.4c-0.5,0-0.8-0.4-0.8-0.8c0-0.5,0.4-0.8,0.8-0.8c0.5,0,0.8,0.4,0.8,0.8
				C120.2,72,119.8,72.4,119.4,72.4"/>
			<path id="Fill-283" class="st0" d="M119,70.9c-0.2,0.1-0.4,0.4-0.4,0.7c0,0.4,0.3,0.8,0.7,0.8c0.1,0,0.3,0,0.4-0.1
				c0.2-0.1,0.4-0.4,0.4-0.7c0-0.2-0.1-0.4-0.2-0.5c-0.1-0.1-0.3-0.2-0.5-0.2C119.3,70.8,119.1,70.8,119,70.9 M119.8,72.4
				c-0.1,0.1-0.3,0.1-0.5,0.1c-0.5,0-0.9-0.4-0.9-0.9c0-0.3,0.2-0.6,0.5-0.8c0.1-0.1,0.3-0.1,0.5-0.1c0.2,0,0.5,0.1,0.6,0.3
				c0.2,0.2,0.3,0.4,0.3,0.6C120.3,71.9,120.1,72.2,119.8,72.4"/>
			<path id="Fill-285" class="st0" d="M116.5,61c-0.5,0-0.8-0.4-0.8-0.8c0-0.5,0.4-0.8,0.8-0.8c0.5,0,0.8,0.4,0.8,0.8
				C117.4,60.7,117,61,116.5,61"/>
			<path id="Fill-287" class="st0" d="M116.2,59.5c-0.2,0.1-0.4,0.4-0.4,0.7c0,0.2,0.1,0.4,0.2,0.5c0.1,0.1,0.3,0.2,0.5,0.2
				c0.1,0,0.3,0,0.4-0.1c0.2-0.1,0.4-0.4,0.4-0.7c0-0.2-0.1-0.4-0.2-0.5c-0.1-0.1-0.3-0.2-0.5-0.2C116.4,59.5,116.3,59.5,116.2,59.5
				 M117,61c-0.1,0.1-0.3,0.1-0.5,0.1c-0.2,0-0.5-0.1-0.6-0.3c-0.2-0.2-0.3-0.4-0.3-0.6c0-0.3,0.2-0.6,0.5-0.8
				c0.1-0.1,0.3-0.1,0.5-0.1c0.2,0,0.5,0.1,0.6,0.3c0.2,0.2,0.3,0.4,0.3,0.6C117.4,60.5,117.3,60.8,117,61"/>
			<path id="Fill-289" class="st0" d="M118.1,67c-0.7,0-1.2-0.6-1.2-1.2c0-0.7,0.6-1.2,1.2-1.2c0.7,0,1.2,0.6,1.2,1.2
				C119.3,66.5,118.8,67,118.1,67"/>
			<path id="Fill-291" class="st0" d="M117.6,64.8c-0.4,0.2-0.6,0.6-0.6,1c0,0.3,0.1,0.6,0.3,0.8c0.2,0.2,0.5,0.3,0.8,0.3
				c0.2,0,0.4,0,0.6-0.1c0.4-0.2,0.6-0.6,0.6-1c0-0.3-0.1-0.6-0.3-0.8c-0.2-0.2-0.5-0.3-0.8-0.3C118,64.7,117.8,64.7,117.6,64.8
				 M118.8,66.9c-0.2,0.1-0.4,0.2-0.6,0.2c-0.3,0-0.7-0.1-0.9-0.4c-0.2-0.2-0.4-0.6-0.4-0.9c0-0.5,0.3-0.9,0.7-1.1
				c0.2-0.1,0.4-0.2,0.6-0.2c0.3,0,0.7,0.1,0.9,0.4c0.2,0.2,0.4,0.6,0.4,0.9C119.4,66.3,119.2,66.7,118.8,66.9"/>
			<path id="Fill-293" class="st0" d="M111.7,51.4c-0.4,0.2-0.9,0.1-1.1-0.3c-0.2-0.4-0.1-0.9,0.3-1.1c0.4-0.2,0.9-0.1,1.1,0.3
				C112.2,50.6,112.1,51.1,111.7,51.4"/>
			<path id="Fill-295" class="st0" d="M110.9,50c-0.4,0.2-0.5,0.7-0.3,1c0.2,0.4,0.7,0.5,1,0.3c0.4-0.2,0.5-0.7,0.3-1
				c-0.1-0.2-0.3-0.3-0.5-0.4C111.3,49.9,111.1,49.9,110.9,50 M111.7,51.4c-0.4,0.2-1,0.1-1.2-0.3c-0.2-0.4-0.1-1,0.3-1.2
				c0.2-0.1,0.5-0.1,0.7-0.1c0.2,0.1,0.4,0.2,0.5,0.4C112.3,50.6,112.1,51.2,111.7,51.4"/>
			<path id="Fill-297" class="st0" d="M103.5,42.9c-0.4,0.2-0.9,0.1-1.1-0.3c-0.2-0.4-0.1-0.9,0.3-1.1c0.4-0.2,0.9-0.1,1.1,0.3
				C104.1,42.2,103.9,42.7,103.5,42.9"/>
			<path id="Fill-299" class="st0" d="M102.8,41.6c-0.4,0.2-0.5,0.7-0.3,1c0.2,0.4,0.7,0.5,1,0.3l0,0c0.2-0.1,0.3-0.3,0.4-0.5
				c0.1-0.2,0-0.4-0.1-0.6C103.6,41.5,103.1,41.4,102.8,41.6 M103.6,43L103.6,43c-0.4,0.2-1,0.1-1.2-0.3c-0.2-0.4-0.1-1,0.3-1.2
				c0.4-0.2,1-0.1,1.2,0.3c0.1,0.2,0.1,0.5,0.1,0.7C103.9,42.7,103.8,42.9,103.6,43"/>
			<path id="Fill-301" class="st0" d="M107.9,47.3c-0.6,0.3-1.3,0.1-1.7-0.5c-0.3-0.6-0.1-1.3,0.5-1.7c0.6-0.3,1.3-0.1,1.7,0.5
				C108.7,46.3,108.5,47,107.9,47.3"/>
			<path id="Fill-303" class="st0" d="M106.8,45.3c-0.3,0.1-0.5,0.4-0.5,0.7c-0.1,0.3,0,0.6,0.1,0.9c0.1,0.3,0.4,0.5,0.7,0.5
				c0.3,0.1,0.6,0,0.9-0.1l0,0c0.6-0.3,0.8-1,0.4-1.6c-0.1-0.3-0.4-0.5-0.7-0.5C107.3,45.1,107,45.1,106.8,45.3 M107.9,47.4
				c-0.3,0.2-0.7,0.2-1,0.1c-0.3-0.1-0.6-0.3-0.8-0.6c-0.2-0.3-0.2-0.6-0.1-1c0.1-0.3,0.3-0.6,0.6-0.8c0.3-0.2,0.6-0.2,1-0.1
				c0.3,0.1,0.6,0.3,0.8,0.6C108.8,46.3,108.6,47.1,107.9,47.4"/>
			<path id="Fill-305" class="st0" d="M94.5,37c-0.2,0.4-0.7,0.5-1.1,0.3c-0.4-0.2-0.5-0.7-0.3-1.1c0.2-0.4,0.7-0.5,1.1-0.3
				C94.6,36.1,94.7,36.6,94.5,37"/>
			<path id="Fill-307" class="st0" d="M93.4,35.9c-0.1,0.1-0.2,0.2-0.3,0.3C93,36.4,93,36.6,93,36.8c0,0.2,0.2,0.4,0.3,0.5
				c0.2,0.1,0.5,0.1,0.8,0c0.1-0.1,0.2-0.2,0.3-0.3c0.2-0.4,0.1-0.8-0.3-1C93.9,35.8,93.6,35.8,93.4,35.9 M94.2,37.4
				c-0.3,0.2-0.6,0.2-0.9,0c-0.2-0.1-0.4-0.3-0.4-0.6c-0.1-0.2,0-0.5,0.1-0.7c0.1-0.1,0.2-0.2,0.3-0.3c0.3-0.2,0.6-0.2,0.9,0
				c0.4,0.3,0.6,0.8,0.3,1.2C94.5,37.2,94.3,37.3,94.2,37.4"/>
			<path id="Fill-309" class="st0" d="M83.2,33.8c-0.2,0.4-0.7,0.5-1.1,0.3c-0.4-0.2-0.5-0.7-0.3-1.1c0.2-0.4,0.7-0.5,1.1-0.3
				C83.3,32.9,83.5,33.4,83.2,33.8"/>
			<path id="Fill-311" class="st0" d="M82.1,32.7c-0.1,0.1-0.2,0.2-0.3,0.3c-0.2,0.4-0.1,0.8,0.3,1c0.2,0.1,0.5,0.1,0.8,0
				c0.1-0.1,0.2-0.2,0.3-0.3c0.1-0.2,0.1-0.4,0.1-0.6c0-0.2-0.2-0.4-0.3-0.5C82.7,32.6,82.4,32.6,82.1,32.7 M82.9,34.1
				c-0.3,0.2-0.6,0.2-0.9,0c-0.4-0.3-0.6-0.8-0.3-1.2c0.1-0.1,0.2-0.2,0.3-0.3c0.3-0.2,0.6-0.2,0.9,0c0.2,0.1,0.4,0.3,0.4,0.6
				c0.1,0.2,0,0.5-0.1,0.7C83.2,33.9,83.1,34.1,82.9,34.1"/>
			<path id="Fill-313" class="st0" d="M72.4,33.2c0,0.5-0.4,0.8-0.8,0.8c-0.5,0-0.8-0.4-0.8-0.8c0-0.5,0.4-0.8,0.8-0.8
				C72,32.3,72.4,32.7,72.4,33.2"/>
			<path id="Fill-315" class="st0" d="M71.2,32.5c-0.2,0.1-0.4,0.4-0.4,0.7c0,0.2,0.1,0.4,0.2,0.5c0.1,0.1,0.3,0.2,0.5,0.2
				c0.1,0,0.3,0,0.4-0.1c0.2-0.1,0.4-0.4,0.4-0.7c0-0.4-0.3-0.8-0.7-0.8C71.4,32.4,71.3,32.4,71.2,32.5 M72,33.9
				C71.9,34,71.7,34,71.6,34c-0.2,0-0.5-0.1-0.6-0.3c-0.2-0.2-0.3-0.4-0.3-0.6c0-0.3,0.2-0.6,0.5-0.8c0.1-0.1,0.3-0.1,0.5-0.1
				c0.5,0,0.9,0.4,0.9,0.9C72.5,33.5,72.3,33.8,72,33.9"/>
			<path id="Fill-317" class="st0" d="M61,36c0,0.5-0.4,0.8-0.8,0.8c-0.5,0-0.8-0.4-0.8-0.8c0-0.5,0.4-0.8,0.8-0.8
				C60.7,35.1,61,35.5,61,36"/>
			<path id="Fill-319" class="st0" d="M59.8,35.3c-0.2,0.1-0.4,0.4-0.4,0.7c0,0.4,0.3,0.8,0.7,0.8c0.1,0,0.3,0,0.4-0.1
				c0.2-0.1,0.4-0.4,0.4-0.7c0-0.2-0.1-0.4-0.2-0.5c-0.1-0.1-0.3-0.2-0.5-0.2C60.1,35.2,60,35.2,59.8,35.3 M60.6,36.8
				c-0.1,0.1-0.3,0.1-0.5,0.1c-0.5,0-0.9-0.4-0.9-0.9c0-0.3,0.2-0.6,0.5-0.8c0.1-0.1,0.3-0.1,0.5-0.1c0.2,0,0.5,0.1,0.6,0.3
				c0.2,0.2,0.3,0.4,0.3,0.6C61.1,36.3,60.9,36.6,60.6,36.8"/>
			<path id="Fill-321" class="st0" d="M67,34.4c0,0.7-0.6,1.2-1.2,1.2c-0.7,0-1.2-0.6-1.2-1.2c0-0.7,0.6-1.2,1.2-1.2
				C66.5,33.2,67,33.7,67,34.4"/>
			<path id="Fill-323" class="st0" d="M65.3,33.4c-0.4,0.2-0.6,0.6-0.6,1c0,0.3,0.1,0.6,0.3,0.8c0.2,0.2,0.5,0.3,0.8,0.3
				c0.2,0,0.4,0,0.6-0.1c0.4-0.2,0.6-0.6,0.6-1c0-0.3-0.1-0.6-0.3-0.8c-0.2-0.2-0.5-0.3-0.8-0.3C65.6,33.2,65.4,33.3,65.3,33.4
				 M66.4,35.5c-0.2,0.1-0.4,0.2-0.6,0.2c-0.3,0-0.7-0.1-0.9-0.4c-0.2-0.2-0.4-0.6-0.4-0.9c0-0.5,0.3-0.9,0.7-1.1
				c0.2-0.1,0.4-0.2,0.6-0.2c0.3,0,0.7,0.1,0.9,0.4c0.2,0.2,0.4,0.6,0.4,0.9C67.1,34.9,66.8,35.3,66.4,35.5"/>
			<path id="Fill-325" class="st0" d="M29.5,68l2.1,1c-0.8-0.8-1.3-1.3-1.6-1.7c-0.2-0.4-0.3-0.7-0.3-1c0-0.2,0.1-0.3,0.2-0.4
				c0.1-0.1,0.3-0.1,0.5-0.1c0.2,0,0.5,0.1,0.8,0.3l2,1c0.2,0.1,0.4,0.2,0.4,0.2c0,0,0.1,0,0.1,0c0,0,0.1,0,0.1-0.1c0,0,0-0.1,0-0.2
				c-0.1-0.2-0.3-0.4-0.5-0.7l0.1-0.1c0.4,0.4,0.6,0.7,0.8,1c0.1,0.2,0.1,0.4,0.1,0.5c0,0.1-0.1,0.2-0.2,0.3
				c-0.1,0.1-0.2,0.1-0.3,0.1c-0.2,0-0.4-0.1-0.8-0.3l-1.9-0.9c-0.2-0.1-0.4-0.2-0.6-0.2c-0.1,0-0.1,0-0.2,0c0,0-0.1,0.1-0.1,0.1
				c0,0.1,0,0.2,0.1,0.4c0.1,0.3,0.3,0.6,0.6,0.9c0.3,0.3,0.7,0.7,1.2,1.1c0.3,0.2,0.5,0.4,0.9,0.5l0.8,0.4l-0.1,0.7l-2.9-1.4
				c-0.4-0.2-0.6-0.3-0.6-0.3c-0.1,0-0.1,0-0.2,0.1c-0.1,0-0.1,0.1-0.1,0.2c0,0,0,0.1,0,0.2l0,0.2l-0.2,0L29.5,68z"/>
			<path id="Fill-327" class="st0" d="M29.9,69.1c0.1,0,0.1-0.1,0.2,0c0.1,0,0.2,0,0.7,0.3l2.8,1.4l0.1-0.6L33,69.8
				c-0.3-0.2-0.6-0.3-0.9-0.6c-0.5-0.4-0.9-0.7-1.2-1.1c-0.3-0.3-0.5-0.6-0.6-0.9c-0.1-0.2-0.1-0.3-0.1-0.4c0-0.1,0.1-0.1,0.1-0.2
				c0.1,0,0.1-0.1,0.2,0c0.1,0,0.3,0.1,0.6,0.2l1.9,0.9c0.4,0.2,0.6,0.3,0.8,0.3c0.1,0,0.2,0,0.3,0c0.1,0,0.1-0.1,0.1-0.2
				c0-0.1,0-0.3-0.1-0.5c-0.1-0.3-0.4-0.6-0.7-1l0,0c0.2,0.2,0.4,0.5,0.5,0.7c0,0.1,0.1,0.1,0,0.2c0,0.1,0,0.1-0.1,0.1l0,0
				c-0.1,0-0.1,0-0.2,0c0,0-0.1,0-0.4-0.2l-2-1c-0.3-0.1-0.6-0.2-0.7-0.3c-0.2,0-0.3,0-0.4,0.1c-0.1,0.1-0.2,0.2-0.2,0.3
				c0,0.3,0,0.6,0.3,1c0.2,0.4,0.8,0.9,1.6,1.7l-0.1,0.1l-2-1l0,1.6l0,0l0-0.1c0-0.1,0-0.2,0-0.2C29.7,69.2,29.7,69.2,29.9,69.1
				C29.8,69.1,29.9,69.1,29.9,69.1z M33.7,70.9l-3-1.5c-0.5-0.2-0.6-0.3-0.6-0.3c-0.1,0-0.1,0-0.2,0c-0.1,0-0.1,0.1-0.1,0.2
				c0,0,0,0.1,0,0.2l0,0.3l-0.3,0l0-2l1.8,0.9c-0.6-0.6-1-1.1-1.3-1.4c-0.2-0.4-0.3-0.8-0.3-1.1c0-0.2,0.1-0.3,0.3-0.4
				c0.1-0.1,0.3-0.1,0.5-0.1c0.2,0,0.5,0.1,0.8,0.3l2,1c0.3,0.1,0.4,0.2,0.4,0.2c0,0,0,0,0.1,0c0,0,0,0,0,0c0,0,0,0,0-0.1
				c-0.1-0.2-0.3-0.4-0.5-0.7l0,0l0.2-0.2l0.1,0.1c0.4,0.4,0.7,0.7,0.8,1.1c0.1,0.2,0.1,0.4,0.1,0.6c0,0.1-0.1,0.2-0.2,0.3
				c-0.1,0.1-0.2,0.1-0.4,0.1c-0.2,0-0.4-0.1-0.8-0.3l-1.9-0.9c-0.2-0.1-0.4-0.2-0.5-0.2c0,0-0.1,0-0.1,0c0,0-0.1,0.1-0.1,0.1
				c0,0.1,0,0.2,0.1,0.3c0.1,0.3,0.3,0.5,0.6,0.9c0.3,0.3,0.7,0.7,1.1,1.1c0.2,0.2,0.5,0.4,0.8,0.5l0.8,0.4L33.7,70.9z"/>
			<path id="Fill-329" class="st0" d="M30.8,60.9l3.8,0.3c-0.6-0.7-1.1-1.3-1.6-1.7c-0.3-0.3-0.5-0.4-0.7-0.4c-0.1,0-0.1,0-0.2,0
				c0,0-0.1,0.1-0.2,0.1c-0.1,0.1-0.1,0.1-0.2,0.2c-0.1,0-0.1,0-0.2,0c-0.1,0-0.2-0.1-0.2-0.2c-0.1-0.1-0.1-0.2-0.1-0.3
				c0-0.1,0.1-0.2,0.2-0.3c0.1-0.1,0.3-0.1,0.4-0.1c0.2,0,0.3,0.1,0.5,0.2c0.3,0.1,0.6,0.4,1,0.8c0.5,0.4,0.9,0.9,1.3,1.3
				c0.4,0.4,0.7,0.8,0.8,1l0,0.2l-3.5-0.3l3.1,2.6l0,0.2c-1.4-0.2-2.5-0.3-3.4-0.4c-0.3,0-0.6,0-0.7,0.1c-0.1,0.1-0.1,0.2-0.2,0.4
				c0,0.1,0,0.2,0,0.4l-0.2,0l-0.1-1.5c0.6-0.1,1.5-0.1,2.6,0.1c0.4,0.1,0.7,0.1,0.8,0.1l-3-2.6L30.8,60.9z"/>
			<path id="Fill-331" class="st0" d="M30.8,64.3c0.1-0.1,0.4-0.1,0.7-0.1c0.8,0,1.9,0.1,3.3,0.4l0-0.1l-3.2-2.7l3.6,0.3l0-0.1
				c-0.2-0.2-0.4-0.5-0.8-1c-0.4-0.4-0.8-0.9-1.3-1.3c-0.4-0.4-0.7-0.6-1-0.8c-0.1-0.1-0.3-0.1-0.4-0.1c-0.2,0-0.3,0-0.4,0.1
				c-0.1,0.1-0.2,0.2-0.2,0.3c0,0.1,0,0.2,0,0.3c0,0.1,0.1,0.1,0.2,0.1c0.1,0,0.1,0,0.2,0c0.1,0,0.1-0.1,0.2-0.1
				c0.1-0.1,0.1-0.1,0.2-0.2c0.1,0,0.1,0,0.2,0c0.2,0,0.4,0.2,0.7,0.4c0.5,0.4,1.1,1,1.7,1.7l0.1,0.1L30.8,61l0,0.1l3.1,2.7l-0.2,0
				c-0.1,0-0.4,0-0.8-0.1c-1.1-0.1-1.9-0.2-2.5-0.1l0.1,1.4l0,0c0-0.1,0-0.2,0-0.3C30.6,64.5,30.6,64.4,30.8,64.3
				C30.8,64.3,30.8,64.3,30.8,64.3z M34.9,64.7L34.9,64.7c-1.5-0.2-2.6-0.3-3.4-0.4c-0.3,0-0.6,0-0.7,0.1c-0.1,0.1-0.1,0.2-0.1,0.3
				c0,0.1,0,0.2,0,0.4l0,0.1l-0.3-0.1l-0.1-1.6l0.1,0c0.6-0.1,1.5-0.1,2.6,0.1c0.3,0,0.5,0.1,0.6,0.1l-2.9-2.5l0-0.3l3.7,0.3
				c-0.5-0.6-1-1.1-1.5-1.6c-0.4-0.3-0.6-0.4-0.7-0.4c-0.1,0-0.1,0-0.2,0c0,0-0.1,0-0.1,0.1c-0.1,0.1-0.2,0.1-0.2,0.2
				c-0.1,0-0.2,0-0.2,0c-0.1,0-0.2-0.1-0.3-0.2C31,59.2,31,59.1,31,59c0-0.2,0.1-0.3,0.2-0.4c0.1-0.1,0.3-0.1,0.5-0.1
				c0.2,0,0.3,0.1,0.5,0.2c0.3,0.1,0.6,0.4,1,0.8c0.5,0.4,0.9,0.9,1.3,1.3c0.4,0.4,0.7,0.8,0.8,1l0,0l0,0.3L32,61.8l2.9,2.5
				L34.9,64.7z"/>
			<path id="Fill-333" class="st0" d="M87.4,30.8l-1.2,2c0.8-0.7,1.5-1.2,1.9-1.4c0.4-0.2,0.7-0.3,1-0.2c0.2,0,0.3,0.1,0.4,0.3
				c0.1,0.1,0.1,0.3,0,0.5c-0.1,0.2-0.2,0.4-0.3,0.7l-1.1,1.9c-0.1,0.2-0.2,0.4-0.2,0.4c0,0,0,0.1,0,0.1c0,0,0,0.1,0.1,0.1
				c0,0,0.1,0,0.2,0c0.2-0.1,0.5-0.2,0.7-0.5l0.1,0.1c-0.4,0.3-0.8,0.6-1.1,0.7c-0.2,0.1-0.4,0.1-0.6,0c-0.1,0-0.2-0.1-0.3-0.2
				c-0.1-0.1-0.1-0.2,0-0.3c0-0.2,0.2-0.4,0.4-0.8l1.1-1.8c0.1-0.2,0.2-0.4,0.3-0.5c0-0.1,0-0.1,0-0.2c0-0.1-0.1-0.1-0.1-0.1
				c-0.1,0-0.2,0-0.4,0c-0.3,0.1-0.6,0.3-0.9,0.5c-0.3,0.3-0.7,0.6-1.2,1.1c-0.2,0.2-0.4,0.5-0.6,0.8l-0.5,0.7l-0.7-0.2l1.7-2.8
				c0.2-0.3,0.3-0.5,0.3-0.6c0-0.1,0-0.1,0-0.2c0-0.1-0.1-0.1-0.2-0.1c0,0-0.1,0-0.2,0l-0.2,0l0-0.2L87.4,30.8z"/>
			<path id="Fill-335" class="st0" d="M87.6,31.8c0.2-0.1,0.3-0.2,0.5-0.2c0.2,0,0.3-0.1,0.4,0c0.1,0,0.1,0.1,0.2,0.1
				c0,0.1,0.1,0.1,0,0.2c0,0.1-0.1,0.3-0.3,0.6l-1.1,1.8c-0.2,0.3-0.3,0.6-0.4,0.7c0,0.1,0,0.2,0,0.3c0,0.1,0.1,0.1,0.2,0.2
				c0.1,0,0.3,0,0.5,0c0.3-0.1,0.6-0.3,1-0.6l0,0c-0.3,0.2-0.5,0.3-0.7,0.4c-0.1,0-0.2,0-0.2,0c0,0-0.1,0-0.1-0.1c0-0.1,0-0.1,0-0.2
				c0,0,0-0.1,0.2-0.4l1.1-1.9c0.2-0.3,0.3-0.5,0.3-0.7c0-0.2,0-0.3,0-0.4c-0.1-0.1-0.2-0.2-0.3-0.2c-0.3-0.1-0.6,0-1,0.2
				c-0.4,0.2-1,0.7-1.9,1.4l-0.1-0.1l1.2-1.9l-1.6-0.1l0,0l0.1,0c0.1,0,0.2,0,0.2,0c0.1,0,0.2,0.1,0.2,0.2c0.1,0.1,0.1,0.2,0,0.3
				c0,0.1-0.1,0.2-0.3,0.6l-1.7,2.7l0.6,0.2l0.4-0.7c0.2-0.3,0.4-0.6,0.6-0.8c0.4-0.4,0.8-0.8,1.2-1.1C87.3,32,87.4,31.9,87.6,31.8
				 M88.1,35.4c-0.1,0.1-0.3,0.1-0.4,0.2c-0.2,0.1-0.4,0.1-0.6,0.1c-0.1,0-0.2-0.1-0.3-0.2c-0.1-0.1-0.1-0.2,0-0.4
				c0-0.2,0.2-0.4,0.4-0.8l1.1-1.8c0.1-0.2,0.2-0.4,0.2-0.5c0,0,0-0.1,0-0.1c0,0-0.1-0.1-0.1-0.1c-0.1,0-0.2,0-0.3,0
				c-0.3,0.1-0.6,0.2-0.9,0.5c-0.3,0.3-0.7,0.6-1.2,1c-0.2,0.2-0.4,0.5-0.6,0.8l-0.5,0.8l-0.9-0.2l1.8-2.9c0.3-0.4,0.3-0.6,0.3-0.6
				c0-0.1,0-0.1,0-0.2c0-0.1-0.1-0.1-0.1-0.1c0,0-0.1,0-0.2,0l-0.3,0l0-0.3l1.9,0.2l-1.1,1.7c0.7-0.6,1.2-0.9,1.5-1.1
				c0.4-0.2,0.8-0.3,1.1-0.2c0.2,0,0.3,0.2,0.4,0.3c0.1,0.2,0.1,0.3,0.1,0.5c-0.1,0.2-0.2,0.5-0.4,0.8L88,34.6
				c-0.2,0.3-0.2,0.4-0.2,0.4c0,0,0,0.1,0,0.1c0,0,0,0,0,0c0,0,0,0,0.1,0c0.2-0.1,0.4-0.2,0.7-0.5l0.1,0l0.2,0.2l-0.1,0
				C88.6,35.1,88.3,35.2,88.1,35.4"/>
			<path id="Fill-337" class="st0" d="M90.7,34.2c0.5,0.1,0.9,0.1,1.2,0c0.4-0.1,0.8-0.2,1.1-0.4c0.3-0.2,0.4-0.4,0.5-0.6
				c0-0.1,0-0.3,0-0.4c-0.1-0.1-0.2-0.2-0.3-0.2c-0.3-0.1-0.7,0-1.2,0.2C91.5,33.1,91.1,33.5,90.7,34.2 M90.6,34.4
				c-0.1,0.2-0.1,0.3-0.1,0.4c-0.1,0.3,0,0.6,0.1,0.8c0.1,0.3,0.4,0.4,0.7,0.5c0.2,0.1,0.5,0.1,0.7,0c0.2,0,0.6-0.2,1.1-0.4l0.1,0.2
				c-1,0.5-1.8,0.7-2.5,0.5c-0.5-0.1-0.8-0.4-0.9-0.7c-0.2-0.4-0.2-0.7-0.1-1.1c0.1-0.5,0.4-0.9,0.8-1.4c0.4-0.4,0.9-0.7,1.4-0.9
				c0.5-0.2,1-0.2,1.5,0c0.3,0.1,0.6,0.2,0.7,0.4c0.1,0.2,0.2,0.4,0.1,0.6c-0.1,0.3-0.2,0.5-0.5,0.7c-0.4,0.2-0.8,0.4-1.4,0.4
				C91.8,34.5,91.3,34.5,90.6,34.4"/>
			<path id="Fill-339" class="st0" d="M90.8,34.1c0.4,0.1,0.8,0.1,1.1,0c0.3-0.1,0.6-0.1,0.9-0.3l0,0c0.1,0,0.1-0.1,0.2-0.1
				c0.2-0.2,0.4-0.4,0.5-0.6c0-0.1,0-0.2,0-0.3c-0.1-0.1-0.1-0.2-0.3-0.2c-0.3-0.1-0.7,0-1.1,0.2l0,0C91.5,33.1,91.2,33.5,90.8,34.1
				z M92.9,34c-0.2,0.1-0.6,0.2-0.9,0.3c-0.3,0.1-0.8,0-1.3,0l-0.1,0l0.1-0.1c0.4-0.6,0.8-1.1,1.2-1.3l0,0c0.5-0.3,0.9-0.3,1.2-0.2
				c0.2,0,0.3,0.1,0.4,0.3c0.1,0.1,0.1,0.3,0,0.4c-0.1,0.2-0.2,0.5-0.5,0.7C93,33.9,92.9,33.9,92.9,34z M91.3,32.8
				c-0.3,0.2-0.5,0.4-0.8,0.6c-0.4,0.4-0.7,0.9-0.8,1.3c-0.1,0.3-0.1,0.7,0.1,1c0.1,0.3,0.4,0.6,0.9,0.7c0.7,0.2,1.5,0,2.4-0.5l0,0
				c-0.5,0.2-0.8,0.3-1.1,0.3c-0.2,0-0.5,0-0.7,0c-0.3-0.1-0.5-0.3-0.7-0.5c-0.2-0.3-0.2-0.6-0.1-0.9c0-0.1,0.1-0.2,0.1-0.4l0-0.1
				l0.1,0c0.7,0.1,1.2,0.1,1.6,0.1c0.6,0,1.1-0.2,1.4-0.4c0.3-0.2,0.4-0.4,0.5-0.6c0-0.2,0-0.3-0.1-0.5c-0.1-0.2-0.3-0.3-0.7-0.4
				c-0.5-0.1-1-0.1-1.5,0C91.7,32.6,91.5,32.7,91.3,32.8z M93.1,36c-1,0.5-1.8,0.7-2.5,0.5c-0.5-0.1-0.8-0.4-1-0.8
				c-0.2-0.4-0.2-0.8-0.1-1.1c0.1-0.5,0.4-1,0.9-1.4c0.4-0.4,0.9-0.7,1.5-0.9c0.5-0.2,1.1-0.2,1.5,0c0.4,0.1,0.6,0.2,0.7,0.4
				c0.1,0.2,0.2,0.4,0.1,0.6c-0.1,0.3-0.3,0.5-0.6,0.7c-0.4,0.3-0.9,0.4-1.5,0.5c-0.4,0-0.9,0-1.6-0.1c-0.1,0.1-0.1,0.2-0.1,0.3
				c-0.1,0.3,0,0.5,0.1,0.8c0.1,0.2,0.3,0.4,0.6,0.5c0.2,0.1,0.4,0.1,0.7,0c0.2,0,0.6-0.2,1.1-0.4l0.1,0L93.1,36L93.1,36z"/>
			<path id="Fill-341" class="st0" d="M65,121.8l0.8-1.4l0.2,0.1c-0.1,0.4-0.1,0.8,0,1c0.1,0.2,0.3,0.4,0.5,0.5
				c0.2,0.1,0.4,0.1,0.5,0c0.2-0.1,0.3-0.2,0.3-0.3c0-0.1,0-0.2,0-0.3c0-0.1-0.1-0.3-0.2-0.5c-0.3-0.6-0.4-1-0.5-1.3
				c0-0.3,0-0.5,0-0.7c0.1-0.3,0.3-0.6,0.7-0.7c0.4-0.2,0.7-0.2,1.2,0c0.2,0.1,0.5,0.2,0.7,0.4c0.1,0.1,0.2,0.1,0.2,0.1
				c0.1,0,0.3,0,0.4-0.1l0.2,0.1l-0.8,1.4l-0.2-0.1c0.1-0.5,0.2-0.9,0-1.1c-0.1-0.3-0.3-0.4-0.6-0.5c-0.2-0.1-0.5-0.1-0.6,0
				c-0.2,0.1-0.3,0.2-0.4,0.4c0,0.1-0.1,0.3,0,0.4c0,0.2,0.1,0.5,0.3,1c0.2,0.4,0.3,0.7,0.3,0.9c0,0.2,0,0.4,0,0.5
				c-0.1,0.3-0.3,0.5-0.6,0.7c-0.3,0.1-0.6,0.1-1,0c-0.1,0-0.2-0.1-0.3-0.1c0,0-0.1-0.1-0.3-0.2c-0.1-0.1-0.2-0.2-0.3-0.2
				c-0.1,0-0.3,0-0.4,0.1L65,121.8z"/>
			<path id="Fill-343" class="st0" d="M65.2,121.7c0.1-0.1,0.2-0.1,0.4,0c0,0,0.1,0.1,0.3,0.2c0.2,0.1,0.2,0.2,0.3,0.2
				c0.1,0,0.2,0.1,0.3,0.1c0.3,0.1,0.6,0.1,0.9,0c0.3-0.1,0.5-0.3,0.6-0.6c0.1-0.2,0.1-0.3,0-0.5c0-0.2-0.1-0.5-0.3-0.9
				c-0.2-0.4-0.3-0.8-0.3-1c0-0.1,0-0.3,0-0.4c0.1-0.2,0.2-0.4,0.4-0.5c0.2-0.1,0.4-0.1,0.7,0c0.3,0.1,0.6,0.3,0.7,0.6
				c0.1,0.3,0.1,0.6,0,1.1l0.1,0l0.7-1.3l0,0c-0.1,0.1-0.3,0.1-0.4,0.1c-0.1,0-0.1-0.1-0.2-0.2c-0.3-0.2-0.5-0.3-0.7-0.4
				c-0.4-0.1-0.8-0.1-1.1,0c-0.3,0.2-0.6,0.4-0.7,0.7c-0.1,0.2-0.1,0.4,0,0.7c0,0.3,0.2,0.7,0.5,1.3c0.1,0.2,0.2,0.4,0.2,0.5
				c0,0.1,0,0.2,0,0.4c-0.1,0.2-0.2,0.3-0.3,0.4c-0.2,0.1-0.4,0.1-0.6,0c-0.3-0.1-0.5-0.3-0.6-0.5c-0.1-0.2-0.1-0.6,0-1l-0.1,0
				l-0.7,1.2L65.2,121.7C65.2,121.8,65.2,121.7,65.2,121.7 M67.5,122.3C67.5,122.3,67.4,122.3,67.5,122.3c-0.4,0.2-0.7,0.2-1.1,0.1
				c-0.1,0-0.2-0.1-0.3-0.1c0,0-0.1-0.1-0.3-0.2c-0.2-0.1-0.2-0.2-0.3-0.2c-0.1,0-0.2,0-0.3,0.1l0,0l-0.3-0.1l0.8-1.5l0.3,0.1l0,0.1
				c-0.1,0.4-0.1,0.7,0,1c0.1,0.2,0.2,0.4,0.5,0.5c0.2,0.1,0.3,0.1,0.5,0c0.1-0.1,0.2-0.2,0.3-0.3c0-0.1,0-0.2,0-0.3
				c0-0.1-0.1-0.3-0.2-0.5c-0.3-0.6-0.4-1-0.5-1.3c0-0.3,0-0.5,0-0.7c0.1-0.3,0.4-0.6,0.7-0.8c0.4-0.2,0.8-0.2,1.2,0
				c0.2,0.1,0.5,0.2,0.8,0.4c0.1,0.1,0.2,0.1,0.2,0.1c0.1,0,0.2,0,0.3-0.1l0,0l0.3,0.1l-0.9,1.6L69,120l0-0.1c0.1-0.5,0.2-0.8,0-1.1
				c-0.1-0.2-0.3-0.4-0.6-0.5c-0.2-0.1-0.4-0.1-0.6,0c-0.2,0.1-0.3,0.2-0.3,0.4c0,0.1-0.1,0.2,0,0.3c0,0.2,0.1,0.5,0.3,1
				c0.2,0.4,0.3,0.8,0.3,1c0,0.2,0,0.4,0,0.6C67.9,121.9,67.8,122.1,67.5,122.3"/>
			<path id="Fill-345" class="st0" d="M60.6,120.4l0.9-3.7c-0.8,0.5-1.4,0.9-1.9,1.4c-0.3,0.3-0.5,0.5-0.5,0.6c0,0.1,0,0.1,0,0.2
				c0,0,0,0.1,0.1,0.2c0.1,0.1,0.1,0.2,0.1,0.2c0,0.1,0,0.1,0,0.2c0,0.1-0.1,0.2-0.2,0.2c-0.1,0-0.2,0-0.3,0c-0.1,0-0.2-0.1-0.3-0.3
				c-0.1-0.1-0.1-0.3,0-0.4c0.1-0.2,0.1-0.3,0.2-0.4c0.2-0.2,0.5-0.5,0.9-0.9c0.5-0.4,1-0.8,1.5-1.1c0.5-0.3,0.9-0.5,1.1-0.7
				l0.2,0.1l-0.8,3.4l3.1-2.6l0.2,0.1c-0.4,1.4-0.7,2.4-0.9,3.3c-0.1,0.3-0.1,0.6,0,0.7c0.1,0.1,0.2,0.2,0.3,0.2
				c0.1,0,0.2,0.1,0.4,0.1l-0.1,0.2l-1.5-0.1c0-0.6,0.1-1.4,0.4-2.6c0.1-0.4,0.2-0.7,0.2-0.8l-3,2.6L60.6,120.4z"/>
			<path id="Fill-347" class="st0" d="M63.2,121.2l1.3,0.1l0,0c-0.1,0-0.2-0.1-0.3-0.1c-0.2-0.1-0.3-0.1-0.4-0.3
				c-0.1-0.2-0.1-0.4,0-0.8c0.1-0.8,0.4-1.9,0.8-3.2l-0.1,0l-3.2,2.8l0.8-3.5l-0.1,0c-0.2,0.1-0.6,0.3-1.1,0.6
				c-0.5,0.3-1,0.7-1.5,1.1c-0.4,0.3-0.7,0.6-0.9,0.9c-0.1,0.1-0.2,0.3-0.2,0.4c0,0.1,0,0.3,0,0.4c0,0.1,0.1,0.2,0.2,0.2
				c0.1,0,0.2,0,0.3,0c0.1,0,0.1-0.1,0.2-0.2c0-0.1,0-0.1,0-0.2c0-0.1-0.1-0.1-0.1-0.2c-0.1-0.1-0.1-0.2-0.1-0.2c0-0.1,0-0.2,0-0.2
				c0.1-0.2,0.2-0.4,0.5-0.7c0.5-0.5,1.2-0.9,1.9-1.4l0.1-0.1l-0.9,3.8l0.1,0l3.2-2.7l0,0.2c0,0.1-0.1,0.4-0.2,0.8
				C63.4,119.7,63.2,120.6,63.2,121.2z M64.7,121.4l-1.6-0.1l0-0.1c0-0.6,0.1-1.5,0.4-2.6c0.1-0.2,0.1-0.4,0.2-0.6l-2.9,2.5
				l-0.3-0.1l0.8-3.6c-0.7,0.4-1.3,0.9-1.8,1.3c-0.4,0.3-0.5,0.5-0.5,0.6c0,0.1,0,0.1,0,0.2c0,0,0,0,0.1,0.1
				c0.1,0.1,0.1,0.2,0.1,0.3c0,0.1,0,0.2,0,0.2c0,0.1-0.1,0.2-0.2,0.3c-0.1,0.1-0.2,0.1-0.4,0c-0.1,0-0.3-0.1-0.3-0.3
				c-0.1-0.1-0.1-0.3,0-0.5c0.1-0.2,0.1-0.3,0.2-0.5c0.2-0.2,0.5-0.5,0.9-0.9c0.5-0.4,1-0.8,1.5-1.1c0.5-0.3,0.9-0.5,1.1-0.7l0,0
				l0.3,0.1l-0.7,3.2l2.9-2.5l0.3,0.1l0,0.1c-0.4,1.4-0.7,2.4-0.8,3.3c-0.1,0.3-0.1,0.6,0,0.7c0,0.1,0.1,0.1,0.3,0.2
				c0.1,0,0.2,0.1,0.4,0.1l0.1,0L64.7,121.4z"/>
			<path id="Fill-349" class="st0" d="M121.3,89.4l-1.4-0.7l0.1-0.2c0.4,0.1,0.8,0.1,1,0c0.2-0.1,0.4-0.3,0.5-0.5
				c0.1-0.2,0-0.4,0-0.5c-0.1-0.1-0.2-0.2-0.3-0.3c-0.1,0-0.2,0-0.3,0c-0.1,0-0.3,0.1-0.5,0.2c-0.6,0.3-1,0.5-1.3,0.5
				c-0.3,0.1-0.5,0.1-0.7,0c-0.3-0.1-0.6-0.3-0.8-0.7c-0.2-0.4-0.2-0.7-0.1-1.2c0.1-0.2,0.2-0.5,0.4-0.8c0.1-0.1,0.1-0.2,0.1-0.2
				c0-0.1,0-0.3-0.1-0.4l0-0.2l1.5,0.7l-0.1,0.2c-0.5-0.1-0.9-0.1-1.1,0c-0.3,0.1-0.4,0.3-0.5,0.7c-0.1,0.2-0.1,0.5,0,0.6
				c0.1,0.2,0.2,0.3,0.4,0.4c0.1,0,0.3,0,0.4,0c0.2,0,0.5-0.2,1-0.3c0.4-0.2,0.7-0.3,0.9-0.3c0.2,0,0.4,0,0.5,0
				c0.3,0.1,0.5,0.3,0.7,0.6c0.2,0.3,0.2,0.6,0.1,1c0,0.1-0.1,0.2-0.1,0.3c0,0-0.1,0.1-0.2,0.3c-0.1,0.1-0.2,0.2-0.2,0.3
				c0,0.1,0,0.3,0.1,0.4L121.3,89.4z"/>
			<path id="Fill-351" class="st0" d="M120,88.6l1.3,0.6l0-0.1c-0.1-0.1-0.2-0.3-0.1-0.4c0,0,0-0.1,0.2-0.3c0.1-0.1,0.2-0.2,0.2-0.3
				c0-0.1,0.1-0.2,0.1-0.3c0.1-0.3,0.1-0.6-0.1-0.9c-0.1-0.3-0.4-0.4-0.6-0.5c-0.2,0-0.3-0.1-0.5,0c-0.2,0-0.5,0.1-0.9,0.3
				c-0.4,0.2-0.8,0.3-1,0.3c-0.1,0-0.3,0-0.4,0c-0.2-0.1-0.4-0.2-0.5-0.4c-0.1-0.2-0.1-0.4,0-0.7c0.1-0.3,0.3-0.6,0.6-0.7
				c0.3-0.1,0.6-0.1,1.1,0l0-0.1l-1.3-0.7l0,0c0.1,0.1,0.2,0.3,0.1,0.4c0,0.1-0.1,0.2-0.1,0.3c-0.2,0.3-0.3,0.5-0.4,0.7
				c-0.1,0.4-0.1,0.8,0.1,1.1c0.2,0.3,0.4,0.5,0.7,0.6c0.2,0.1,0.4,0.1,0.7,0c0.3-0.1,0.7-0.2,1.2-0.5c0.2-0.1,0.4-0.2,0.5-0.2
				c0.1,0,0.2,0,0.4,0c0.2,0,0.3,0.2,0.4,0.3c0.1,0.2,0.1,0.4,0,0.6c-0.1,0.3-0.2,0.5-0.5,0.6C120.8,88.6,120.4,88.6,120,88.6
				L120,88.6z M121.4,89.5l-1.5-0.8l0.1-0.3l0.1,0c0.4,0.1,0.7,0.1,1,0c0.2-0.1,0.4-0.3,0.4-0.5c0.1-0.2,0-0.3,0-0.5
				c-0.1-0.1-0.2-0.2-0.3-0.3c-0.1,0-0.2,0-0.3,0c-0.1,0-0.3,0.1-0.5,0.2c-0.6,0.3-1,0.5-1.3,0.5c-0.3,0.1-0.5,0.1-0.7,0
				c-0.4-0.1-0.6-0.3-0.8-0.7c-0.2-0.4-0.2-0.8-0.1-1.2c0.1-0.2,0.2-0.5,0.4-0.8c0.1-0.1,0.1-0.2,0.1-0.2c0-0.1,0-0.2-0.1-0.3l0,0
				l0.1-0.3l1.6,0.8l-0.1,0.3l-0.1,0c-0.5-0.1-0.8-0.1-1.1,0c-0.2,0.1-0.4,0.3-0.5,0.6c-0.1,0.2-0.1,0.4,0,0.6
				c0.1,0.2,0.2,0.3,0.4,0.3c0.1,0,0.2,0,0.3,0c0.2,0,0.5-0.1,0.9-0.3c0.4-0.2,0.7-0.3,0.9-0.3c0.2,0,0.4,0,0.6,0
				c0.3,0.1,0.6,0.3,0.7,0.6c0.2,0.3,0.2,0.6,0.1,1c0,0.1-0.1,0.2-0.1,0.3c0,0-0.1,0.1-0.2,0.3c-0.1,0.2-0.2,0.3-0.2,0.3
				c0,0.1,0,0.2,0.1,0.3l0,0L121.4,89.5z"/>
			<path id="Fill-353" class="st0" d="M118.6,90.2c-0.1,0.5-0.1,0.9,0,1.2c0.1,0.4,0.2,0.8,0.4,1.1c0.2,0.3,0.4,0.4,0.6,0.5
				c0.1,0,0.3,0,0.4,0c0.1-0.1,0.2-0.2,0.2-0.3c0.1-0.3,0-0.7-0.2-1.2C119.6,91,119.2,90.5,118.6,90.2 M118.3,90.1
				c-0.2-0.1-0.3-0.1-0.4-0.1c-0.3-0.1-0.6-0.1-0.8,0.1c-0.3,0.1-0.4,0.4-0.5,0.7c-0.1,0.2-0.1,0.5,0,0.7c0,0.2,0.2,0.6,0.4,1.1
				l-0.2,0.1c-0.5-1-0.7-1.8-0.5-2.5c0.1-0.5,0.4-0.8,0.7-0.9c0.4-0.2,0.7-0.2,1.1-0.1c0.5,0.1,0.9,0.4,1.3,0.9
				c0.4,0.4,0.7,0.9,0.9,1.4c0.2,0.5,0.2,1,0,1.5c-0.1,0.3-0.2,0.6-0.4,0.7c-0.2,0.1-0.4,0.2-0.6,0.1c-0.3-0.1-0.5-0.3-0.7-0.5
				c-0.2-0.4-0.4-0.9-0.4-1.5C118.2,91.3,118.2,90.7,118.3,90.1"/>
			<path id="Fill-355" class="st0" d="M118.6,90.3c-0.1,0.4-0.1,0.8,0,1.1c0.1,0.4,0.2,0.8,0.4,1c0.2,0.3,0.4,0.4,0.6,0.5
				c0.1,0,0.2,0,0.3,0c0.1-0.1,0.2-0.1,0.2-0.3c0.1-0.3,0-0.7-0.2-1.1C119.6,91,119.2,90.6,118.6,90.3z M119.9,93
				c-0.1,0.1-0.3,0.1-0.4,0c-0.2-0.1-0.5-0.2-0.7-0.5c-0.2-0.3-0.3-0.6-0.4-1.1c0-0.3,0-0.8,0.1-1.3l0-0.1l0.1,0.1
				c0.6,0.4,1.1,0.8,1.3,1.3c0.2,0.5,0.3,0.9,0.2,1.2C120.1,92.8,120,92.9,119.9,93L119.9,93z M117.1,90c0.3-0.2,0.6-0.2,0.9-0.1
				c0.1,0,0.2,0.1,0.4,0.1l0.1,0l0,0.1c-0.1,0.7-0.2,1.2-0.1,1.6c0,0.6,0.2,1.1,0.4,1.4c0.2,0.3,0.4,0.4,0.6,0.5
				c0.2,0,0.3,0,0.5-0.1c0.2-0.1,0.3-0.3,0.4-0.7c0.1-0.5,0.1-0.9,0-1.5c-0.1-0.5-0.4-1-0.8-1.4c-0.4-0.4-0.8-0.7-1.3-0.8
				c-0.3-0.1-0.7-0.1-1,0.1c-0.3,0.1-0.6,0.4-0.7,0.9c-0.2,0.7,0,1.5,0.5,2.4l0,0c-0.2-0.5-0.3-0.8-0.3-1.1c0-0.2,0-0.5,0-0.7
				C116.6,90.3,116.8,90.1,117.1,90z M119.9,93.7c-0.2,0.1-0.4,0.1-0.6,0.1c-0.3-0.1-0.5-0.3-0.7-0.6c-0.2-0.4-0.4-0.9-0.4-1.5
				c0-0.4,0-0.9,0.1-1.6c-0.1-0.1-0.2-0.1-0.3-0.1c-0.3-0.1-0.5,0-0.8,0.1c-0.2,0.1-0.4,0.3-0.5,0.6c-0.1,0.2-0.1,0.4,0,0.7
				c0,0.2,0.2,0.6,0.4,1.1l0,0.1l-0.3,0.1l0-0.1c-0.5-1-0.7-1.8-0.5-2.6c0.1-0.5,0.4-0.8,0.8-1c0.4-0.2,0.8-0.2,1.1-0.1
				c0.5,0.1,1,0.4,1.4,0.9c0.4,0.4,0.7,0.9,0.9,1.5c0.2,0.5,0.2,1.1,0,1.5C120.3,93.2,120.1,93.5,119.9,93.7
				C119.9,93.6,119.9,93.6,119.9,93.7z"/>
			<path id="Fill-357" class="st0" d="M44.7,20l6.6,5.4l-1.4-6c-0.1-0.5-0.2-0.9-0.4-1.1c-0.1-0.2-0.2-0.3-0.4-0.3
				c-0.2,0-0.4,0-0.7,0.2c-0.1,0-0.1,0.1-0.2,0.1l-0.1-0.3l2.8-1.6l0.1,0.3c-0.3,0.2-0.5,0.3-0.6,0.5c-0.2,0.2-0.2,0.4-0.3,0.6
				c0,0.3,0,0.7,0.2,1.3l2,8.5l-0.2,0.1L45,21.9l1.5,6.4c0.1,0.5,0.2,0.8,0.4,1.1c0.1,0.2,0.2,0.3,0.4,0.3c0.2,0,0.4-0.1,0.9-0.3
				l0.1,0.3l-2.8,1.5l0-0.3c0.3-0.2,0.6-0.4,0.7-0.5c0.1-0.2,0.2-0.4,0.2-0.5c0-0.3,0-0.7-0.2-1.3l-1.7-7.1
				c-0.3-0.2-0.6-0.2-0.8-0.2c-0.2,0-0.6,0.1-1,0.3l-0.1-0.3L44.7,20z"/>
			<g id="Group-361" transform="translate(71.276199, 0.088069)">
				<g id="Clip-360">
				</g>
				<defs>
					<filter id="Adobe_OpacityMaskFilter" filterUnits="userSpaceOnUse" x="-25.7" y="16.2" width="5.5" height="15.4">
						<feColorMatrix  type="matrix" values="1 0 0 0 0  0 1 0 0 0  0 0 1 0 0  0 0 0 1 0"/>
					</filter>
				</defs>
				<mask maskUnits="userSpaceOnUse" x="-25.7" y="16.2" width="5.5" height="15.4" id="mask-2_1_">
					<g class="st1">
						<polygon id="path-1_1_" class="st2" points="-30.9,22.3 -20.2,16.3 -15.1,25.5 -25.8,31.5 						"/>
					</g>
				</mask>
				<path id="Fill-359" class="st3" d="M-19.1,27.6l0.1-0.1l-2-8.4c-0.1-0.6-0.2-1-0.2-1.3c0-0.2,0.1-0.4,0.3-0.7
					c0.1-0.1,0.3-0.3,0.6-0.4l0,0l0-0.1L-23,18l0,0.1c0,0,0.1,0,0.1,0c0.3-0.2,0.6-0.3,0.8-0.2c0.2,0,0.3,0.1,0.4,0.3
					c0.1,0.2,0.3,0.6,0.4,1.1l1.5,6.2l-6.7-5.5l-2.1,1.2l0,0.1c0.4-0.2,0.7-0.3,0.9-0.3c0.3,0,0.6,0.1,0.9,0.2l0,0l1.7,7.2
					c0.2,0.7,0.2,1.1,0.2,1.4c0,0.2-0.1,0.4-0.2,0.6c-0.1,0.1-0.3,0.3-0.6,0.5l0,0.1l2.6-1.5l0-0.1c-0.4,0.2-0.7,0.3-0.8,0.2
					c-0.2,0-0.3-0.1-0.4-0.3c-0.1-0.2-0.3-0.6-0.4-1.1l-1.5-6.6L-19.1,27.6z M-18.8,27.6l-0.3,0.2l0,0l-6.9-5.7l1.4,6.2
					c0.1,0.5,0.2,0.8,0.4,1c0.1,0.1,0.2,0.2,0.3,0.2c0.1,0,0.3,0,0.8-0.2l0.1,0l0.1,0.4l-2.9,1.6l-0.1-0.4l0,0
					c0.3-0.2,0.6-0.4,0.6-0.5c0.1-0.2,0.2-0.3,0.2-0.5c0-0.2,0-0.7-0.2-1.3l-1.7-7.1c-0.3-0.1-0.5-0.2-0.8-0.2c-0.2,0-0.6,0.1-1,0.3
					l-0.1,0l-0.1-0.4l2.3-1.3l6.5,5.3l-1.4-5.8c-0.1-0.5-0.2-0.8-0.4-1.1c-0.1-0.1-0.2-0.2-0.3-0.3c-0.1,0-0.4,0-0.7,0.2
					c-0.1,0-0.1,0.1-0.2,0.1l-0.1,0l-0.1-0.4l3-1.7l0.1,0.4l-0.1,0.1c-0.3,0.1-0.4,0.3-0.5,0.4c-0.1,0.2-0.2,0.4-0.3,0.6
					c0,0.3,0,0.7,0.2,1.3L-18.8,27.6z"/>
			</g>
			<path id="Fill-362" class="st0" d="M105,134.1l-1.1-3.7l0.2-0.1c0.1,0.3,0.3,0.6,0.4,0.8c0.3,0.6,0.8,1,1.4,1.1
				c0.6,0.2,1.2,0.1,1.8-0.3c0.6-0.3,0.9-0.7,1-1.2c0.1-0.5,0-1-0.2-1.5c-0.2-0.3-0.4-0.5-0.6-0.7c-0.4-0.2-1.3-0.6-2.7-1
				c-0.7-0.2-1.1-0.4-1.4-0.5c-0.4-0.2-0.7-0.6-0.9-0.9c-0.3-0.6-0.4-1.3-0.2-2c0.2-0.7,0.7-1.2,1.4-1.6c0.2-0.1,0.5-0.2,0.7-0.3
				c0.2,0,0.4-0.1,0.9-0.1c0.3,0,0.5-0.1,0.5-0.1c0.1,0,0.1-0.1,0.2-0.1c0.1-0.1,0.2-0.2,0.3-0.3c0.1-0.1,0.1-0.3,0.1-0.6l0.3-0.1
				l1,3.3l-0.2,0.1c-0.1-0.3-0.2-0.5-0.3-0.7c-0.3-0.5-0.7-0.9-1.2-1c-0.5-0.1-1.1-0.1-1.7,0.3c-0.4,0.2-0.7,0.6-0.9,1
				c-0.1,0.4-0.1,0.8,0.1,1.2c0.2,0.3,0.4,0.5,0.8,0.7c0.3,0.2,1,0.4,2,0.7c1,0.3,1.7,0.5,2.1,0.8c0.4,0.2,0.7,0.6,0.9,1
				c0.3,0.4,0.4,0.9,0.4,1.5c0,0.6-0.2,1.1-0.5,1.5c-0.3,0.5-0.7,0.9-1.3,1.2c-0.3,0.1-0.5,0.3-0.8,0.3c-0.3,0.1-0.7,0.2-1.3,0.3
				c-0.2,0-0.4,0.1-0.5,0.1c-0.3,0.1-0.4,0.4-0.3,0.9L105,134.1z"/>
			<path id="Fill-364" class="st0" d="M105.5,133c0.1-0.1,0.3-0.1,0.5-0.1c0.6-0.1,1-0.2,1.3-0.3c0.2-0.1,0.5-0.2,0.8-0.3
				c0.5-0.3,0.9-0.7,1.2-1.1c0.3-0.5,0.5-1,0.5-1.5c0-0.5-0.1-1-0.4-1.5c-0.2-0.4-0.5-0.7-0.9-0.9c-0.4-0.2-1.1-0.5-2.1-0.8
				c-1-0.3-1.7-0.5-2-0.7c-0.3-0.2-0.6-0.4-0.8-0.7c-0.2-0.4-0.2-0.8-0.1-1.2c0.1-0.4,0.4-0.8,0.9-1.1c0.6-0.3,1.2-0.4,1.7-0.3
				c0.6,0.1,1,0.5,1.3,1c0.1,0.1,0.2,0.3,0.3,0.6l0.1-0.1l-0.9-3.2l-0.1,0.1c0,0.3,0,0.5-0.1,0.6c-0.1,0.1-0.2,0.2-0.3,0.3
				c-0.1,0-0.1,0.1-0.2,0.1l0,0c0,0-0.2,0-0.5,0.1c-0.4,0-0.7,0.1-0.9,0.1c-0.2,0.1-0.5,0.2-0.7,0.3c-0.7,0.4-1.2,0.9-1.4,1.6
				c-0.2,0.7-0.1,1.3,0.2,1.9c0.2,0.4,0.5,0.7,0.9,0.9c0.2,0.1,0.7,0.3,1.4,0.5c1.4,0.4,2.3,0.7,2.7,1c0.3,0.2,0.5,0.4,0.7,0.7
				c0.3,0.5,0.3,1,0.2,1.5c-0.1,0.5-0.5,1-1,1.3c-0.6,0.4-1.3,0.4-1.9,0.3c-0.6-0.2-1.1-0.6-1.4-1.2c-0.1-0.2-0.2-0.4-0.4-0.7
				l-0.1,0.1l1.1,3.5l0.1-0.1C105.1,133.5,105.2,133.2,105.5,133 M108.1,132.4c-0.3,0.1-0.5,0.3-0.8,0.3c-0.3,0.1-0.7,0.2-1.3,0.3
				c-0.2,0-0.3,0.1-0.5,0.1c-0.2,0.1-0.3,0.4-0.3,0.8l0,0l-0.4,0.2l-1.1-3.8l0.3-0.2l0,0.1c0.1,0.3,0.3,0.6,0.4,0.8
				c0.3,0.6,0.8,1,1.3,1.1c0.6,0.2,1.2,0.1,1.8-0.3c0.5-0.3,0.9-0.7,1-1.2c0.1-0.5,0-1-0.2-1.4c-0.2-0.3-0.4-0.5-0.6-0.7
				c-0.4-0.2-1.3-0.6-2.7-1c-0.7-0.2-1.1-0.4-1.4-0.5c-0.4-0.2-0.7-0.6-0.9-1c-0.4-0.6-0.4-1.3-0.2-2c0.2-0.7,0.7-1.3,1.4-1.7
				c0.3-0.1,0.5-0.2,0.8-0.3c0.2,0,0.4-0.1,0.9-0.1c0.3,0,0.4-0.1,0.5-0.1c0.1,0,0.1-0.1,0.2-0.1c0.1-0.1,0.2-0.1,0.2-0.2
				c0-0.1,0.1-0.3,0.1-0.6l0,0l0.4-0.2l1,3.5l-0.3,0.2l0-0.1c-0.1-0.3-0.2-0.5-0.3-0.6c-0.3-0.5-0.7-0.8-1.2-1
				c-0.5-0.1-1.1,0-1.6,0.3c-0.4,0.2-0.7,0.6-0.8,1c-0.1,0.4-0.1,0.8,0.1,1.1c0.2,0.3,0.4,0.5,0.7,0.7c0.3,0.2,1,0.4,2,0.6
				c1,0.3,1.7,0.5,2.1,0.8c0.4,0.3,0.7,0.6,0.9,1c0.3,0.5,0.4,1,0.4,1.5c0,0.6-0.2,1.1-0.5,1.6C109.1,131.7,108.6,132.1,108.1,132.4
				"/>
			<path id="Fill-366" class="st0" d="M31.1,106.9l-7.8,3.3c-0.3,0.1-0.5,0.2-0.7,0.3c-0.3,0.1-0.4,0.3-0.5,0.5c0,0.2,0,0.5,0.2,0.9
				l-0.3,0.1l-1.8-3.3l0.3-0.1c0.2,0.4,0.5,0.7,0.7,0.8c0.3,0.1,0.7,0,1.4-0.3l5.1-2.2l-7.1-0.5c-0.1,0-0.2,0.1-0.2,0.1
				c-0.2,0.1-0.4,0.3-0.4,0.5c0,0.2,0,0.6,0.3,1.1l-0.3,0.1l-2-3.6l0.3-0.1c0.2,0.4,0.4,0.7,0.6,0.8c0.1,0.1,0.2,0.1,0.4,0.1
				c0.1,0,0.4,0,0.6-0.1c0.1,0,0.6-0.3,1.6-0.7c1-0.4,2.3-1,4.1-1.7l-5.8-0.4c-0.6,0-1.1-0.1-1.3,0c-0.2,0-0.4,0.1-0.5,0.1
				c-0.1,0.1-0.2,0.2-0.2,0.3c0,0.2,0,0.4,0.1,0.6l-0.3,0.1l-1.5-2.6l0.3-0.1c0.1,0.2,0.3,0.4,0.5,0.5c0.2,0.1,0.5,0.2,0.9,0.3
				c0.2,0,0.8,0.1,1.7,0.2l9.3,0.6l0.1,0.2l-7.3,3.1l9.3,0.6L31.1,106.9z"/>
			<g id="Group-370" transform="translate(0.000000, 68.005703)">
				<g id="Clip-369">
				</g>
				<defs>
					<filter id="Adobe_OpacityMaskFilter_1_" filterUnits="userSpaceOnUse" x="22.1" y="27.9" width="2.8" height="16.4">
						<feColorMatrix  type="matrix" values="1 0 0 0 0  0 1 0 0 0  0 0 1 0 0  0 0 0 1 0"/>
					</filter>
				</defs>
				<mask maskUnits="userSpaceOnUse" x="22.1" y="27.9" width="2.8" height="16.4" id="mask-4_1_">
					<g class="st4">
						<polygon id="path-3_1_" class="st2" points="15.9,33.1 25.1,27.9 31.3,39.1 22.1,44.2 						"/>
					</g>
				</mask>
				<path id="Fill-368" class="st5" d="M22.1,43.9l0.1,0c-0.2-0.4-0.2-0.6-0.2-0.9c0.1-0.2,0.2-0.4,0.5-0.6c0.2-0.1,0.4-0.2,0.7-0.3
					l7.7-3.3l-0.1-0.1l-9.3-0.6l0-0.1l7.2-3.1l-0.1-0.1l-9.3-0.6c-0.9-0.1-1.5-0.1-1.7-0.2c-0.4-0.1-0.7-0.2-0.9-0.3
					c-0.2-0.1-0.4-0.3-0.5-0.5l-0.1,0l1.4,2.5l0.1,0c-0.1-0.3-0.1-0.5-0.1-0.6c0-0.2,0.1-0.3,0.3-0.4c0.1-0.1,0.3-0.1,0.6-0.2
					c0.2,0,0.7,0,1.3,0l5.8,0.4l0,0.1c-1.7,0.7-3.1,1.3-4.1,1.7c-0.7,0.3-1.5,0.6-1.6,0.7c-0.3,0.1-0.5,0.2-0.7,0.1
					c-0.2,0-0.3-0.1-0.4-0.1c-0.2-0.1-0.3-0.4-0.6-0.8l-0.1,0l1.9,3.4l0.1,0c-0.2-0.5-0.3-0.8-0.2-1c0.1-0.2,0.2-0.4,0.5-0.6
					c0.1,0,0.1-0.1,0.2-0.1l0,0l7.1,0.5l0,0.1l-5.1,2.2c-0.7,0.3-1.2,0.4-1.4,0.3c-0.3-0.1-0.5-0.3-0.8-0.8l-0.1,0L22.1,43.9z
					 M22.5,44L22,44.1l-1.9-3.4l0.4-0.1l0,0c0.2,0.4,0.5,0.7,0.7,0.7c0.2,0.1,0.7,0,1.3-0.3l4.8-2.1l-6.7-0.5
					c-0.1,0-0.2,0.1-0.2,0.1c-0.2,0.1-0.4,0.3-0.4,0.5c0,0.2,0,0.5,0.3,1l0,0.1l-0.4,0.1l-2.1-3.7l0.4-0.1l0,0
					c0.2,0.4,0.4,0.7,0.6,0.8c0.1,0.1,0.2,0.1,0.3,0.1c0.1,0,0.3,0,0.6-0.1c0.1,0,0.6-0.3,1.6-0.7c0.9-0.4,2.2-0.9,3.8-1.6l-5.5-0.4
					c-0.6,0-1.1-0.1-1.3,0c-0.2,0-0.4,0.1-0.5,0.1c-0.1,0.1-0.2,0.2-0.2,0.3c0,0.1,0,0.3,0.1,0.6l0,0.1l-0.4,0.1l-1.5-2.8l0.4-0.1
					l0,0c0.1,0.2,0.3,0.4,0.5,0.5c0.2,0.1,0.5,0.2,0.9,0.3c0.2,0,0.8,0.1,1.7,0.2l9.4,0.6L29,35l-7.1,3l9.1,0.6l0.2,0.3l-0.1,0
					l-7.8,3.3c-0.3,0.1-0.5,0.2-0.7,0.3c-0.2,0.1-0.4,0.3-0.4,0.5C22.2,43.3,22.2,43.6,22.5,44L22.5,44z"/>
			</g>
			<path id="Fill-371" class="st0" d="M131.8,44.1l-4.1,0.9l0.5,0.8c0.3,0.6,0.7,1,1,1.1c0.3,0.2,0.8,0.2,1.4,0.1l0.1,0.2l-3.7,0.9
				l-0.1-0.3c0.3-0.1,0.6-0.2,0.8-0.3c0.2-0.1,0.3-0.2,0.4-0.4c0.1-0.1,0.1-0.3,0.1-0.5c0-0.2-0.1-0.5-0.4-0.9l-0.5-0.8l-3.4,0.8
				c-0.3,0.1-0.6,0.2-0.7,0.2c-0.1,0.1-0.2,0.2-0.2,0.3c0,0.1,0.1,0.3,0.2,0.6l0.4,0.8c0.5,0.8,1,1.4,1.6,1.8
				c0.6,0.3,1.4,0.5,2.3,0.5l0.1,0.2l-2.9,0.5l-3.8-6.8l0.3-0.1c0.2,0.3,0.4,0.6,0.5,0.6c0.2,0.1,0.3,0.2,0.5,0.2
				c0.2,0,0.7-0.1,1.4-0.2l6.2-1.4c0.5-0.1,0.9-0.2,1.1-0.4c0.2-0.1,0.3-0.2,0.3-0.4c0-0.2,0-0.4-0.2-0.8l-0.1-0.1l0.3-0.1l3.5,6.4
				l-2.4,0.6l-0.1-0.2c0.2-0.1,0.4-0.2,0.5-0.2c0.2-0.1,0.4-0.3,0.5-0.5c0.1-0.3,0.1-0.6,0.1-0.9c0-0.3-0.3-0.8-0.7-1.5L131.8,44.1z
				"/>
			<path id="Fill-373" class="st0" d="M132.2,48.6l2.3-0.6l-3.5-6.2l-0.1,0l0,0.1c0.2,0.4,0.3,0.6,0.2,0.8c0,0.2-0.1,0.3-0.3,0.4
				c-0.2,0.1-0.6,0.3-1.1,0.4l-6.2,1.4c-0.7,0.2-1.1,0.2-1.4,0.2c-0.2,0-0.4-0.1-0.6-0.2c-0.1-0.1-0.3-0.3-0.5-0.6l-0.1,0l3.7,6.7
				l2.8-0.5l-0.1-0.1c-1,0-1.7-0.2-2.3-0.5c-0.6-0.3-1.1-1-1.6-1.8l-0.4-0.8c-0.2-0.3-0.2-0.5-0.2-0.6c0-0.2,0.1-0.3,0.2-0.4
				c0.2-0.1,0.4-0.2,0.7-0.2l3.5-0.8l0.5,0.9c0.2,0.4,0.4,0.7,0.4,0.9c0,0.2,0,0.3-0.1,0.5c-0.1,0.3-0.5,0.5-1.1,0.7l0.1,0.1
				l3.6-0.8l-0.1-0.1c-0.6,0.1-1,0-1.4-0.1c-0.3-0.2-0.7-0.6-1-1.2l-0.5-0.9l4.2-1l0.6,1.2c0.4,0.8,0.7,1.3,0.7,1.5
				c0.1,0.3,0,0.7-0.1,0.9c-0.1,0.2-0.3,0.4-0.5,0.5c-0.1,0.1-0.3,0.1-0.5,0.2L132.2,48.6z M134.7,48l-2.6,0.7l-0.2-0.4l0.1,0
				c0.2-0.1,0.4-0.2,0.5-0.2c0.2-0.1,0.4-0.3,0.5-0.5c0.1-0.2,0.1-0.5,0.1-0.9c0-0.2-0.3-0.7-0.7-1.5l-0.6-1.1l-3.9,0.9l0.4,0.7
				c0.3,0.6,0.6,1,1,1.1c0.3,0.2,0.8,0.2,1.3,0.1l0,0l0.2,0.4l-3.9,0.9l-0.2-0.4l0.1,0c0.6-0.1,1-0.3,1.1-0.6
				c0.1-0.1,0.1-0.3,0.1-0.4c0-0.2-0.1-0.4-0.4-0.9l-0.4-0.8l-3.3,0.8c-0.3,0.1-0.6,0.2-0.7,0.2c-0.1,0.1-0.2,0.1-0.2,0.3
				c0,0.1,0,0.2,0.2,0.6l0.4,0.8c0.5,0.8,1,1.4,1.6,1.8c0.6,0.3,1.3,0.5,2.3,0.5l0,0l0.2,0.4l-3.1,0.6l-3.9-7l0.4-0.1l0,0
				c0.2,0.3,0.3,0.5,0.5,0.6c0.2,0.1,0.3,0.2,0.5,0.2c0.2,0,0.7-0.1,1.3-0.2l6.2-1.4c0.5-0.1,0.8-0.2,1.1-0.4
				c0.1-0.1,0.2-0.2,0.3-0.3c0-0.1,0-0.4-0.2-0.7l-0.1-0.2l0.4-0.1L134.7,48z"/>
		</g>
	</g>
</g>
</svg>
