<?xml version="1.0" encoding="utf-8"?>
<!-- Generator: Adobe Illustrator 22.1.0, SVG Export Plug-In . SVG Version: 6.00 Build 0)  -->
<svg version="1.1" id="Layer_1" xmlns="http://www.w3.org/2000/svg" xmlns:xlink="http://www.w3.org/1999/xlink" x="0px" y="0px"
	 width="26px" height="21px" viewBox="0 0 26 21" style="enable-background:new 0 0 26 21;" xml:space="preserve">
<style type="text/css">
	.st0{fill:#FFFFFF;}
</style>
<title>Group 7</title>
<desc>Created with Sketch.</desc>
<g id="Other-pages">
	<g id="Homepage-cookie" transform="translate(-1072.000000, -665.000000)">
		
			<g id="Group-7" transform="translate(1085.000000, 676.000000) rotate(-268.000000) translate(-1085.000000, -676.000000) translate(1074.000000, 664.000000)">
			<g id="Group-3" transform="translate(6.000000, 6.000000)">
				<path id="Fill-1" class="st0" d="M14.4,14.5C13.5,14,13,13,13,12c0-1.1,0.6-2.1,1.6-2.6c0.3-0.2,0.5-0.5,0.5-0.9
					s-0.2-0.7-0.5-0.9C13.6,7.1,13,6.1,13,5c0-0.8,0.3-1.5,0.9-2.1c0.2-0.2,0.3-0.5,0.3-0.8c0-0.3-0.2-0.6-0.5-0.7
					C12.3,0.5,10.6,0,9,0C4,0,0,4,0,9s4,9,9,9c2,0,3.9-0.6,5.4-1.8c0.3-0.2,0.4-0.5,0.4-0.8C14.8,15,14.7,14.7,14.4,14.5 M6,7
					C5.4,7,5,6.6,5,6c0-0.6,0.4-1,1-1c0.6,0,1,0.4,1,1C7,6.6,6.6,7,6,7 M8,12c-0.6,0-1-0.4-1-1c0-0.6,0.4-1,1-1s1,0.4,1,1
					C9,11.6,8.6,12,8,12"/>
			</g>
			<g id="Group-6">
				<path id="Fill-4" class="st0" d="M15,4c0.5,0,1,0,1.6,0.1C14.9,1.6,12.1,0,9,0C4,0,0,4,0,9c0,3.1,1.6,6,4.1,7.6
					C4.1,16.1,4,15.5,4,15C4,8.9,8.9,4,15,4 M5,5c0.6,0,1,0.4,1,1S5.6,7,5,7C4.4,7,4,6.6,4,6S4.4,5,5,5"/>
			</g>
		</g>
	</g>
</g>
</svg>
