<?xml version="1.0" encoding="UTF-8"?>
<svg width="134px" height="54px" viewBox="0 0 134 54" version="1.1" xmlns="http://www.w3.org/2000/svg" xmlns:xlink="http://www.w3.org/1999/xlink">
    <!-- Generator: Sketch 52.1 (67048) - http://www.bohemiancoding.com/sketch -->
    <title>Tablet</title>
    <desc>Created with Sketch.</desc>
    <defs>
        <polygon id="path-1" points="0.452 0.161 12.476 0.161 12.476 13.1925 0.452 13.1925"></polygon>
        <polygon id="path-3" points="0.2744 0.161 10.6774 0.161 10.6774 13.1923 0.2744 13.1923"></polygon>
        <polygon id="path-5" points="0.7402 0.161 11.1432 0.161 11.1432 13.1923 0.7402 13.1923"></polygon>
        <polygon id="path-7" points="0 0.592 5.7786 0.592 5.7786 6.892 0 6.892"></polygon>
        <polygon id="path-9" points="0 26 116.144 26 116.144 0.161 0 0.161"></polygon>
    </defs>
    <g id="Tablet" stroke="none" stroke-width="1" fill="none" fill-rule="evenodd">
        <g id="Group-40" transform="translate(10.000000, 16.000000)">
            <polygon id="Fill-1" fill="#231F20" points="12.519 1.2155 7.875 9.0455 3.159 1.2155 0.747 1.2155 0.747 13.8165 3.483 13.8165 3.483 6.4185 7.173 12.4835 8.487 12.4835 12.195 6.2555 12.213 13.8165 14.949 13.8165 14.913 1.2155"></polygon>
            <polygon id="Fill-2" fill="#231F20" points="17.9361 1.2155 17.9361 13.8165 27.6921 13.8165 27.6921 11.4765 20.8341 11.4765 20.8341 8.5605 26.6851 8.5605 26.6851 6.2925 20.8341 6.2925 20.8341 3.5565 27.4581 3.5565 27.4581 1.2155"></polygon>
            <g id="Group-39" transform="translate(0.000000, 0.839400)">
                <path d="M37.3047,3.3193 C36.8487,2.9413 36.1827,2.7523 35.3067,2.7523 L32.9307,2.7523 L32.9307,7.1443 L35.3067,7.1443 C36.1827,7.1443 36.8487,6.9523 37.3047,6.5683 C37.7607,6.1843 37.9887,5.6443 37.9887,4.9483 C37.9887,4.2403 37.7607,3.6973 37.3047,3.3193 Z M38.0427,12.9763 L35.6127,9.4663 L35.4687,9.4663 L32.9307,9.4663 L32.9307,12.9763 L30.0147,12.9763 L30.0147,0.3763 L35.4687,0.3763 C36.5847,0.3763 37.5537,0.5633 38.3757,0.9343 C39.1977,1.3063 39.8297,1.8343 40.2747,2.5183 C40.7187,3.2023 40.9407,4.0123 40.9407,4.9483 C40.9407,5.8843 40.7157,6.6923 40.2657,7.3693 C39.8157,8.0483 39.1767,8.5663 38.3487,8.9263 L41.1747,12.9763 L38.0427,12.9763 Z" id="Fill-3" fill="#231F20"></path>
                <g id="Group-7" transform="translate(42.000000, 0.000000)">
                    <mask id="mask-2" fill="white">
                        <use xlink:href="#path-1"></use>
                    </mask>
                    <g id="Clip-6"></g>
                    <path d="M3.791,12.3555 C2.753,11.7975 1.937,11.0235 1.343,10.0335 C0.749,9.0435 0.452,7.9245 0.452,6.6765 C0.452,5.4285 0.749,4.3095 1.343,3.3195 C1.937,2.3295 2.753,1.5555 3.791,0.9975 C4.829,0.4395 5.996,0.1605 7.292,0.1605 C8.384,0.1605 9.371,0.3525 10.253,0.7365 C11.135,1.1205 11.876,1.6725 12.476,2.3925 L10.603,4.1205 C9.752,3.1365 8.696,2.6445 7.436,2.6445 C6.656,2.6445 5.96,2.8155 5.348,3.1575 C4.736,3.4995 4.259,3.9765 3.917,4.5885 C3.575,5.2005 3.404,5.8965 3.404,6.6765 C3.404,7.4565 3.575,8.1525 3.917,8.7645 C4.259,9.3765 4.736,9.8535 5.348,10.1955 C5.96,10.5375 6.656,10.7085 7.436,10.7085 C8.696,10.7085 9.752,10.2105 10.603,9.2145 L12.476,10.9425 C11.876,11.6745 11.132,12.2325 10.244,12.6165 C9.355,13.0005 8.366,13.1925 7.274,13.1925 C5.99,13.1925 4.829,12.9135 3.791,12.3555" id="Fill-5" fill="#231F20" mask="url(#mask-2)"></path>
                </g>
                <path d="M57.7246,11.6987 C56.7226,10.7027 56.2216,9.2807 56.2216,7.4327 L56.2216,0.3767 L59.1376,0.3767 L59.1376,7.3247 C59.1376,9.5807 60.0746,10.7087 61.9466,10.7087 C62.8576,10.7087 63.5536,10.4357 64.0346,9.8897 C64.5136,9.3437 64.7536,8.4887 64.7536,7.3247 L64.7536,0.3767 L67.6336,0.3767 L67.6336,7.4327 C67.6336,9.2807 67.1326,10.7027 66.1306,11.6987 C65.1286,12.6947 63.7276,13.1927 61.9276,13.1927 C60.1276,13.1927 58.7266,12.6947 57.7246,11.6987" id="Fill-8" fill="#231F20"></path>
                <path d="M77.8037,3.3193 C77.3477,2.9413 76.6817,2.7523 75.8057,2.7523 L73.4297,2.7523 L73.4297,7.1443 L75.8057,7.1443 C76.6817,7.1443 77.3477,6.9523 77.8037,6.5683 C78.2597,6.1843 78.4877,5.6443 78.4877,4.9483 C78.4877,4.2403 78.2597,3.6973 77.8037,3.3193 Z M78.5417,12.9763 L76.1117,9.4663 L75.9677,9.4663 L73.4297,9.4663 L73.4297,12.9763 L70.5137,12.9763 L70.5137,0.3763 L75.9677,0.3763 C77.0837,0.3763 78.0527,0.5633 78.8747,0.9343 C79.6967,1.3063 80.3287,1.8343 80.7737,2.5183 C81.2177,3.2023 81.4397,4.0123 81.4397,4.9483 C81.4397,5.8843 81.2147,6.6923 80.7647,7.3693 C80.3147,8.0483 79.6757,8.5663 78.8477,8.9263 L81.6737,12.9763 L78.5417,12.9763 Z" id="Fill-10" fill="#231F20"></path>
                <polygon id="Fill-12" fill="#231F20" points="89.6113 8.5127 89.6113 12.9767 86.6953 12.9767 86.6953 8.4767 81.8173 0.3767 84.9133 0.3767 88.2793 5.9747 91.6453 0.3767 94.5073 0.3767"></polygon>
                <g id="Group-16" transform="translate(94.000000, 0.000000)">
                    <mask id="mask-4" fill="white">
                        <use xlink:href="#path-3"></use>
                    </mask>
                    <g id="Clip-15"></g>
                    <path d="M6.8174,5.5693 C7.2184,5.2153 7.4204,4.7623 7.4204,4.2103 C7.4204,3.6583 7.2244,3.2093 6.8354,2.8603 C6.4454,2.5123 5.9084,2.3383 5.2234,2.3383 C4.5994,2.3383 4.0924,2.5063 3.7034,2.8423 C3.3124,3.1783 3.1184,3.6343 3.1184,4.2103 C3.1184,4.7863 3.3124,5.2453 3.7034,5.5873 C4.0924,5.9293 4.6124,6.1003 5.2594,6.1003 C5.8954,6.1003 6.4154,5.9233 6.8174,5.5693 M9.1834,1.7713 C10.1794,2.8453 10.6774,4.3903 10.6774,6.4063 C10.6774,7.8353 10.4114,9.0583 9.8774,10.0783 C9.3424,11.0983 8.5894,11.8723 7.6184,12.4003 C6.6464,12.9283 5.5234,13.1923 4.2524,13.1923 C3.5804,13.1923 2.9384,13.1173 2.3264,12.9673 C1.7134,12.8183 1.1924,12.6053 0.7594,12.3283 L1.8394,10.1863 C2.4524,10.6073 3.2384,10.8163 4.1984,10.8163 C5.2654,10.8163 6.1124,10.5013 6.7364,9.8713 C7.3604,9.2413 7.6964,8.3323 7.7444,7.1443 C6.9884,7.9003 5.9444,8.2783 4.6124,8.2783 C3.8074,8.2783 3.0764,8.1163 2.4164,7.7923 C1.7554,7.4683 1.2344,7.0093 0.8494,6.4153 C0.4654,5.8213 0.2744,5.1343 0.2744,4.3543 C0.2744,3.5143 0.4834,2.7773 0.9044,2.1403 C1.3244,1.5053 1.8964,1.0153 2.6234,0.6733 C3.3484,0.3313 4.1564,0.1603 5.0444,0.1603 C6.8074,0.1603 8.1874,0.6973 9.1834,1.7713" id="Fill-14" fill="#231F20" mask="url(#mask-4)"></path>
                </g>
                <g id="Group-19" transform="translate(105.000000, 0.000000)">
                    <mask id="mask-6" fill="white">
                        <use xlink:href="#path-5"></use>
                    </mask>
                    <g id="Clip-18"></g>
                    <path d="M7.2832,5.5693 C7.6842,5.2153 7.8862,4.7623 7.8862,4.2103 C7.8862,3.6583 7.6902,3.2093 7.3012,2.8603 C6.9112,2.5123 6.3742,2.3383 5.6892,2.3383 C5.0652,2.3383 4.5582,2.5063 4.1692,2.8423 C3.7782,3.1783 3.5842,3.6343 3.5842,4.2103 C3.5842,4.7863 3.7782,5.2453 4.1692,5.5873 C4.5582,5.9293 5.0782,6.1003 5.7252,6.1003 C6.3612,6.1003 6.8812,5.9233 7.2832,5.5693 M9.6492,1.7713 C10.6452,2.8453 11.1432,4.3903 11.1432,6.4063 C11.1432,7.8353 10.8772,9.0583 10.3432,10.0783 C9.8082,11.0983 9.0552,11.8723 8.0842,12.4003 C7.1122,12.9283 5.9892,13.1923 4.7182,13.1923 C4.0462,13.1923 3.4042,13.1173 2.7922,12.9673 C2.1792,12.8183 1.6582,12.6053 1.2252,12.3283 L2.3052,10.1863 C2.9182,10.6073 3.7042,10.8163 4.6642,10.8163 C5.7312,10.8163 6.5782,10.5013 7.2022,9.8713 C7.8262,9.2413 8.1622,8.3323 8.2102,7.1443 C7.4542,7.9003 6.4102,8.2783 5.0782,8.2783 C4.2732,8.2783 3.5422,8.1163 2.8822,7.7923 C2.2212,7.4683 1.7002,7.0093 1.3152,6.4153 C0.9312,5.8213 0.7402,5.1343 0.7402,4.3543 C0.7402,3.5143 0.9492,2.7773 1.3702,2.1403 C1.7902,1.5053 2.3622,1.0153 3.0892,0.6733 C3.8142,0.3313 4.6222,0.1603 5.5102,0.1603 C7.2732,0.1603 8.6532,0.6973 9.6492,1.7713" id="Fill-17" fill="#231F20" mask="url(#mask-6)"></path>
                </g>
                <g id="Group-22" transform="translate(0.000000, 19.000000)">
                    <mask id="mask-8" fill="white">
                        <use xlink:href="#path-7"></use>
                    </mask>
                    <g id="Clip-21"></g>
                    <path d="M4.0186,5.605 C4.2126,5.479 4.3106,5.284 4.3106,5.02 C4.3106,4.498 3.9236,4.237 3.1506,4.237 L1.4496,4.237 L1.4496,5.794 L3.1506,5.794 C3.5346,5.794 3.8236,5.731 4.0186,5.605 Z M1.4496,1.69 L1.4496,3.175 L2.8976,3.175 C3.2576,3.175 3.5316,3.112 3.7166,2.986 C3.9036,2.86 3.9966,2.674 3.9966,2.428 C3.9966,2.182 3.9036,1.998 3.7166,1.875 C3.5316,1.751 3.2576,1.69 2.8976,1.69 L1.4496,1.69 Z M5.4716,4.188 C5.6756,4.455 5.7786,4.783 5.7786,5.173 C5.7786,5.725 5.5636,6.149 5.1346,6.447 C4.7056,6.744 4.0806,6.892 3.2576,6.892 L-0.0004,6.892 L-0.0004,0.592 L3.0786,0.592 C3.8456,0.592 4.4356,0.739 4.8466,1.033 C5.2576,1.327 5.4626,1.726 5.4626,2.23 C5.4626,2.536 5.3896,2.809 5.2426,3.049 C5.0956,3.289 4.8896,3.478 4.6256,3.616 C4.9866,3.73 5.2676,3.921 5.4716,4.188 Z" id="Fill-20" fill="#231F20" mask="url(#mask-8)"></path>
                </g>
                <path d="M7.582,25.2529 C7.081,24.7549 6.831,24.0439 6.831,23.1199 L6.831,19.5919 L8.289,19.5919 L8.289,23.0659 C8.289,24.1939 8.757,24.7579 9.692,24.7579 C10.148,24.7579 10.497,24.6219 10.736,24.3489 C10.977,24.0759 11.097,23.6479 11.097,23.0659 L11.097,19.5919 L12.537,19.5919 L12.537,23.1199 C12.537,24.0439 12.286,24.7549 11.785,25.2529 C11.284,25.7509 10.584,25.9999 9.684,25.9999 C8.784,25.9999 8.083,25.7509 7.582,25.2529" id="Fill-23" fill="#231F20"></path>
                <mask id="mask-10" fill="white">
                    <use xlink:href="#path-9"></use>
                </mask>
                <g id="Clip-26"></g>
                <polygon id="Fill-25" fill="#231F20" mask="url(#mask-10)" points="13.977 25.892 15.435 25.892 15.435 19.592 13.977 19.592"></polygon>
                <polygon id="Fill-27" fill="#231F20" mask="url(#mask-10)" points="16.9287 19.5923 18.3867 19.5923 18.3867 24.7043 21.5457 24.7043 21.5457 25.8923 16.9287 25.8923"></polygon>
                <path d="M25.1543,24.6953 C25.7843,24.6953 26.2873,24.5193 26.6623,24.1683 C27.0363,23.8173 27.2243,23.3423 27.2243,22.7423 C27.2243,22.1423 27.0363,21.6663 26.6623,21.3153 C26.2873,20.9643 25.7843,20.7893 25.1543,20.7893 L23.8223,20.7893 L23.8223,24.6953 L25.1543,24.6953 Z M22.3643,19.5923 L25.2263,19.5923 C25.9103,19.5923 26.5143,19.7223 27.0403,19.9833 C27.5643,20.2443 27.9723,20.6123 28.2633,21.0863 C28.5543,21.5603 28.7003,22.1123 28.7003,22.7423 C28.7003,23.3723 28.5543,23.9243 28.2633,24.3983 C27.9723,24.8723 27.5643,25.2393 27.0403,25.5003 C26.5143,25.7613 25.9103,25.8923 25.2263,25.8923 L22.3643,25.8923 L22.3643,19.5923 Z" id="Fill-28" fill="#231F20" mask="url(#mask-10)"></path>
                <polygon id="Fill-29" fill="#231F20" mask="url(#mask-10)" points="29.799 25.892 31.257 25.892 31.257 19.592 29.799 19.592"></polygon>
                <polygon id="Fill-30" fill="#231F20" mask="url(#mask-10)" points="38.5293 19.5923 38.5293 25.8923 37.3323 25.8923 34.1903 22.0673 34.1903 25.8923 32.7513 25.8923 32.7513 19.5923 33.9573 19.5923 37.0893 23.4173 37.0893 19.5923"></polygon>
                <path d="M44.2793,22.6431 L45.6113,22.6431 L45.6113,25.1991 C45.2693,25.4571 44.8733,25.6551 44.4243,25.7931 C43.9733,25.9311 43.5203,26.0001 43.0643,26.0001 C42.4103,26.0001 41.8223,25.8601 41.3003,25.5811 C40.7783,25.3031 40.3693,24.9151 40.0723,24.4201 C39.7743,23.9261 39.6263,23.3661 39.6263,22.7421 C39.6263,22.1181 39.7743,21.5591 40.0723,21.0631 C40.3693,20.5681 40.7813,20.1821 41.3093,19.9031 C41.8373,19.6231 42.4313,19.4841 43.0923,19.4841 C43.6433,19.4841 44.1443,19.5771 44.5943,19.7631 C45.0443,19.9491 45.4233,20.2191 45.7283,20.5731 L44.7923,21.4371 C44.3423,20.9631 43.7993,20.7261 43.1633,20.7261 C42.7613,20.7261 42.4043,20.8101 42.0923,20.9781 C41.7803,21.1461 41.5373,21.3831 41.3633,21.6891 C41.1893,21.9951 41.1023,22.3461 41.1023,22.7421 C41.1023,23.1321 41.1893,23.4801 41.3633,23.7861 C41.5373,24.0921 41.7783,24.3301 42.0883,24.5011 C42.3963,24.6721 42.7493,24.7581 43.1453,24.7581 C43.5653,24.7581 43.9433,24.6681 44.2793,24.4881 L44.2793,22.6431 Z" id="Fill-31" fill="#231F20" mask="url(#mask-10)"></path>
                <path d="M50.7822,25.5815 C50.2622,25.3025 49.8552,24.9155 49.5582,24.4205 C49.2612,23.9255 49.1122,23.3665 49.1122,22.7425 C49.1122,22.1185 49.2612,21.5585 49.5582,21.0635 C49.8552,20.5685 50.2622,20.1815 50.7822,19.9025 C51.3012,19.6235 51.8852,19.4835 52.5332,19.4835 C53.0792,19.4835 53.5722,19.5805 54.0132,19.7715 C54.4542,19.9645 54.8242,20.2405 55.1252,20.6005 L54.1882,21.4635 C53.7622,20.9725 53.2342,20.7265 52.6042,20.7265 C52.2152,20.7265 51.8672,20.8115 51.5602,20.9825 C51.2552,21.1535 51.0162,21.3925 50.8452,21.6985 C50.6742,22.0035 50.5892,22.3525 50.5892,22.7425 C50.5892,23.1325 50.6742,23.4795 50.8452,23.7865 C51.0162,24.0925 51.2552,24.3305 51.5602,24.5015 C51.8672,24.6725 52.2152,24.7585 52.6042,24.7585 C53.2342,24.7585 53.7622,24.5095 54.1882,24.0115 L55.1252,24.8745 C54.8242,25.2415 54.4532,25.5195 54.0092,25.7115 C53.5642,25.9035 53.0692,25.9995 52.5232,25.9995 C51.8822,25.9995 51.3012,25.8605 50.7822,25.5815" id="Fill-32" fill="#231F20" mask="url(#mask-10)"></path>
                <path d="M60.0293,24.5015 C60.3293,24.3305 60.5653,24.0925 60.7363,23.7865 C60.9073,23.4805 60.9923,23.1325 60.9923,22.7425 C60.9923,22.3525 60.9073,22.0035 60.7363,21.6985 C60.5653,21.3925 60.3293,21.1535 60.0293,20.9825 C59.7293,20.8115 59.3933,20.7265 59.0213,20.7265 C58.6493,20.7265 58.3133,20.8115 58.0133,20.9825 C57.7143,21.1535 57.4783,21.3925 57.3073,21.6985 C57.1353,22.0035 57.0503,22.3525 57.0503,22.7425 C57.0503,23.1325 57.1353,23.4805 57.3073,23.7865 C57.4783,24.0925 57.7143,24.3305 58.0133,24.5015 C58.3133,24.6725 58.6493,24.7585 59.0213,24.7585 C59.3933,24.7585 59.7293,24.6725 60.0293,24.5015 M57.2533,25.5775 C56.7283,25.2945 56.3173,24.9065 56.0203,24.4115 C55.7223,23.9165 55.5743,23.3605 55.5743,22.7425 C55.5743,22.1245 55.7223,21.5675 56.0203,21.0725 C56.3173,20.5775 56.7283,20.1895 57.2533,19.9075 C57.7783,19.6255 58.3673,19.4835 59.0213,19.4835 C59.6753,19.4835 60.2633,19.6255 60.7853,19.9075 C61.3073,20.1895 61.7183,20.5775 62.0183,21.0725 C62.3183,21.5675 62.4683,22.1245 62.4683,22.7425 C62.4683,23.3605 62.3183,23.9165 62.0183,24.4115 C61.7183,24.9065 61.3073,25.2945 60.7853,25.5775 C60.2633,25.8595 59.6753,26.0005 59.0213,26.0005 C58.3673,26.0005 57.7783,25.8595 57.2533,25.5775" id="Fill-33" fill="#231F20" mask="url(#mask-10)"></path>
                <polygon id="Fill-34" fill="#231F20" mask="url(#mask-10)" points="69.2998 25.8921 69.2898 22.1121 67.4368 25.2261 66.7788 25.2261 64.9348 22.1931 64.9348 25.8921 63.5668 25.8921 63.5668 19.5921 64.7728 19.5921 67.1298 23.5071 69.4518 19.5921 70.6498 19.5921 70.6668 25.8921"></polygon>
                <path d="M75.8057,22.6836 C76.0347,22.4946 76.1487,22.2256 76.1487,21.8776 C76.1487,21.5236 76.0347,21.2526 75.8057,21.0636 C75.5777,20.8746 75.2447,20.7806 74.8067,20.7806 L73.6187,20.7806 L73.6187,22.9676 L74.8067,22.9676 C75.2447,22.9676 75.5777,22.8726 75.8057,22.6836 M76.3417,19.8706 C76.7527,20.0576 77.0697,20.3216 77.2907,20.6626 C77.5127,21.0046 77.6237,21.4106 77.6237,21.8776 C77.6237,22.3406 77.5127,22.7436 77.2907,23.0886 C77.0697,23.4336 76.7527,23.6976 76.3417,23.8806 C75.9307,24.0636 75.4467,24.1556 74.8877,24.1556 L73.6187,24.1556 L73.6187,25.8916 L72.1607,25.8916 L72.1607,19.5926 L74.8877,19.5926 C75.4467,19.5926 75.9307,19.6846 76.3417,19.8706" id="Fill-35" fill="#231F20" mask="url(#mask-10)"></path>
                <path d="M82.0332,23.4351 L81.0352,21.0231 L80.0362,23.4351 L82.0332,23.4351 Z M82.4932,24.5421 L79.5672,24.5421 L79.0102,25.8921 L77.5152,25.8921 L80.3232,19.5921 L81.7632,19.5921 L84.5812,25.8921 L83.0512,25.8921 L82.4932,24.5421 Z" id="Fill-36" fill="#231F20" mask="url(#mask-10)"></path>
                <polygon id="Fill-37" fill="#231F20" mask="url(#mask-10)" points="91.0166 19.5923 91.0166 25.8923 89.8196 25.8923 86.6776 22.0673 86.6776 25.8923 85.2386 25.8923 85.2386 19.5923 86.4446 19.5923 89.5766 23.4173 89.5766 19.5923"></polygon>
                <polygon id="Fill-38" fill="#231F20" mask="url(#mask-10)" points="95.5342 23.6602 95.5342 25.8922 94.0762 25.8922 94.0762 23.6422 91.6372 19.5922 93.1842 19.5922 94.8682 22.3912 96.5512 19.5922 97.9812 19.5922"></polygon>
            </g>
        </g>
    </g>
</svg>