<?xml version="1.0" encoding="utf-8"?>
<!-- Generator: Adobe Illustrator 22.1.0, SVG Export Plug-In . SVG Version: 6.00 Build 0)  -->
<svg version="1.1" id="Layer_1" xmlns="http://www.w3.org/2000/svg" xmlns:xlink="http://www.w3.org/1999/xlink" x="0px" y="0px"
	 width="122px" height="97px" viewBox="0 0 122 97" style="enable-background:new 0 0 122 97;" xml:space="preserve">
<style type="text/css">
	.st0{fill:#FFFFFF;}
	.st1{filter:url(#Adobe_OpacityMaskFilter);}
	.st2{mask:url(#mask-2_1_);fill:#FFFFFF;}
	.st3{filter:url(#Adobe_OpacityMaskFilter_1_);}
	.st4{mask:url(#mask-4_1_);fill:#FFFFFF;}
	.st5{filter:url(#Adobe_OpacityMaskFilter_2_);}
	.st6{mask:url(#mask-4_2_);fill:#FFFFFF;}
	.st7{filter:url(#Adobe_OpacityMaskFilter_3_);}
	.st8{mask:url(#mask-4_3_);fill:#FFFFFF;}
	.st9{filter:url(#Adobe_OpacityMaskFilter_4_);}
	.st10{mask:url(#mask-4_4_);fill:#FFFFFF;}
</style>
<title>Group 17</title>
<desc>Created with Sketch.</desc>
<g id="Other-pages">
	<g id="Project-Inner" transform="translate(-650.000000, -360.000000)">
		<g id="Group-17" transform="translate(650.000000, 360.000000)">
			<path id="Fill-1" class="st0" d="M46.6,18.1h5.8v-7.2h-5.8V18.1z M43,22h13V7H43V22z"/>
			<path id="Fill-2" class="st0" d="M46.6,35.1h5.8v-7.2h-5.8V35.1z M43,39h13V24H43V39z"/>
			<path id="Fill-3" class="st0" d="M46.6,52.1h5.8v-7.2h-5.8V52.1z M43,56h13V41H43V56z"/>
			<path id="Fill-4" class="st0" d="M69.6,18.1h5.8v-7.2h-5.8V18.1z M66,22h13V7H66V22z"/>
			<path id="Fill-5" class="st0" d="M69.6,35.1h5.8v-7.2h-5.8V35.1z M66,39h13V24H66V39z"/>
			<path id="Fill-6" class="st0" d="M69.6,52.1h5.8v-7.2h-5.8V52.1z M66,56h13V41H66V56z"/>
			<polygon id="Fill-7" class="st0" points="24,49 24,36 12,36 12,39.9 20.2,39.9 20.2,49 			"/>
			<g id="Group-16">
				<g id="Group-10">
					<g id="Clip-9">
					</g>
					<defs>
						<filter id="Adobe_OpacityMaskFilter" filterUnits="userSpaceOnUse" x="0" y="0" width="122" height="96.6">
							<feColorMatrix  type="matrix" values="1 0 0 0 0  0 1 0 0 0  0 0 1 0 0  0 0 0 1 0"/>
						</filter>
					</defs>
					<mask maskUnits="userSpaceOnUse" x="0" y="0" width="122" height="96.6" id="mask-2_1_">
						<g class="st1">
							<polygon id="path-1_1_" class="st0" points="0,0 122,0 122,96.6 0,96.6 							"/>
						</g>
					</mask>
					<path id="Fill-8" class="st2" d="M72.2,92.6L72.1,63l-21.9,0.2l0.2,29.7H35.2L34.6,4.1l52.2-0.4l0.6,88.7L72.2,92.6z
						 M54.1,92.7l-0.2-25.8l14.4-0.1l0.2,25.8h-7.2L54.1,92.7z M3.9,72c-1.4-8.4,5.7-21.1,8.2-22.4c2.5,1.3,9.5,13.9,8.1,22.4
						c-0.7,4.1-3.3,6-8.1,6C7.2,78,4.6,76.1,3.9,72L3.9,72z M90.7,22.1L90.6,0L30.8,0.4L31,22.1H0v14.2h3.8V25.8H31l0.5,66.9H14
						V81.6c6.5-0.7,10.2-4.9,10.2-11.9c-0.2-5.4-1.7-10.6-4.2-15.4c-1.6-3.2-4.8-8.5-7.9-8.5s-6.3,5.3-7.9,8.5
						c-2.5,4.8-3.9,10-4.2,15.4c0,7,3.7,11.3,10.2,11.9v11.1H2.5v3.8h28.9v0.1l29.8-0.2l11-0.1l18.9-0.1l-0.5-70.3h27.6v48.9h3.8
						V22.1H90.7z"/>
				</g>
				<g id="Clip-12">
				</g>
				<defs>
					<filter id="Adobe_OpacityMaskFilter_1_" filterUnits="userSpaceOnUse" x="97" y="36" width="13.7" height="14.5">
						<feColorMatrix  type="matrix" values="1 0 0 0 0  0 1 0 0 0  0 0 1 0 0  0 0 0 1 0"/>
					</filter>
				</defs>
				<mask maskUnits="userSpaceOnUse" x="97" y="36" width="13.7" height="14.5" id="mask-4_1_">
					<g class="st3">
						<polygon id="path-3_1_" class="st0" points="0,96.6 122,96.6 122,0 0,0 						"/>
					</g>
				</mask>
				<path id="Fill-11" class="st4" d="M100.8,46.8h6.1v-7h-6.1V46.8z M97,50.5h13.7V36H97V50.5z"/>
				<defs>
					<filter id="Adobe_OpacityMaskFilter_2_" filterUnits="userSpaceOnUse" x="97" y="53" width="13.7" height="14.5">
						<feColorMatrix  type="matrix" values="1 0 0 0 0  0 1 0 0 0  0 0 1 0 0  0 0 0 1 0"/>
					</filter>
				</defs>
				<mask maskUnits="userSpaceOnUse" x="97" y="53" width="13.7" height="14.5" id="mask-4_2_">
					<g class="st5">
						<polygon id="path-3_2_" class="st0" points="0,96.6 122,96.6 122,0 0,0 						"/>
					</g>
				</mask>
				<path id="Fill-13" class="st6" d="M100.8,63.8h6.1v-7h-6.1V63.8z M97,67.5h13.7V53H97V67.5z"/>
				<defs>
					<filter id="Adobe_OpacityMaskFilter_3_" filterUnits="userSpaceOnUse" x="99" y="70" width="9.9" height="3.8">
						<feColorMatrix  type="matrix" values="1 0 0 0 0  0 1 0 0 0  0 0 1 0 0  0 0 0 1 0"/>
					</filter>
				</defs>
				<mask maskUnits="userSpaceOnUse" x="99" y="70" width="9.9" height="3.8" id="mask-4_3_">
					<g class="st7">
						<polygon id="path-3_3_" class="st0" points="0,96.6 122,96.6 122,0 0,0 						"/>
					</g>
				</mask>
				<polygon id="Fill-14" class="st8" points="99,73.8 108.9,73.8 108.9,70 99,70 				"/>
				<defs>
					<filter id="Adobe_OpacityMaskFilter_4_" filterUnits="userSpaceOnUse" x="94" y="81" width="28.2" height="15.7">
						<feColorMatrix  type="matrix" values="1 0 0 0 0  0 1 0 0 0  0 0 1 0 0  0 0 0 1 0"/>
					</filter>
				</defs>
				<mask maskUnits="userSpaceOnUse" x="94" y="81" width="28.2" height="15.7" id="mask-4_4_">
					<g class="st9">
						<polygon id="path-3_4_" class="st0" points="0,96.6 122,96.6 122,0 0,0 						"/>
					</g>
				</mask>
				<path id="Fill-15" class="st10" d="M116.5,93H99.6c-1,0-1.9-0.8-1.9-1.9c0-1,0.8-1.9,1.9-1.9c0.4,0,0.7,0.1,1,0.3l2.5,1.6
					l0.5-2.9c0.3-2.2,2.4-3.8,4.7-3.4c1.6,0.2,2.9,1.4,3.3,3l0.4,1.4h4.5c1,0,1.9,0.8,1.9,1.9C118.4,92.2,117.6,93,116.5,93
					L116.5,93z M116.5,85.5h-1.8c-1.9-3.9-6.6-5.6-10.5-3.7c-1.6,0.8-2.9,2.1-3.7,3.7c-3.1-0.5-6,1.7-6.4,4.7
					c-0.5,3.1,1.7,6,4.8,6.4c0.3,0,0.5,0.1,0.8,0.1h16.9c3.1,0,5.7-2.5,5.7-5.6C122.2,87.9,119.6,85.4,116.5,85.5L116.5,85.5z"/>
			</g>
		</g>
	</g>
</g>
</svg>
