<svg xmlns="http://www.w3.org/2000/svg" xmlns:xlink="http://www.w3.org/1999/xlink" width="18" height="18" viewBox="0 0 18 18"><defs><path id="j38zc" d="M1339.21 746.86h-3.63a.3.3 0 0 0-.29.3v11.66c0 .16.13.3.3.3h3.62a.3.3 0 0 0 .3-.3v-11.67a.3.3 0 0 0-.3-.29"/><path id="j38za" d="M1335 741.06h4.8v4.79h-4.8z"/><path id="j38ze" d="M1337.4 741.06a2.4 2.4 0 1 0 0 4.8 2.4 2.4 0 0 0 0-4.8"/><path id="j38zb" d="M1341.2 746.57h11.9v12.54h-11.9z"/><path id="j38zg" d="M1348.45 746.57c-1.45 0-2.53.63-3.19 1.34v-.76a.3.3 0 0 0-.29-.29h-3.48a.3.3 0 0 0-.29.3v11.66c0 .16.13.3.3.3h3.62a.3.3 0 0 0 .29-.3v-5.77c0-1.95.53-2.7 1.88-2.7 1.48 0 1.6 1.21 1.6 2.8v5.67c0 .16.13.3.29.3h3.63a.3.3 0 0 0 .29-.3v-6.4c0-2.9-.55-5.85-4.65-5.85"/><clipPath id="j38zd"><use xlink:href="#j38za"/></clipPath><clipPath id="j38zf"><use xlink:href="#j38zb"/></clipPath></defs><g><g transform="translate(-1335 -741)"><g><use fill="#fff" xlink:href="#j38zc"/></g><g><g/><g clip-path="url(#j38zd)"><use fill="#fff" xlink:href="#j38ze"/></g></g><g><g/><g clip-path="url(#j38zf)"><use fill="#fff" xlink:href="#j38zg"/></g></g></g></g></svg>