<svg xmlns="http://www.w3.org/2000/svg" xmlns:xlink="http://www.w3.org/1999/xlink" width="4" height="4" viewBox="0 0 4 4"><defs><path id="fcuxa" d="M868.27 445.44a1 1 0 0 1-.76-.34c-2.26-2.61-7.51-9.08-7.51-12.83a8.28 8.28 0 0 1 16.53 0c0 3.74-5.25 10.22-7.5 12.83a1 1 0 0 1-.76.34m0-19.44a6.27 6.27 0 0 0-6.27 6.27c0 2.32 3.22 6.98 6.27 10.63 3.04-3.65 6.26-8.31 6.26-10.63a6.27 6.27 0 0 0-6.26-6.27"/><path id="fcuxb" d="M868.07 434.38a1.48 1.48 0 1 1 0-2.96 1.48 1.48 0 0 1 0 2.96zm-.5-1.3a.52.52 0 0 0 .97.04.53.53 0 0 0 .02-.4.53.53 0 0 0-.67-.31.52.52 0 0 0-.31.66l.04-.01z"/></defs><g><g transform="translate(-866 -431)"><g><g><use fill="#2a2828" xlink:href="#fcuxa"/></g></g><g><use fill="#2a2828" xlink:href="#fcuxb"/></g></g></g></svg>