<?xml version="1.0" encoding="UTF-8"?>
<svg width="148px" height="139px" viewBox="0 0 148 139" version="1.1" xmlns="http://www.w3.org/2000/svg" xmlns:xlink="http://www.w3.org/1999/xlink">
    <!-- Generator: Sketch 51.3 (57544) - http://www.bohemiancoding.com/sketch -->
    <title>Group 59</title>
    <desc>Created with Sketch.</desc>
    <defs>
        <polygon id="path-1" points="0 0.1715 18.1469 0.1715 18.1469 16.2715 0 16.2715"></polygon>
        <polygon id="path-3" points="0.1576 0.8956 13.451 0.8956 13.451 17.5476 0.1576 17.5476"></polygon>
        <polygon id="path-5" points="0 139 147.451 139 147.451 0.895 0 0.895"></polygon>
    </defs>
    <g id="Photos" stroke="none" stroke-width="1" fill="none" fill-rule="evenodd">
        <g id="Desktop-HD" transform="translate(-15.000000, -18.000000)">
            <g id="Group-59" transform="translate(15.000000, 17.000000)">
                <polygon id="Fill-1" fill="#F26B21" points="77.1574 1 72.4664 9.127 67.7744 1 54.3964 1 6.9614 82.199 4.0374 87.291 39.7414 87.288 46.3404 75.86 52.9384 87.287 90.5414 87.285 96.9124 76.249 103.2834 87.284 138.7454 87.281 115.1704 46.236 115.1704 7 99.5014 7 99.5014 7.053 98.1584 7.053 98.1584 16.583 89.1884 1"></polygon>
                <g id="Group-58" transform="translate(0.000000, 0.105000)">
                    <path d="M89.1621,49.7856 L80.2811,49.7856 C81.2071,47.6696 84.5841,39.5116 86.6331,35.1156 C88.8411,30.3786 81.7971,29.2146 81.7621,33.4056 C81.7481,35.0146 83.2961,36.1766 84.9721,35.9076 L81.1761,44.0576 C76.1821,41.8596 73.5171,38.8416 73.5171,33.2026 C73.5171,30.0816 74.5821,27.4406 76.7121,25.2906 C78.8411,23.1406 81.4451,22.0696 84.5381,22.0696 C87.4591,22.0696 90.0131,23.1476 92.1991,25.3046 C94.3791,27.4616 95.4731,29.9806 95.4731,32.8616 C95.4731,34.2086 95.1711,36.3856 93.9331,39.1446 L89.1621,49.7856 Z" id="Fill-2" fill="#FEFEFE"></path>
                    <path d="M66.3535,49.5381 L57.4725,49.5381 C58.3975,47.4221 61.7755,39.2641 63.8245,34.8681 C66.0325,30.1311 58.9885,28.9671 58.9525,33.1581 C58.9385,34.7671 60.4875,35.9301 62.1635,35.6601 L58.3675,43.8101 C53.3735,41.6121 50.7085,38.5941 50.7085,32.9551 C50.7085,29.8351 51.7735,27.1931 53.9025,25.0431 C56.0325,22.8931 58.6365,21.8221 61.7295,21.8221 C64.6495,21.8221 67.2035,22.9001 69.3905,25.0571 C71.5705,27.2141 72.6645,29.7331 72.6645,32.6141 C72.6645,33.9611 72.3615,36.1381 71.1245,38.8971 L66.3535,49.5381 Z" id="Fill-4" fill="#FEFEFE"></path>
                    <polygon id="Fill-6" fill="#FEFEFE" points="56.939 63.2959 57.986 56.3569 60.122 56.3569 60.122 66.1299 58.67 66.1299 58.67 59.1219 57.609 66.1299 56.157 66.1299 55.012 59.2189 55.012 66.1299 53.672 66.1299 53.672 56.3569 55.808 56.3569"></polygon>
                    <polygon id="Fill-8" fill="#FEFEFE" points="62.7778 60.4761 64.8858 60.4761 64.8858 61.8721 62.7778 61.8721 62.7778 64.7341 65.4308 64.7341 65.4308 66.1301 61.2418 66.1301 61.2418 56.3571 65.4308 56.3571 65.4308 57.7531 62.7778 57.7531"></polygon>
                    <path d="M67.9175,57.7534 L67.9175,60.7544 L68.5185,60.7544 C69.0905,60.7544 69.4395,60.5034 69.4395,59.7214 L69.4395,58.7584 C69.4395,58.0604 69.2025,57.7534 68.6575,57.7534 L67.9175,57.7534 Z M69.5925,66.1304 C69.5095,65.8784 69.4535,65.7254 69.4535,64.9294 L69.4535,63.3944 C69.4535,62.4864 69.1465,62.1514 68.4485,62.1514 L67.9175,62.1514 L67.9175,66.1304 L66.3815,66.1304 L66.3815,56.3574 L68.6995,56.3574 C70.2915,56.3574 70.9755,57.0974 70.9755,58.6054 L70.9755,59.3734 C70.9755,60.3784 70.6535,61.0344 69.9695,61.3554 C70.7375,61.6764 70.9895,62.4164 70.9895,63.4354 L70.9895,64.9434 C70.9895,65.4184 71.0025,65.7674 71.1565,66.1304 L69.5925,66.1304 Z" id="Fill-10" fill="#FEFEFE"></path>
                    <path d="M76.4502,62.4863 L76.4502,63.7843 C76.4502,65.3483 75.6692,66.2423 74.1602,66.2423 C72.6532,66.2423 71.8702,65.3483 71.8702,63.7843 L71.8702,58.7023 C71.8702,57.1393 72.6532,56.2453 74.1602,56.2453 C75.6692,56.2453 76.4502,57.1393 76.4502,58.7023 L76.4502,59.6523 L74.9982,59.6523 L74.9982,58.6053 C74.9982,57.9063 74.6912,57.6413 74.2022,57.6413 C73.7142,57.6413 73.4072,57.9063 73.4072,58.6053 L73.4072,63.8823 C73.4072,64.5803 73.7142,64.8323 74.2022,64.8323 C74.6912,64.8323 74.9982,64.5803 74.9982,63.8823 L74.9982,62.4863 L76.4502,62.4863 Z" id="Fill-12" fill="#FEFEFE"></path>
                    <path d="M78.8535,56.3569 L78.8535,63.8969 C78.8535,64.5949 79.1615,64.8459 79.6495,64.8459 C80.1375,64.8459 80.4455,64.5949 80.4455,63.8969 L80.4455,56.3569 L81.8975,56.3569 L81.8975,63.7989 C81.8975,65.3619 81.1155,66.2559 79.6075,66.2559 C78.0995,66.2559 77.3175,65.3619 77.3175,63.7989 L77.3175,56.3569 L78.8535,56.3569 Z" id="Fill-14" fill="#FEFEFE"></path>
                    <path d="M84.4824,57.7534 L84.4824,60.7544 L85.0834,60.7544 C85.6554,60.7544 86.0034,60.5034 86.0034,59.7214 L86.0034,58.7584 C86.0034,58.0604 85.7664,57.7534 85.2224,57.7534 L84.4824,57.7534 Z M86.1574,66.1304 C86.0744,65.8784 86.0174,65.7254 86.0174,64.9294 L86.0174,63.3944 C86.0174,62.4864 85.7114,62.1514 85.0124,62.1514 L84.4824,62.1514 L84.4824,66.1304 L82.9464,66.1304 L82.9464,56.3574 L85.2634,56.3574 C86.8554,56.3574 87.5404,57.0974 87.5404,58.6054 L87.5404,59.3734 C87.5404,60.3784 87.2184,61.0344 86.5344,61.3554 C87.3024,61.6764 87.5534,62.4164 87.5534,63.4354 L87.5534,64.9434 C87.5534,65.4184 87.5674,65.7674 87.7214,66.1304 L86.1574,66.1304 Z" id="Fill-16" fill="#FEFEFE"></path>
                    <polygon id="Fill-18" fill="#FEFEFE" points="89.8594 62.8911 87.9194 56.3571 89.5244 56.3571 90.6974 60.8111 91.8704 56.3571 93.3364 56.3571 91.3954 62.8911 91.3954 66.1301 89.8594 66.1301"></polygon>
                    <g id="Group-22" transform="translate(0.000000, 105.000000)">
                        <mask id="mask-2" fill="white">
                            <use xlink:href="#path-1"></use>
                        </mask>
                        <g id="Clip-21"></g>
                        <polygon id="Fill-20" fill="#231F20" mask="url(#mask-2)" points="14.6509 16.2715 14.6279 6.6115 9.8899 14.5695 8.2109 14.5695 3.4959 6.8185 3.4959 16.2715 -0.0001 16.2715 -0.0001 0.1715 3.0819 0.1715 9.1079 10.1765 15.0419 0.1715 18.1009 0.1715 18.1469 16.2715"></polygon>
                    </g>
                    <polygon id="Fill-23" fill="#231F20" points="34.4307 118.2812 34.4307 121.2712 21.9647 121.2712 21.9647 105.1722 34.1317 105.1722 34.1317 108.1612 25.6677 108.1612 25.6677 111.6572 33.1427 111.6572 33.1427 114.5552 25.6677 114.5552 25.6677 118.2812"></polygon>
                    <path d="M46.7124,108.9316 C46.1294,108.4496 45.2784,108.2066 44.1594,108.2066 L41.1234,108.2066 L41.1234,113.8196 L44.1594,113.8196 C45.2784,113.8196 46.1294,113.5746 46.7124,113.0826 C47.2954,112.5926 47.5864,111.9036 47.5864,111.0136 C47.5864,110.1096 47.2954,109.4146 46.7124,108.9316 Z M47.6554,121.2716 L44.5504,116.7856 L44.3664,116.7856 L41.1234,116.7856 L41.1234,121.2716 L37.3974,121.2716 L37.3974,105.1716 L44.3664,105.1716 C45.7924,105.1716 47.0304,105.4096 48.0804,105.8846 C49.1304,106.3606 49.9404,107.0346 50.5074,107.9086 C51.0744,108.7826 51.3584,109.8176 51.3584,111.0136 C51.3584,112.2096 51.0704,113.2416 50.4954,114.1076 C49.9204,114.9736 49.1044,115.6366 48.0464,116.0966 L51.6574,121.2716 L47.6554,121.2716 Z" id="Fill-25" fill="#231F20"></path>
                    <path d="M57.5566,120.4775 C56.2296,119.7645 55.1876,118.7765 54.4286,117.5105 C53.6696,116.2465 53.2896,114.8165 53.2896,113.2215 C53.2896,111.6265 53.6696,110.1975 54.4286,108.9315 C55.1876,107.6665 56.2296,106.6775 57.5566,105.9645 C58.8826,105.2515 60.3736,104.8955 62.0306,104.8955 C63.4256,104.8955 64.6866,105.1405 65.8136,105.6315 C66.9406,106.1225 67.8876,106.8275 68.6546,107.7475 L66.2626,109.9555 C65.1736,108.6985 63.8246,108.0695 62.2136,108.0695 C61.2176,108.0695 60.3276,108.2885 59.5456,108.7245 C58.7646,109.1625 58.1546,109.7715 57.7176,110.5535 C57.2806,111.3355 57.0616,112.2245 57.0616,113.2215 C57.0616,114.2185 57.2806,115.1075 57.7176,115.8895 C58.1546,116.6715 58.7646,117.2815 59.5456,117.7175 C60.3276,118.1555 61.2176,118.3735 62.2136,118.3735 C63.8246,118.3735 65.1736,117.7375 66.2626,116.4645 L68.6546,118.6725 C67.8876,119.6085 66.9366,120.3215 65.8026,120.8115 C64.6666,121.3015 63.4026,121.5475 62.0066,121.5475 C60.3666,121.5475 58.8826,121.1915 57.5566,120.4775" id="Fill-27" fill="#231F20"></path>
                    <path d="M72.8052,119.6387 C71.5252,118.3667 70.8852,116.5487 70.8852,114.1877 L70.8852,105.1717 L74.6112,105.1717 L74.6112,114.0497 C74.6112,116.9327 75.8062,118.3727 78.1982,118.3727 C79.3642,118.3727 80.2532,118.0247 80.8662,117.3267 C81.4792,116.6297 81.7862,115.5367 81.7862,114.0497 L81.7862,105.1717 L85.4672,105.1717 L85.4672,114.1877 C85.4672,116.5487 84.8262,118.3667 83.5472,119.6387 C82.2652,120.9107 80.4752,121.5477 78.1762,121.5477 C75.8762,121.5477 74.0852,120.9107 72.8052,119.6387" id="Fill-29" fill="#231F20"></path>
                    <path d="M98.4619,108.9316 C97.8789,108.4496 97.0279,108.2066 95.9089,108.2066 L92.8729,108.2066 L92.8729,113.8196 L95.9089,113.8196 C97.0279,113.8196 97.8789,113.5746 98.4619,113.0826 C99.0449,112.5926 99.3359,111.9036 99.3359,111.0136 C99.3359,110.1096 99.0449,109.4146 98.4619,108.9316 Z M99.4049,121.2716 L96.2999,116.7856 L96.1159,116.7856 L92.8729,116.7856 L92.8729,121.2716 L89.1479,121.2716 L89.1479,105.1716 L96.1159,105.1716 C97.5419,105.1716 98.7799,105.4096 99.8299,105.8846 C100.8809,106.3606 101.6899,107.0346 102.2569,107.9086 C102.8239,108.7826 103.1079,109.8176 103.1079,111.0136 C103.1079,112.2096 102.8199,113.2416 102.2449,114.1076 C101.6709,114.9736 100.8549,115.6366 99.7959,116.0966 L103.4069,121.2716 L99.4049,121.2716 Z" id="Fill-31" fill="#231F20"></path>
                    <polygon id="Fill-33" fill="#231F20" points="113.5498 115.5674 113.5498 121.2714 109.8238 121.2714 109.8238 115.5214 103.5908 105.1714 107.5468 105.1714 111.8478 112.3244 116.1488 105.1714 119.8058 105.1714"></polygon>
                    <path d="M127.8672,111.8066 C128.3812,111.3546 128.6382,110.7766 128.6382,110.0706 C128.6382,109.3656 128.3882,108.7896 127.8902,108.3456 C127.3912,107.9016 126.7062,107.6786 125.8322,107.6786 C125.0342,107.6786 124.3872,107.8936 123.8882,108.3226 C123.3892,108.7516 123.1402,109.3346 123.1402,110.0706 C123.1402,110.8066 123.3892,111.3926 123.8882,111.8296 C124.3872,112.2666 125.0502,112.4856 125.8782,112.4856 C126.6902,112.4856 127.3532,112.2596 127.8672,111.8066 M130.8912,106.9536 C132.1642,108.3266 132.8012,110.3006 132.8012,112.8766 C132.8012,114.7016 132.4592,116.2656 131.7772,117.5686 C131.0952,118.8716 130.1332,119.8616 128.8902,120.5356 C127.6482,121.2096 126.2152,121.5476 124.5902,121.5476 C123.7312,121.5476 122.9112,121.4516 122.1292,121.2596 C121.3462,121.0686 120.6802,120.7966 120.1282,120.4436 L121.5082,117.7056 C122.2902,118.2436 123.2942,118.5116 124.5202,118.5116 C125.8862,118.5116 126.9672,118.1096 127.7632,117.3036 C128.5602,116.4986 128.9902,115.3376 129.0522,113.8196 C128.0862,114.7856 126.7522,115.2686 125.0502,115.2686 C124.0222,115.2686 123.0872,115.0616 122.2442,114.6476 C121.4002,114.2336 120.7332,113.6476 120.2432,112.8876 C119.7522,112.1286 119.5072,111.2506 119.5072,110.2546 C119.5072,109.1816 119.7752,108.2386 120.3112,107.4256 C120.8482,106.6136 121.5802,105.9886 122.5092,105.5506 C123.4352,105.1146 124.4672,104.8956 125.6012,104.8956 C127.8552,104.8956 129.6192,105.5816 130.8912,106.9536" id="Fill-35" fill="#231F20"></path>
                    <g id="Group-39" transform="translate(134.000000, 104.000000)">
                        <mask id="mask-4" fill="white">
                            <use xlink:href="#path-3"></use>
                        </mask>
                        <g id="Clip-38"></g>
                        <path d="M8.5176,7.8066 C9.0316,7.3546 9.2886,6.7766 9.2886,6.0706 C9.2886,5.3656 9.0386,4.7896 8.5406,4.3456 C8.0416,3.9016 7.3566,3.6786 6.4826,3.6786 C5.6846,3.6786 5.0376,3.8936 4.5386,4.3226 C4.0396,4.7516 3.7906,5.3346 3.7906,6.0706 C3.7906,6.8066 4.0396,7.3926 4.5386,7.8296 C5.0376,8.2666 5.7006,8.4856 6.5286,8.4856 C7.3406,8.4856 8.0036,8.2596 8.5176,7.8066 M11.5416,2.9536 C12.8146,4.3266 13.4516,6.3006 13.4516,8.8766 C13.4516,10.7016 13.1096,12.2656 12.4276,13.5686 C11.7456,14.8716 10.7836,15.8616 9.5406,16.5356 C8.2986,17.2096 6.8656,17.5476 5.2406,17.5476 C4.3816,17.5476 3.5616,17.4516 2.7796,17.2596 C1.9966,17.0686 1.3306,16.7966 0.7786,16.4436 L2.1586,13.7056 C2.9406,14.2436 3.9446,14.5116 5.1706,14.5116 C6.5366,14.5116 7.6176,14.1096 8.4136,13.3036 C9.2106,12.4986 9.6406,11.3376 9.7026,9.8196 C8.7366,10.7856 7.4026,11.2686 5.7006,11.2686 C4.6726,11.2686 3.7376,11.0616 2.8946,10.6476 C2.0506,10.2336 1.3836,9.6476 0.8936,8.8876 C0.4026,8.1286 0.1576,7.2506 0.1576,6.2546 C0.1576,5.1816 0.4256,4.2386 0.9616,3.4256 C1.4986,2.6136 2.2306,1.9886 3.1596,1.5506 C4.0856,1.1146 5.1176,0.8956 6.2516,0.8956 C8.5056,0.8956 10.2696,1.5816 11.5416,2.9536" id="Fill-37" fill="#231F20" mask="url(#mask-4)"></path>
                    </g>
                    <path d="M15.6313,137.2949 C15.8693,137.1419 15.9883,136.9029 15.9883,136.5799 C15.9883,135.9419 15.5153,135.6229 14.5693,135.6229 L12.4903,135.6229 L12.4903,137.5259 L14.5693,137.5259 C15.0393,137.5259 15.3923,137.4489 15.6313,137.2949 Z M12.4903,132.5099 L12.4903,134.3249 L14.2613,134.3249 C14.7013,134.3249 15.0353,134.2479 15.2623,134.0939 C15.4893,133.9409 15.6033,133.7129 15.6033,133.4119 C15.6033,133.1109 15.4893,132.8859 15.2623,132.7349 C15.0353,132.5849 14.7013,132.5099 14.2613,132.5099 L12.4903,132.5099 Z M17.4073,135.5629 C17.6563,135.8889 17.7813,136.2909 17.7813,136.7679 C17.7813,137.4419 17.5193,137.9609 16.9953,138.3229 C16.4703,138.6869 15.7063,138.8679 14.7013,138.8679 L10.7193,138.8679 L10.7193,131.1679 L14.4813,131.1679 C15.4203,131.1679 16.1403,131.3479 16.6433,131.7069 C17.1453,132.0659 17.3963,132.5539 17.3963,133.1699 C17.3963,133.5439 17.3063,133.8779 17.1273,134.1709 C16.9473,134.4649 16.6963,134.6949 16.3733,134.8639 C16.8133,135.0039 17.1583,135.2359 17.4073,135.5629 Z" id="Fill-40" fill="#8D8D8C"></path>
                    <path d="M19.9873,138.0869 C19.3753,137.4789 19.0693,136.6089 19.0693,135.4809 L19.0693,131.1679 L20.8503,131.1679 L20.8503,135.4139 C20.8503,136.7929 21.4233,137.4829 22.5673,137.4829 C23.1243,137.4829 23.5493,137.3159 23.8423,136.9819 C24.1353,136.6489 24.2823,136.1259 24.2823,135.4139 L24.2823,131.1679 L26.0423,131.1679 L26.0423,135.4809 C26.0423,136.6089 25.7363,137.4789 25.1243,138.0869 C24.5113,138.6959 23.6553,138.9999 22.5553,138.9999 C21.4553,138.9999 20.5993,138.6959 19.9873,138.0869" id="Fill-42" fill="#8D8D8C"></path>
                    <mask id="mask-6" fill="white">
                        <use xlink:href="#path-5"></use>
                    </mask>
                    <g id="Clip-45"></g>
                    <polygon id="Fill-44" fill="#8D8D8C" mask="url(#mask-6)" points="27.803 138.868 29.585 138.868 29.585 131.168 27.803 131.168"></polygon>
                    <polygon id="Fill-46" fill="#8D8D8C" mask="url(#mask-6)" points="31.4106 131.168 33.1926 131.168 33.1926 137.416 37.0536 137.416 37.0536 138.868 31.4106 138.868"></polygon>
                    <path d="M41.4644,137.4053 C42.2344,137.4053 42.8484,137.1903 43.3064,136.7613 C43.7644,136.3333 43.9944,135.7523 43.9944,135.0183 C43.9944,134.2853 43.7644,133.7043 43.3064,133.2743 C42.8484,132.8453 42.2344,132.6313 41.4644,132.6313 L39.8364,132.6313 L39.8364,137.4053 L41.4644,137.4053 Z M38.0544,131.1683 L41.5524,131.1683 C42.3884,131.1683 43.1274,131.3283 43.7684,131.6463 C44.4104,131.9663 44.9084,132.4153 45.2644,132.9943 C45.6204,133.5733 45.7984,134.2483 45.7984,135.0183 C45.7984,135.7883 45.6204,136.4633 45.2644,137.0423 C44.9084,137.6213 44.4104,138.0703 43.7684,138.3893 C43.1274,138.7093 42.3884,138.8683 41.5524,138.8683 L38.0544,138.8683 L38.0544,131.1683 Z" id="Fill-47" fill="#8D8D8C" mask="url(#mask-6)"></path>
                    <polygon id="Fill-48" fill="#8D8D8C" mask="url(#mask-6)" points="47.14 138.868 48.922 138.868 48.922 131.168 47.14 131.168"></polygon>
                    <polygon id="Fill-49" fill="#8D8D8C" mask="url(#mask-6)" points="57.8101 131.168 57.8101 138.868 56.3471 138.868 52.5081 134.193 52.5081 138.868 50.7481 138.868 50.7481 131.168 52.2221 131.168 56.0501 135.843 56.0501 131.168"></polygon>
                    <path d="M64.8394,134.8975 L66.4674,134.8975 L66.4674,138.0215 C66.0494,138.3365 65.5654,138.5785 65.0154,138.7475 C64.4654,138.9165 63.9114,139.0005 63.3544,139.0005 C62.5544,139.0005 61.8364,138.8305 61.1984,138.4885 C60.5604,138.1475 60.0594,137.6745 59.6964,137.0695 C59.3334,136.4645 59.1524,135.7815 59.1524,135.0185 C59.1524,134.2555 59.3334,133.5715 59.6964,132.9665 C60.0594,132.3615 60.5644,131.8885 61.2094,131.5475 C61.8544,131.2075 62.5804,131.0365 63.3874,131.0365 C64.0614,131.0365 64.6744,131.1505 65.2244,131.3765 C65.7744,131.6045 66.2364,131.9345 66.6104,132.3675 L65.4664,133.4225 C64.9164,132.8435 64.2524,132.5535 63.4754,132.5535 C62.9844,132.5535 62.5474,132.6575 62.1664,132.8625 C61.7844,133.0675 61.4874,133.3575 61.2754,133.7315 C61.0624,134.1055 60.9564,134.5345 60.9564,135.0185 C60.9564,135.4955 61.0624,135.9195 61.2754,136.2935 C61.4874,136.6685 61.7824,136.9605 62.1604,137.1685 C62.5384,137.3775 62.9694,137.4825 63.4534,137.4825 C63.9664,137.4825 64.4284,137.3725 64.8394,137.1525 L64.8394,134.8975 Z" id="Fill-50" fill="#8D8D8C" mask="url(#mask-6)"></path>
                    <path d="M72.7866,138.4883 C72.1516,138.1473 71.6536,137.6753 71.2906,137.0693 C70.9276,136.4653 70.7456,135.7813 70.7456,135.0183 C70.7456,134.2563 70.9276,133.5713 71.2906,132.9673 C71.6536,132.3613 72.1516,131.8883 72.7866,131.5483 C73.4206,131.2073 74.1336,131.0363 74.9256,131.0363 C75.5926,131.0363 76.1966,131.1533 76.7356,131.3873 C77.2746,131.6233 77.7276,131.9603 78.0936,132.4003 L76.9506,133.4563 C76.4286,132.8543 75.7846,132.5533 75.0136,132.5533 C74.5366,132.5533 74.1116,132.6583 73.7376,132.8673 C73.3636,133.0773 73.0726,133.3683 72.8636,133.7423 C72.6546,134.1163 72.5496,134.5423 72.5496,135.0183 C72.5496,135.4953 72.6546,135.9203 72.8636,136.2943 C73.0726,136.6683 73.3636,136.9603 73.7376,137.1693 C74.1116,137.3783 74.5366,137.4823 75.0136,137.4823 C75.7846,137.4823 76.4286,137.1773 76.9506,136.5693 L78.0936,137.6253 C77.7276,138.0723 77.2726,138.4133 76.7296,138.6483 C76.1866,138.8833 75.5816,139.0003 74.9146,139.0003 C74.1296,139.0003 73.4206,138.8303 72.7866,138.4883" id="Fill-51" fill="#8D8D8C" mask="url(#mask-6)"></path>
                    <path d="M84.0889,137.1689 C84.4549,136.9599 84.7429,136.6679 84.9519,136.2939 C85.1609,135.9199 85.2659,135.4949 85.2659,135.0189 C85.2659,134.5419 85.1609,134.1159 84.9519,133.7419 C84.7429,133.3679 84.4549,133.0769 84.0889,132.8669 C83.7219,132.6579 83.3119,132.5539 82.8569,132.5539 C82.4019,132.5539 81.9909,132.6579 81.6249,132.8669 C81.2589,133.0769 80.9699,133.3679 80.7609,133.7419 C80.5519,134.1159 80.4479,134.5419 80.4479,135.0189 C80.4479,135.4949 80.5519,135.9199 80.7609,136.2939 C80.9699,136.6679 81.2589,136.9599 81.6249,137.1689 C81.9909,137.3779 82.4019,137.4819 82.8569,137.4819 C83.3119,137.4819 83.7219,137.3779 84.0889,137.1689 M80.6949,138.4829 C80.0539,138.1389 79.5519,137.6639 79.1889,137.0589 C78.8249,136.4539 78.6439,135.7729 78.6439,135.0189 C78.6439,134.2629 78.8249,133.5829 79.1889,132.9779 C79.5519,132.3729 80.0539,131.8979 80.6949,131.5529 C81.3369,131.2089 82.0579,131.0359 82.8569,131.0359 C83.6559,131.0359 84.3749,131.2089 85.0129,131.5529 C85.6509,131.8979 86.1519,132.3729 86.5199,132.9779 C86.8859,133.5829 87.0689,134.2629 87.0689,135.0189 C87.0689,135.7729 86.8859,136.4539 86.5199,137.0589 C86.1519,137.6639 85.6509,138.1389 85.0129,138.4829 C84.3749,138.8279 83.6559,138.9999 82.8569,138.9999 C82.0579,138.9999 81.3369,138.8279 80.6949,138.4829" id="Fill-52" fill="#8D8D8C" mask="url(#mask-6)"></path>
                    <polygon id="Fill-53" fill="#8D8D8C" mask="url(#mask-6)" points="95.418 138.8682 95.407 134.2482 93.142 138.0542 92.338 138.0542 90.083 134.3472 90.083 138.8682 88.411 138.8682 88.411 131.1682 89.886 131.1682 92.768 135.9532 95.605 131.1682 97.068 131.1682 97.09 138.8682"></polygon>
                    <path d="M103.3711,134.9463 C103.6491,134.7163 103.7891,134.3873 103.7891,133.9623 C103.7891,133.5293 103.6491,133.1973 103.3711,132.9673 C103.0931,132.7353 102.6851,132.6203 102.1501,132.6203 L100.6981,132.6203 L100.6981,135.2933 L102.1501,135.2933 C102.6851,135.2933 103.0931,135.1773 103.3711,134.9463 M104.0251,131.5083 C104.5281,131.7363 104.9151,132.0593 105.1861,132.4773 C105.4571,132.8953 105.5931,133.3903 105.5931,133.9623 C105.5931,134.5273 105.4571,135.0203 105.1861,135.4413 C104.9151,135.8633 104.5281,136.1863 104.0251,136.4093 C103.5231,136.6333 102.9321,136.7453 102.2491,136.7453 L100.6981,136.7453 L100.6981,138.8683 L98.9161,138.8683 L98.9161,131.1683 L102.2491,131.1683 C102.9321,131.1683 103.5231,131.2823 104.0251,131.5083" id="Fill-54" fill="#8D8D8C" mask="url(#mask-6)"></path>
                    <path d="M110.9834,135.8652 L109.7624,132.9172 L108.5414,135.8652 L110.9834,135.8652 Z M111.5444,137.2182 L107.9694,137.2182 L107.2874,138.8682 L105.4614,138.8682 L108.8934,131.1682 L110.6534,131.1682 L114.0964,138.8682 L112.2264,138.8682 L111.5444,137.2182 Z" id="Fill-55" fill="#8D8D8C" mask="url(#mask-6)"></path>
                    <polygon id="Fill-56" fill="#8D8D8C" mask="url(#mask-6)" points="121.9609 131.168 121.9609 138.868 120.4979 138.868 116.6589 134.193 116.6589 138.868 114.8989 138.868 114.8989 131.168 116.3729 131.168 120.2009 135.843 120.2009 131.168"></polygon>
                    <polygon id="Fill-57" fill="#8D8D8C" mask="url(#mask-6)" points="127.4834 136.1406 127.4834 138.8686 125.7014 138.8686 125.7014 136.1186 122.7194 131.1676 124.6124 131.1676 126.6694 134.5886 128.7254 131.1676 130.4744 131.1676"></polygon>
                </g>
            </g>
        </g>
    </g>
</svg>