<svg xmlns="http://www.w3.org/2000/svg" xmlns:xlink="http://www.w3.org/1999/xlink" width="57" height="67" viewBox="0 0 57 67"><defs><path id="ooz3a" d="M645.65 3072.32l24.02 41.83.44.77H578.4l.45-.77L612.8 3056l.15-.26h23.18l.15.26 10.15 17.63"/><path id="ooz3b" d="M614.08 3057.72h20.9l8.97 15.57-.01.01 22.77 39.66h-84.9zm-2.26-3.93l-34.69 59.38-2.13 3.73 98.51-.01-25.4-44.21.02-.01-10.86-18.88z"/><path id="ooz3c" d="M636.17 3087.95h-6.07c.63-1.44 2.94-7.02 4.34-10.02 1.5-3.23-3.3-4.03-3.33-1.17 0 1.1 1.05 1.9 2.2 1.71l-2.6 5.57c-3.41-1.5-5.23-3.56-5.23-7.41 0-2.14.73-3.94 2.18-5.4a7.22 7.22 0 0 1 5.35-2.21c2 0 3.74.74 5.23 2.21a7.05 7.05 0 0 1 2.24 5.16c0 .92-.2 2.41-1.05 4.3z"/><path id="ooz3d" d="M620.59 3087.78h-6.07c.63-1.44 2.94-7.01 4.34-10.02 1.5-3.23-3.3-4.03-3.33-1.17 0 1.1 1.05 1.9 2.2 1.71l-2.6 5.57c-3.4-1.5-5.23-3.56-5.23-7.41 0-2.14.73-3.94 2.18-5.4a7.23 7.23 0 0 1 5.35-2.21c2 0 3.74.74 5.23 2.21a7.04 7.04 0 0 1 2.24 5.16c0 .92-.2 2.41-1.05 4.3z"/><path id="ooz3e" d="M612.68 3096.6l.82-5.4h1.66v7.6h-1.13v-5.45l-.83 5.45h-1.13l-.89-5.37v5.37h-1.04v-7.6h1.66z"/><path id="ooz3f" d="M617.22 3094.4h1.64v1.1h-1.64v2.22h2.06v1.08h-3.26v-7.6h3.26v1.09h-2.06z"/><path id="ooz3g" d="M622.52 3098.8c-.07-.2-.11-.31-.11-.93v-1.2c0-.7-.24-.96-.78-.96h-.41v3.1h-1.2v-7.61h1.8c1.24 0 1.77.58 1.77 1.75v.6c0 .78-.25 1.29-.78 1.54.6.25.8.82.8 1.62v1.17c0 .37 0 .64.13.92zm-1.3-6.51v2.32h.46c.45 0 .72-.2.72-.8v-.74c0-.55-.18-.78-.6-.78z"/><path id="ooz3h" d="M627.84 3095.96v1.02c0 1.21-.6 1.9-1.78 1.9-1.17 0-1.78-.69-1.78-1.9v-3.96c0-1.21.6-1.91 1.78-1.91 1.17 0 1.78.7 1.78 1.91v.74h-1.13v-.81c0-.55-.24-.75-.62-.75s-.62.2-.62.75v4.1c0 .54.24.74.62.74s.62-.2.62-.74v-1.09z"/><path id="ooz3i" d="M629.72 3091.2v5.87c0 .54.23.73.61.73s.62-.2.62-.73v-5.87h1.13v5.79c0 1.22-.6 1.91-1.78 1.91-1.17 0-1.78-.7-1.78-1.91v-5.79z"/><path id="ooz3j" d="M635.39 3098.8c-.07-.2-.11-.31-.11-.93v-1.2c0-.7-.24-.96-.78-.96h-.41v3.1h-1.2v-7.61h1.8c1.24 0 1.77.58 1.77 1.75v.6c0 .78-.25 1.29-.78 1.54.6.25.8.82.8 1.62v1.17c0 .37 0 .64.13.92zm-1.3-6.51v2.32h.46c.45 0 .72-.2.72-.8v-.74c0-.55-.19-.78-.6-.78z"/><path id="ooz3k" d="M638.27 3096.28l-1.51-5.08h1.25l.91 3.46.91-3.46h1.14l-1.5 5.08v2.52h-1.2z"/><path id="ooz3l" d="M645 3060.14h-.19 9.5v26.78"/><path id="ooz3m" d="M656.27 3086.91h-3.93v-24.81h-7.53v-3.93h11.46z"/><path id="ooz3n" d="M643.04 3070.89h3.93v-12.68h-3.93z"/><path id="ooz3o" d="M644.61 3079.54h3.93v-12.68h-3.93z"/><path id="ooz3p" d="M647.76 3081.1h3.93v-12.67h-3.93z"/><path id="ooz3q" d="M646.19 3077.96h3.93v-12.68h-3.93z"/><path id="ooz3r" d="M624.51 3053.61l2.45 6.04 2.44-6.04"/><path id="ooz3s" d="M609.75 3119.46l-4.95-12.21-4.94 12.2"/><path id="ooz3t" d="M649.75 3119.46l-4.95-12.21-4.94 12.2"/></defs><g><g transform="translate(-600 -3053)"><g><g><g fill="#fff" font-family="'Montserrat','Montserrat-Bold'" font-size="15" style="text-transform:uppercase"><text dominant-baseline="text-before-edge" font-family="Helvetica, Arial, sans-serif" transform="translate(574 3124)"><tspan>MERCURY99</tspan></text></g></g><g><g fill="#fff" font-family="'Montserrat','Montserrat-Bold'" font-size="8" style="text-transform:uppercase"><text dominant-baseline="text-before-edge" font-family="Helvetica, Arial, sans-serif" transform="translate(579 3142)"><tspan>Building company</tspan></text></g></g></g><g><g><use fill="#fa6a02" xlink:href="#ooz3a"/></g><g><use fill="#fa6a02" xlink:href="#ooz3b"/></g><g><g><use fill="#fefefe" xlink:href="#ooz3c"/></g><g><use fill="#fefefe" xlink:href="#ooz3d"/></g><g><use fill="#fefefe" xlink:href="#ooz3e"/></g><g><use fill="#fefefe" xlink:href="#ooz3f"/></g><g><use fill="#fefefe" xlink:href="#ooz3g"/></g><g><use fill="#fefefe" xlink:href="#ooz3h"/></g><g><use fill="#fefefe" xlink:href="#ooz3i"/></g><g><use fill="#fefefe" xlink:href="#ooz3j"/></g><g><use fill="#fefefe" xlink:href="#ooz3k"/></g><g><use fill="#fa6a02" xlink:href="#ooz3l"/></g><g><use fill="#fa6a02" xlink:href="#ooz3m"/></g><g><use fill="#fa6a02" xlink:href="#ooz3n"/></g><g><use fill="#fa6a02" xlink:href="#ooz3o"/></g><g><use fill="#fa6a02" xlink:href="#ooz3p"/></g><g><use fill="#fa6a02" xlink:href="#ooz3q"/></g><g><use fill="#232323" xlink:href="#ooz3r"/></g><g><use fill="#232323" xlink:href="#ooz3s"/></g><g><use fill="#232323" xlink:href="#ooz3t"/></g></g></g></g></g></svg>