<svg xmlns="http://www.w3.org/2000/svg" xmlns:xlink="http://www.w3.org/1999/xlink" width="99" height="98" viewBox="0 0 99 98"><defs><path id="tk23b" d="M85.68 34.67h20.7l8.88 15.42h-.01l22.55 39.26H53.74zm-2.23-3.89L49.11 89.56 47 93.25h93.27l4.25-.01-25.14-43.76.01-.01-10.75-18.69z"/><path id="tk23c" d="M107.55 64.6h-6c.62-1.43 2.9-6.95 4.29-9.92 1.5-3.2-3.27-3.99-3.3-1.15 0 1.08 1.04 1.87 2.18 1.69l-2.57 5.5c-3.38-1.48-5.18-3.52-5.18-7.33 0-2.11.72-3.9 2.16-5.35a7.15 7.15 0 0 1 5.3-2.18c1.97 0 3.7.73 5.17 2.19a6.97 6.97 0 0 1 2.22 5.1c0 .92-.2 2.4-1.04 4.26z"/><path id="tk23d" d="M92.12 64.43h-6c.62-1.43 2.9-6.95 4.29-9.92 1.5-3.2-3.27-3.99-3.3-1.15 0 1.08 1.04 1.87 2.18 1.69l-2.57 5.51c-3.38-1.49-5.18-3.53-5.18-7.34 0-2.11.72-3.9 2.16-5.35a7.15 7.15 0 0 1 5.3-2.18c1.97 0 3.7.73 5.17 2.19a6.97 6.97 0 0 1 2.22 5.1c0 .92-.2 2.4-1.04 4.26z"/><path id="tk23e" d="M84.3 73.15l.8-5.34h1.65v7.53h-1.12v-5.4l-.82 5.4H83.7L82.81 70v5.33h-1.03V67.8h1.64z"/><path id="tk23f" d="M88.8 70.98h1.62v1.08h-1.63v2.2h2.05v1.08H87.6V67.8h3.23v1.08h-2.05z"/><path id="tk23g" d="M94.03 75.35c-.06-.2-.1-.32-.1-.93v-1.18c0-.7-.24-.96-.78-.96h-.4v3.07h-1.19v-7.53h1.78c1.23 0 1.76.57 1.76 1.73v.6c0 .77-.25 1.27-.78 1.52.6.25.79.82.79 1.6v1.16c0 .37.01.64.13.92zm-1.29-6.46v2.33h.47c.44 0 .72-.2.72-.8v-.75c0-.54-.19-.78-.61-.78z"/><path id="tk23h" d="M99.32 72.54v1c0 1.2-.6 1.89-1.77 1.89-1.16 0-1.76-.69-1.76-1.9v-3.9c0-1.21.6-1.9 1.76-1.9 1.16 0 1.77.69 1.77 1.9v.72H98.2v-.8c0-.54-.24-.75-.61-.75-.38 0-.62.2-.62.75v4.06c0 .54.24.73.62.73.37 0 .6-.2.6-.73v-1.07z"/><path id="tk23i" d="M101.16 67.82v5.8c0 .54.24.74.62.74.37 0 .6-.2.6-.73v-5.81h1.13v5.73c0 1.2-.6 1.9-1.77 1.9-1.16 0-1.76-.7-1.76-1.9v-5.73z"/><path id="tk23j" d="M106.78 75.35c-.06-.2-.1-.32-.1-.93v-1.18c0-.7-.24-.96-.78-.96h-.4v3.07h-1.19v-7.53h1.78c1.23 0 1.76.57 1.76 1.73v.6c0 .77-.25 1.27-.78 1.52.6.25.79.82.79 1.6v1.16c0 .37.01.64.13.92zm-1.29-6.46v2.33h.47c.44 0 .72-.2.72-.8v-.75c0-.54-.19-.78-.61-.78z"/><path id="tk23k" d="M109.62 72.85l-1.49-5.03h1.24l.9 3.43.9-3.43h1.13l-1.5 5.03v2.5h-1.18z"/><path id="tk23l" d="M127.45 63.57h-3.89V39.01h-7.45v-3.89h11.34z"/><path id="tk23a" d="M47 93.25h97.52V30.78H47z"/><path id="tk23n" d="M114.36 47.7h3.89V35.17h-3.89z"/><path id="tk23o" d="M109.62 92.68H83.6l-2.42-5.97-1.93 4.75-3.6-1.46 5.53-13.65 5.04 12.44h20.83l5.27-12.44 5.3 13.68-3.62 1.4-1.84-4.73z"/><path id="tk23p" d="M96.98 48.2l-5.53-13.65 3.6-1.46 1.93 4.76 1.93-4.76 3.6 1.46z"/><clipPath id="tk23m"><use xlink:href="#tk23a"/></clipPath></defs><g><g transform="translate(-46 -30)"><g><g><g fill="#fff" font-family="'Montserrat','Montserrat-Bold'" font-size="15" style="text-transform:uppercase"><text dominant-baseline="text-before-edge" font-family="Helvetica, Arial, sans-serif" transform="translate(45 103)"><tspan>MERCURY99</tspan></text></g></g><g><g fill="#fff" font-family="'Montserrat','Montserrat-Bold'" font-size="8" style="text-transform:uppercase"><text dominant-baseline="text-before-edge" font-family="Helvetica, Arial, sans-serif" transform="translate(50 121)"><tspan>Building company</tspan></text></g></g></g><g><g><use fill="#fff" xlink:href="#tk23b"/></g><g><g><use fill="#fff" xlink:href="#tk23c"/></g><g><use fill="#fff" xlink:href="#tk23d"/></g><g><use fill="#fff" xlink:href="#tk23e"/></g><g><use fill="#fff" xlink:href="#tk23f"/></g><g><use fill="#fff" xlink:href="#tk23g"/></g><g><use fill="#fff" xlink:href="#tk23h"/></g><g><use fill="#fff" xlink:href="#tk23i"/></g><g><use fill="#fff" xlink:href="#tk23j"/></g><g><use fill="#fff" xlink:href="#tk23k"/></g><g><use fill="#fff" xlink:href="#tk23l"/></g><g/><g clip-path="url(#tk23m)"><use fill="#fff" xlink:href="#tk23n"/></g><g clip-path="url(#tk23m)"><use fill="#fff" xlink:href="#tk23o"/></g><g clip-path="url(#tk23m)"><use fill="#fff" xlink:href="#tk23p"/></g></g></g></g></g></svg>