<?xml version="1.0" encoding="UTF-8"?>
<svg width="148px" height="141px" viewBox="0 0 148 141" version="1.1" xmlns="http://www.w3.org/2000/svg" xmlns:xlink="http://www.w3.org/1999/xlink">
    <!-- Generator: Sketch 51.3 (57544) - http://www.bohemiancoding.com/sketch -->
    <title>Group 59</title>
    <desc>Created with Sketch.</desc>
    <defs>
        <polygon id="path-1" points="0 0.1715 18.1469 0.1715 18.1469 16.2715 0 16.2715"></polygon>
        <polygon id="path-3" points="0.1576 0.8956 13.451 0.8956 13.451 17.5476 0.1576 17.5476"></polygon>
        <polygon id="path-5" points="0 141 147.451 141 147.451 0.895 0 0.895"></polygon>
    </defs>
    <g id="Photos" stroke="none" stroke-width="1" fill="none" fill-rule="evenodd">
        <g id="Desktop-HD" transform="translate(-15.000000, -16.000000)">
            <g id="Group-59" transform="translate(15.000000, 15.000000)">
                <path d="M76.0041,0.9993 L72.4661,7.1273 L68.9281,0.9993 L53.2481,0.9993 L5.2271,83.2023 L0.5821,91.2913 L40.8971,91.2883 L46.3401,81.8593 L51.7831,91.2873 L91.6961,91.2843 L96.9121,82.2483 L102.1291,91.2833 L142.2001,91.2813 L117.1701,47.7033 L117.1701,7.0003 L99.5011,7.0003 L97.5001,7.0533 L96.1581,7.0533 L96.1581,11.0993 L90.3451,0.9993 L76.0041,0.9993 Z M78.3131,5.0003 L88.0331,5.0003 L100.1581,26.0683 L100.1581,11.0363 L113.1691,11.0003 L113.1691,48.7693 L135.2901,87.2803 L104.4381,87.2843 L96.9121,74.2483 L89.3851,87.2853 L54.0931,87.2873 L46.3401,73.8593 L38.5861,87.2883 L7.4921,87.2913 L8.6881,85.2073 L55.5441,5.0003 L66.6191,5.0003 L72.4661,15.1273 L78.3131,5.0003 Z" id="Fill-1" fill="#FEFEFE"></path>
                <g id="Group-58" transform="translate(0.000000, 0.105000)">
                    <path d="M89.1621,51.7861 L80.2811,51.7851 C81.2071,49.6701 84.5841,41.5121 86.6331,37.1161 C88.8411,32.3791 81.7971,31.2141 81.7621,35.4051 C81.7481,37.0151 83.2961,38.1771 84.9721,37.9071 L81.1761,46.0571 C76.1821,43.8591 73.5171,40.8421 73.5171,35.2021 C73.5171,32.0821 74.5821,29.4401 76.7121,27.2901 C78.8411,25.1401 81.4451,24.0691 84.5381,24.0691 C87.4591,24.0691 90.0131,25.1471 92.1991,27.3051 C94.3791,29.4621 95.4731,31.9811 95.4731,34.8621 C95.4731,36.2081 95.1711,38.3861 93.9331,41.1451 L89.1621,51.7861 Z" id="Fill-2" fill="#FEFEFE"></path>
                    <path d="M66.3535,51.5381 L57.4725,51.5381 C58.3975,49.4221 61.7755,41.2641 63.8245,36.8681 C66.0325,32.1311 58.9885,30.9671 58.9525,35.1581 C58.9385,36.7671 60.4875,37.9301 62.1635,37.6601 L58.3675,45.8101 C53.3735,43.6111 50.7085,40.5951 50.7085,34.9551 C50.7085,31.8351 51.7735,29.1921 53.9025,27.0431 C56.0325,24.8921 58.6365,23.8211 61.7295,23.8211 C64.6495,23.8211 67.2035,24.9001 69.3905,27.0581 C71.5705,29.2151 72.6645,31.7331 72.6645,34.6141 C72.6645,35.9611 72.3615,38.1391 71.1245,40.8971 L66.3535,51.5381 Z" id="Fill-4" fill="#FEFEFE"></path>
                    <polygon id="Fill-6" fill="#FEFEFE" points="56.939 65.2959 57.986 58.3569 60.122 58.3569 60.122 68.1299 58.67 68.1299 58.67 61.1209 57.609 68.1299 56.157 68.1299 55.012 61.2189 55.012 68.1299 53.672 68.1299 53.672 58.3569 55.808 58.3569"></polygon>
                    <polygon id="Fill-8" fill="#FEFEFE" points="62.7778 62.4756 64.8858 62.4756 64.8858 63.8716 62.7778 63.8716 62.7778 66.7346 65.4308 66.7346 65.4308 68.1296 61.2418 68.1296 61.2418 58.3566 65.4308 58.3566 65.4308 59.7526 62.7778 59.7526"></polygon>
                    <path d="M67.9175,59.7529 L67.9175,62.7549 L68.5185,62.7549 C69.0905,62.7549 69.4395,62.5039 69.4395,61.7219 L69.4395,60.7579 C69.4395,60.0609 69.2025,59.7529 68.6575,59.7529 L67.9175,59.7529 Z M69.5925,68.1299 C69.5095,67.8789 69.4535,67.7259 69.4535,66.9299 L69.4535,65.3939 C69.4535,64.4859 69.1465,64.1509 68.4485,64.1509 L67.9175,64.1509 L67.9175,68.1299 L66.3815,68.1299 L66.3815,58.3569 L68.6995,58.3569 C70.2915,58.3569 70.9755,59.0969 70.9755,60.6049 L70.9755,61.3729 C70.9755,62.3779 70.6535,63.0339 69.9695,63.3559 C70.7375,63.6769 70.9895,64.4159 70.9895,65.4359 L70.9895,66.9429 C70.9895,67.4179 71.0025,67.7679 71.1565,68.1299 L69.5925,68.1299 Z" id="Fill-10" fill="#FEFEFE"></path>
                    <path d="M76.4502,64.4863 L76.4502,65.7843 C76.4502,67.3483 75.6692,68.2423 74.1612,68.2423 C72.6532,68.2423 71.8702,67.3483 71.8702,65.7843 L71.8702,60.7023 C71.8702,59.1383 72.6532,58.2453 74.1612,58.2453 C75.6692,58.2453 76.4502,59.1383 76.4502,60.7023 L76.4502,61.6513 L74.9982,61.6513 L74.9982,60.6043 C74.9982,59.9063 74.6912,59.6413 74.2032,59.6413 C73.7142,59.6413 73.4072,59.9063 73.4072,60.6043 L73.4072,65.8823 C73.4072,66.5803 73.7142,66.8323 74.2032,66.8323 C74.6912,66.8323 74.9982,66.5803 74.9982,65.8823 L74.9982,64.4863 L76.4502,64.4863 Z" id="Fill-12" fill="#FEFEFE"></path>
                    <path d="M78.8535,58.3564 L78.8535,65.8964 C78.8535,66.5944 79.1615,66.8454 79.6495,66.8454 C80.1385,66.8454 80.4455,66.5944 80.4455,65.8964 L80.4455,58.3564 L81.8975,58.3564 L81.8975,65.7984 C81.8975,67.3624 81.1155,68.2554 79.6075,68.2554 C78.0995,68.2554 77.3185,67.3624 77.3185,65.7984 L77.3185,58.3564 L78.8535,58.3564 Z" id="Fill-14" fill="#FEFEFE"></path>
                    <path d="M84.4824,59.7529 L84.4824,62.7549 L85.0834,62.7549 C85.6554,62.7549 86.0034,62.5039 86.0034,61.7219 L86.0034,60.7579 C86.0034,60.0609 85.7664,59.7529 85.2224,59.7529 L84.4824,59.7529 Z M86.1574,68.1299 C86.0744,67.8789 86.0174,67.7259 86.0174,66.9299 L86.0174,65.3939 C86.0174,64.4859 85.7114,64.1509 85.0124,64.1509 L84.4824,64.1509 L84.4824,68.1299 L82.9464,68.1299 L82.9464,58.3569 L85.2634,58.3569 C86.8554,58.3569 87.5404,59.0969 87.5404,60.6049 L87.5404,61.3729 C87.5404,62.3779 87.2184,63.0339 86.5344,63.3559 C87.3024,63.6769 87.5534,64.4159 87.5534,65.4359 L87.5534,66.9429 C87.5534,67.4179 87.5674,67.7679 87.7214,68.1299 L86.1574,68.1299 Z" id="Fill-16" fill="#FEFEFE"></path>
                    <polygon id="Fill-18" fill="#FEFEFE" points="89.8594 64.8906 87.9194 58.3566 89.5244 58.3566 90.6974 62.8106 91.8704 58.3566 93.3364 58.3566 91.3954 64.8906 91.3954 68.1296 89.8594 68.1296"></polygon>
                    <g id="Group-22" transform="translate(0.000000, 107.000000)">
                        <mask id="mask-2" fill="white">
                            <use xlink:href="#path-1"></use>
                        </mask>
                        <g id="Clip-21"></g>
                        <polygon id="Fill-20" fill="#FEFDFD" mask="url(#mask-2)" points="14.6509 16.2715 14.6279 6.6115 9.8899 14.5695 8.2109 14.5695 3.4959 6.8185 3.4959 16.2715 -0.0001 16.2715 -0.0001 0.1715 3.0819 0.1715 9.1079 10.1765 15.0419 0.1715 18.1009 0.1715 18.1469 16.2715"></polygon>
                    </g>
                    <polygon id="Fill-23" fill="#FEFDFD" points="34.4307 120.2812 34.4307 123.2712 21.9647 123.2712 21.9647 107.1722 34.1317 107.1722 34.1317 110.1612 25.6677 110.1612 25.6677 113.6572 33.1427 113.6572 33.1427 116.5552 25.6677 116.5552 25.6677 120.2812"></polygon>
                    <path d="M46.7124,110.9316 C46.1294,110.4496 45.2784,110.2066 44.1594,110.2066 L41.1234,110.2066 L41.1234,115.8196 L44.1594,115.8196 C45.2784,115.8196 46.1294,115.5746 46.7124,115.0826 C47.2954,114.5926 47.5864,113.9036 47.5864,113.0136 C47.5864,112.1096 47.2954,111.4146 46.7124,110.9316 Z M47.6554,123.2716 L44.5504,118.7856 L44.3664,118.7856 L41.1234,118.7856 L41.1234,123.2716 L37.3974,123.2716 L37.3974,107.1716 L44.3664,107.1716 C45.7924,107.1716 47.0304,107.4096 48.0804,107.8846 C49.1304,108.3606 49.9404,109.0346 50.5074,109.9086 C51.0744,110.7826 51.3584,111.8176 51.3584,113.0136 C51.3584,114.2096 51.0704,115.2416 50.4954,116.1076 C49.9204,116.9736 49.1044,117.6366 48.0464,118.0966 L51.6574,123.2716 L47.6554,123.2716 Z" id="Fill-25" fill="#FEFDFD"></path>
                    <path d="M57.5566,122.4775 C56.2296,121.7645 55.1876,120.7765 54.4286,119.5105 C53.6696,118.2465 53.2896,116.8165 53.2896,115.2215 C53.2896,113.6265 53.6696,112.1975 54.4286,110.9315 C55.1876,109.6665 56.2296,108.6775 57.5566,107.9645 C58.8826,107.2515 60.3736,106.8955 62.0306,106.8955 C63.4256,106.8955 64.6866,107.1405 65.8136,107.6315 C66.9406,108.1225 67.8876,108.8275 68.6546,109.7475 L66.2626,111.9555 C65.1736,110.6985 63.8246,110.0695 62.2136,110.0695 C61.2176,110.0695 60.3276,110.2885 59.5456,110.7245 C58.7646,111.1625 58.1546,111.7715 57.7176,112.5535 C57.2806,113.3355 57.0616,114.2245 57.0616,115.2215 C57.0616,116.2185 57.2806,117.1075 57.7176,117.8895 C58.1546,118.6715 58.7646,119.2815 59.5456,119.7175 C60.3276,120.1555 61.2176,120.3735 62.2136,120.3735 C63.8246,120.3735 65.1736,119.7375 66.2626,118.4645 L68.6546,120.6725 C67.8876,121.6085 66.9366,122.3215 65.8026,122.8115 C64.6666,123.3015 63.4026,123.5475 62.0066,123.5475 C60.3666,123.5475 58.8826,123.1915 57.5566,122.4775" id="Fill-27" fill="#FEFDFD"></path>
                    <path d="M72.8057,121.6387 C71.5247,120.3667 70.8847,118.5487 70.8847,116.1877 L70.8847,107.1717 L74.6117,107.1717 L74.6117,116.0497 C74.6117,118.9327 75.8067,120.3727 78.1997,120.3727 C79.3647,120.3727 80.2537,120.0247 80.8677,119.3267 C81.4807,118.6297 81.7867,117.5367 81.7867,116.0497 L81.7867,107.1717 L85.4667,107.1717 L85.4667,116.1877 C85.4667,118.5487 84.8267,120.3667 83.5467,121.6387 C82.2657,122.9107 80.4757,123.5477 78.1757,123.5477 C75.8757,123.5477 74.0857,122.9107 72.8057,121.6387" id="Fill-29" fill="#FEFDFD"></path>
                    <path d="M98.4619,110.9316 C97.8789,110.4496 97.0279,110.2066 95.9089,110.2066 L92.8729,110.2066 L92.8729,115.8196 L95.9089,115.8196 C97.0279,115.8196 97.8789,115.5746 98.4619,115.0826 C99.0449,114.5926 99.3359,113.9036 99.3359,113.0136 C99.3359,112.1096 99.0449,111.4146 98.4619,110.9316 Z M99.4049,123.2716 L96.2999,118.7856 L96.1159,118.7856 L92.8729,118.7856 L92.8729,123.2716 L89.1479,123.2716 L89.1479,107.1716 L96.1159,107.1716 C97.5419,107.1716 98.7799,107.4096 99.8299,107.8846 C100.8809,108.3606 101.6899,109.0346 102.2569,109.9086 C102.8239,110.7826 103.1079,111.8176 103.1079,113.0136 C103.1079,114.2096 102.8199,115.2416 102.2449,116.1076 C101.6709,116.9736 100.8549,117.6366 99.7959,118.0966 L103.4069,123.2716 L99.4049,123.2716 Z" id="Fill-31" fill="#FEFDFD"></path>
                    <polygon id="Fill-33" fill="#FEFDFD" points="113.5498 117.5674 113.5498 123.2714 109.8238 123.2714 109.8238 117.5214 103.5908 107.1714 107.5468 107.1714 111.8478 114.3244 116.1488 107.1714 119.8058 107.1714"></polygon>
                    <path d="M127.8672,113.8066 C128.3812,113.3546 128.6382,112.7766 128.6382,112.0706 C128.6382,111.3656 128.3882,110.7896 127.8902,110.3456 C127.3912,109.9016 126.7062,109.6786 125.8322,109.6786 C125.0342,109.6786 124.3872,109.8936 123.8882,110.3226 C123.3892,110.7516 123.1402,111.3346 123.1402,112.0706 C123.1402,112.8066 123.3892,113.3926 123.8882,113.8296 C124.3872,114.2666 125.0502,114.4856 125.8782,114.4856 C126.6902,114.4856 127.3532,114.2596 127.8672,113.8066 M130.8912,108.9536 C132.1642,110.3266 132.8012,112.3006 132.8012,114.8766 C132.8012,116.7016 132.4592,118.2656 131.7772,119.5686 C131.0952,120.8716 130.1332,121.8616 128.8902,122.5356 C127.6482,123.2096 126.2152,123.5476 124.5902,123.5476 C123.7312,123.5476 122.9112,123.4516 122.1292,123.2596 C121.3462,123.0686 120.6802,122.7966 120.1282,122.4436 L121.5082,119.7056 C122.2902,120.2436 123.2942,120.5116 124.5202,120.5116 C125.8862,120.5116 126.9672,120.1096 127.7632,119.3036 C128.5602,118.4986 128.9902,117.3376 129.0522,115.8196 C128.0862,116.7856 126.7522,117.2686 125.0502,117.2686 C124.0222,117.2686 123.0872,117.0616 122.2442,116.6476 C121.4002,116.2336 120.7332,115.6476 120.2432,114.8876 C119.7522,114.1286 119.5072,113.2506 119.5072,112.2546 C119.5072,111.1816 119.7752,110.2386 120.3112,109.4256 C120.8482,108.6136 121.5802,107.9886 122.5092,107.5506 C123.4352,107.1146 124.4672,106.8956 125.6012,106.8956 C127.8552,106.8956 129.6192,107.5816 130.8912,108.9536" id="Fill-35" fill="#FEFDFD"></path>
                    <g id="Group-39" transform="translate(134.000000, 106.000000)">
                        <mask id="mask-4" fill="white">
                            <use xlink:href="#path-3"></use>
                        </mask>
                        <g id="Clip-38"></g>
                        <path d="M8.5176,7.8066 C9.0316,7.3546 9.2886,6.7766 9.2886,6.0706 C9.2886,5.3656 9.0386,4.7896 8.5406,4.3456 C8.0416,3.9016 7.3566,3.6786 6.4826,3.6786 C5.6846,3.6786 5.0376,3.8936 4.5386,4.3226 C4.0396,4.7516 3.7906,5.3346 3.7906,6.0706 C3.7906,6.8066 4.0396,7.3926 4.5386,7.8296 C5.0376,8.2666 5.7006,8.4856 6.5286,8.4856 C7.3406,8.4856 8.0036,8.2596 8.5176,7.8066 M11.5416,2.9536 C12.8146,4.3266 13.4516,6.3006 13.4516,8.8766 C13.4516,10.7016 13.1096,12.2656 12.4276,13.5686 C11.7456,14.8716 10.7836,15.8616 9.5406,16.5356 C8.2986,17.2096 6.8656,17.5476 5.2406,17.5476 C4.3816,17.5476 3.5616,17.4516 2.7796,17.2596 C1.9966,17.0686 1.3306,16.7966 0.7786,16.4436 L2.1586,13.7056 C2.9406,14.2436 3.9446,14.5116 5.1706,14.5116 C6.5366,14.5116 7.6176,14.1096 8.4136,13.3036 C9.2106,12.4986 9.6406,11.3376 9.7026,9.8196 C8.7366,10.7856 7.4026,11.2686 5.7006,11.2686 C4.6726,11.2686 3.7376,11.0616 2.8946,10.6476 C2.0506,10.2336 1.3836,9.6476 0.8936,8.8876 C0.4026,8.1286 0.1576,7.2506 0.1576,6.2546 C0.1576,5.1816 0.4256,4.2386 0.9616,3.4256 C1.4986,2.6136 2.2306,1.9886 3.1596,1.5506 C4.0856,1.1146 5.1176,0.8956 6.2516,0.8956 C8.5056,0.8956 10.2696,1.5816 11.5416,2.9536" id="Fill-37" fill="#FEFDFD" mask="url(#mask-4)"></path>
                    </g>
                    <path d="M15.6313,139.2949 C15.8693,139.1419 15.9883,138.9029 15.9883,138.5799 C15.9883,137.9419 15.5153,137.6229 14.5693,137.6229 L12.4903,137.6229 L12.4903,139.5259 L14.5693,139.5259 C15.0393,139.5259 15.3923,139.4489 15.6313,139.2949 Z M12.4903,134.5099 L12.4903,136.3249 L14.2613,136.3249 C14.7013,136.3249 15.0353,136.2479 15.2623,136.0939 C15.4893,135.9409 15.6033,135.7129 15.6033,135.4119 C15.6033,135.1109 15.4893,134.8859 15.2623,134.7349 C15.0353,134.5849 14.7013,134.5099 14.2613,134.5099 L12.4903,134.5099 Z M17.4073,137.5629 C17.6563,137.8889 17.7813,138.2909 17.7813,138.7679 C17.7813,139.4419 17.5193,139.9609 16.9953,140.3229 C16.4703,140.6869 15.7063,140.8679 14.7013,140.8679 L10.7193,140.8679 L10.7193,133.1679 L14.4813,133.1679 C15.4203,133.1679 16.1403,133.3479 16.6433,133.7069 C17.1453,134.0659 17.3963,134.5539 17.3963,135.1699 C17.3963,135.5439 17.3063,135.8779 17.1273,136.1709 C16.9473,136.4649 16.6963,136.6949 16.3733,136.8639 C16.8133,137.0039 17.1583,137.2359 17.4073,137.5629 Z" id="Fill-40" fill="#FEFEFE"></path>
                    <path d="M19.9873,140.0869 C19.3753,139.4789 19.0693,138.6089 19.0693,137.4809 L19.0693,133.1679 L20.8503,133.1679 L20.8503,137.4139 C20.8503,138.7929 21.4233,139.4829 22.5673,139.4829 C23.1243,139.4829 23.5493,139.3159 23.8423,138.9819 C24.1353,138.6489 24.2823,138.1259 24.2823,137.4139 L24.2823,133.1679 L26.0423,133.1679 L26.0423,137.4809 C26.0423,138.6089 25.7363,139.4789 25.1243,140.0869 C24.5113,140.6959 23.6553,140.9999 22.5553,140.9999 C21.4553,140.9999 20.5993,140.6959 19.9873,140.0869" id="Fill-42" fill="#FEFEFE"></path>
                    <mask id="mask-6" fill="white">
                        <use xlink:href="#path-5"></use>
                    </mask>
                    <g id="Clip-45"></g>
                    <polygon id="Fill-44" fill="#FEFEFE" mask="url(#mask-6)" points="27.803 140.868 29.585 140.868 29.585 133.168 27.803 133.168"></polygon>
                    <polygon id="Fill-46" fill="#FEFEFE" mask="url(#mask-6)" points="31.4106 133.168 33.1926 133.168 33.1926 139.416 37.0536 139.416 37.0536 140.868 31.4106 140.868"></polygon>
                    <path d="M41.4644,139.4053 C42.2344,139.4053 42.8484,139.1903 43.3064,138.7613 C43.7644,138.3333 43.9944,137.7523 43.9944,137.0183 C43.9944,136.2853 43.7644,135.7043 43.3064,135.2743 C42.8484,134.8453 42.2344,134.6313 41.4644,134.6313 L39.8364,134.6313 L39.8364,139.4053 L41.4644,139.4053 Z M38.0544,133.1683 L41.5524,133.1683 C42.3884,133.1683 43.1274,133.3283 43.7684,133.6463 C44.4104,133.9663 44.9084,134.4153 45.2644,134.9943 C45.6204,135.5733 45.7984,136.2483 45.7984,137.0183 C45.7984,137.7883 45.6204,138.4633 45.2644,139.0423 C44.9084,139.6213 44.4104,140.0703 43.7684,140.3893 C43.1274,140.7093 42.3884,140.8683 41.5524,140.8683 L38.0544,140.8683 L38.0544,133.1683 Z" id="Fill-47" fill="#FEFEFE" mask="url(#mask-6)"></path>
                    <polygon id="Fill-48" fill="#FEFEFE" mask="url(#mask-6)" points="47.14 140.868 48.922 140.868 48.922 133.168 47.14 133.168"></polygon>
                    <polygon id="Fill-49" fill="#FEFEFE" mask="url(#mask-6)" points="57.8101 133.168 57.8101 140.868 56.3471 140.868 52.5081 136.193 52.5081 140.868 50.7481 140.868 50.7481 133.168 52.2221 133.168 56.0501 137.843 56.0501 133.168"></polygon>
                    <path d="M64.8394,136.8975 L66.4674,136.8975 L66.4674,140.0215 C66.0494,140.3365 65.5654,140.5785 65.0154,140.7475 C64.4654,140.9165 63.9114,141.0005 63.3544,141.0005 C62.5544,141.0005 61.8364,140.8305 61.1984,140.4885 C60.5604,140.1475 60.0594,139.6745 59.6964,139.0695 C59.3334,138.4645 59.1524,137.7815 59.1524,137.0185 C59.1524,136.2555 59.3334,135.5715 59.6964,134.9665 C60.0594,134.3615 60.5644,133.8885 61.2094,133.5475 C61.8544,133.2075 62.5804,133.0365 63.3874,133.0365 C64.0614,133.0365 64.6744,133.1505 65.2244,133.3765 C65.7744,133.6045 66.2364,133.9345 66.6104,134.3675 L65.4664,135.4225 C64.9164,134.8435 64.2524,134.5535 63.4754,134.5535 C62.9844,134.5535 62.5474,134.6575 62.1664,134.8625 C61.7844,135.0675 61.4874,135.3575 61.2754,135.7315 C61.0624,136.1055 60.9564,136.5345 60.9564,137.0185 C60.9564,137.4955 61.0624,137.9195 61.2754,138.2935 C61.4874,138.6685 61.7824,138.9605 62.1604,139.1685 C62.5384,139.3775 62.9694,139.4825 63.4534,139.4825 C63.9664,139.4825 64.4284,139.3725 64.8394,139.1525 L64.8394,136.8975 Z" id="Fill-50" fill="#FEFEFE" mask="url(#mask-6)"></path>
                    <path d="M72.7861,140.4883 C72.1521,140.1473 71.6531,139.6753 71.2901,139.0693 C70.9271,138.4653 70.7461,137.7813 70.7461,137.0183 C70.7461,136.2563 70.9271,135.5713 71.2901,134.9673 C71.6531,134.3613 72.1521,133.8883 72.7861,133.5483 C73.4201,133.2073 74.1341,133.0363 74.9261,133.0363 C75.5931,133.0363 76.1961,133.1533 76.7351,133.3873 C77.2741,133.6233 77.7261,133.9603 78.0941,134.4003 L76.9491,135.4563 C76.4291,134.8543 75.7831,134.5533 75.0141,134.5533 C74.5371,134.5533 74.1111,134.6583 73.7371,134.8673 C73.3631,135.0773 73.0721,135.3683 72.8631,135.7423 C72.6541,136.1163 72.5501,136.5423 72.5501,137.0183 C72.5501,137.4953 72.6541,137.9203 72.8631,138.2943 C73.0721,138.6683 73.3631,138.9603 73.7371,139.1693 C74.1111,139.3783 74.5371,139.4823 75.0141,139.4823 C75.7831,139.4823 76.4291,139.1773 76.9491,138.5693 L78.0941,139.6253 C77.7261,140.0723 77.2721,140.4133 76.7291,140.6483 C76.1861,140.8833 75.5821,141.0003 74.9151,141.0003 C74.1301,141.0003 73.4201,140.8303 72.7861,140.4883" id="Fill-51" fill="#FEFEFE" mask="url(#mask-6)"></path>
                    <path d="M84.0889,139.1689 C84.4549,138.9599 84.7429,138.6679 84.9519,138.2939 C85.1609,137.9199 85.2659,137.4949 85.2659,137.0189 C85.2659,136.5419 85.1609,136.1159 84.9519,135.7419 C84.7429,135.3679 84.4549,135.0769 84.0889,134.8669 C83.7219,134.6579 83.3119,134.5539 82.8569,134.5539 C82.4019,134.5539 81.9909,134.6579 81.6249,134.8669 C81.2579,135.0769 80.9699,135.3679 80.7609,135.7419 C80.5519,136.1159 80.4469,136.5419 80.4469,137.0189 C80.4469,137.4949 80.5519,137.9199 80.7609,138.2939 C80.9699,138.6679 81.2579,138.9599 81.6249,139.1689 C81.9909,139.3779 82.4019,139.4819 82.8569,139.4819 C83.3119,139.4819 83.7219,139.3779 84.0889,139.1689 M80.6949,140.4829 C80.0539,140.1389 79.5509,139.6639 79.1889,139.0589 C78.8249,138.4539 78.6439,137.7729 78.6439,137.0189 C78.6439,136.2629 78.8249,135.5829 79.1889,134.9779 C79.5509,134.3729 80.0539,133.8979 80.6949,133.5529 C81.3369,133.2089 82.0579,133.0359 82.8569,133.0359 C83.6559,133.0359 84.3749,133.2089 85.0129,133.5529 C85.6509,133.8979 86.1519,134.3729 86.5199,134.9779 C86.8859,135.5829 87.0689,136.2629 87.0689,137.0189 C87.0689,137.7729 86.8859,138.4539 86.5199,139.0589 C86.1519,139.6639 85.6509,140.1389 85.0129,140.4829 C84.3749,140.8279 83.6559,140.9999 82.8569,140.9999 C82.0579,140.9999 81.3369,140.8279 80.6949,140.4829" id="Fill-52" fill="#FEFEFE" mask="url(#mask-6)"></path>
                    <polygon id="Fill-53" fill="#FEFEFE" mask="url(#mask-6)" points="95.418 140.8682 95.407 136.2482 93.142 140.0542 92.338 140.0542 90.083 136.3472 90.083 140.8682 88.411 140.8682 88.411 133.1682 89.886 133.1682 92.768 137.9532 95.605 133.1682 97.068 133.1682 97.09 140.8682"></polygon>
                    <path d="M103.3711,136.9463 C103.6491,136.7163 103.7891,136.3873 103.7891,135.9623 C103.7891,135.5293 103.6491,135.1973 103.3711,134.9673 C103.0931,134.7353 102.6851,134.6203 102.1501,134.6203 L100.6981,134.6203 L100.6981,137.2933 L102.1501,137.2933 C102.6851,137.2933 103.0931,137.1773 103.3711,136.9463 M104.0251,133.5083 C104.5281,133.7363 104.9151,134.0593 105.1861,134.4773 C105.4571,134.8953 105.5931,135.3903 105.5931,135.9623 C105.5931,136.5273 105.4571,137.0203 105.1861,137.4413 C104.9151,137.8633 104.5281,138.1863 104.0251,138.4093 C103.5231,138.6333 102.9321,138.7453 102.2491,138.7453 L100.6981,138.7453 L100.6981,140.8683 L98.9161,140.8683 L98.9161,133.1683 L102.2491,133.1683 C102.9321,133.1683 103.5231,133.2823 104.0251,133.5083" id="Fill-54" fill="#FEFEFE" mask="url(#mask-6)"></path>
                    <path d="M110.9834,137.8652 L109.7624,134.9172 L108.5414,137.8652 L110.9834,137.8652 Z M111.5444,139.2182 L107.9694,139.2182 L107.2874,140.8682 L105.4614,140.8682 L108.8934,133.1682 L110.6534,133.1682 L114.0964,140.8682 L112.2264,140.8682 L111.5444,139.2182 Z" id="Fill-55" fill="#FEFEFE" mask="url(#mask-6)"></path>
                    <polygon id="Fill-56" fill="#FEFEFE" mask="url(#mask-6)" points="121.9609 133.168 121.9609 140.868 120.4979 140.868 116.6589 136.193 116.6589 140.868 114.8989 140.868 114.8989 133.168 116.3729 133.168 120.2009 137.843 120.2009 133.168"></polygon>
                    <polygon id="Fill-57" fill="#FEFEFE" mask="url(#mask-6)" points="127.4834 138.1406 127.4834 140.8686 125.7014 140.8686 125.7014 138.1186 122.7194 133.1676 124.6124 133.1676 126.6694 136.5886 128.7254 133.1676 130.4744 133.1676"></polygon>
                </g>
            </g>
        </g>
    </g>
</svg>