<?xml version="1.0" encoding="UTF-8"?>
<svg width="148px" height="139px" viewBox="0 0 148 139" version="1.1" xmlns="http://www.w3.org/2000/svg" xmlns:xlink="http://www.w3.org/1999/xlink">
    <!-- Generator: Sketch 51.3 (57544) - http://www.bohemiancoding.com/sketch -->
    <title>Group 59</title>
    <desc>Created with Sketch.</desc>
    <defs>
        <polygon id="path-1" points="0 0.1715 18.1469 0.1715 18.1469 16.2715 0 16.2715"></polygon>
        <polygon id="path-3" points="0.1571 0.8956 13.451 0.8956 13.451 17.5476 0.1571 17.5476"></polygon>
        <polygon id="path-5" points="0 139 147.451 139 147.451 0.895 0 0.895"></polygon>
    </defs>
    <g id="Photos" stroke="none" stroke-width="1" fill="none" fill-rule="evenodd">
        <g id="Desktop-HD" transform="translate(-15.000000, -17.000000)">
            <g id="Group-59" transform="translate(15.000000, 16.000000)">
                <polygon id="Fill-1" fill="#F26B21" points="77.1574 1 72.4654 9.128 67.7744 1 54.3954 1 6.9614 82.199 4.0374 87.291 39.7414 87.288 46.3404 75.86 52.9384 87.287 90.5414 87.285 96.9134 76.249 103.2844 87.284 138.7454 87.282 115.1694 46.236 115.1694 7 99.5004 7 99.5004 7.054 98.1574 7.054 98.1574 16.583 89.1884 1"></polygon>
                <g id="Group-58" transform="translate(0.000000, 0.105000)">
                    <path d="M89.1616,49.7861 L80.2806,49.7861 C81.2066,47.6701 84.5846,39.5121 86.6326,35.1161 C88.8406,30.3791 81.7966,29.2141 81.7616,33.4051 C81.7476,35.0151 83.2956,36.1771 84.9726,35.9071 L81.1756,44.0571 C76.1816,41.8591 73.5166,38.8421 73.5166,33.2021 C73.5166,30.0821 74.5816,27.4401 76.7116,25.2911 C78.8406,23.1401 81.4446,22.0691 84.5376,22.0691 C87.4586,22.0691 90.0126,23.1471 92.1996,25.3051 C94.3796,27.4621 95.4726,29.9811 95.4726,32.8621 C95.4726,34.2091 95.1706,36.3861 93.9326,39.1451 L89.1616,49.7861 Z" id="Fill-2" fill="#FEFEFE"></path>
                    <path d="M66.353,49.5381 L57.473,49.5381 C58.397,47.4221 61.775,39.2641 63.824,34.8681 C66.032,30.1321 58.988,28.9671 58.952,33.1581 C58.939,34.7671 60.487,35.9301 62.163,35.6601 L58.367,43.8101 C53.373,41.6121 50.708,38.5951 50.708,32.9551 C50.708,29.8351 51.773,27.1931 53.902,25.0431 C56.032,22.8931 58.636,21.8221 61.729,21.8221 C64.65,21.8221 67.204,22.9001 69.39,25.0581 C71.57,27.2151 72.664,29.7331 72.664,32.6141 C72.664,33.9611 72.361,36.1391 71.124,38.8971 L66.353,49.5381 Z" id="Fill-4" fill="#FEFEFE"></path>
                    <polygon id="Fill-6" fill="#FEFEFE" points="56.9385 63.2959 57.9855 56.3579 60.1215 56.3579 60.1215 66.1309 58.6695 66.1309 58.6695 59.1219 57.6085 66.1309 56.1565 66.1309 55.0115 59.2199 55.0115 66.1309 53.6715 66.1309 53.6715 56.3579 55.8075 56.3579"></polygon>
                    <polygon id="Fill-8" fill="#FEFEFE" points="62.7773 60.4766 64.8853 60.4766 64.8853 61.8726 62.7773 61.8726 62.7773 64.7346 65.4303 64.7346 65.4303 66.1306 61.2413 66.1306 61.2413 56.3576 65.4303 56.3576 65.4303 57.7536 62.7773 57.7536"></polygon>
                    <path d="M67.917,57.7539 L67.917,60.7549 L68.518,60.7549 C69.09,60.7549 69.439,60.5039 69.439,59.7219 L69.439,58.7589 C69.439,58.0609 69.202,57.7539 68.658,57.7539 L67.917,57.7539 Z M69.592,66.1309 C69.509,65.8789 69.453,65.7259 69.453,64.9299 L69.453,63.3949 C69.453,62.4859 69.146,62.1509 68.448,62.1509 L67.917,62.1509 L67.917,66.1309 L66.381,66.1309 L66.381,56.3579 L68.699,56.3579 C70.291,56.3579 70.975,57.0979 70.975,58.6059 L70.975,59.3729 C70.975,60.3779 70.654,61.0339 69.969,61.3559 C70.738,61.6769 70.989,62.4169 70.989,63.4359 L70.989,64.9439 C70.989,65.4189 71.002,65.7679 71.157,66.1309 L69.592,66.1309 Z" id="Fill-10" fill="#FEFEFE"></path>
                    <path d="M76.4497,62.4863 L76.4497,63.7853 C76.4497,65.3483 75.6687,66.2423 74.1607,66.2423 C72.6527,66.2423 71.8707,65.3483 71.8707,63.7853 L71.8707,58.7033 C71.8707,57.1393 72.6527,56.2463 74.1607,56.2463 C75.6687,56.2463 76.4497,57.1393 76.4497,58.7033 L76.4497,59.6523 L74.9977,59.6523 L74.9977,58.6053 C74.9977,57.9073 74.6907,57.6413 74.2027,57.6413 C73.7137,57.6413 73.4067,57.9073 73.4067,58.6053 L73.4067,63.8823 C73.4067,64.5813 73.7137,64.8323 74.2027,64.8323 C74.6907,64.8323 74.9977,64.5813 74.9977,63.8823 L74.9977,62.4863 L76.4497,62.4863 Z" id="Fill-12" fill="#FEFEFE"></path>
                    <path d="M78.853,56.3574 L78.853,63.8964 C78.853,64.5944 79.161,64.8454 79.649,64.8454 C80.138,64.8454 80.445,64.5944 80.445,63.8964 L80.445,56.3574 L81.897,56.3574 L81.897,63.7984 C81.897,65.3624 81.115,66.2554 79.607,66.2554 C78.099,66.2554 77.318,65.3624 77.318,63.7984 L77.318,56.3574 L78.853,56.3574 Z" id="Fill-14" fill="#FEFEFE"></path>
                    <path d="M84.4819,57.7539 L84.4819,60.7549 L85.0829,60.7549 C85.6549,60.7549 86.0029,60.5039 86.0029,59.7219 L86.0029,58.7589 C86.0029,58.0609 85.7659,57.7539 85.2219,57.7539 L84.4819,57.7539 Z M86.1569,66.1309 C86.0739,65.8789 86.0169,65.7259 86.0169,64.9299 L86.0169,63.3949 C86.0169,62.4859 85.7109,62.1509 85.0119,62.1509 L84.4819,62.1509 L84.4819,66.1309 L82.9459,66.1309 L82.9459,56.3579 L85.2629,56.3579 C86.8549,56.3579 87.5399,57.0979 87.5399,58.6059 L87.5399,59.3729 C87.5399,60.3779 87.2179,61.0339 86.5339,61.3559 C87.3019,61.6769 87.5529,62.4169 87.5529,63.4359 L87.5529,64.9439 C87.5529,65.4189 87.5669,65.7679 87.7209,66.1309 L86.1569,66.1309 Z" id="Fill-16" fill="#FEFEFE"></path>
                    <polygon id="Fill-18" fill="#FEFEFE" points="89.8589 62.8916 87.9189 56.3576 89.5239 56.3576 90.6969 60.8116 91.8699 56.3576 93.3359 56.3576 91.3949 62.8916 91.3949 66.1306 89.8589 66.1306"></polygon>
                    <g id="Group-22" transform="translate(0.000000, 105.000000)">
                        <mask id="mask-2" fill="white">
                            <use xlink:href="#path-1"></use>
                        </mask>
                        <g id="Clip-21"></g>
                        <polygon id="Fill-20" fill="#FEFDFD" mask="url(#mask-2)" points="14.6509 16.2715 14.6279 6.6115 9.8899 14.5695 8.2109 14.5695 3.4959 6.8185 3.4959 16.2715 -0.0001 16.2715 -0.0001 0.1715 3.0819 0.1715 9.1079 10.1765 15.0419 0.1715 18.1009 0.1715 18.1469 16.2715"></polygon>
                    </g>
                    <polygon id="Fill-23" fill="#FEFDFD" points="34.4307 118.2812 34.4307 121.2712 21.9647 121.2712 21.9647 105.1722 34.1317 105.1722 34.1317 108.1612 25.6677 108.1612 25.6677 111.6572 33.1427 111.6572 33.1427 114.5552 25.6677 114.5552 25.6677 118.2812"></polygon>
                    <path d="M46.7124,108.9316 C46.1294,108.4496 45.2784,108.2066 44.1594,108.2066 L41.1234,108.2066 L41.1234,113.8196 L44.1594,113.8196 C45.2784,113.8196 46.1294,113.5746 46.7124,113.0826 C47.2954,112.5926 47.5864,111.9036 47.5864,111.0136 C47.5864,110.1096 47.2954,109.4146 46.7124,108.9316 Z M47.6554,121.2716 L44.5504,116.7856 L44.3664,116.7856 L41.1234,116.7856 L41.1234,121.2716 L37.3974,121.2716 L37.3974,105.1716 L44.3664,105.1716 C45.7924,105.1716 47.0304,105.4096 48.0804,105.8846 C49.1304,106.3606 49.9404,107.0346 50.5074,107.9086 C51.0744,108.7826 51.3584,109.8176 51.3584,111.0136 C51.3584,112.2096 51.0704,113.2416 50.4954,114.1076 C49.9204,114.9736 49.1044,115.6366 48.0464,116.0966 L51.6574,121.2716 L47.6554,121.2716 Z" id="Fill-25" fill="#FEFDFD"></path>
                    <path d="M57.5566,120.4775 C56.2296,119.7645 55.1876,118.7765 54.4286,117.5105 C53.6696,116.2465 53.2896,114.8165 53.2896,113.2215 C53.2896,111.6265 53.6696,110.1975 54.4286,108.9315 C55.1876,107.6665 56.2296,106.6775 57.5566,105.9645 C58.8826,105.2515 60.3736,104.8955 62.0306,104.8955 C63.4256,104.8955 64.6866,105.1405 65.8136,105.6315 C66.9406,106.1225 67.8876,106.8275 68.6536,107.7475 L66.2626,109.9555 C65.1736,108.6985 63.8246,108.0695 62.2136,108.0695 C61.2176,108.0695 60.3276,108.2885 59.5456,108.7245 C58.7646,109.1625 58.1546,109.7715 57.7176,110.5535 C57.2806,111.3355 57.0616,112.2245 57.0616,113.2215 C57.0616,114.2185 57.2806,115.1075 57.7176,115.8895 C58.1546,116.6715 58.7646,117.2815 59.5456,117.7175 C60.3276,118.1555 61.2176,118.3735 62.2136,118.3735 C63.8246,118.3735 65.1736,117.7375 66.2626,116.4645 L68.6536,118.6725 C67.8876,119.6085 66.9366,120.3215 65.8026,120.8115 C64.6666,121.3015 63.4026,121.5475 62.0066,121.5475 C60.3666,121.5475 58.8826,121.1915 57.5566,120.4775" id="Fill-27" fill="#FEFDFD"></path>
                    <path d="M72.8052,119.6387 C71.5252,118.3667 70.8842,116.5487 70.8842,114.1877 L70.8842,105.1717 L74.6112,105.1717 L74.6112,114.0497 C74.6112,116.9327 75.8062,118.3727 78.1992,118.3727 C79.3642,118.3727 80.2532,118.0247 80.8672,117.3267 C81.4802,116.6297 81.7862,115.5367 81.7862,114.0497 L81.7862,105.1717 L85.4662,105.1717 L85.4662,114.1877 C85.4662,116.5487 84.8262,118.3667 83.5462,119.6387 C82.2652,120.9107 80.4752,121.5477 78.1752,121.5477 C75.8752,121.5477 74.0852,120.9107 72.8052,119.6387" id="Fill-29" fill="#FEFDFD"></path>
                    <path d="M98.4614,108.9316 C97.8784,108.4496 97.0274,108.2066 95.9084,108.2066 L92.8724,108.2066 L92.8724,113.8196 L95.9084,113.8196 C97.0274,113.8196 97.8784,113.5746 98.4614,113.0826 C99.0444,112.5926 99.3354,111.9036 99.3354,111.0136 C99.3354,110.1096 99.0444,109.4146 98.4614,108.9316 Z M99.4044,121.2716 L96.2994,116.7856 L96.1154,116.7856 L92.8724,116.7856 L92.8724,121.2716 L89.1474,121.2716 L89.1474,105.1716 L96.1154,105.1716 C97.5414,105.1716 98.7794,105.4096 99.8294,105.8846 C100.8804,106.3606 101.6894,107.0346 102.2564,107.9086 C102.8234,108.7826 103.1074,109.8176 103.1074,111.0136 C103.1074,112.2096 102.8194,113.2416 102.2444,114.1076 C101.6704,114.9736 100.8544,115.6366 99.7954,116.0966 L103.4064,121.2716 L99.4044,121.2716 Z" id="Fill-31" fill="#FEFDFD"></path>
                    <polygon id="Fill-33" fill="#FEFDFD" points="113.5493 115.5674 113.5493 121.2714 109.8233 121.2714 109.8233 115.5214 103.5903 105.1714 107.5463 105.1714 111.8473 112.3244 116.1483 105.1714 119.8053 105.1714"></polygon>
                    <path d="M127.8667,111.8066 C128.3807,111.3546 128.6377,110.7766 128.6377,110.0706 C128.6377,109.3656 128.3877,108.7896 127.8897,108.3456 C127.3907,107.9016 126.7057,107.6786 125.8317,107.6786 C125.0337,107.6786 124.3867,107.8936 123.8877,108.3226 C123.3887,108.7516 123.1397,109.3346 123.1397,110.0706 C123.1397,110.8066 123.3887,111.3926 123.8877,111.8296 C124.3867,112.2666 125.0497,112.4856 125.8777,112.4856 C126.6897,112.4856 127.3527,112.2596 127.8667,111.8066 M130.8907,106.9536 C132.1637,108.3266 132.8007,110.3006 132.8007,112.8766 C132.8007,114.7016 132.4587,116.2656 131.7767,117.5686 C131.0947,118.8716 130.1327,119.8616 128.8897,120.5356 C127.6477,121.2096 126.2147,121.5476 124.5897,121.5476 C123.7307,121.5476 122.9107,121.4516 122.1287,121.2596 C121.3457,121.0686 120.6797,120.7966 120.1277,120.4436 L121.5077,117.7056 C122.2897,118.2436 123.2937,118.5116 124.5197,118.5116 C125.8857,118.5116 126.9667,118.1096 127.7627,117.3036 C128.5597,116.4986 128.9897,115.3376 129.0517,113.8196 C128.0857,114.7856 126.7517,115.2686 125.0497,115.2686 C124.0217,115.2686 123.0867,115.0616 122.2437,114.6476 C121.3997,114.2336 120.7327,113.6476 120.2427,112.8876 C119.7517,112.1286 119.5067,111.2506 119.5067,110.2546 C119.5067,109.1816 119.7747,108.2386 120.3107,107.4256 C120.8477,106.6136 121.5797,105.9886 122.5087,105.5506 C123.4347,105.1146 124.4667,104.8956 125.6007,104.8956 C127.8547,104.8956 129.6187,105.5816 130.8907,106.9536" id="Fill-35" fill="#FEFDFD"></path>
                    <g id="Group-39" transform="translate(134.000000, 104.000000)">
                        <mask id="mask-4" fill="white">
                            <use xlink:href="#path-3"></use>
                        </mask>
                        <g id="Clip-38"></g>
                        <path d="M8.5171,7.8066 C9.0311,7.3546 9.2881,6.7766 9.2881,6.0706 C9.2881,5.3656 9.0381,4.7896 8.5401,4.3456 C8.0411,3.9016 7.3561,3.6786 6.4821,3.6786 C5.6841,3.6786 5.0371,3.8936 4.5381,4.3226 C4.0391,4.7516 3.7901,5.3346 3.7901,6.0706 C3.7901,6.8066 4.0391,7.3926 4.5381,7.8296 C5.0371,8.2666 5.7001,8.4856 6.5281,8.4856 C7.3401,8.4856 8.0031,8.2596 8.5171,7.8066 M11.5411,2.9536 C12.8141,4.3266 13.4511,6.3006 13.4511,8.8766 C13.4511,10.7016 13.1091,12.2656 12.4271,13.5686 C11.7451,14.8716 10.7831,15.8616 9.5401,16.5356 C8.2981,17.2096 6.8651,17.5476 5.2401,17.5476 C4.3811,17.5476 3.5611,17.4516 2.7791,17.2596 C1.9961,17.0686 1.3301,16.7966 0.7781,16.4436 L2.1581,13.7056 C2.9401,14.2436 3.9441,14.5116 5.1701,14.5116 C6.5361,14.5116 7.6171,14.1096 8.4131,13.3036 C9.2101,12.4986 9.6401,11.3376 9.7021,9.8196 C8.7361,10.7856 7.4021,11.2686 5.7001,11.2686 C4.6721,11.2686 3.7371,11.0616 2.8941,10.6476 C2.0501,10.2336 1.3831,9.6476 0.8931,8.8876 C0.4021,8.1286 0.1571,7.2506 0.1571,6.2546 C0.1571,5.1816 0.4251,4.2386 0.9611,3.4256 C1.4981,2.6136 2.2301,1.9886 3.1591,1.5506 C4.0851,1.1146 5.1171,0.8956 6.2511,0.8956 C8.5051,0.8956 10.2691,1.5816 11.5411,2.9536" id="Fill-37" fill="#FEFDFD" mask="url(#mask-4)"></path>
                    </g>
                    <path d="M15.6309,137.2949 C15.8689,137.1419 15.9879,136.9029 15.9879,136.5799 C15.9879,135.9419 15.5149,135.6229 14.5689,135.6229 L12.4899,135.6229 L12.4899,137.5259 L14.5689,137.5259 C15.0389,137.5259 15.3919,137.4489 15.6309,137.2949 Z M12.4899,132.5099 L12.4899,134.3249 L14.2609,134.3249 C14.7009,134.3249 15.0349,134.2479 15.2619,134.0939 C15.4889,133.9409 15.6029,133.7129 15.6029,133.4119 C15.6029,133.1109 15.4889,132.8859 15.2619,132.7349 C15.0349,132.5849 14.7009,132.5099 14.2609,132.5099 L12.4899,132.5099 Z M17.4069,135.5629 C17.6559,135.8889 17.7809,136.2909 17.7809,136.7679 C17.7809,137.4419 17.5189,137.9609 16.9949,138.3229 C16.4699,138.6869 15.7059,138.8679 14.7009,138.8679 L10.7189,138.8679 L10.7189,131.1679 L14.4809,131.1679 C15.4199,131.1679 16.1399,131.3479 16.6429,131.7069 C17.1449,132.0659 17.3959,132.5539 17.3959,133.1699 C17.3959,133.5439 17.3059,133.8779 17.1269,134.1709 C16.9469,134.4649 16.6959,134.6949 16.3729,134.8639 C16.8129,135.0039 17.1579,135.2359 17.4069,135.5629 Z" id="Fill-40" fill="#8D8D8C"></path>
                    <path d="M19.9868,138.0869 C19.3748,137.4789 19.0688,136.6089 19.0688,135.4809 L19.0688,131.1679 L20.8498,131.1679 L20.8498,135.4139 C20.8498,136.7929 21.4228,137.4829 22.5668,137.4829 C23.1238,137.4829 23.5488,137.3159 23.8418,136.9819 C24.1348,136.6489 24.2818,136.1259 24.2818,135.4139 L24.2818,131.1679 L26.0418,131.1679 L26.0418,135.4809 C26.0418,136.6089 25.7358,137.4789 25.1238,138.0869 C24.5108,138.6959 23.6548,138.9999 22.5548,138.9999 C21.4548,138.9999 20.5988,138.6959 19.9868,138.0869" id="Fill-42" fill="#8D8D8C"></path>
                    <mask id="mask-6" fill="white">
                        <use xlink:href="#path-5"></use>
                    </mask>
                    <g id="Clip-45"></g>
                    <polygon id="Fill-44" fill="#8D8D8C" mask="url(#mask-6)" points="27.802 138.868 29.584 138.868 29.584 131.168 27.802 131.168"></polygon>
                    <polygon id="Fill-46" fill="#8D8D8C" mask="url(#mask-6)" points="31.4102 131.168 33.1922 131.168 33.1922 137.416 37.0532 137.416 37.0532 138.868 31.4102 138.868"></polygon>
                    <path d="M41.4639,137.4053 C42.2339,137.4053 42.8479,137.1903 43.3059,136.7613 C43.7639,136.3333 43.9939,135.7523 43.9939,135.0183 C43.9939,134.2853 43.7639,133.7043 43.3059,133.2743 C42.8479,132.8453 42.2339,132.6313 41.4639,132.6313 L39.8359,132.6313 L39.8359,137.4053 L41.4639,137.4053 Z M38.0539,131.1683 L41.5519,131.1683 C42.3879,131.1683 43.1269,131.3283 43.7679,131.6463 C44.4099,131.9663 44.9079,132.4153 45.2639,132.9943 C45.6199,133.5733 45.7979,134.2483 45.7979,135.0183 C45.7979,135.7883 45.6199,136.4633 45.2639,137.0423 C44.9079,137.6213 44.4099,138.0703 43.7679,138.3893 C43.1269,138.7093 42.3879,138.8683 41.5519,138.8683 L38.0539,138.8683 L38.0539,131.1683 Z" id="Fill-47" fill="#8D8D8C" mask="url(#mask-6)"></path>
                    <polygon id="Fill-48" fill="#8D8D8C" mask="url(#mask-6)" points="47.14 138.868 48.922 138.868 48.922 131.168 47.14 131.168"></polygon>
                    <polygon id="Fill-49" fill="#8D8D8C" mask="url(#mask-6)" points="57.8096 131.168 57.8096 138.868 56.3466 138.868 52.5076 134.193 52.5076 138.868 50.7476 138.868 50.7476 131.168 52.2216 131.168 56.0496 135.843 56.0496 131.168"></polygon>
                    <path d="M64.8389,134.8975 L66.4669,134.8975 L66.4669,138.0215 C66.0489,138.3365 65.5649,138.5785 65.0149,138.7475 C64.4649,138.9165 63.9109,139.0005 63.3539,139.0005 C62.5539,139.0005 61.8359,138.8305 61.1979,138.4885 C60.5599,138.1475 60.0589,137.6745 59.6959,137.0695 C59.3329,136.4645 59.1519,135.7815 59.1519,135.0185 C59.1519,134.2555 59.3329,133.5715 59.6959,132.9665 C60.0589,132.3615 60.5639,131.8885 61.2089,131.5475 C61.8539,131.2075 62.5799,131.0365 63.3869,131.0365 C64.0609,131.0365 64.6739,131.1505 65.2239,131.3765 C65.7739,131.6045 66.2359,131.9345 66.6099,132.3675 L65.4659,133.4225 C64.9159,132.8435 64.2519,132.5535 63.4749,132.5535 C62.9839,132.5535 62.5469,132.6575 62.1659,132.8625 C61.7839,133.0675 61.4869,133.3575 61.2749,133.7315 C61.0619,134.1055 60.9559,134.5345 60.9559,135.0185 C60.9559,135.4955 61.0619,135.9195 61.2749,136.2935 C61.4869,136.6685 61.7819,136.9605 62.1599,137.1685 C62.5379,137.3775 62.9689,137.4825 63.4529,137.4825 C63.9659,137.4825 64.4279,137.3725 64.8389,137.1525 L64.8389,134.8975 Z" id="Fill-50" fill="#8D8D8C" mask="url(#mask-6)"></path>
                    <path d="M72.7856,138.4883 C72.1506,138.1473 71.6526,137.6753 71.2896,137.0693 C70.9266,136.4653 70.7456,135.7813 70.7456,135.0183 C70.7456,134.2563 70.9266,133.5713 71.2896,132.9673 C71.6526,132.3613 72.1506,131.8883 72.7856,131.5483 C73.4196,131.2073 74.1336,131.0363 74.9256,131.0363 C75.5926,131.0363 76.1956,131.1533 76.7346,131.3873 C77.2736,131.6233 77.7256,131.9603 78.0936,132.4003 L76.9486,133.4563 C76.4286,132.8543 75.7826,132.5533 75.0136,132.5533 C74.5366,132.5533 74.1106,132.6583 73.7366,132.8673 C73.3626,133.0773 73.0716,133.3683 72.8626,133.7423 C72.6536,134.1163 72.5496,134.5423 72.5496,135.0183 C72.5496,135.4953 72.6536,135.9203 72.8626,136.2943 C73.0716,136.6683 73.3626,136.9603 73.7366,137.1693 C74.1106,137.3783 74.5366,137.4823 75.0136,137.4823 C75.7826,137.4823 76.4286,137.1773 76.9486,136.5693 L78.0936,137.6253 C77.7256,138.0723 77.2716,138.4133 76.7286,138.6483 C76.1856,138.8833 75.5816,139.0003 74.9146,139.0003 C74.1296,139.0003 73.4196,138.8303 72.7856,138.4883" id="Fill-51" fill="#8D8D8C" mask="url(#mask-6)"></path>
                    <path d="M84.0884,137.1689 C84.4544,136.9599 84.7424,136.6679 84.9514,136.2939 C85.1604,135.9199 85.2654,135.4949 85.2654,135.0189 C85.2654,134.5419 85.1604,134.1159 84.9514,133.7419 C84.7424,133.3679 84.4544,133.0769 84.0884,132.8669 C83.7214,132.6579 83.3114,132.5539 82.8564,132.5539 C82.4014,132.5539 81.9904,132.6579 81.6244,132.8669 C81.2574,133.0769 80.9694,133.3679 80.7604,133.7419 C80.5514,134.1159 80.4464,134.5419 80.4464,135.0189 C80.4464,135.4949 80.5514,135.9199 80.7604,136.2939 C80.9694,136.6679 81.2574,136.9599 81.6244,137.1689 C81.9904,137.3779 82.4014,137.4819 82.8564,137.4819 C83.3114,137.4819 83.7214,137.3779 84.0884,137.1689 M80.6944,138.4829 C80.0534,138.1389 79.5504,137.6639 79.1884,137.0589 C78.8244,136.4539 78.6434,135.7729 78.6434,135.0189 C78.6434,134.2629 78.8244,133.5829 79.1884,132.9779 C79.5504,132.3729 80.0534,131.8979 80.6944,131.5529 C81.3364,131.2089 82.0574,131.0359 82.8564,131.0359 C83.6554,131.0359 84.3744,131.2089 85.0124,131.5529 C85.6504,131.8979 86.1514,132.3729 86.5194,132.9779 C86.8854,133.5829 87.0684,134.2629 87.0684,135.0189 C87.0684,135.7729 86.8854,136.4539 86.5194,137.0589 C86.1514,137.6639 85.6504,138.1389 85.0124,138.4829 C84.3744,138.8279 83.6554,138.9999 82.8564,138.9999 C82.0574,138.9999 81.3364,138.8279 80.6944,138.4829" id="Fill-52" fill="#8D8D8C" mask="url(#mask-6)"></path>
                    <polygon id="Fill-53" fill="#8D8D8C" mask="url(#mask-6)" points="95.4175 138.8682 95.4065 134.2482 93.1415 138.0542 92.3375 138.0542 90.0825 134.3472 90.0825 138.8682 88.4105 138.8682 88.4105 131.1682 89.8855 131.1682 92.7675 135.9532 95.6045 131.1682 97.0675 131.1682 97.0895 138.8682"></polygon>
                    <path d="M103.3706,134.9463 C103.6486,134.7163 103.7886,134.3873 103.7886,133.9623 C103.7886,133.5293 103.6486,133.1973 103.3706,132.9673 C103.0926,132.7353 102.6846,132.6203 102.1496,132.6203 L100.6976,132.6203 L100.6976,135.2933 L102.1496,135.2933 C102.6846,135.2933 103.0926,135.1773 103.3706,134.9463 M104.0246,131.5083 C104.5276,131.7363 104.9146,132.0593 105.1856,132.4773 C105.4566,132.8953 105.5926,133.3903 105.5926,133.9623 C105.5926,134.5273 105.4566,135.0203 105.1856,135.4413 C104.9146,135.8633 104.5276,136.1863 104.0246,136.4093 C103.5226,136.6333 102.9316,136.7453 102.2486,136.7453 L100.6976,136.7453 L100.6976,138.8683 L98.9156,138.8683 L98.9156,131.1683 L102.2486,131.1683 C102.9316,131.1683 103.5226,131.2823 104.0246,131.5083" id="Fill-54" fill="#8D8D8C" mask="url(#mask-6)"></path>
                    <path d="M110.9829,135.8652 L109.7619,132.9172 L108.5409,135.8652 L110.9829,135.8652 Z M111.5439,137.2182 L107.9689,137.2182 L107.2869,138.8682 L105.4609,138.8682 L108.8929,131.1682 L110.6529,131.1682 L114.0959,138.8682 L112.2259,138.8682 L111.5439,137.2182 Z" id="Fill-55" fill="#8D8D8C" mask="url(#mask-6)"></path>
                    <polygon id="Fill-56" fill="#8D8D8C" mask="url(#mask-6)" points="121.9604 131.168 121.9604 138.868 120.4974 138.868 116.6584 134.193 116.6584 138.868 114.8984 138.868 114.8984 131.168 116.3724 131.168 120.2004 135.843 120.2004 131.168"></polygon>
                    <polygon id="Fill-57" fill="#8D8D8C" mask="url(#mask-6)" points="127.4829 136.1406 127.4829 138.8686 125.7009 138.8686 125.7009 136.1186 122.7189 131.1676 124.6119 131.1676 126.6689 134.5886 128.7249 131.1676 130.4739 131.1676"></polygon>
                </g>
            </g>
        </g>
    </g>
</svg>