<?xml version="1.0" encoding="utf-8"?>
<!-- Generator: Adobe Illustrator 22.1.0, SVG Export Plug-In . SVG Version: 6.00 Build 0)  -->
<svg version="1.1" id="Layer_1" xmlns="http://www.w3.org/2000/svg" xmlns:xlink="http://www.w3.org/1999/xlink" x="0px" y="0px"
	 width="122px" height="92px" viewBox="0 0 122 92" style="enable-background:new 0 0 122 92;" xml:space="preserve">
<style type="text/css">
	.st0{filter:url(#Adobe_OpacityMaskFilter);}
	.st1{fill:#FFFFFF;}
	.st2{mask:url(#mask-2_1_);}
	.st3{fill:#FFFFFF;stroke:#F22D1C;stroke-width:3;}
</style>
<title>Group</title>
<desc>Created with Sketch.</desc>
<g id="Other-pages">
	<g id="Error-message" transform="translate(-616.000000, -561.000000)">
		<g id="Group" transform="translate(616.000000, 563.000000)">
			<g id="Group-8" transform="translate(0.000000, 12.000000)">
				<g id="Group-3">
					<g id="Clip-2">
					</g>
					<defs>
						<filter id="Adobe_OpacityMaskFilter" filterUnits="userSpaceOnUse" x="0" y="0" width="102.8" height="78">
							<feColorMatrix  type="matrix" values="1 0 0 0 0  0 1 0 0 0  0 0 1 0 0  0 0 0 1 0"/>
						</filter>
					</defs>
					<mask maskUnits="userSpaceOnUse" x="0" y="0" width="102.8" height="78" id="mask-2_1_">
						<g class="st0">
							<polygon id="path-1_1_" class="st1" points="0,0 102.8,0 102.8,78 0,78 							"/>
						</g>
					</mask>
					<path id="Fill-1" class="st2" d="M99,51.9c-3.2-5-7.9-9.4-12.4-12.9c5-3.9,9.5-8.2,12.4-12.8V51.9z M14.8,74.3
						c-6.1,0-11-5-11-11c0-8.3,8.6-16.4,16.2-22c12.9,8.8,27.9,14.7,31.9,14.7c4.1,0,19-5.8,31.7-14.6C90.8,46.8,99,54.8,99,63.2
						c0,6.1-5,11-11,11H14.8z M3.7,25.9c3.1,4.7,7.7,9.2,13,13.1C12,42.6,7,47.1,3.7,52.1V25.9z M88,3.7c6.1,0,11,5,11,11
						c0,19-40.7,37.5-47.2,37.5c-6.5,0-48.1-19-48.1-37.5c0-6.1,5-11,11-11H88z M88.5,0H88H14.8h-0.5C6.4,0,0,6.4,0,14.2v49.5
						C0,71.6,6.4,78,14.2,78h0.5H88h0.5c7.9,0,14.2-6.4,14.2-14.2V14.2C102.8,6.4,96.4,0,88.5,0z"/>
				</g>
				<path id="Fill-4" d="M35.7,26.4h33c1,0,1.9-0.8,1.9-1.9c0-1-0.8-1.9-1.9-1.9h-33c-1,0-1.9,0.8-1.9,1.9
					C33.8,25.5,34.7,26.4,35.7,26.4"/>
				<path id="Fill-6" d="M35.3,33.8h33c1,0,1.9-0.8,1.9-1.9s-0.8-1.9-1.9-1.9h-33c-1,0-1.9,0.8-1.9,1.9S34.3,33.8,35.3,33.8"/>
			</g>
			<circle id="Oval" class="st3" cx="100" cy="20" r="20"/>
		</g>
	</g>
</g>
</svg>
