<?xml version="1.0" encoding="utf-8"?>
<!-- Generator: Adobe Illustrator 22.1.0, SVG Export Plug-In . SVG Version: 6.00 Build 0)  -->
<svg version="1.1" id="Layer_1" xmlns="http://www.w3.org/2000/svg" xmlns:xlink="http://www.w3.org/1999/xlink" x="0px" y="0px"
	 viewBox="0 0 110 25" style="enable-background:new 0 0 110 25;" xml:space="preserve">
<style type="text/css">
	.st0{fill:#FFFFFF;}
</style>
<title>Group 10</title>
<desc>Created with Sketch.</desc>
<g id="Responsive">
	<g id="Project-view-mobile" transform="translate(-26.000000, -28.000000)">
		<g id="Group-10" transform="translate(25.000000, 25.000000)">
			<g id="Group-4">
				<path id="MERCURY99" class="st0" d="M12.2,16l0-7.1l-3.5,5.9H7.5L4,9v7H1.4V4.1h2.3l4.5,7.4l4.4-7.4h2.3l0,11.9H12.2z
					 M26.9,13.8V16h-9.2V4.1h9v2.2h-6.3v2.6h5.5V11h-5.5v2.8H26.9z M36.6,16l-2.3-3.3h-2.5V16h-2.8V4.1h5.2c1.1,0,2,0.2,2.7,0.5
					s1.4,0.8,1.8,1.5s0.6,1.4,0.6,2.3s-0.2,1.6-0.6,2.3c-0.4,0.6-1,1.1-1.8,1.5l2.7,3.8H36.6z M36.6,8.4c0-0.7-0.2-1.2-0.6-1.5
					s-1.1-0.5-1.9-0.5h-2.2v4.1h2.2c0.8,0,1.5-0.2,1.9-0.5C36.4,9.6,36.6,9.1,36.6,8.4z M47.2,16.2c-1.2,0-2.3-0.3-3.3-0.8
					c-1-0.5-1.8-1.3-2.3-2.2c-0.6-0.9-0.8-2-0.8-3.2s0.3-2.2,0.8-3.2C42.2,5.9,43,5.2,44,4.7c1-0.5,2.1-0.8,3.3-0.8
					c1,0,2,0.2,2.8,0.5s1.5,0.9,2.1,1.6l-1.8,1.6c-0.8-0.9-1.8-1.4-3-1.4c-0.7,0-1.4,0.2-2,0.5c-0.6,0.3-1,0.8-1.4,1.4
					c-0.3,0.6-0.5,1.2-0.5,2s0.2,1.4,0.5,2c0.3,0.6,0.8,1,1.4,1.4s1.2,0.5,2,0.5c1.2,0,2.2-0.5,3-1.4l1.8,1.6
					c-0.6,0.7-1.3,1.2-2.1,1.6C49.2,16,48.3,16.2,47.2,16.2z M59.2,16.2c-1.7,0-3-0.5-4-1.4c-0.9-0.9-1.4-2.3-1.4-4V4.1h2.8v6.6
					c0,2.1,0.9,3.2,2.7,3.2c0.9,0,1.5-0.3,2-0.8c0.5-0.5,0.7-1.3,0.7-2.4V4.1h2.7v6.7c0,1.7-0.5,3.1-1.4,4
					C62.2,15.7,60.9,16.2,59.2,16.2z M74.9,16l-2.3-3.3h-2.5V16h-2.8V4.1h5.2c1.1,0,2,0.2,2.7,0.5s1.4,0.8,1.8,1.5
					c0.4,0.6,0.6,1.4,0.6,2.3s-0.2,1.6-0.6,2.3c-0.4,0.6-1,1.1-1.8,1.5l2.7,3.8H74.9z M74.8,8.4c0-0.7-0.2-1.2-0.6-1.5
					c-0.4-0.4-1.1-0.5-1.9-0.5h-2.2v4.1h2.2c0.8,0,1.5-0.2,1.9-0.5C74.6,9.6,74.8,9.1,74.8,8.4z M85.3,11.8V16h-2.8v-4.2L78,4.1h2.9
					l3.2,5.3l3.2-5.3H90L85.3,11.8z M94.2,3.9c1.7,0,3,0.5,3.9,1.5c0.9,1,1.4,2.5,1.4,4.4c0,1.3-0.3,2.5-0.8,3.5s-1.2,1.7-2.1,2.2
					c-0.9,0.5-2,0.7-3.2,0.7c-0.6,0-1.2-0.1-1.8-0.2s-1.1-0.3-1.5-0.6l1-2c0.6,0.4,1.3,0.6,2.2,0.6c1,0,1.8-0.3,2.4-0.9
					c0.6-0.6,0.9-1.5,1-2.6c-0.7,0.7-1.7,1.1-3,1.1c-0.8,0-1.5-0.2-2.1-0.5s-1.1-0.7-1.5-1.3c-0.4-0.6-0.5-1.2-0.5-1.9
					c0-0.8,0.2-1.5,0.6-2.1s0.9-1.1,1.6-1.4C92.6,4.1,93.4,3.9,94.2,3.9z M94.5,9.5c0.6,0,1.1-0.2,1.5-0.5c0.4-0.3,0.6-0.8,0.6-1.3
					s-0.2-0.9-0.6-1.3C95.6,6.1,95.1,6,94.4,6c-0.6,0-1.1,0.2-1.4,0.5c-0.4,0.3-0.6,0.7-0.6,1.3c0,0.5,0.2,1,0.6,1.3
					C93.3,9.3,93.8,9.5,94.5,9.5z M105.1,3.9c1.7,0,3,0.5,3.9,1.5s1.4,2.5,1.4,4.4c0,1.3-0.3,2.5-0.8,3.5c-0.5,1-1.2,1.7-2.1,2.2
					c-0.9,0.5-2,0.7-3.2,0.7c-0.6,0-1.2-0.1-1.8-0.2s-1.1-0.3-1.5-0.6l1-2c0.6,0.4,1.3,0.6,2.2,0.6c1,0,1.8-0.3,2.4-0.9
					c0.6-0.6,0.9-1.5,1-2.6c-0.7,0.7-1.7,1.1-3,1.1c-0.8,0-1.5-0.2-2.1-0.5s-1.1-0.7-1.5-1.3c-0.4-0.6-0.5-1.2-0.5-1.9
					c0-0.8,0.2-1.5,0.6-2.1s0.9-1.1,1.6-1.4C103.5,4.1,104.2,3.9,105.1,3.9z M105.3,9.5c0.6,0,1.1-0.2,1.5-0.5
					c0.4-0.3,0.6-0.8,0.6-1.3s-0.2-0.9-0.6-1.3c-0.4-0.3-0.9-0.5-1.5-0.5c-0.6,0-1.1,0.2-1.4,0.5c-0.4,0.3-0.6,0.7-0.6,1.3
					c0,0.5,0.2,1,0.6,1.3C104.2,9.3,104.7,9.5,105.3,9.5z"/>
				<path id="Building-company" class="st0" d="M5.2,24.5c0.3,0.1,0.5,0.2,0.7,0.4c0.2,0.2,0.2,0.5,0.2,0.8c0,0.4-0.2,0.8-0.5,1
					S4.8,27,4.1,27H1.6v-4.9H4c0.6,0,1.1,0.1,1.4,0.3c0.3,0.2,0.5,0.5,0.5,0.9c0,0.2-0.1,0.5-0.2,0.6C5.5,24.2,5.4,24.3,5.2,24.5z
					 M2.7,23v1.2h1.1c0.3,0,0.5,0,0.6-0.1c0.1-0.1,0.2-0.2,0.2-0.4s-0.1-0.3-0.2-0.4C4.3,23,4.1,23,3.8,23H2.7z M4,26.1
					c0.3,0,0.5,0,0.7-0.1c0.2-0.1,0.2-0.2,0.2-0.5c0-0.4-0.3-0.6-0.9-0.6H2.7v1.2H4z M9.1,27.1c-0.7,0-1.2-0.2-1.6-0.6
					c-0.4-0.4-0.6-0.9-0.6-1.7v-2.7H8v2.7c0,0.9,0.4,1.3,1.1,1.3c0.4,0,0.6-0.1,0.8-0.3c0.2-0.2,0.3-0.5,0.3-1v-2.7h1.1v2.7
					c0,0.7-0.2,1.3-0.6,1.7C10.4,26.9,9.8,27.1,9.1,27.1z M12.5,22.1h1.1V27h-1.1V22.1z M14.7,22.1h1.1v4h2.5V27h-3.6V22.1z
					 M19,22.1h2.2c0.5,0,1,0.1,1.4,0.3c0.4,0.2,0.7,0.5,1,0.9c0.2,0.4,0.3,0.8,0.3,1.3c0,0.5-0.1,0.9-0.3,1.3
					c-0.2,0.4-0.5,0.7-1,0.9c-0.4,0.2-0.9,0.3-1.4,0.3H19V22.1z M21.1,26.1c0.5,0,0.9-0.1,1.2-0.4s0.4-0.6,0.4-1.1s-0.1-0.8-0.4-1.1
					S21.6,23,21.1,23h-1v3H21.1z M24.8,22.1h1.1V27h-1.1V22.1z M31.5,22.1V27h-0.9l-2.4-3v3h-1.1v-4.9H28l2.4,3v-3H31.5z M36,24.5h1
					v2c-0.3,0.2-0.6,0.4-0.9,0.5s-0.7,0.2-1.1,0.2c-0.5,0-1-0.1-1.4-0.3c-0.4-0.2-0.7-0.5-1-0.9c-0.2-0.4-0.3-0.8-0.3-1.3
					c0-0.5,0.1-0.9,0.3-1.3c0.2-0.4,0.6-0.7,1-0.9c0.4-0.2,0.9-0.3,1.4-0.3c0.4,0,0.8,0.1,1.2,0.2s0.6,0.4,0.9,0.6l-0.7,0.7
					c-0.3-0.4-0.8-0.6-1.3-0.6c-0.3,0-0.6,0.1-0.8,0.2c-0.2,0.1-0.4,0.3-0.6,0.6c-0.1,0.2-0.2,0.5-0.2,0.8c0,0.3,0.1,0.6,0.2,0.8
					s0.3,0.4,0.6,0.6c0.2,0.1,0.5,0.2,0.8,0.2c0.3,0,0.6-0.1,0.9-0.2V24.5z M42.4,27.1c-0.5,0-1-0.1-1.4-0.3c-0.4-0.2-0.7-0.5-1-0.9
					c-0.2-0.4-0.3-0.8-0.3-1.3c0-0.5,0.1-0.9,0.3-1.3c0.2-0.4,0.5-0.7,1-0.9c0.4-0.2,0.9-0.3,1.4-0.3c0.4,0,0.8,0.1,1.2,0.2
					s0.6,0.4,0.9,0.6l-0.7,0.7C43.4,23.2,43,23,42.5,23c-0.3,0-0.6,0.1-0.8,0.2c-0.2,0.1-0.4,0.3-0.6,0.6c-0.1,0.2-0.2,0.5-0.2,0.8
					c0,0.3,0.1,0.6,0.2,0.8c0.1,0.2,0.3,0.4,0.6,0.6c0.2,0.1,0.5,0.2,0.8,0.2c0.5,0,0.9-0.2,1.2-0.6l0.7,0.7
					c-0.2,0.3-0.5,0.5-0.9,0.7C43.2,27,42.9,27.1,42.4,27.1z M47.5,27.1c-0.5,0-1-0.1-1.4-0.3c-0.4-0.2-0.7-0.5-1-0.9
					s-0.3-0.8-0.3-1.3s0.1-0.9,0.3-1.3c0.2-0.4,0.6-0.7,1-0.9c0.4-0.2,0.9-0.3,1.4-0.3c0.5,0,1,0.1,1.4,0.3c0.4,0.2,0.7,0.5,1,0.9
					c0.2,0.4,0.3,0.8,0.3,1.3s-0.1,0.9-0.3,1.3s-0.6,0.7-1,0.9C48.5,27,48,27.1,47.5,27.1z M47.5,26.1c0.3,0,0.6-0.1,0.8-0.2
					c0.2-0.1,0.4-0.3,0.5-0.6s0.2-0.5,0.2-0.8c0-0.3-0.1-0.6-0.2-0.8c-0.1-0.2-0.3-0.4-0.5-0.6C48,23,47.8,23,47.5,23
					c-0.3,0-0.6,0.1-0.8,0.2c-0.2,0.1-0.4,0.3-0.5,0.6C46,24,46,24.2,46,24.5c0,0.3,0.1,0.6,0.2,0.8s0.3,0.4,0.5,0.6
					C46.9,26.1,47.2,26.1,47.5,26.1z M55.5,27l0-2.9L54,26.5h-0.5l-1.4-2.4V27H51v-4.9H52l1.8,3l1.8-3h0.9l0,4.9H55.5z M59.8,22.1
					c0.4,0,0.8,0.1,1.1,0.2c0.3,0.1,0.6,0.3,0.7,0.6c0.2,0.3,0.3,0.6,0.3,0.9c0,0.4-0.1,0.7-0.3,0.9c-0.2,0.3-0.4,0.5-0.7,0.6
					s-0.7,0.2-1.1,0.2h-1V27h-1.1v-4.9H59.8z M59.8,24.7c0.3,0,0.6-0.1,0.8-0.2c0.2-0.1,0.3-0.4,0.3-0.6c0-0.3-0.1-0.5-0.3-0.6
					c-0.2-0.1-0.4-0.2-0.8-0.2h-0.9v1.7H59.8z M65.7,26h-2.3L63,27h-1.2l2.2-4.9h1.1l2.2,4.9h-1.2L65.7,26z M65.4,25.1l-0.8-1.9
					l-0.8,1.9H65.4z M72.4,22.1V27h-0.9L69,24v3h-1.1v-4.9h0.9l2.4,3v-3H72.4z M75.9,25.3V27h-1.1v-1.8l-1.9-3.1h1.2l1.3,2.2
					l1.3-2.2h1.1L75.9,25.3z"/>
			</g>
		</g>
	</g>
</g>
</svg>
