<svg xmlns="http://www.w3.org/2000/svg" xmlns:xlink="http://www.w3.org/1999/xlink" width="31" height="26" viewBox="0 0 31 26"><defs><path id="nrz8a" d="M99.03 743c.5 0 .9.4.9.9v20.17a4.64 4.64 0 0 1-4.63 4.63H73.63a4.64 4.64 0 0 1-4.63-4.63v-10.91c0-.07 0-.13.02-.18a2.76 2.76 0 0 1 3.45-2.48c.11-.07.2-.1.2-.1h3.8v-6.5c0-.5.4-.9.9-.9zm-22.56 17.22h-2.84a.9.9 0 0 1-.9-.9v-6.16a.97.97 0 0 0-1.94 0v10.9a2.85 2.85 0 0 0 5.68 0zm0-8.04h-2.13a2.72 2.72 0 0 1 .18.98v5.29h1.95zm21.67-7.4H78.26v19.29a4.6 4.6 0 0 1-.98 2.84H95.3a2.85 2.85 0 0 0 2.84-2.84zm-16.71 8.68a.9.9 0 0 1-.9-.89c0-.49.4-.88.9-.88h5.88c.5 0 .9.4.9.88 0 .5-.4.9-.9.9zm0-3.4a.9.9 0 0 1 0-1.79h5.88a.9.9 0 0 1 0 1.79zm0 7.05a.9.9 0 0 1-.9-.89c0-.49.4-.88.9-.88h13.55c.5 0 .9.4.9.88 0 .5-.4.9-.9.9zm8.6-5.35a.9.9 0 0 1 0-1.79h1.58v-1.57a.9.9 0 1 1 1.79 0v1.57h1.57a.9.9 0 0 1 0 1.8H93.4v1.57a.9.9 0 0 1-1.8 0v-1.58zm-8.6 8.9a.9.9 0 0 1 0-1.8h13.55a.9.9 0 0 1 0 1.8zm0 3.53a.9.9 0 0 1 0-1.79h13.55a.9.9 0 0 1 0 1.79z"/></defs><g><g transform="translate(-69 -743)"><g><use fill="#fa6a02" xlink:href="#nrz8a"/></g></g></g></svg>