<svg xmlns="http://www.w3.org/2000/svg" xmlns:xlink="http://www.w3.org/1999/xlink" width="12" height="17" viewBox="0 0 12 17"><defs><path id="l442a" d="M1163.16 720.57c1-.17 3.21-.31 4.88-.31 2.06 0 3.57.48 4.53 1.34.88.77 1.7 2.53 1.7 3.97 0 1.46-.43 2.9-1.24 3.74a7.59 7.59 0 0 1-5.22 2.07c-.63 0-1.2-.03-1.68-.15v5.87h-2.97zm2.97 8.37c.46.12 1.03.17 1.72.17 2.52 0 4.05-1.22 4.05-3.45 0-2.13-1.51-2.86-3.8-2.86-.92 0-1.61.07-1.97.17v5.97z"/><path id="l442b" d="M1176.49 718.94l-8.64-7.78-9.16 7.78v-2.55l9.06-8.39 9.91 8.39z"/></defs><g><g transform="translate(-1163 -720)"><use fill="#2c2c2c" xlink:href="#l442a"/></g><g transform="translate(-1163 -720)"><use fill="#2c2c2c" xlink:href="#l442b"/></g></g></svg>