<svg xmlns="http://www.w3.org/2000/svg" xmlns:xlink="http://www.w3.org/1999/xlink" width="18" height="18" viewBox="0 0 18 18"><defs><path id="90x1a" d="M1407.88 43.48l-3.37-1.75a1.11 1.11 0 0 0-1.38.3l-1.24 1.6a12.26 12.26 0 0 1-3.18-2.33 11.87 11.87 0 0 1-2.35-3.24l1.57-1.23c.42-.33.55-.91.3-1.39l-1.74-3.35a1.13 1.13 0 0 0-1.6-.42l-2.15 1.44c-.49.34-.77.91-.74 1.5.04.6.12 1.38.27 1.91.62 2.4 2.12 4.9 4.24 7a16.1 16.1 0 0 0 7 4.24c.52.13 1.3.2 1.93.26.6.04 1.2-.24 1.51-.75l1.4-2.18c.3-.57.1-1.31-.47-1.61"/><path id="90x1b" d="M1401.06 37.07c.42.12.84.34 1.16.68.34.34.57.74.68 1.16.1.34.42.57.78.55h.08c.49-.02.85-.5.72-.97a4.24 4.24 0 0 0-2.97-2.97.77.77 0 0 0-.98.72v.07c-.03.34.2.67.53.76"/><path id="90x1c" d="M1401.28 34.34a5.37 5.37 0 0 1 4.32 4.32.8.8 0 0 0 .82.65h.05a.76.76 0 0 0 .72-.91 7.12 7.12 0 0 0-1.93-3.74 6.8 6.8 0 0 0-3.73-1.93.78.78 0 0 0-.91.72v.06c0 .41.28.76.66.83"/><path id="90x1d" d="M1409.96 38.29a9.69 9.69 0 0 0-8.28-8.28.78.78 0 0 0-.89.74v.07c-.02.42.29.76.68.82a8.16 8.16 0 0 1 6.88 6.88c.06.4.4.7.82.68h.07a.82.82 0 0 0 .72-.91"/></defs><g><g transform="translate(-1392 -30)"><g><use fill="#fff" xlink:href="#90x1a"/></g><g><use fill="#fff" xlink:href="#90x1b"/></g><g><use fill="#fff" xlink:href="#90x1c"/></g><g><use fill="#fff" xlink:href="#90x1d"/></g></g></g></svg>