<?xml version="1.0" encoding="utf-8"?>
<!-- Generator: Adobe Illustrator 22.1.0, SVG Export Plug-In . SVG Version: 6.00 Build 0)  -->
<svg version="1.1" id="Layer_1" xmlns="http://www.w3.org/2000/svg" xmlns:xlink="http://www.w3.org/1999/xlink" x="0px" y="0px"
	 width="68px" height="65px" viewBox="0 0 68 65" style="enable-background:new 0 0 68 65;" xml:space="preserve">
<style type="text/css">
	.st0{fill:#FA6A02;}
	.st1{fill:#FFFFFF;}
</style>
<title>Group</title>
<desc>Created with Sketch.</desc>
<g id="Design">
	<g id="Desktop-HD-Copy" transform="translate(-499.000000, -416.000000)">
		<g id="Group" transform="translate(499.000000, 416.000000)">
			<path id="Rectangle" class="st0" d="M4,0h60c2.2,0,4,1.8,4,4v51c0,2.2-1.8,4-4,4H4c-2.2,0-4-1.8-4-4V4C0,1.8,1.8,0,4,0z"/>
			<g id="Group-13" transform="translate(18.000000, 14.000000)">
				<path id="Fill-1" class="st1" d="M21,0l-10,5.3v6.9L0,16.4V31h11.8h10.9H31V5.3L21,0z M12.5,6.2L21,1.6l8.6,4.6v23.4h-7V12.7
					l-7.2-2.2l-2.9,1.1V6.2z M16.2,12.3l5,1.5v15.8h-5V12.3z M1.4,17.4l13.3-5v17.2h-3H1.4V17.4z"/>
				<polygon id="Fill-2" class="st1" points="25,12 26,12 26,8 25,8 				"/>
				<polygon id="Fill-3" class="st1" points="25,17 26,17 26,13 25,13 				"/>
				<polygon id="Fill-4" class="st1" points="25,22 26,22 26,18 25,18 				"/>
				<polygon id="Fill-5" class="st1" points="25,28 26,28 26,24 25,24 				"/>
				<g id="Group-12" transform="translate(2.000000, 16.000000)">
					<path id="Fill-6" class="st1" d="M0.8,4.5c0,0,0.1,0,0.2,0l10-2.7c0.4-0.1,0.6-0.5,0.5-0.9s-0.5-0.6-0.8-0.5l-10,2.7
						C0.3,3.2,0.1,3.6,0.2,4C0.3,4.3,0.5,4.5,0.8,4.5"/>
					<path id="Fill-8" class="st1" d="M10.8,5.1l-10,1.7c-0.4,0-0.6,0.4-0.6,0.8c0,0.4,0.4,0.6,0.7,0.6h0.1l10-1.7
						c0.4,0,0.6-0.4,0.6-0.8C11.5,5.3,11.2,5,10.8,5.1"/>
					<path id="Fill-10" class="st1" d="M10.8,9.5l-10,0.9c-0.4,0-0.7,0.4-0.6,0.8c0,0.4,0.3,0.6,0.7,0.6h0l10-0.9
						c0.4,0,0.7-0.4,0.6-0.8C11.6,9.8,11.2,9.5,10.8,9.5"/>
				</g>
			</g>
			<polygon id="Triangle" class="st0" points="34.5,65 22,54 47,54 			"/>
		</g>
	</g>
</g>
</svg>
