<?xml version="1.0" encoding="utf-8"?>
<!-- Generator: Adobe Illustrator 22.1.0, SVG Export Plug-In . SVG Version: 6.00 Build 0)  -->
<svg version="1.1" id="Layer_1" xmlns="http://www.w3.org/2000/svg" xmlns:xlink="http://www.w3.org/1999/xlink" x="0px" y="0px"
	 width="75px" height="102px" viewBox="0 0 75 102" style="enable-background:new 0 0 75 102;" xml:space="preserve">
<style type="text/css">
	.st0{fill:#FA6A02;}
	.st1{fill:#FFFFFF;}
</style>
<title>Group 12</title>
<desc>Created with Sketch.</desc>
<g id="Design">
	<g id="Contact" transform="translate(-632.000000, -1680.000000)">
		<g id="Group-12" transform="translate(632.000000, 1680.000000)">
			<path id="Fill-1" class="st0" d="M23.9,81.6h27.3L37.5,102L23.9,81.6z M37.5,0C58,0,75,17,75,37.4S58,74.8,37.5,74.8
				S0,57.8,0,37.4S17,0,37.5,0z"/>
			<g id="Group-36" transform="translate(12.000000, 18.000000)">
				<polyline id="Fill-1_1_" class="st1" points="36.4,9.9 48.8,31.3 49,31.7 48.5,31.7 2.2,31.7 1.7,31.7 2,31.3 19.5,1.5 
					19.6,1.4 19.7,1.4 31.3,1.4 31.5,1.4 31.6,1.5 36.8,10.6 				"/>
				<path id="Fill-2" class="st1" d="M19,0.4L1.1,30.8L0,32.7l50.7,0L37.7,10.1l0,0l-5.6-9.7H19z M20.1,2.4h10.8l4.6,8l0,0
					l11.7,20.3H3.5L20.1,2.4z"/>
				<g id="Group-35" transform="translate(12.805195, 0.127409)">
					<path id="Fill-3" class="st0" d="M18.7,17.8h-3.1c0.3-0.7,1.5-3.6,2.2-5.1c0.8-1.7-1.7-2.1-1.7-0.6c0,0.6,0.5,1,1.1,0.9
						l-1.3,2.8c-1.8-0.8-2.7-1.8-2.7-3.8c0-1.1,0.4-2,1.1-2.8c0.7-0.8,1.7-1.1,2.8-1.1c1,0,1.9,0.4,2.7,1.1c0.8,0.8,1.2,1.6,1.2,2.6
						c0,0.5-0.1,1.2-0.5,2.2L18.7,17.8z"/>
					<path id="Fill-5" class="st0" d="M10.7,17.7H7.6c0.3-0.7,1.5-3.6,2.2-5.1c0.8-1.7-1.7-2.1-1.7-0.6c0,0.6,0.5,1,1.1,0.9
						l-1.3,2.8c-1.8-0.8-2.7-1.8-2.7-3.8c0-1.1,0.4-2,1.1-2.8C7,8.4,8,8,9,8c1,0,1.9,0.4,2.7,1.1c0.8,0.8,1.2,1.6,1.2,2.6
						c0,0.5-0.1,1.2-0.5,2.2L10.7,17.7z"/>
					<polygon id="Fill-7" class="st0" points="6.6,22.2 7,19.4 7.9,19.4 7.9,23.3 7.3,23.3 7.3,20.5 6.9,23.3 6.3,23.3 5.8,20.6 
						5.8,23.3 5.3,23.3 5.3,19.4 6.2,19.4 					"/>
					<polygon id="Fill-9" class="st0" points="8.9,21.1 9.8,21.1 9.8,21.6 8.9,21.6 8.9,22.8 10,22.8 10,23.3 8.3,23.3 8.3,19.4 
						10,19.4 10,20 8.9,20 					"/>
					<path id="Fill-11" class="st0" d="M11,20v1.2h0.2c0.2,0,0.4-0.1,0.4-0.4v-0.4c0-0.3-0.1-0.4-0.3-0.4H11z M11.7,23.3
						c0-0.1-0.1-0.2-0.1-0.5v-0.6c0-0.4-0.1-0.5-0.4-0.5H11v1.6h-0.6v-3.9h0.9c0.6,0,0.9,0.3,0.9,0.9v0.3c0,0.4-0.1,0.7-0.4,0.8
						c0.3,0.1,0.4,0.4,0.4,0.8v0.6c0,0.2,0,0.3,0.1,0.5H11.7z"/>
					<path id="Fill-13" class="st0" d="M14.4,21.9v0.5c0,0.6-0.3,1-0.9,1c-0.6,0-0.9-0.4-0.9-1v-2c0-0.6,0.3-1,0.9-1
						c0.6,0,0.9,0.4,0.9,1v0.4h-0.6v-0.4c0-0.3-0.1-0.4-0.3-0.4s-0.3,0.1-0.3,0.4v2.1c0,0.3,0.1,0.4,0.3,0.4s0.3-0.1,0.3-0.4v-0.6
						H14.4z"/>
					<path id="Fill-15" class="st0" d="M15.4,19.4v3c0,0.3,0.1,0.4,0.3,0.4c0.2,0,0.3-0.1,0.3-0.4v-3h0.6v3c0,0.6-0.3,1-0.9,1
						c-0.6,0-0.9-0.4-0.9-1v-3H15.4z"/>
					<path id="Fill-17" class="st0" d="M17.6,20v1.2h0.2c0.2,0,0.4-0.1,0.4-0.4v-0.4c0-0.3-0.1-0.4-0.3-0.4H17.6z M18.3,23.3
						c0-0.1-0.1-0.2-0.1-0.5v-0.6c0-0.4-0.1-0.5-0.4-0.5h-0.2v1.6H17v-3.9h0.9c0.6,0,0.9,0.3,0.9,0.9v0.3c0,0.4-0.1,0.7-0.4,0.8
						c0.3,0.1,0.4,0.4,0.4,0.8v0.6c0,0.2,0,0.3,0.1,0.5H18.3z"/>
					<polygon id="Fill-19" class="st0" points="19.8,22 19,19.4 19.7,19.4 20.1,21.2 20.6,19.4 21.2,19.4 20.4,22 20.4,23.3 
						19.8,23.3 					"/>
					<polyline id="Fill-21" class="st1" points="23.3,3.5 23.2,3.5 28,3.5 28,17.2 					"/>
					<polygon id="Fill-23" class="st1" points="29.1,17.2 27,17.2 27,4.5 23.2,4.5 23.2,2.5 29.1,2.5 					"/>
					<polygon id="Fill-25" class="st1" points="22.2,9 24.3,9 24.3,2.5 22.2,2.5 					"/>
					<polygon id="Fill-29" class="st1" points="23.1,13.4 25.1,13.4 25.1,7 23.1,7 					"/>
					<polygon id="Fill-30" class="st1" points="24.7,14.3 26.7,14.3 26.7,7.8 24.7,7.8 					"/>
					<polygon id="Fill-31" class="st1" points="23.9,12.6 25.9,12.6 25.9,6.2 23.9,6.2 					"/>
					<polyline id="Fill-32" class="st0" points="12.7,0.2 14,3.3 15.2,0.2 					"/>
					<polyline id="Fill-33" class="st0" points="5.1,33.9 2.5,27.6 0,33.9 					"/>
					<polyline id="Fill-33_1_" class="st0" points="25.7,33.9 23.2,27.6 20.6,33.9 					"/>
				</g>
			</g>
		</g>
	</g>
</g>
</svg>
