<?xml version="1.0" encoding="utf-8"?>
<!-- Generator: Adobe Illustrator 22.1.0, SVG Export Plug-In . SVG Version: 6.00 Build 0)  -->
<svg version="1.1" id="Layer_1" xmlns="http://www.w3.org/2000/svg" xmlns:xlink="http://www.w3.org/1999/xlink" x="0px" y="0px"
	 width="22px" height="14px" viewBox="0 0 22 14" style="enable-background:new 0 0 22 14;" xml:space="preserve">
<style type="text/css">
	.st0{filter:url(#Adobe_OpacityMaskFilter);}
	.st1{fill:#FFFFFF;}
	.st2{mask:url(#mask-2_1_);fill:#FFFFFF;}
</style>
<title>Group 3</title>
<desc>Created with Sketch.</desc>
<g id="Design">
	<g id="Project-floor" transform="translate(-886.000000, -384.000000)">
		<g id="Group-13" transform="translate(735.000000, 301.000000)">
			<g id="Group-6" transform="translate(30.000000, 30.000000)">
				<g id="Group-11" transform="translate(115.000000, 43.000000)">
					<g id="Group-14">
						<g id="Group-3" transform="translate(6.000000, 10.000000)">
							<g id="Clip-2">
							</g>
							<defs>
								<filter id="Adobe_OpacityMaskFilter" filterUnits="userSpaceOnUse" x="0" y="0" width="22" height="13.9">
									<feColorMatrix  type="matrix" values="1 0 0 0 0  0 1 0 0 0  0 0 1 0 0  0 0 0 1 0"/>
								</filter>
							</defs>
							<mask maskUnits="userSpaceOnUse" x="0" y="0" width="22" height="13.9" id="mask-2_1_">
								<g class="st0">
									<polygon id="path-1_1_" class="st1" points="0,0 22,0 22,13.9 0,13.9 									"/>
								</g>
							</mask>
							<path id="Fill-1" class="st2" d="M21.1,11h-0.7h-0.9H2.5H1.6H0.9V7.1c0-0.4,0.3-0.7,0.7-0.7h0.8h3.2h3h4.7h3h3.2h0.8
								c0.4,0,0.7,0.3,0.7,0.7L21.1,11L21.1,11z M4.7,4.6c0-0.5,0.4-0.9,0.9-0.9h3c0.5,0,0.9,0.4,0.9,0.9c0,0.5-0.4,0.9-0.9,0.9h-3
								C5.2,5.5,4.7,5.1,4.7,4.6z M12.4,4.6c0-0.5,0.4-0.9,0.9-0.9h3c0.5,0,0.9,0.4,0.9,0.9c0,0.5-0.4,0.9-0.9,0.9h-3
								C12.8,5.5,12.4,5.1,12.4,4.6z M19.5,1.9v3.6h-1.7C18,5.3,18.1,5,18.1,4.6c0-1-0.8-1.8-1.8-1.8h-3c-1,0-1.8,0.8-1.8,1.8
								c0,0.3,0.1,0.7,0.3,0.9h-1.6c0.2-0.3,0.3-0.6,0.3-0.9c0-1-0.8-1.8-1.8-1.8h-3c-1,0-1.8,0.8-1.8,1.8c0,0.3,0.1,0.7,0.3,0.9
								H2.5V1.9H19.5z M20.4,5.5V1.9V1.5V0h-0.9v1.1H2.5V0H1.6v1.5v0.4v3.6C0.7,5.6,0,6.3,0,7.1v4.3c0,0.2,0.2,0.4,0.4,0.4h1.1v2
								h0.9v-2h17.1v2h0.9v-2h1.1c0.2,0,0.4-0.2,0.4-0.4V7.1C22,6.3,21.3,5.6,20.4,5.5z"/>
						</g>
					</g>
				</g>
			</g>
		</g>
	</g>
</g>
</svg>
