<?xml version="1.0" encoding="utf-8"?>
<!-- Generator: Adobe Illustrator 22.1.0, SVG Export Plug-In . SVG Version: 6.00 Build 0)  -->
<svg version="1.1" id="Layer_1" xmlns="http://www.w3.org/2000/svg" xmlns:xlink="http://www.w3.org/1999/xlink" x="0px" y="0px"
	 width="22px" height="19px" viewBox="0 0 22 19" style="enable-background:new 0 0 22 19;" xml:space="preserve">
<style type="text/css">
	.st0{fill:#FFFFFF;}
</style>
<title>Group 6</title>
<desc>Created with Sketch.</desc>
<g id="Design">
	<g id="Contact" transform="translate(-327.000000, -1166.000000)">
		<g id="Group-13" transform="translate(269.000000, 1145.000000)">
			<g id="Group-10" transform="translate(58.000000, 21.000000)">
				<g id="Group-11">
					<g id="Group-6">
						<g id="Group-3" transform="translate(0.000000, 0.336600)">
							<path id="Fill-1" class="st0" d="M2.6,7.3L7.7,10l9.6-7.2L2.6,7.3z M7.8,11.6c-0.1,0-0.2,0-0.3-0.1l-7-3.7C0.2,7.6,0,7.3,0,7
								c0-0.3,0.2-0.5,0.5-0.6L21,0.2c0.3-0.1,0.7,0,0.9,0.4c0.1,0.3,0,0.7-0.2,0.9L8.2,11.4C8.1,11.5,7.9,11.6,7.8,11.6z"/>
						</g>
						<path id="Fill-4" class="st0" d="M8.7,11.4l2.4,5.2L18.7,4L8.7,11.4z M11,18.9C11,18.9,11,18.9,11,18.9
							c-0.3,0-0.5-0.2-0.7-0.4l-3.2-7c-0.1-0.3,0-0.7,0.2-0.9l13.4-10c0.3-0.2,0.7-0.2,0.9,0c0.2,0.2,0.3,0.6,0.1,0.9l-10.2,17
							C11.5,18.8,11.3,18.9,11,18.9z"/>
					</g>
				</g>
			</g>
		</g>
	</g>
</g>
</svg>
