<svg xmlns="http://www.w3.org/2000/svg" xmlns:xlink="http://www.w3.org/1999/xlink" width="15" height="15" viewBox="0 0 15 15"><defs><path id="v3b0a" d="M1113.13 643a6.17 6.17 0 0 1 5.65 3.75 5.98 5.98 0 0 1 .14 4.43 6.03 6.03 0 0 1-1 1.78l3.88 3.87c.13.13.2.3.2.48a.66.66 0 0 1-.69.68.66.66 0 0 1-.48-.2l-3.87-3.86a6.03 6.03 0 0 1-6.2.85 6.17 6.17 0 0 1-3.27-3.26 5.98 5.98 0 0 1 0-4.77 6.16 6.16 0 0 1 3.26-3.26 5.99 5.99 0 0 1 2.38-.49zm0 1.36a4.8 4.8 0 0 0-4.77 4.78 4.8 4.8 0 0 0 2.92 4.4 4.66 4.66 0 0 0 3.7 0 4.8 4.8 0 0 0 2.92-4.4 4.8 4.8 0 0 0-2.92-4.4 4.66 4.66 0 0 0-1.85-.38z"/></defs><g><g transform="translate(-1107 -643)"><g><use fill="#fff" xlink:href="#v3b0a"/></g></g></g></svg>