<svg xmlns="http://www.w3.org/2000/svg" xmlns:xlink="http://www.w3.org/1999/xlink" width="20" height="15" viewBox="0 0 20 15"><defs><path id="9cfra" d="M1353.15 693.38c-.54-1-1.13-1.19-2.33-1.26-1.2-.08-4.2-.12-6.82-.12-2.61 0-5.62.04-6.82.12-1.2.07-1.79.25-2.33 1.26-.56 1-.85 2.72-.85 5.76 0 3.03.29 4.77.85 5.76.54 1 1.13 1.19 2.33 1.27 1.2.07 4.2.12 6.82.12 2.61 0 5.62-.05 6.82-.12 1.2-.08 1.79-.26 2.33-1.27.56-.99.85-2.73.85-5.75v-.01c0-3.04-.28-4.76-.85-5.76zm-11.53 9.1v-7.62l5.71 3.8z"/></defs><g><g transform="translate(-1334 -692)"><use fill="#fff" xlink:href="#9cfra"/></g></g></svg>